<svg width="168" height="136" viewBox="0 0 168 136" fill="none" xmlns="http://www.w3.org/2000/svg">
<path d="M75.5967 34.1928C72.3111 37.2103 66.047 38.7509 59.4046 35.0673C66.2244 42.5618 74.1873 42.3012 79.0927 38.5134C83.8035 34.4882 85.7045 26.7273 79.8015 18.4915C82.0185 25.7659 79.2209 31.5923 75.5967 34.1928Z" fill="white" fill-opacity="0.25"/>
<path d="M170.77 -2.50314C166.345 -1.99347 160.372 -4.44335 157.154 -11.3355C158.281 -1.25213 164.872 3.23064 171.064 3.05689C177.239 2.57618 183.322 -2.58422 183.374 -12.7255C180.902 -5.53219 175.223 -2.46839 170.77 -2.50314Z" fill="white" fill-opacity="0.25"/>
<path d="M269.277 23.9011C265.395 21.7003 262.005 16.204 263.443 8.73268C258.44 17.5534 261.144 25.0653 266.256 28.5692C271.53 31.8184 279.478 31.2334 285.469 23.0555C279.253 27.4225 272.864 26.5537 269.277 23.9011Z" fill="white" fill-opacity="0.25"/>
<path d="M333.486 103.317C331.643 99.2452 332.117 92.799 337.657 87.6038C328.443 91.7912 326.231 99.4652 328.305 105.309C330.673 111.049 337.443 115.259 347.084 112.178C339.494 112.039 334.832 107.574 333.486 103.317Z" fill="white" fill-opacity="0.25"/>
<path d="M338.884 205.401C339.773 201.023 343.938 196.088 351.471 195.15C341.558 193.105 335.273 198.011 333.523 203.965C332.073 210.002 335.083 217.398 344.689 220.585C338.629 216.004 337.48 209.643 338.884 205.401Z" fill="white" fill-opacity="0.25"/>
<path d="M283.4 291.176C286.687 288.158 292.949 286.619 299.592 290.299C292.776 282.804 284.81 283.064 279.906 286.853C275.192 290.881 273.292 298.639 279.195 306.878C276.983 299.601 279.779 293.775 283.4 291.176Z" fill="white" fill-opacity="0.25"/>
<path d="M188.231 327.867C192.656 327.362 198.629 329.808 201.841 336.7C200.72 326.617 194.123 322.136 187.937 322.31C181.762 322.793 175.679 327.948 175.621 338.094C178.093 330.899 183.772 327.834 188.231 327.867Z" fill="white" fill-opacity="0.25"/>
<path d="M89.7222 301.466C93.6006 303.666 96.996 309.164 95.5583 316.634C100.56 307.815 97.8532 300.304 92.7433 296.796C87.4659 293.549 79.5197 294.133 73.5289 302.309C79.7467 297.946 86.1367 298.813 89.7222 301.466Z" fill="white" fill-opacity="0.25"/>
<path d="M25.5092 222.053C27.3571 226.12 26.8811 232.568 21.3385 237.764C30.5555 233.578 32.7685 225.905 30.6907 220.056C28.3252 214.319 21.5545 210.109 11.9141 213.193C19.5021 213.327 24.1638 217.794 25.5092 222.053Z" fill="white" fill-opacity="0.25"/>
<path d="M20.1129 119.962C19.2244 124.34 15.0596 129.275 7.52754 130.213C17.4395 132.258 23.7278 127.358 25.4763 121.398C26.9257 115.363 23.9161 107.967 14.3092 104.782C20.3694 109.363 21.5212 115.722 20.1129 119.962Z" fill="white" fill-opacity="0.25"/>
<path d="M64.593 20.5826C61.7786 25.8936 67.7071 30.5791 71.3838 28.9805C73.7048 25.7024 70.3562 18.9146 64.593 20.5826Z" fill="white" fill-opacity="0.25"/>
<path d="M169.845 -20C164.455 -17.359 166.5 -10.0731 170.417 -9.20432C174.212 -10.4843 175.483 -17.9497 169.845 -20Z" fill="white" fill-opacity="0.25"/>
<path d="M278.785 9.20221C272.882 8.1597 270.265 15.2603 272.916 18.272C276.74 19.4709 282.141 14.1831 278.785 9.20221Z" fill="white" fill-opacity="0.25"/>
<path d="M349.8 97.027C345.635 92.7006 339.356 96.9054 339.737 100.907C342.129 104.133 349.598 103.033 349.8 97.027Z" fill="white" fill-opacity="0.25"/>
<path d="M355.768 209.929C354.93 203.976 347.386 203.675 345.353 207.139C345.393 211.155 352.083 214.671 355.768 209.929Z" fill="white" fill-opacity="0.25"/>
<path d="M294.409 304.787C297.222 299.477 291.29 294.789 287.616 296.389C285.294 299.664 288.644 306.45 294.409 304.787Z" fill="white" fill-opacity="0.25"/>
<path d="M189.155 345.365C194.545 342.728 192.494 335.441 188.583 334.57C184.782 335.851 183.517 343.314 189.155 345.365Z" fill="white" fill-opacity="0.25"/>
<path d="M80.2122 316.167C86.1187 317.21 88.7338 310.107 86.08 307.096C82.256 305.895 76.8538 311.185 80.2122 316.167Z" fill="white" fill-opacity="0.25"/>
<path d="M9.19619 228.342C13.3634 232.667 19.6425 228.462 19.2612 224.462C16.8715 221.236 9.40068 222.333 9.19619 228.342Z" fill="white" fill-opacity="0.25"/>
<path d="M3.22899 115.439C4.06485 121.393 11.6107 121.688 13.6464 118.23C13.6042 114.211 6.9173 110.695 3.22899 115.439Z" fill="white" fill-opacity="0.25"/>
<path d="M44.0325 128.313C40.3719 132.57 30.5258 134.632 34.983 136.161C39.2628 137.632 42.9315 136.04 44.7049 133.526C46.4783 131.012 44.7944 127.427 44.0325 128.313Z" fill="white" fill-opacity="0.25"/>
<path d="M49.7546 214.713C49.289 220.315 42.5305 227.784 47.0339 226.395C51.3587 225.064 53.3927 221.612 53.3534 218.533C53.3147 215.455 49.8511 213.547 49.7546 214.713Z" fill="white" fill-opacity="0.25"/>
<path d="M105.039 281.239C107.945 286.044 106.859 296.07 109.683 292.293C112.404 288.666 112.023 284.675 110.192 282.207C108.355 279.74 104.433 280.238 105.039 281.239Z" fill="white" fill-opacity="0.25"/>
<path d="M188.762 302.479C193.926 304.654 198.923 313.406 198.998 308.683C199.073 304.147 196.428 301.141 193.493 300.227C190.564 299.314 187.682 302.026 188.762 302.479Z" fill="white" fill-opacity="0.25"/>
<path d="M268.945 270.323C274.404 269.036 283.577 273.173 280.868 269.308C278.269 265.595 274.364 264.722 271.458 265.71C268.547 266.699 267.807 270.591 268.945 270.323Z" fill="white" fill-opacity="0.25"/>
<path d="M314.969 197.05C318.625 192.793 328.474 190.737 324.015 189.202C319.734 187.731 316.066 189.33 314.293 191.843C312.52 194.357 314.206 197.942 314.969 197.05Z" fill="white" fill-opacity="0.25"/>
<path d="M309.243 110.655C309.705 105.054 316.464 97.5831 311.964 98.9731C307.637 100.305 305.604 103.757 305.644 106.832C305.679 109.914 309.145 111.819 309.243 110.655Z" fill="white" fill-opacity="0.25"/>
<path d="M253.961 44.126C251.056 39.3247 252.142 29.2993 249.311 33.0754C246.596 36.701 246.972 40.6916 248.809 43.1588C250.646 45.6261 254.568 45.128 253.961 44.126Z" fill="white" fill-opacity="0.25"/>
<path d="M170.237 22.8878C165.067 20.716 160.07 11.9589 159.995 16.6849C159.926 21.2198 162.572 24.2257 165.5 25.1408C168.435 26.0559 171.317 23.3396 170.237 22.8878Z" fill="white" fill-opacity="0.25"/>
<path d="M90.0519 55.0433C84.5954 56.3291 75.4223 52.1938 78.1303 56.0626C80.7304 59.7751 84.633 60.6438 87.5415 59.6592C90.4494 58.6689 91.1888 54.7769 90.0519 55.0433Z" fill="white" fill-opacity="0.25"/>
<path d="M44.9994 124.694C43.9457 119.175 36.4374 112.462 41.0621 113.366C45.5042 114.229 47.89 117.449 48.1753 120.512C48.4613 123.576 45.2189 125.841 44.9994 124.694Z" fill="white" fill-opacity="0.25"/>
<path d="M48.4116 211.214C44.3236 207.371 34.3146 206.363 38.5858 204.37C42.6871 202.453 46.5031 203.647 48.5312 205.963C50.5599 208.272 49.2631 212.015 48.4116 211.214Z" fill="white" fill-opacity="0.25"/>
<path d="M101.901 279.198C96.3368 278.496 87.6517 283.582 89.9369 279.451C92.1308 275.484 95.9197 274.202 98.916 274.877C101.912 275.552 103.056 279.344 101.901 279.198Z" fill="white" fill-opacity="0.25"/>
<path d="M185.024 302.677C180.114 305.388 176.07 314.62 175.492 309.933C174.944 305.429 177.26 302.16 180.079 300.94C182.898 299.721 186.046 302.113 185.024 302.677Z" fill="white" fill-opacity="0.25"/>
<path d="M266.042 272.684C263.657 277.771 265.8 287.625 262.588 284.169C259.503 280.851 259.457 276.842 261.022 274.194C262.588 271.545 266.539 271.624 266.042 272.684Z" fill="white" fill-opacity="0.25"/>
<path d="M313.998 200.676C315.055 206.195 322.565 212.906 317.938 212.003C313.496 211.137 311.11 207.921 310.827 204.857C310.538 201.788 313.779 199.523 313.998 200.676Z" fill="white" fill-opacity="0.25"/>
<path d="M310.582 114.153C314.672 117.999 324.682 119.001 320.408 120.999C316.307 122.916 312.494 121.717 310.466 119.406C308.433 117.096 309.733 113.354 310.582 114.153Z" fill="white" fill-opacity="0.25"/>
<path d="M257.099 46.1704C262.662 46.8712 271.344 41.786 269.062 45.9155C266.867 49.8828 263.078 51.1628 260.08 50.491C257.088 49.8133 255.938 46.0256 257.099 46.1704Z" fill="white" fill-opacity="0.25"/>
<path d="M173.974 22.6909C178.884 19.9804 182.927 10.7485 183.499 15.4339C184.054 19.9399 181.737 23.2064 178.918 24.4284C176.099 25.6447 172.951 23.2527 173.974 22.6909Z" fill="white" fill-opacity="0.25"/>
<path d="M92.9559 52.6796C95.3404 47.5945 93.2002 37.7429 96.4119 41.1947C99.4972 44.5134 99.5417 48.527 97.9762 51.1738C96.4102 53.8206 92.4591 53.7395 92.9559 52.6796Z" fill="white" fill-opacity="0.25"/>
<path d="M85.4934 46.4308C78.6563 46.2802 71.2358 46.842 64.8776 46.7088C69.4474 52.6163 81.6469 51.6201 90.7911 52.9812C91.3549 43.7318 94.8497 31.9689 90.0286 26.2641C88.8444 32.5307 86.7614 39.6893 85.4934 46.4308Z" fill="white" fill-opacity="0.25"/>
<path d="M171.599 13.2331C166.157 9.08048 159.821 5.16528 154.755 1.30801C154.991 8.77929 165.441 15.1676 172.044 21.6543C177.924 14.5015 187.646 7.04762 187.092 -0.412079C182.459 3.96065 176.572 8.53027 171.599 13.2331Z" fill="white" fill-opacity="0.25"/>
<path d="M260.72 37.1178C258.75 30.5558 255.926 23.6521 254.089 17.5477C249.895 23.7332 254.609 35.0559 256.145 44.1952C265.099 41.8727 277.333 41.5716 281.256 35.2123C274.942 36.0174 267.508 36.2491 260.72 37.1178Z" fill="white" fill-opacity="0.25"/>
<path d="M318.822 108.969C321.08 102.494 322.836 95.2428 324.927 89.2253C317.909 91.7562 315.09 103.699 310.971 111.992C319.572 115.392 329.647 122.36 336.55 119.522C330.975 116.458 324.823 112.259 318.822 108.969Z" fill="white" fill-opacity="0.25"/>
<path d="M323.703 201.335C329.324 197.426 334.996 192.596 340.218 188.958C333.061 186.873 323.772 194.866 315.581 199.158C320.543 206.971 324.616 218.548 331.859 220.322C329.144 214.555 326.632 207.532 323.703 201.335Z" fill="white" fill-opacity="0.25"/>
<path d="M273.502 278.936C280.342 279.086 287.759 278.524 294.119 278.658C289.55 272.749 277.35 273.745 268.205 272.386C267.639 281.636 264.144 293.398 268.968 299.102C270.152 292.838 272.237 285.674 273.502 278.936Z" fill="white" fill-opacity="0.25"/>
<path d="M187.4 312.134C192.841 316.285 199.178 320.203 204.238 324.059C204.007 316.585 193.552 310.202 186.955 303.713C181.074 310.865 171.353 318.32 171.907 325.777C176.54 321.406 182.42 316.839 187.4 312.134Z" fill="white" fill-opacity="0.25"/>
<path d="M98.2732 288.247C100.244 294.813 103.072 301.715 104.909 307.82C109.103 301.636 104.384 290.311 102.853 281.172C93.9009 283.492 81.6645 283.795 77.7428 290.154C84.0513 289.348 91.4898 289.121 98.2732 288.247Z" fill="white" fill-opacity="0.25"/>
<path d="M40.1754 216.399C37.9203 222.872 36.1602 230.122 34.0685 236.143C41.0858 233.612 43.9105 221.671 48.0263 213.371C39.4245 209.975 29.349 203.01 22.4472 205.842C28.0239 208.908 34.1748 213.108 40.1754 216.399Z" fill="white" fill-opacity="0.25"/>
<path d="M35.2945 124.034C29.6745 127.943 24.0008 132.768 18.7782 136.405C25.94 138.496 35.2257 130.497 43.4203 126.212C38.4531 118.393 34.3858 106.821 27.1409 105.043C29.8553 110.812 32.3687 117.837 35.2945 124.034Z" fill="white" fill-opacity="0.25"/>
<path d="M93.498 56.329C89.4926 56.995 88.8774 63.0995 93.2144 65.9085C95.7208 67.5359 98.9782 67.5996 101.706 66.4761C103.364 64.032 103.976 60.8234 102.907 58.0318C101.059 53.1957 94.9762 52.5354 93.498 56.329ZM98.1406 62.0686C97.6953 61.9238 97.2245 61.6284 96.7508 61.1361C96.8744 61.0434 96.9877 60.9218 97.0859 60.7655C97.2574 60.7018 97.4047 60.6149 97.5179 60.5106C97.898 61.0782 98.0927 61.5995 98.1406 62.0686Z" fill="white" fill-opacity="0.25"/>
<path d="M172.269 25.9576C168.641 24.1332 164.563 28.7086 166.423 33.5389C167.498 36.3305 170.097 38.3055 172.962 39.0005C175.735 38.0043 178.109 35.7687 178.883 32.8787C180.229 27.8804 175.689 23.7568 172.269 25.9576ZM172.662 33.3362C172.384 32.9597 172.182 32.4385 172.084 31.7609C172.234 31.7609 172.402 31.7261 172.575 31.6566C172.748 31.7087 172.916 31.7261 173.072 31.7087C173.043 32.3922 172.899 32.9308 172.662 33.3362Z" fill="white" fill-opacity="0.25"/>
<path d="M253.81 47.809C251.939 44.195 245.954 45.4982 244.631 50.5022C243.863 53.3922 244.81 56.5197 246.717 58.7727C249.547 59.6009 252.776 59.1897 255.098 57.3074C259.113 54.0525 257.86 48.0465 253.81 47.809ZM249.796 54.0119C249.796 53.5428 249.934 52.9984 250.252 52.3961C250.373 52.4887 250.529 52.5583 250.708 52.5988C250.824 52.7436 250.945 52.8594 251.078 52.9347C250.662 53.4733 250.223 53.8208 249.796 54.0119Z" fill="white" fill-opacity="0.25"/>
<path d="M306.961 113.54C307.568 109.514 301.965 107.041 297.956 110.308C295.645 112.196 294.576 115.283 294.802 118.231C296.604 120.571 299.457 122.14 302.438 121.99C307.597 121.723 310.098 116.123 306.961 113.54ZM300.081 116.192C300.353 115.816 300.786 115.457 301.393 115.155C301.439 115.3 301.525 115.451 301.641 115.59C301.653 115.775 301.687 115.943 301.751 116.082C301.092 116.267 300.538 116.291 300.081 116.192Z" fill="white" fill-opacity="0.25"/>
<path d="M311.428 198.046C314.275 195.144 311.197 189.845 306.038 190.123C303.057 190.285 300.389 192.156 298.841 194.669C298.927 197.623 300.314 200.583 302.815 202.21C307.147 205.036 312.456 201.984 311.428 198.046ZM304.305 196.135C304.75 195.99 305.304 195.955 305.98 196.071C305.928 196.216 305.911 196.384 305.923 196.569C305.824 196.72 305.755 196.876 305.726 197.027C305.085 196.795 304.617 196.482 304.305 196.135Z" fill="white" fill-opacity="0.25"/>
<path d="M265.503 269.041C269.506 268.375 270.124 262.27 265.786 259.457C263.279 257.833 260.021 257.769 257.294 258.893C255.636 261.335 255.024 264.543 256.093 267.337C257.935 272.173 264.024 272.832 265.503 269.041ZM260.858 263.299C261.303 263.443 261.777 263.742 262.25 264.232C262.123 264.322 262.014 264.449 261.915 264.604C261.742 264.668 261.592 264.753 261.482 264.856C261.101 264.29 260.904 263.766 260.858 263.299Z" fill="white" fill-opacity="0.25"/>
<path d="M186.724 299.412C190.357 301.233 194.435 296.657 192.575 291.825C191.501 289.034 188.901 287.063 186.036 286.366C183.264 287.363 180.884 289.598 180.11 292.488C178.769 297.488 183.31 301.608 186.724 299.412ZM186.337 292.031C186.614 292.41 186.816 292.929 186.914 293.605C186.758 293.603 186.597 293.64 186.423 293.708C186.25 293.658 186.077 293.64 185.927 293.657C185.95 292.974 186.1 292.437 186.337 292.031Z" fill="white" fill-opacity="0.25"/>
<path d="M105.186 277.558C107.058 281.172 113.037 279.871 114.365 274.867C115.134 271.975 114.186 268.849 112.28 266.597C109.449 265.769 106.215 266.177 103.898 268.058C99.8789 271.314 101.137 277.32 105.186 277.558ZM109.201 271.357C109.201 271.826 109.062 272.367 108.745 272.971C108.623 272.88 108.467 272.811 108.288 272.766C108.173 272.622 108.046 272.508 107.913 272.432C108.335 271.894 108.774 271.547 109.201 271.357Z" fill="white" fill-opacity="0.25"/>
<path d="M52.0372 211.825C51.4312 215.851 57.0327 218.324 61.0399 215.057C63.3563 213.169 64.4226 210.083 64.1991 207.139C62.3962 204.799 59.5415 203.224 56.5613 203.38C51.4035 203.646 48.8982 209.244 52.0372 211.825ZM58.9176 209.173C58.6444 209.553 58.2152 209.91 57.6034 210.21C57.5578 210.064 57.4717 209.917 57.3544 209.776C57.3475 209.592 57.3123 209.425 57.2488 209.286C57.9044 209.098 58.4607 209.074 58.9176 209.173Z" fill="white" fill-opacity="0.25"/>
<path d="M47.5699 127.323C44.7197 130.225 47.8015 135.524 52.9588 135.241C55.9389 135.078 58.6111 133.213 60.1581 130.694C60.0691 127.74 58.6833 124.787 56.1815 123.153C51.852 120.333 46.5428 123.385 47.5699 127.323ZM54.6912 129.229C54.247 129.379 53.6912 129.414 53.02 129.298C53.0679 129.148 53.0853 128.98 53.0738 128.8C53.1754 128.644 53.2447 128.487 53.2753 128.337C53.9148 128.574 54.3792 128.881 54.6912 129.229Z" fill="white" fill-opacity="0.25"/>
<path d="M114.32 82.0787C113.401 82.2408 112.517 82.2292 111.691 82.0265C111.691 82.0265 113.667 83.2486 115.729 83.8219C115.596 81.679 114.811 79.4898 114.811 79.4898C114.839 80.3411 114.666 81.2099 114.32 82.0787Z" fill="white" fill-opacity="0.25"/>
<path d="M174.02 59.0625C173.182 58.6513 172.471 58.1185 171.928 57.4698C171.928 57.4698 172.806 59.6243 174.141 61.3039C175.29 59.4911 175.937 57.2555 175.937 57.2555C175.464 57.9621 174.811 58.5644 174.02 59.0625Z" fill="white" fill-opacity="0.25"/>
<path d="M235.82 75.621C235.381 74.7986 235.115 73.9472 235.057 73.1016C235.057 73.1016 234.503 75.3603 234.601 77.5091C236.594 76.7214 238.425 75.2908 238.425 75.2908C237.628 75.5862 236.75 75.6905 235.82 75.621Z" fill="white" fill-opacity="0.25"/>
<path d="M276.099 125.441C276.232 124.515 276.515 123.675 276.966 122.951C276.966 122.951 275.192 124.451 274.014 126.246C276.082 126.785 278.404 126.71 278.404 126.71C277.59 126.472 276.815 126.038 276.099 125.441Z" fill="white" fill-opacity="0.25"/>
<path d="M279.481 189.48C280.128 188.808 280.856 188.299 281.642 187.98C281.642 187.98 279.325 188.148 277.321 188.901C278.684 190.558 280.602 191.866 280.602 191.866C280.082 191.195 279.706 190.39 279.481 189.48Z" fill="white" fill-opacity="0.25"/>
<path d="M244.68 243.289C245.599 243.126 246.483 243.137 247.309 243.344C247.309 243.344 245.333 242.117 243.271 241.545C243.398 243.689 244.189 245.877 244.189 245.877C244.16 245.027 244.328 244.156 244.68 243.289Z" fill="white" fill-opacity="0.25"/>
<path d="M184.973 266.307C185.81 266.716 186.521 267.247 187.07 267.899C187.07 267.899 186.191 265.744 184.857 264.064C183.708 265.875 183.061 268.112 183.061 268.112C183.534 267.406 184.187 266.802 184.973 266.307Z" fill="white" fill-opacity="0.25"/>
<path d="M123.181 249.744C123.62 250.568 123.88 251.417 123.938 252.265C123.938 252.265 124.492 250.005 124.4 247.86C122.407 248.647 120.576 250.076 120.576 250.076C121.373 249.784 122.251 249.68 123.181 249.744Z" fill="white" fill-opacity="0.25"/>
<path d="M82.8992 199.928C82.7698 200.855 82.4856 201.695 82.0356 202.413C82.0356 202.413 83.809 200.913 84.9891 199.123C82.9154 198.584 80.5961 198.66 80.5961 198.66C81.4117 198.891 82.1846 199.326 82.8992 199.928Z" fill="white" fill-opacity="0.25"/>
<path d="M79.5145 135.884C78.8675 136.555 78.1437 137.071 77.3569 137.389C77.3569 137.389 79.6722 137.222 81.6772 136.463C80.3145 134.806 78.3933 133.503 78.3933 133.503C78.9166 134.169 79.2881 134.98 79.5145 135.884Z" fill="white" fill-opacity="0.25"/>
<path d="M106.726 72.6848C102.953 72.5226 99.4212 71.9203 98.8429 74.3817C100.972 73.8141 104.138 76.9243 109.955 76.6753C111.399 71.0226 109.019 67.2753 110.007 65.3061C107.488 65.3641 107.349 68.9491 106.726 72.6848Z" fill="white" fill-opacity="0.25"/>
<path d="M173.386 46.9868C170.423 44.6295 167.927 42.0581 166.015 43.7087C168.066 44.5079 168.805 48.8865 173.658 52.1124C178.14 48.3942 178.412 43.9577 180.37 42.95C178.296 41.5078 176.078 44.3284 173.386 46.9868Z" fill="white" fill-opacity="0.25"/>
<path d="M242.379 65.4796C241.363 61.8309 240.849 58.2748 238.336 58.4833C239.532 60.3424 237.562 64.3213 239.589 69.7887C245.401 69.418 248.22 65.9893 250.397 66.3253C249.56 63.9391 246.117 64.9178 242.379 65.4796Z" fill="white" fill-opacity="0.25"/>
<path d="M287.357 121.098C288.674 117.553 290.343 114.374 288.183 113.059C288.061 115.266 284.139 117.322 282.574 122.945C287.49 126.067 291.781 124.961 293.347 126.513C294.069 124.092 290.707 122.847 287.357 121.098Z" fill="white" fill-opacity="0.25"/>
<path d="M291.133 192.608C294.281 190.511 297.493 188.918 296.517 186.59C295.131 188.299 290.746 187.65 286.189 191.281C288.332 196.702 292.45 198.336 292.808 200.513C294.813 198.978 292.82 195.996 291.133 192.608Z" fill="white" fill-opacity="0.25"/>
<path d="M252.276 252.682C256.048 252.842 259.577 253.449 260.155 250.987C258.029 251.552 254.863 248.445 249.046 248.691C247.602 254.345 249.982 258.093 248.989 260.065C251.513 260.006 251.652 256.417 252.276 252.682Z" fill="white" fill-opacity="0.25"/>
<path d="M185.614 278.382C188.572 280.737 191.073 283.307 192.985 281.656C190.928 280.859 190.195 276.479 185.342 273.253C180.86 276.975 180.588 281.409 178.63 282.419C180.704 283.858 182.916 281.037 185.614 278.382Z" fill="white" fill-opacity="0.25"/>
<path d="M116.619 259.89C117.63 263.538 118.15 267.092 120.662 266.883C119.467 265.028 121.436 261.049 119.403 255.58C113.598 255.95 110.779 259.376 108.601 259.04C109.433 261.426 112.881 260.449 116.619 259.89Z" fill="white" fill-opacity="0.25"/>
<path d="M71.641 204.266C70.3228 207.816 68.6569 210.995 70.8132 212.308C70.9351 210.103 74.8614 208.045 76.4234 202.424C71.507 199.297 67.2174 200.409 65.6537 198.856C64.9305 201.277 68.2906 202.517 71.641 204.266Z" fill="white" fill-opacity="0.25"/>
<path d="M67.8599 132.762C64.7128 134.858 61.5011 136.445 62.4762 138.779C63.8672 137.065 68.2504 137.713 72.8098 134.088C70.6633 128.661 66.5428 127.034 66.1893 124.856C64.1837 126.385 66.1749 129.373 67.8599 132.762Z" fill="white" fill-opacity="0.25"/>
<path d="M80.6246 40.4079C65.7628 46.2402 50.4567 34.6799 50.0524 35.1433C48.7105 36.6607 60.1578 42.6551 68.8296 43.3154C74.1336 43.7324 77.7993 42.881 81.7268 41.769C83.6209 38.1492 85.2095 34.7263 85.898 29.4384C87.0493 20.7972 83.5632 8.32771 81.8054 9.32968C81.2745 9.63084 89.3893 27.0349 80.6246 40.4079Z" fill="white" fill-opacity="0.25"/>
<path d="M171.189 5.48945C155.748 1.45264 150.139 -16.9186 149.544 -16.7854C147.569 -16.351 153.316 -4.75023 159.942 0.890879C163.991 4.35431 167.451 5.82536 171.281 7.24432C174.938 5.42573 178.23 3.59557 181.887 -0.273285C187.883 -6.59202 192.377 -18.7314 190.367 -18.9573C189.76 -19.0268 186.121 -0.163244 171.189 5.48945Z" fill="white" fill-opacity="0.25"/>
<path d="M264.931 30.6136C254.805 18.2484 261.038 0.0798569 260.477 -0.163395C258.623 -0.974232 256.474 11.7965 258.531 20.2639C259.773 25.4533 261.714 28.685 263.978 32.0905C267.999 32.7739 271.736 33.2315 276.964 32.2527C285.519 30.6832 296.269 23.5072 294.778 22.1404C294.328 21.7234 280.326 34.8416 264.931 30.6136Z" fill="white" fill-opacity="0.25"/>
<path d="M326.04 106.184C325.098 90.2106 340.793 79.189 340.481 78.662C339.459 76.9129 330.228 85.9768 326.929 94.0447C324.89 98.9676 324.567 102.726 324.405 106.815C327.253 109.74 330.008 112.312 334.814 114.605C342.653 118.376 355.558 118.903 355.154 116.916C355.032 116.32 336.016 118.677 326.04 106.184Z" fill="white" fill-opacity="0.25"/>
<path d="M331.172 203.334C339.779 189.857 358.94 190.193 358.998 189.579C359.194 187.563 346.416 189.457 339.017 194.033C334.476 196.824 332.01 199.674 329.485 202.882C330.075 206.931 330.797 210.635 333.338 215.319C337.474 222.99 347.606 231.024 348.438 229.177C348.692 228.619 331.923 219.321 331.172 203.334Z" fill="white" fill-opacity="0.25"/>
<path d="M278.375 284.959C293.238 279.125 308.54 290.684 308.95 290.226C310.29 288.709 298.841 282.712 290.171 282.054C284.868 281.635 281.2 282.486 277.272 283.596C275.377 287.219 273.789 290.639 273.101 295.928C271.952 304.571 275.435 317.04 277.191 316.038C277.722 315.736 269.612 298.331 278.375 284.959Z" fill="white" fill-opacity="0.25"/>
<path d="M187.809 319.877C203.25 323.915 208.853 342.288 209.454 342.155C211.429 341.718 205.682 330.12 199.05 324.477C195.007 321.014 191.541 319.541 187.717 318.124C184.06 319.939 180.767 321.77 177.111 325.643C171.109 331.957 166.621 344.099 168.631 344.324C169.238 344.393 172.877 325.53 187.809 319.877Z" fill="white" fill-opacity="0.25"/>
<path d="M94.068 294.751C104.195 307.12 97.9584 325.287 98.5188 325.531C100.371 326.342 102.526 313.573 100.47 305.1C99.2264 299.914 97.286 296.682 95.0199 293.28C90.9983 292.592 87.2632 292.135 82.0332 293.113C73.4787 294.686 62.7286 301.862 64.2224 303.229C64.6729 303.642 78.6752 290.526 94.068 294.751Z" fill="white" fill-opacity="0.25"/>
<path d="M32.9597 219.181C33.9001 235.154 18.2059 246.177 18.5155 246.705C19.5397 248.453 28.7665 239.391 32.0707 231.325C34.1058 226.397 34.4321 222.639 34.5927 218.551C31.7414 215.625 28.9883 213.053 24.1834 210.762C16.3412 206.994 3.43646 206.461 3.84428 208.45C3.96617 209.05 22.983 206.693 32.9597 219.181Z" fill="white" fill-opacity="0.25"/>
<path d="M27.8237 122.03C19.2201 135.507 0.0611456 135.177 0.00222501 135.785C-0.193599 137.806 12.5829 135.913 19.9849 131.331C24.5201 128.545 26.9872 125.696 29.5145 122.482C28.9235 118.433 28.2027 114.732 25.6593 110.047C21.5238 102.379 11.3941 94.3456 10.5594 96.1931C10.3064 96.7491 27.0751 106.045 27.8237 122.03Z" fill="white" fill-opacity="0.25"/>
<path d="M7.52851 147.004C24.4664 143.511 30.8252 160.307 22.0201 167.97C14.041 174.914 3.73793 170.362 3.18743 163.678C2.33597 153.346 18.3404 155.483 13.093 164.17C24.184 166.696 22.5694 148.88 7.52851 147.004Z" fill="white" fill-opacity="0.25"/>
<path d="M31.1797 251.347C42.8339 238.538 57.8263 248.38 55.1951 259.769C52.8111 270.091 41.8056 272.478 37.4432 267.396C30.6968 259.539 44.8966 251.835 45.7446 261.956C56.1978 257.464 44.4449 243.998 31.1797 251.347Z" fill="white" fill-opacity="0.25"/>
<path d="M111.485 321.823C113.403 304.592 131.304 303.719 135.85 314.483C139.975 324.238 132.471 332.655 125.961 331.115C115.898 328.734 122.87 314.133 129.49 321.821C135.313 312.027 117.908 308.06 111.485 321.823Z" fill="white" fill-opacity="0.25"/>
<path d="M217.765 331.513C209.216 316.442 223.189 305.187 233.177 311.215C242.234 316.678 241.096 327.91 234.927 330.499C225.39 334.504 222.467 318.583 232.333 320.902C231.299 309.546 214.894 316.592 217.765 331.513Z" fill="white" fill-opacity="0.25"/>
<path d="M309.434 276.716C293.681 269.561 298.389 252.223 310 251.213C320.53 250.297 326.197 260.053 322.726 265.783C317.353 274.644 305.656 263.484 314.997 259.55C307.504 250.969 298.366 266.337 309.434 276.716Z" fill="white" fill-opacity="0.25"/>
<path d="M351.469 178.36C334.533 181.858 328.173 165.056 336.976 157.394C344.959 150.449 355.259 155.002 355.813 161.685C356.662 172.018 340.656 169.881 345.906 161.199C334.816 158.668 336.427 176.489 351.469 178.36Z" fill="white" fill-opacity="0.25"/>
<path d="M327.82 74.0227C316.163 86.8282 301.173 76.9881 303.801 65.5958C306.187 55.275 317.191 52.8889 321.552 57.974C328.299 65.8275 314.101 73.5305 313.252 63.4124C302.796 67.9009 314.551 81.3666 327.82 74.0227Z" fill="white" fill-opacity="0.25"/>
<path d="M247.516 3.54348C245.593 20.7738 227.697 21.6483 223.145 10.8816C219.026 1.12835 226.53 -7.28701 233.04 -5.74642C243.103 -3.36604 236.131 11.2348 229.511 3.54348C223.688 13.343 241.093 17.3103 247.516 3.54348Z" fill="white" fill-opacity="0.25"/>
<path d="M141.226 -6.14624C149.775 8.92375 135.807 20.1828 125.82 14.1536C116.762 8.69208 117.9 -2.5438 124.07 -5.13269C133.607 -9.13475 136.524 6.78657 126.663 4.4641C127.691 15.8216 144.097 8.77317 141.226 -6.14624Z" fill="white" fill-opacity="0.25"/>
<path d="M49.5639 48.6489C65.3159 55.8074 60.6121 73.142 48.9966 74.1555C38.4695 75.0706 32.8033 65.3116 36.2761 59.5836C41.6443 50.7223 53.3406 61.8829 44.0022 65.8155C51.4932 74.3988 60.634 59.0276 49.5639 48.6489Z" fill="white" fill-opacity="0.25"/>
<path d="M22.6638 90.2335C35.6027 101.736 49.4739 90.3609 45.6567 79.3103C42.1983 69.3023 31.0029 68.0918 27.2002 73.6113C21.3202 82.1367 36.2531 88.2933 36.029 78.1404C46.8975 81.4996 36.6292 96.1352 22.6638 90.2335Z" fill="white" fill-opacity="0.25"/>
<path d="M10.142 196.494C27.3532 198.179 31.9063 180.798 22.3421 174.115C13.6755 168.051 3.91032 173.669 4.06686 180.375C4.30948 190.737 19.9991 186.92 13.8656 178.835C24.6278 175.151 24.9011 193.042 10.142 196.494Z" fill="white" fill-opacity="0.25"/>
<path d="M62.3098 289.846C77.219 281.062 70.7146 264.32 59.057 264.545C48.4923 264.75 43.8867 275.052 47.9436 280.383C54.2163 288.625 64.6701 276.288 54.9696 273.364C61.5138 264.038 72.2241 278.351 62.3098 289.846Z" fill="white" fill-opacity="0.25"/>
<path d="M159.239 334.622C166.153 318.729 151.076 309.018 141.776 316.07C133.348 322.462 135.665 333.511 142.071 335.433C151.978 338.404 153.202 322.263 143.642 325.614C143.469 314.212 160.521 319.481 159.239 334.622Z" fill="white" fill-opacity="0.25"/>
<path d="M263.91 313.724C260.184 296.793 242.294 297.822 238.903 309.008C235.836 319.145 244.183 326.72 250.491 324.499C260.248 321.064 251.779 307.284 246.009 315.631C239.181 306.508 256.071 300.719 263.91 313.724Z" fill="white" fill-opacity="0.25"/>
<path d="M336.334 235.134C323.395 223.633 309.519 235.008 313.338 246.055C316.798 256.065 327.993 257.274 331.794 251.758C337.674 243.229 322.742 237.073 322.967 247.226C312.096 243.868 322.366 229.233 336.334 235.134Z" fill="white" fill-opacity="0.25"/>
<path d="M348.852 128.87C331.643 127.19 327.092 144.565 336.652 151.255C345.322 157.313 355.085 151.695 354.929 144.994C354.686 134.627 338.997 138.449 345.132 146.529C334.37 150.218 334.093 132.328 348.852 128.87Z" fill="white" fill-opacity="0.25"/>
<path d="M296.687 35.5192C281.777 44.3052 288.282 61.049 299.945 60.8232C310.504 60.6147 315.114 50.317 311.053 44.9829C304.785 36.7413 294.33 49.0776 304.029 52.0024C297.484 61.327 286.774 47.0157 296.687 35.5192Z" fill="white" fill-opacity="0.25"/>
<path d="M199.759 -9.25613C192.845 6.63627 207.922 16.3489 217.222 9.29465C225.65 2.90641 223.333 -8.14413 216.927 -10.067C207.02 -13.0381 205.796 3.10334 215.356 -0.25005C215.529 11.1538 198.477 5.88335 199.759 -9.25613Z" fill="white" fill-opacity="0.25"/>
<path d="M95.0893 11.6403C98.8146 28.5752 116.705 27.5443 120.095 16.3605C123.163 6.21926 114.816 -1.35049 108.508 0.867731C98.7482 4.30221 107.219 18.0806 112.99 9.73479C119.818 18.8567 102.927 24.6484 95.0893 11.6403Z" fill="white" fill-opacity="0.25"/>
<path d="M44.0325 148.904C40.3719 144.647 30.5258 142.591 34.983 141.062C39.2628 139.585 42.9315 141.183 44.7049 143.697C46.4783 146.21 44.7944 149.796 44.0325 148.904Z" fill="white" fill-opacity="0.25"/>
<path d="M61.8276 231.371C56.37 230.085 47.1974 234.222 49.9055 230.356C52.5061 226.643 56.4087 225.771 59.3166 226.759C62.2245 227.748 62.9639 231.64 61.8276 231.371Z" fill="white" fill-opacity="0.25"/>
<path d="M124.568 287.601C119.398 289.775 114.401 298.528 114.326 293.805C114.256 289.269 116.902 286.263 119.831 285.349C122.765 284.434 125.642 287.148 124.568 287.601Z" fill="white" fill-opacity="0.25"/>
<path d="M208.292 296.116C205.38 300.922 206.472 310.947 203.642 307.171C200.927 303.544 201.302 299.553 203.139 297.085C204.976 294.618 208.898 295.116 208.292 296.116Z" fill="white" fill-opacity="0.25"/>
<path d="M281.02 253.665C281.483 259.266 288.241 266.734 283.741 265.347C279.415 264.014 277.381 260.563 277.416 257.484C277.456 254.406 280.922 252.498 281.02 253.665Z" fill="white" fill-opacity="0.25"/>
<path d="M314.969 176.461C318.625 180.718 328.474 182.779 324.015 184.308C319.734 185.779 316.066 184.187 314.293 181.673C312.52 179.16 314.206 175.575 314.969 176.461Z" fill="white" fill-opacity="0.25"/>
<path d="M297.17 93.998C302.629 95.2838 311.802 91.1485 309.093 95.0116C306.494 98.7241 302.589 99.5986 299.683 98.6082C296.772 97.6178 296.032 93.7258 297.17 93.998Z" fill="white" fill-opacity="0.25"/>
<path d="M234.432 37.766C239.602 35.5884 244.593 26.8371 244.668 31.5632C244.743 36.0981 242.097 39.104 239.163 40.019C236.234 40.9341 233.352 38.2178 234.432 37.766Z" fill="white" fill-opacity="0.25"/>
<path d="M150.705 29.2527C153.611 24.4456 152.525 14.4202 155.35 18.1964C158.07 21.822 157.695 25.8124 155.858 28.2797C154.021 30.7469 150.099 30.2488 150.705 29.2527Z" fill="white" fill-opacity="0.25"/>
<path d="M77.98 71.7004C77.5144 66.0998 70.7553 58.6343 75.2586 60.0185C79.5847 61.3506 81.618 64.8024 81.5793 67.8836C81.5395 70.959 78.0765 72.8703 77.98 71.7004Z" fill="white" fill-opacity="0.25"/>
<path d="M55.2436 106.85C49.9534 108.709 40.3956 105.564 43.4959 109.12C46.4725 112.537 50.4456 112.995 53.2328 111.703C56.0211 110.412 56.3457 106.462 55.2436 106.85Z" fill="white" fill-opacity="0.25"/>
<path d="M46.2427 190.737C43.0518 195.359 33.4772 198.452 38.0707 199.5C42.4822 200.513 45.9626 198.539 47.461 195.851C48.9588 193.164 46.907 189.776 46.2427 190.737Z" fill="white" fill-opacity="0.25"/>
<path d="M88.1398 263.912C88.268 269.531 82.3338 277.674 86.6662 275.817C90.827 274.034 92.4855 270.386 92.1221 267.329C91.7582 264.272 88.1132 262.741 88.1398 263.912Z" fill="white" fill-opacity="0.25"/>
<path d="M164.934 298.42C168.331 302.891 168.302 312.975 170.716 308.92C173.038 305.025 172.241 301.097 170.156 298.837C168.071 296.579 164.223 297.489 164.934 298.42Z" fill="white" fill-opacity="0.25"/>
<path d="M247.291 281.081C252.658 282.695 258.55 290.87 258.128 286.166C257.724 281.647 254.772 278.938 251.763 278.34C248.753 277.742 246.171 280.745 247.291 281.081Z" fill="white" fill-opacity="0.25"/>
<path d="M303.756 218.518C309.041 216.66 318.602 219.802 315.5 216.245C312.525 212.829 308.55 212.374 305.766 213.665C302.976 214.956 302.653 218.905 303.756 218.518Z" fill="white" fill-opacity="0.25"/>
<path d="M312.755 134.627C315.944 130.005 325.521 126.918 320.929 125.864C316.516 124.856 313.032 126.831 311.536 129.519C310.04 132.206 312.091 135.588 312.755 134.627Z" fill="white" fill-opacity="0.25"/>
<path d="M270.857 61.4545C270.73 55.8366 276.662 47.6935 272.33 49.5526C268.171 51.3307 266.513 54.9794 266.877 58.0374C267.241 61.0955 270.886 62.6245 270.857 61.4545Z" fill="white" fill-opacity="0.25"/>
<path d="M194.065 26.9474C190.668 22.4762 190.691 12.3929 188.277 16.4471C185.96 20.3391 186.752 24.2716 188.843 26.5304C190.928 28.7892 194.769 27.8799 194.065 26.9474Z" fill="white" fill-opacity="0.25"/>
<path d="M111.709 44.2875C106.337 42.6716 100.445 34.4938 100.872 39.2024C101.276 43.7199 104.222 46.4304 107.238 47.027C110.247 47.6235 112.824 44.6234 111.709 44.2875Z" fill="white" fill-opacity="0.25"/>
<path d="M58.5236 157.429C47.7215 166.452 31.8384 149.911 18.7782 140.813C28.4065 138.009 41.8733 153.427 51.3693 153.56C56.8079 153.641 57.6715 147.114 53.0203 147.925C53.4483 149.21 51.43 152.402 48.495 150.624C44.1782 148.006 47.3339 141.67 52.9591 141.977C59.8713 142.353 65.1268 151.909 58.5236 157.429Z" fill="white" fill-opacity="0.25"/>
<path d="M78.5476 229.725C75.099 243.393 52.5538 239.372 36.6527 239.707C42.7972 231.763 62.7321 236.3 70.4922 230.812C74.939 227.672 71.811 221.882 68.5242 225.281C69.6257 226.07 69.862 229.838 66.4452 230.13C61.419 230.559 60.258 223.573 64.9884 220.505C70.8019 216.737 80.6555 221.37 78.5476 229.725Z" fill="white" fill-opacity="0.25"/>
<path d="M137.13 276.416C142.352 289.505 121.753 299.538 109.085 309.181C109.397 299.132 128.188 291.055 131.25 282.042C133.006 276.88 127.079 274.04 126.415 278.727C127.766 278.716 130.169 281.625 127.576 283.874C123.757 287.184 118.726 282.217 120.754 276.947C123.249 270.472 133.936 268.413 137.13 276.416Z" fill="white" fill-opacity="0.25"/>
<path d="M211.896 279.664C223.795 287.176 213.011 307.431 208.418 322.697C202.78 314.383 213.242 296.777 210.434 287.681C208.834 282.47 202.37 283.664 204.583 287.848C205.669 287.042 209.319 287.981 208.54 291.329C207.39 296.254 200.406 295.203 198.956 289.744C197.183 283.036 204.617 275.072 211.896 279.664Z" fill="white" fill-opacity="0.25"/>
<path d="M274.289 238.23C288.321 237.295 291.469 260.036 296.702 275.095C287.269 271.69 285.415 251.28 277.807 245.577C273.458 242.306 268.929 247.078 273.169 249.162C273.579 247.868 277.079 246.478 278.414 249.646C280.372 254.306 274.104 257.572 269.732 254.009C264.359 249.631 265.711 238.803 274.289 238.23Z" fill="white" fill-opacity="0.25"/>
<path d="M300.476 167.941C311.278 158.917 327.158 175.453 340.219 184.557C330.595 187.36 317.124 171.943 307.627 171.81C302.192 171.729 301.325 178.256 305.981 177.445C305.554 176.153 307.57 172.968 310.504 174.746C314.819 177.358 311.665 183.694 306.039 183.387C299.13 183.011 293.874 173.46 300.476 167.941Z" fill="white" fill-opacity="0.25"/>
<path d="M280.455 95.6429C283.903 81.9745 306.449 85.9939 322.346 85.658C316.206 93.6042 296.271 89.0693 288.507 94.554C284.059 97.6931 287.19 103.485 290.477 100.085C289.374 99.2974 289.137 95.5271 292.556 95.2375C297.582 94.8089 298.743 101.794 294.012 104.863C288.201 108.628 278.346 103.995 280.455 95.6429Z" fill="white" fill-opacity="0.25"/>
<path d="M221.868 48.9507C216.646 35.8614 237.245 25.8302 249.913 16.187C249.595 26.2356 230.81 34.3092 227.748 43.3269C225.992 48.4873 231.919 51.3252 232.583 46.6397C231.232 46.6513 228.828 43.7439 231.422 41.491C235.235 38.1839 240.272 43.1532 238.244 48.4178C235.749 54.8929 225.062 56.9548 221.868 48.9507Z" fill="white" fill-opacity="0.25"/>
<path d="M147.102 45.7014C135.202 38.1895 145.981 17.936 150.579 2.66907C156.217 10.9859 145.75 28.5869 148.558 37.6857C150.164 42.8982 156.622 41.7051 154.415 37.5177C153.323 38.3227 149.678 37.3845 150.458 34.0369C151.602 29.114 158.591 30.1622 160.036 35.6238C161.815 42.3306 154.375 50.2942 147.102 45.7014Z" fill="white" fill-opacity="0.25"/>
<path d="M84.7097 87.1348C70.6791 88.073 67.5263 65.3291 62.2951 50.2707C71.7293 53.6762 73.5853 74.0861 81.1895 79.7909C85.5422 83.0632 90.0675 78.2909 85.8275 76.2058C85.4197 77.4974 81.9185 78.8874 80.5859 75.7194C78.6265 71.0629 84.8934 67.7963 89.2651 71.3582C94.6361 75.7367 93.2861 86.5614 84.7097 87.1348Z" fill="white" fill-opacity="0.25"/>
<path d="M72.0433 106.717C67.1737 93.4884 45.1784 99.8766 29.3317 101.226C36.2791 108.477 55.623 101.852 63.9186 106.485C68.6716 109.138 66.1709 115.23 62.545 112.196C63.5564 111.292 63.3947 107.522 59.9663 107.597C54.9234 107.701 54.5046 114.773 59.5325 117.321C65.7099 120.449 75.0199 114.802 72.0433 106.717Z" fill="white" fill-opacity="0.25"/>
<path d="M59.7551 180.729C48.0616 172.898 34.0114 191.032 21.9835 201.463C31.8539 203.235 43.6201 186.474 53.0485 185.333C58.4484 184.679 59.9954 191.079 55.2841 190.76C55.5741 189.434 53.2316 186.48 50.5005 188.559C46.4829 191.617 50.2885 197.583 55.8502 196.679C62.6844 195.573 66.9035 185.518 59.7551 180.729Z" fill="white" fill-opacity="0.25"/>
<path d="M93.2049 247.851C79.1541 248.407 78.4165 271.355 74.8015 286.884C83.8244 282.499 83.5183 262.007 90.4785 255.528C94.4625 251.816 99.4656 256.081 95.4694 258.603C94.9269 257.359 91.2987 256.348 90.3075 259.64C88.8501 264.481 95.4266 267.065 99.398 263.059C104.276 258.135 101.792 247.511 93.2049 247.851Z" fill="white" fill-opacity="0.25"/>
<path d="M159.614 282.442C148.575 291.172 161.428 310.173 167.608 324.866C172.339 316.001 160.076 299.602 161.907 290.26C162.953 284.908 169.503 285.411 167.747 289.806C166.58 289.119 163.051 290.439 164.183 293.686C165.841 298.462 172.675 296.676 173.541 291.095C174.604 284.236 166.361 277.105 159.614 282.442Z" fill="white" fill-opacity="0.25"/>
<path d="M233.616 271.289C229.804 284.859 251.344 292.654 264.954 300.899C263.585 290.941 244.054 284.9 240.057 276.262C237.769 271.315 243.361 267.863 244.516 272.452C243.171 272.585 241.091 275.733 243.904 277.695C248.046 280.581 252.528 275.108 249.958 270.083C246.798 263.908 235.95 262.994 233.616 271.289Z" fill="white" fill-opacity="0.25"/>
<path d="M286.953 218.652C291.822 231.879 313.819 225.491 329.664 224.139C322.721 216.89 303.375 223.515 295.08 218.88C290.326 216.228 292.827 210.139 296.455 213.171C295.438 214.072 295.6 217.845 299.031 217.773C304.074 217.666 304.49 210.597 299.465 208.048C293.29 204.915 283.978 210.567 286.953 218.652Z" fill="white" fill-opacity="0.25"/>
<path d="M299.245 144.635C310.936 152.471 324.985 134.337 337.017 123.907C327.145 122.134 315.378 138.895 305.951 140.031C300.55 140.691 299.002 134.291 303.716 134.604C303.421 135.93 305.766 138.89 308.499 136.81C312.513 133.752 308.712 127.787 303.15 128.685C296.316 129.791 292.093 139.851 299.245 144.635Z" fill="white" fill-opacity="0.25"/>
<path d="M265.791 77.5146C279.845 76.9586 280.579 54.0119 284.195 38.4843C275.172 42.8686 275.478 63.3597 268.517 69.8406C264.537 73.5531 259.535 69.2845 263.526 66.7652C264.069 68.0046 267.697 69.0182 268.691 65.7285C270.146 60.8866 263.573 58.3035 259.598 62.3056C254.717 67.2285 257.201 77.8563 265.791 77.5146Z" fill="white" fill-opacity="0.25"/>
<path d="M199.386 42.9273C210.425 34.1934 197.572 15.1967 191.391 0.503138C186.66 9.36443 198.924 25.7665 197.087 35.1085C196.041 40.46 189.497 39.9562 191.253 35.5603C192.42 36.2495 195.943 34.929 194.817 31.6798C193.159 26.9075 186.325 28.6913 185.459 34.2745C184.396 41.1318 192.633 48.2614 199.386 42.9273Z" fill="white" fill-opacity="0.25"/>
<path d="M125.377 54.076C129.195 40.5061 107.654 32.7105 94.0401 24.4689C95.4108 34.4248 114.944 40.4656 118.936 49.1068C121.229 54.0529 115.637 57.5047 114.482 52.9119C115.828 52.7845 117.907 49.6338 115.094 47.6704C110.947 44.7861 106.464 50.2593 109.041 55.2865C112.2 61.4604 123.049 62.3755 125.377 54.076Z" fill="white" fill-opacity="0.25"/>
<path d="M102.035 112.312C109.261 109.885 117.741 104.203 119.399 90.9461C119.486 90.2569 121.381 89.0522 120.41 93.7783C124.592 93.6856 124.026 99.9638 118.515 99.7495C118.325 100.178 118.128 100.607 117.92 101.018C121.941 102.17 119.549 107.979 114.374 106.161C114.01 106.566 113.64 106.949 113.259 107.319C116.782 109.584 112.75 114.565 108.21 111.13C107.887 111.321 107.563 111.501 107.24 111.675C108.834 113.192 108.349 114.814 107.02 115.555C106.887 117.072 105.611 118.173 103.577 117.333C103.554 117.704 103.52 118.069 103.479 118.439C108.453 121.196 105.564 126.918 102.07 124.619C101.891 125.117 101.688 125.615 101.469 126.113C105.235 130.11 100.914 134.668 98.2283 131.459C97.9423 131.818 97.6327 132.171 97.3196 132.519C99.7614 137.477 94.2737 140.558 92.6539 136.689C88.7426 139.509 89.0702 137.28 89.6611 136.921C101.059 129.994 102.769 119.91 102.035 112.312Z" fill="white" fill-opacity="0.25"/>
<path d="M146.364 76.281C153.631 78.5687 163.82 78.9742 172.936 69.2267C173.404 68.7229 175.651 68.8619 172.087 72.1168C175.529 74.503 171.388 79.2522 167.061 75.8293C166.651 76.0667 166.241 76.2926 165.836 76.5011C168.407 79.8024 163.069 83.0979 159.944 78.5746C159.419 78.6846 158.893 78.783 158.367 78.8583C159.892 82.7561 153.706 84.4126 152.048 78.9626C151.678 78.9221 151.308 78.8815 150.944 78.8294C151.343 80.9954 150.003 82.0264 148.495 81.841C147.496 82.9878 145.815 83.1268 144.665 81.2503C144.429 81.5341 144.186 81.8121 143.938 82.0901C146.346 87.2505 140.651 90.1753 139.172 86.2543C138.733 86.5497 138.282 86.8393 137.809 87.1115C138.513 92.5615 132.35 93.7024 132.055 89.5266C131.616 89.6482 131.16 89.7467 130.698 89.851C129.768 95.2952 123.523 94.5538 124.482 90.4707C119.665 90.4475 121.236 88.8374 121.923 88.8954C135.203 90.0074 142.499 82.8604 146.364 76.281Z" fill="white" fill-opacity="0.25"/>
<path d="M203.341 73.2525C207.875 79.3859 215.881 85.7221 228.977 83.2085C229.653 83.0753 231.386 84.5116 226.597 85.0445C227.983 89.006 221.849 90.4075 220.347 85.085C219.879 85.0328 219.417 84.9807 218.966 84.9112C219.111 89.0928 212.86 88.6121 212.987 83.1158C212.491 82.8957 212.011 82.6583 211.543 82.4092C210.486 86.4692 204.519 84.1583 206.368 78.772C206.09 78.523 205.819 78.2739 205.553 78.0191C204.606 80.0056 202.919 80.0462 201.81 79.0095C200.325 79.3512 198.881 78.4709 199.054 76.2758C198.696 76.3627 198.338 76.4438 197.974 76.5248C196.894 82.1196 190.574 81.1293 191.678 77.0867C191.146 77.0693 190.615 77.0287 190.078 76.9766C187.449 81.8011 181.788 79.0906 184.001 75.5345C183.573 75.3723 183.146 75.187 182.713 74.9959C178.767 78.8589 174.152 74.5789 177.323 71.8394C173.436 68.9783 175.654 68.6018 176.174 69.0536C186.265 77.7816 196.357 76.299 203.341 73.2525Z" fill="white" fill-opacity="0.25"/>
<path d="M251.218 104.382C251.288 112.022 254.055 121.862 266.122 127.543C266.746 127.839 267.306 130.016 263.118 127.63C261.916 131.65 256.134 129.165 258.04 123.981C257.694 123.663 257.347 123.344 257.024 123.02C254.69 126.495 249.919 122.423 253.24 118.045C252.969 117.576 252.714 117.101 252.483 116.626C249.254 119.284 245.771 113.904 250.427 110.632C250.352 110.267 250.277 109.908 250.213 109.543C248.284 110.597 246.897 109.63 246.603 108.135C245.205 107.539 244.552 105.981 245.979 104.301C245.638 104.168 245.297 104.017 244.957 103.867C240.803 107.759 236.269 103.23 239.532 100.612C239.116 100.288 238.706 99.9401 238.302 99.5752C233.346 101.932 230.359 96.4071 234.235 94.8376C233.981 94.4495 233.744 94.0499 233.508 93.6387C228.054 94.4379 226.824 88.2524 230.995 87.9049C229.527 83.3005 231.543 84.3025 231.699 84.9801C234.749 97.9883 243.784 102.732 251.218 104.382Z" fill="white" fill-opacity="0.25"/>
<path d="M271.696 157.788C267.282 164.008 263.747 173.599 270.176 185.304C270.511 185.907 269.685 188.003 267.698 183.602C264.371 186.15 261.148 180.735 265.728 177.659C265.63 177.196 265.538 176.738 265.468 176.287C261.546 177.717 260.067 171.613 265.324 170.032C265.382 169.487 265.451 168.96 265.544 168.433C261.373 168.682 261.714 162.277 267.398 162.375C267.548 162.033 267.698 161.697 267.86 161.367C265.682 161.078 265.122 159.485 265.763 158.101C264.983 156.792 265.37 155.147 267.508 154.626C267.311 154.319 267.121 154 266.936 153.676C261.298 154.377 260.281 148.046 264.458 147.844C264.313 147.334 264.18 146.813 264.071 146.286C258.675 145.272 259.501 139.04 263.556 140.048C263.58 139.591 263.62 139.121 263.666 138.658C258.785 136.087 261.419 130.359 265.001 132.536C266.508 127.949 267.554 129.947 267.282 130.585C262.124 142.903 266.647 152.066 271.696 157.788Z" fill="white" fill-opacity="0.25"/>
<path d="M256.96 213.057C249.739 215.485 241.259 221.164 239.596 234.422C239.515 235.109 237.614 236.318 238.59 231.587C234.402 231.682 234.974 225.403 240.479 225.617C240.676 225.186 240.866 224.76 241.08 224.352C237.06 223.2 239.451 217.389 244.627 219.205C244.991 218.802 245.361 218.416 245.742 218.046C242.218 215.786 246.25 210.805 250.79 214.235C251.114 214.048 251.432 213.866 251.755 213.694C250.167 212.178 250.646 210.556 251.975 209.815C252.108 208.296 253.39 207.191 255.417 208.032C255.446 207.666 255.481 207.295 255.516 206.924C250.542 204.168 253.436 198.445 256.931 200.745C257.11 200.252 257.312 199.754 257.532 199.256C253.765 195.26 258.08 190.702 260.772 193.911C261.055 193.551 261.367 193.198 261.679 192.845C259.236 187.893 264.723 184.812 266.347 188.681C270.257 185.86 269.928 188.09 269.339 188.449C257.942 195.376 256.226 205.453 256.96 213.057Z" fill="white" fill-opacity="0.25"/>
<path d="M212.636 249.087C205.369 246.796 195.179 246.393 186.064 256.139C185.59 256.645 183.349 256.505 186.907 253.251C183.465 250.862 187.606 246.116 191.939 249.536C192.349 249.302 192.753 249.072 193.163 248.864C190.587 245.565 195.93 242.271 199.05 246.791C199.581 246.679 200.107 246.585 200.633 246.51C199.108 242.608 205.288 240.954 206.952 246.403C207.322 246.442 207.691 246.484 208.05 246.537C207.651 244.37 208.997 243.343 210.505 243.526C211.498 242.376 213.185 242.237 214.334 244.114C214.571 243.832 214.814 243.553 215.062 243.276C212.653 238.115 218.349 235.19 219.828 239.11C220.267 238.814 220.718 238.53 221.185 238.257C220.486 232.804 226.65 231.662 226.945 235.842C227.384 235.721 227.84 235.617 228.302 235.518C229.232 230.07 235.477 230.811 234.518 234.897C239.335 234.92 237.764 236.531 237.077 236.472C223.796 235.361 216.501 242.505 212.636 249.087Z" fill="white" fill-opacity="0.25"/>
<path d="M155.656 252.116C151.115 245.979 143.109 239.648 130.019 242.16C129.344 242.292 127.611 240.856 132.399 240.323C131.013 236.361 137.148 234.962 138.644 240.282C139.112 240.332 139.58 240.386 140.03 240.46C139.88 236.273 146.13 236.755 146.009 242.252C146.5 242.473 146.985 242.707 147.453 242.956C148.51 238.901 154.477 241.207 152.629 246.594C152.906 246.844 153.178 247.094 153.437 247.35C154.385 245.361 156.072 245.322 157.186 246.359C158.671 246.017 160.109 246.896 159.942 249.093C160.3 249.003 160.658 248.922 161.022 248.843C162.096 243.249 168.422 244.238 167.318 248.28C167.85 248.3 168.381 248.337 168.919 248.393C171.547 243.567 177.202 246.277 174.99 249.83C175.417 249.993 175.85 250.178 176.278 250.369C180.229 246.509 184.844 250.79 181.673 253.53C185.561 256.388 183.343 256.765 182.823 256.312C172.725 247.586 162.639 249.067 155.656 252.116Z" fill="white" fill-opacity="0.25"/>
<path d="M107.781 220.983C107.706 213.346 104.939 203.502 92.8779 197.82C92.2523 197.531 91.6926 195.347 95.8788 197.739C97.0821 193.72 102.865 196.199 100.959 201.388C101.305 201.701 101.652 202.019 101.975 202.344C104.309 198.869 109.08 202.946 105.759 207.319C106.03 207.788 106.279 208.263 106.516 208.74C109.745 206.079 113.222 211.466 108.566 214.734C108.647 215.099 108.722 215.462 108.78 215.823C110.715 214.773 112.102 215.735 112.396 217.231C113.794 217.827 114.447 219.389 113.02 221.066C113.361 221.203 113.702 221.349 114.043 221.5C118.19 217.609 122.725 222.136 119.467 224.755C119.883 225.083 120.293 225.428 120.691 225.79C125.648 223.435 128.64 228.961 124.764 230.532C125.018 230.915 125.255 231.319 125.492 231.726C130.945 230.93 132.175 237.114 127.999 237.463C129.466 242.064 127.456 241.063 127.3 240.389C124.25 227.382 115.215 222.633 107.781 220.983Z" fill="white" fill-opacity="0.25"/>
<path d="M87.2978 167.581C91.7174 161.361 95.248 151.77 88.8205 140.065C88.486 139.457 89.3121 137.36 91.2974 141.762C94.6276 139.22 97.8497 144.635 93.2672 147.71C93.3643 148.168 93.4561 148.631 93.526 149.083C97.4523 147.646 98.9259 153.757 93.6733 155.338C93.6167 155.876 93.5434 156.409 93.4521 156.93C97.6245 156.687 97.2825 163.093 91.6002 162.989C91.45 163.33 91.2957 163.672 91.1345 163.996C93.3129 164.286 93.8721 165.884 93.232 167.269C94.0142 168.572 93.6265 170.222 91.4904 170.738C91.6862 171.051 91.874 171.369 92.06 171.694C97.7002 170.987 98.7151 177.323 94.5398 177.52C94.6854 178.03 94.8148 178.551 94.928 179.084C100.317 180.097 99.4967 186.329 95.4421 185.316C95.4196 185.773 95.3768 186.242 95.3289 186.711C100.21 189.283 97.5759 195.011 93.9968 192.833C92.4862 197.42 91.4436 195.422 91.7128 194.785C96.87 182.466 92.3476 173.298 87.2978 167.581Z" fill="white" fill-opacity="0.25"/>
<path d="M91.8084 105.663C105.631 105.552 114.157 90.245 110.258 84.0016C110.258 84.0016 117.941 90.5056 111.968 92.5964C113.493 93.9343 112.898 98.197 108.589 97.2587C111.904 100.508 108.935 104.707 104.932 102.929C107 106.334 103.003 109.555 99.7015 107.226C99.8181 108.373 99.226 109.334 98.2971 109.879C98.1805 110.95 97.5462 111.889 96.4545 112.248C99.9215 114.321 98.6154 119.296 94.6729 118.786C97.9251 121.729 95.309 126.159 90.9991 124.451C93.6118 128.007 89.9708 130.295 88.131 129.443C88.6636 135.762 79.6078 131.383 79.6078 131.383C86.8816 132.403 97.3463 118.358 91.8084 105.663Z" fill="white" fill-opacity="0.25"/>
<path d="M141.984 64.8716C153.231 72.9279 169.105 65.5724 169.614 58.2228C169.614 58.2228 172.011 68.0107 165.957 66.1806C166.402 68.1613 163.421 71.2657 160.487 67.9644C161.266 72.5456 156.403 74.1963 154.208 70.3969C153.884 74.37 148.76 74.619 147.455 70.7907C146.877 71.7927 145.832 72.2155 144.763 72.1112C144.041 72.9105 142.978 73.2928 141.886 72.9395C143.475 76.6578 139.501 79.9185 136.606 77.1848C137.513 81.4764 132.8 83.5209 130.316 79.5941C130.345 84.0132 126.059 83.7178 125.071 81.9456C121.795 87.3724 117.036 78.4937 117.036 78.4937C122.321 83.6078 139.027 78.4068 141.984 64.8716Z" fill="white" fill-opacity="0.25"/>
<path d="M206.491 61.4428C210.864 74.5899 228.02 77.9896 232.74 72.3485C232.74 72.3485 228.945 81.6789 225.115 76.6285C224.318 78.4993 220.089 79.2464 219.65 74.8505C217.594 79.0148 212.689 77.48 213.14 73.113C210.552 76.1421 206.254 73.3215 207.444 69.4584C206.393 69.9218 205.295 69.6553 204.493 68.9372C203.441 69.1573 202.361 68.8387 201.679 67.912C200.784 71.8562 195.66 72.1516 194.927 68.2364C193.142 72.2443 188.128 71.1207 188.422 66.4815C185.852 70.0724 182.559 67.3039 182.796 65.2884C176.967 67.7499 178.319 57.7592 178.319 57.7592C179.601 65.0104 196.163 70.6516 206.491 61.4428Z" fill="white" fill-opacity="0.25"/>
<path d="M260.684 96.6853C256.514 109.902 268.402 122.759 275.53 120.976C275.53 120.976 266.986 126.292 266.848 119.95C265.109 120.987 261.25 119.099 263.468 115.288C259.367 117.443 256.294 113.313 259.223 110.047C255.352 110.968 253.533 106.16 256.762 103.728C255.635 103.485 254.908 102.628 254.677 101.573C253.695 101.127 253.007 100.236 253.001 99.083C249.963 101.747 245.648 98.9671 247.346 95.3647C243.557 97.554 240.16 93.691 243.112 90.1117C238.93 91.5017 237.884 87.3259 239.259 85.8316C233.101 84.3895 240.056 77.1035 240.056 77.1035C236.839 83.7234 246.93 98.0463 260.684 96.6853Z" fill="white" fill-opacity="0.25"/>
<path d="M283.872 157.139C272.752 165.369 274.826 182.779 281.642 185.536C281.642 185.536 271.614 184.8 275.219 179.588C273.203 179.402 271.187 175.603 275.219 173.825C270.632 173.153 270.574 167.999 274.855 167.083C271.187 165.549 272.527 160.585 276.565 160.521C275.796 159.664 275.715 158.535 276.149 157.55C275.611 156.612 275.577 155.483 276.247 154.55C272.232 154.915 270.366 150.12 273.855 148.208C269.5 147.745 269.02 142.619 273.509 141.461C269.309 140.123 270.915 136.127 272.902 135.733C268.766 130.932 278.661 129.136 278.661 129.136C272.174 132.6 271.949 150.131 283.872 157.139Z" fill="white" fill-opacity="0.25"/>
<path d="M267.192 219.708C253.368 219.815 244.842 235.123 248.736 241.367C248.736 241.367 241.059 234.862 247.032 232.772C245.507 231.435 246.102 227.17 250.411 228.11C247.095 224.862 250.064 220.659 254.067 222.437C251.994 219.035 255.997 215.811 259.295 218.139C259.18 216.992 259.775 216.031 260.699 215.487C260.82 214.416 261.45 213.481 262.542 213.12C259.076 211.048 260.381 206.073 264.327 206.577C261.074 203.641 263.691 199.21 268 200.919C265.389 197.357 269.029 195.075 270.866 195.926C270.334 189.602 279.392 193.98 279.392 193.98C272.113 192.961 261.652 207.012 267.192 219.708Z" fill="white" fill-opacity="0.25"/>
<path d="M217.01 260.494C205.769 252.436 189.895 259.797 189.386 267.143C189.386 267.143 186.983 257.354 193.043 259.184C192.592 257.203 195.579 254.104 198.507 257.402C197.733 252.821 202.597 251.172 204.792 254.969C205.116 250.997 210.24 250.745 211.545 254.575C212.123 253.578 213.168 253.149 214.237 253.256C214.959 252.458 216.016 252.075 217.114 252.427C215.525 248.708 219.499 245.451 222.388 248.184C221.481 243.891 226.194 241.847 228.684 245.77C228.655 241.351 232.941 241.648 233.929 243.421C237.204 237.993 241.964 246.873 241.964 246.873C236.673 241.761 219.973 246.959 217.01 260.494Z" fill="white" fill-opacity="0.25"/>
<path d="M152.507 263.921C148.135 250.777 130.978 247.377 126.259 253.021C126.259 253.021 130.054 243.686 133.884 248.736C134.681 246.869 138.909 246.12 139.348 250.517C141.405 246.352 146.309 247.885 145.859 252.251C148.447 249.226 152.738 252.044 151.554 255.911C152.606 255.445 153.697 255.713 154.5 256.43C155.557 256.21 156.638 256.525 157.319 257.456C158.209 253.51 163.338 253.217 164.072 257.133C165.857 253.125 170.865 254.249 170.576 258.887C173.147 255.296 176.44 258.061 176.203 260.079C182.031 257.618 180.674 267.607 180.674 267.607C179.397 260.354 162.836 254.718 152.507 263.921Z" fill="white" fill-opacity="0.25"/>
<path d="M98.3102 228.68C102.477 215.468 90.5922 202.604 83.4663 204.394C83.4663 204.394 92.0104 199.077 92.1467 205.419C93.8866 204.377 97.7476 206.265 95.5248 210.081C99.6308 207.925 102.697 212.055 99.7757 215.321C103.644 214.399 105.464 219.209 102.235 221.638C103.361 221.88 104.089 222.743 104.32 223.796C105.296 224.238 105.99 225.132 105.995 226.285C109.034 223.619 113.349 226.402 111.651 230.004C115.44 227.812 118.837 231.676 115.885 235.257C120.067 233.866 121.107 238.044 119.732 239.536C125.896 240.98 118.941 248.263 118.941 248.263C122.158 241.641 112.066 227.322 98.3102 228.68Z" fill="white" fill-opacity="0.25"/>
<path d="M75.1264 168.23C86.2445 160 84.1673 142.585 77.3556 139.834C77.3556 139.834 87.3837 140.569 83.7762 145.782C85.7945 145.961 87.8117 149.766 83.7762 151.544C88.3622 152.216 88.4229 157.365 84.143 158.286C87.8117 159.815 86.4669 164.784 82.4309 164.842C83.1986 165.705 83.2823 166.834 82.8502 167.819C83.384 168.751 83.4187 169.881 82.7463 170.819C86.7662 170.454 88.6274 175.25 85.1407 177.161C89.4938 177.624 89.9756 182.75 85.4866 183.908C89.6873 185.246 88.0815 189.242 86.0943 189.636C90.2303 194.438 80.3363 196.227 80.3363 196.227C86.8193 192.77 87.0498 175.238 75.1264 168.23Z" fill="white" fill-opacity="0.25"/>
<path d="M46.1976 75.9976C47.4025 76.6231 47.9923 76.9938 48.1726 77.2834C47.8375 77.2371 47.2558 76.849 46.1976 75.9976Z" fill="white" fill-opacity="0.25"/>
<path d="M122.471 13.9974C123.084 15.2079 123.344 15.8623 123.321 16.1983C123.078 15.9608 122.83 15.3063 122.471 13.9974Z" fill="white" fill-opacity="0.25"/>
<path d="M220.535 8.78528C220.315 10.129 220.142 10.8066 219.928 11.0672C219.865 10.7313 220.055 10.0595 220.535 8.78528Z" fill="white" fill-opacity="0.25"/>
<path d="M302.919 62.3581C301.954 63.3137 301.417 63.7655 301.088 63.8465C301.238 63.5396 301.787 63.1052 302.919 62.3581Z" fill="white" fill-opacity="0.25"/>
<path d="M338.159 154.255C336.819 154.458 336.126 154.504 335.808 154.382C336.108 154.22 336.807 154.191 338.159 154.255Z" fill="white" fill-opacity="0.25"/>
<path d="M312.801 249.368C311.594 248.745 311.005 248.372 310.826 248.084C311.161 248.131 311.744 248.52 312.801 249.368Z" fill="white" fill-opacity="0.25"/>
<path d="M236.524 311.371C235.917 310.157 235.657 309.507 235.68 309.168C235.923 309.404 236.166 310.06 236.524 311.371Z" fill="white" fill-opacity="0.25"/>
<path d="M138.467 316.581C138.687 315.24 138.86 314.561 139.074 314.301C139.132 314.636 138.947 315.309 138.467 316.581Z" fill="white" fill-opacity="0.25"/>
<path d="M56.0808 263.008C57.0438 262.051 57.581 261.604 57.9091 261.521C57.7606 261.826 57.213 262.26 56.0808 263.008Z" fill="white" fill-opacity="0.25"/>
<path d="M20.8361 171.115C22.1757 170.906 22.8724 170.86 23.1866 170.987C22.8874 171.15 22.1896 171.179 20.8361 171.115Z" fill="white" fill-opacity="0.25"/>
<path d="M49.3709 78.0653C55.8655 75.1984 58.722 76.6289 59.0391 75.9281C68.0257 55.385 46.3769 40.3266 46.7409 39.7127C47.7656 37.9636 56.9913 47.0218 60.2955 55.0897C63.1017 61.8833 62.6587 66.4529 63.0139 72.7254C64.7151 73.791 68.4531 76.9996 71.5909 85.8377C71.5909 85.8377 73.0882 83.4979 75.3861 87.6969C81.173 98.2725 78.3714 93.17 80.0333 90.8765C80.8957 89.6892 84.8134 98.6027 89.0996 98.3942C87.1696 92.1218 94.8143 102.605 100.301 95.035C104.471 89.278 97.9163 94.7106 97.5495 93.1295C106.707 87.7374 94.5341 76.849 99.0387 74.1095C99.1958 76.9475 105.679 79.548 105.263 89.8572C104.847 100.161 96.0626 104.777 83.7892 99.8826C68.0615 93.6044 62.8499 71.7408 63.23 75.5633C63.6707 80.3936 64.5464 84.83 66.1153 88.9537C61.7211 89.1969 57.3217 90.2047 52.7438 91.7742C49.1115 92.9789 71.1438 88.8378 83.274 100.676C92.74 109.914 92.1201 119.835 82.9031 124.422C73.6861 129.003 68.6755 124.132 66.0235 125.146C66.6832 119.904 81.563 126.611 82.7391 116.024C84.3276 115.717 82.0551 123.93 85.5944 117.767C90.2526 109.659 77.5858 106.937 84.0855 106.143C82.5305 102.136 72.8127 102.182 73.5457 100.908C74.9563 98.452 80.7421 98.9385 68.7523 97.9539C63.9901 97.5601 65.5146 95.2319 65.5146 95.2319C56.1837 95.9674 51.7364 93.8534 50.0757 92.7298C44.2165 94.9596 40.2354 97.23 32.9049 97.4327C24.2124 97.6991 12.1972 92.9441 13.3716 91.2935C13.7864 90.7085 36.3241 104.389 51.3702 87.7838C51.8797 87.2046 49.4102 85.1775 49.3709 78.0653ZM55.6523 82.1485C55.8048 81.911 55.9562 81.6677 56.107 81.4245C55.8632 81.6156 55.6188 81.7951 55.3745 81.9689C55.319 82.2585 55.2537 82.5596 55.1787 82.8608C55.3404 82.6234 55.4981 82.3859 55.6523 82.1485ZM58.1443 83.7701C58.1691 82.2006 57.8653 82.2122 57.4748 83.3358C56.6118 84.1466 56.7273 84.4304 58.1443 83.7701ZM60.8801 85.5481C61.1984 84.8705 61.7408 84.1929 62.5737 83.5732C60.3151 72.8296 62.6396 71.6075 59.9373 77.8857C59.5307 80.1271 59.2748 82.3106 59.1668 84.4362C57.2796 85.3976 55.3953 86.5211 53.5156 87.8069C48.9007 92.8457 49.0683 90.2163 59.7751 87.8996C59.9986 86.886 60.3949 86.1157 60.8801 85.5481Z" fill="white" fill-opacity="0.25"/>
<path d="M123.835 17.5357C130.767 19.0474 132.234 21.8853 132.905 21.5089C152.221 10.1803 143.533 -14.7588 144.186 -15.0425C146.04 -15.8534 148.195 -3.08271 146.139 5.39054C144.429 12.5375 141.39 15.972 137.999 21.2598C138.75 23.1189 139.894 27.9202 137.248 36.9205C137.248 36.9205 139.836 35.907 139.23 40.662C137.716 52.6276 138.438 46.8475 141.125 45.9729C142.522 45.5212 140.466 55.0428 144.059 57.3942C146.173 51.1797 146.208 64.1704 155.086 61.2804C161.833 59.0795 153.348 59.6124 153.977 58.1181C164.548 59.1549 161.082 43.1698 166.333 43.6042C164.791 45.9961 168.511 51.921 162.134 60.012C155.756 68.1088 145.948 66.6667 138.889 55.4713C129.843 41.1195 138.444 20.3679 136.515 23.6808C134.037 27.845 132.142 31.9513 130.998 36.2139C127.296 33.822 123.148 32.0439 118.527 30.6134C114.876 29.4492 135.128 39.0808 138.005 55.8072C140.247 68.8617 133.927 76.5241 123.783 74.7982C113.64 73.0781 112.444 66.1802 109.7 65.4389C113.311 61.5874 121.415 75.7828 128.572 67.9119C130.039 68.6011 123.385 73.9063 129.86 71.0047C138.386 67.1879 129.733 57.5216 135.458 60.7128C136.549 56.5486 128.659 50.8612 129.999 50.2646C132.581 49.1063 136.977 52.9114 127.85 45.0463C124.228 41.9246 126.828 40.94 126.828 40.94C118.85 36.0344 116.488 31.7022 115.806 29.8141C109.758 28.1693 105.206 27.6596 99.1563 23.5012C91.9686 18.5956 85.0333 7.66669 86.9511 7.02381C87.6298 6.79793 97.8433 31.1462 119.751 26.5766C120.502 26.4144 119.694 23.3158 123.835 17.5357ZM126.521 24.5437C126.781 24.4394 127.047 24.3352 127.313 24.2251C127.001 24.2367 126.701 24.2368 126.4 24.231C126.186 24.4337 125.955 24.6364 125.719 24.8391C125.99 24.7406 126.256 24.6421 126.521 24.5437ZM127.584 27.3237C128.526 26.0669 128.272 25.899 127.301 26.5766C126.123 26.7272 126.054 27.0225 127.584 27.3237ZM128.757 30.3702C129.41 30.0111 130.247 29.7852 131.281 29.7736C135.758 19.7539 138.352 20.1304 132.489 23.617C130.842 25.1923 129.352 26.8082 128.023 28.4647C125.932 28.1287 123.749 27.926 121.473 27.8623C114.789 29.2176 116.465 27.1905 126.481 31.6269C127.261 30.9377 128.029 30.5439 128.757 30.3702Z" fill="white" fill-opacity="0.25"/>
<path d="M219.559 12.4512C224.284 17.7564 223.804 20.9244 224.567 21.0113C246.835 23.2295 254.426 -2.06281 255.125 -1.90643C257.1 -1.47205 251.353 10.1229 244.721 15.7698C239.147 20.5422 234.676 21.5326 228.836 23.8087C228.351 25.7605 226.462 30.3186 219.045 36.0408C219.045 36.0408 221.731 36.7416 218.461 40.234C210.218 49.02 214.186 44.7747 216.878 45.6492C218.271 46.101 211.027 52.5934 212.552 56.6186C217.901 52.8367 210.322 63.366 219.201 66.2618C225.942 68.4569 218.767 63.8872 220.154 63.0474C228.102 70.1133 234.664 55.1418 238.656 58.5878C236.01 59.6187 235.548 66.5977 225.641 69.3893C215.735 72.1809 208.647 65.2309 209.496 52.0142C210.594 35.0735 229.72 23.3512 226.213 24.8917C221.765 26.803 217.826 29.0096 214.4 31.7839C212.812 27.666 210.495 23.7856 207.596 19.9051C205.325 16.8124 216.064 36.5388 208.583 51.7652C202.743 63.6498 193.143 66.1229 185.945 58.75C178.748 51.3772 181.826 45.0932 180.042 42.8808C185.217 41.8904 183.455 58.1477 193.859 55.999C194.645 57.4179 186.147 57.7886 193.091 59.2597C202.223 61.1941 200.889 48.2786 203.65 54.2325C206.972 51.5104 203.922 42.2553 205.36 42.5622C208.121 43.1472 209.45 48.8115 206.683 37.0775C205.579 32.4152 208.26 33.1507 208.26 33.1507C204.678 24.4806 205.308 19.5866 205.863 17.6521C201.935 12.7581 198.549 9.66541 196.094 2.73275C193.16 -5.47408 193.951 -18.3953 195.881 -17.7872C196.562 -17.5729 190.555 8.14217 210.952 17.3625C211.656 17.6695 212.823 14.6868 219.559 12.4512ZM217.624 19.7024C217.895 19.7719 218.172 19.8414 218.45 19.9109C218.195 19.7371 217.947 19.5634 217.71 19.3839C217.416 19.4186 217.109 19.4476 216.803 19.4707C217.081 19.5518 217.352 19.6271 217.624 19.7024ZM216.855 22.5809C218.351 22.1176 218.247 21.8337 217.063 21.8048C216.023 21.2372 215.792 21.4341 216.855 22.5809ZM216.012 25.7374C216.751 25.83 217.566 26.1427 218.409 26.7451C227.906 21.2719 229.783 23.1079 222.996 22.4708C220.737 22.7778 218.588 23.2064 216.543 23.7624C215.047 22.2565 213.395 20.8086 211.593 19.4128C205.389 16.5691 207.936 15.9146 213.441 25.413C214.47 25.3145 215.324 25.4478 216.012 25.7374Z" fill="white" fill-opacity="0.25"/>
<path d="M299.978 64.7501C300.689 71.8275 298.447 74.1094 299.013 74.6249C315.731 89.5443 336.699 73.5534 337.173 74.092C338.513 75.6095 327.064 81.6097 318.394 82.2642C311.086 82.8433 306.887 81.0073 300.821 79.4088C299.291 80.7004 295.091 83.2719 285.733 83.5325C285.733 83.5325 287.495 85.687 282.804 86.579C270.986 88.8261 276.687 87.7315 278.345 90.025C279.211 91.2181 269.542 92.1969 268.421 96.3495C274.966 96.448 262.656 100.496 268.144 108.072C272.314 113.823 269.189 105.894 270.801 106.033C273.083 116.435 287.172 108.188 288.385 113.331C285.641 112.601 281.17 117.982 271.523 114.396C261.87 110.817 260.212 101.018 268.646 90.8243C279.466 77.7698 301.809 79.5536 298.072 78.737C293.352 77.6655 288.87 77.1269 284.474 77.3528C285.6 73.0843 286.005 68.5784 285.935 63.7307C285.912 59.8908 283.03 82.1831 268.051 90.0887C256.365 96.2627 247.146 92.6023 245.644 82.3974C244.148 72.1924 250.317 68.9201 250.173 66.0764C254.938 68.3293 243.98 80.4398 253.656 84.8356C253.46 86.4457 246.372 81.7429 251.12 87.0191C257.376 93.9692 263.875 82.7333 262.616 89.1737C266.902 88.9304 269.853 79.6463 270.841 80.7409C272.736 82.8433 270.483 88.2122 275.127 77.0864C276.97 72.6615 278.703 74.8392 278.703 74.8392C280.892 65.7115 284.272 62.1264 285.849 60.887C285.543 54.6088 284.618 50.1144 286.692 43.0602C289.13 34.6912 297.35 24.7005 298.551 26.3338C298.979 26.9071 279.038 44.1722 290.141 63.6496C290.528 64.3157 293.22 62.5898 299.978 64.7501ZM294.161 69.4761C294.34 69.6961 294.525 69.9163 294.71 70.1306C294.606 69.841 294.508 69.5514 294.421 69.2676C294.161 69.1228 293.895 68.9664 293.635 68.8042C293.809 69.0301 293.988 69.256 294.161 69.4761ZM291.856 71.3526C293.335 71.8565 293.422 71.5669 292.474 70.8487C291.972 69.7714 291.666 69.7946 291.856 71.3526ZM289.32 73.4086C289.863 73.9241 290.343 74.6481 290.672 75.6327C301.561 76.8026 302.006 79.3973 296.888 74.8798C294.877 73.7967 292.89 72.8758 290.909 72.1229C290.58 70.0263 290.094 67.8776 289.453 65.6883C286.103 59.7345 288.546 60.7017 287.431 71.6306C288.327 72.1576 288.933 72.7716 289.32 73.4086Z" fill="white" fill-opacity="0.25"/>
<path d="M334.382 154.457C330.807 160.602 327.658 161.123 327.814 161.882C332.586 183.798 358.927 183.219 358.996 183.931C359.193 185.952 346.415 184.059 339.015 179.477C332.759 175.637 330.437 171.676 326.474 166.811C324.476 166.956 319.566 166.562 311.848 161.257C311.848 161.257 312.01 164.037 307.689 161.992C296.806 156.849 302.063 159.322 302.063 162.154C302.063 163.625 293.669 158.726 290.325 161.419C295.564 165.357 283.231 161.378 283.231 170.738C283.231 177.85 285.351 169.597 286.57 170.657C282.324 180.421 298.556 182.055 296.517 186.925C294.727 184.719 287.956 186.433 282.255 177.85C276.548 169.267 280.95 160.359 293.75 157.087C310.15 152.899 327.185 167.512 324.637 164.645C321.449 160.996 318.139 157.926 314.453 155.511C317.862 152.725 320.831 149.314 323.615 145.353C325.85 142.231 310.45 158.569 293.698 156.143C280.626 154.243 275.306 145.851 280.077 136.711C284.849 127.572 291.757 128.562 293.311 126.176C295.847 130.81 279.881 134.151 285.132 143.407C284.028 144.594 281.053 136.607 281.799 143.679C282.786 152.986 294.634 147.727 289.834 152.193C293.444 154.521 301.277 148.758 301.433 150.218C301.733 153.038 296.766 156.056 307.042 149.783C311.126 147.299 311.259 150.079 311.259 150.079C318.376 143.986 323.211 143.077 325.215 143.007C328.646 137.742 330.535 133.561 336.346 129.078C343.226 123.744 355.732 120.506 355.75 122.533C355.756 123.252 329.507 125.464 327.064 147.768C326.994 148.532 330.183 148.723 334.382 154.457ZM326.908 154.851C326.925 155.135 326.942 155.419 326.965 155.702C327.046 155.407 327.139 155.117 327.237 154.834C327.11 154.561 326.988 154.283 326.873 153.994C326.879 154.283 326.89 154.567 326.908 154.851ZM323.938 155.007C324.84 156.293 325.082 156.102 324.736 154.967C324.955 153.797 324.695 153.641 323.938 155.007ZM320.686 155.181C320.825 155.917 320.779 156.785 320.467 157.776C328.594 165.137 327.433 167.5 325.943 160.828C324.955 158.772 323.881 156.855 322.725 155.077C323.684 153.183 324.551 151.162 325.319 149.013C326.099 142.219 327.503 144.443 320.195 152.627C320.611 153.577 320.744 154.44 320.686 155.181Z" fill="white" fill-opacity="0.25"/>
<path d="M309.623 247.304C303.13 250.169 300.277 248.736 299.959 249.438C290.971 269.984 312.621 285.038 312.257 285.657C311.229 287.404 302.004 278.342 298.7 270.277C295.898 263.483 296.337 258.914 295.985 252.64C294.281 251.577 290.543 248.368 287.406 239.527C287.406 239.527 285.91 241.871 283.611 237.671C277.823 227.096 280.625 232.196 278.961 234.489C278.101 235.68 274.184 226.763 269.898 226.975C271.827 233.248 264.185 222.762 258.697 230.334C254.526 236.087 261.083 230.658 261.447 232.238C252.285 237.631 264.462 248.518 259.956 251.259C259.8 248.417 253.319 245.818 253.735 235.511C254.151 225.204 262.931 220.59 275.206 225.487C290.936 231.765 296.146 253.624 295.765 249.806C295.326 244.976 294.448 240.538 292.883 236.415C297.273 236.17 301.674 235.162 306.255 233.595C309.883 232.387 287.851 236.529 275.721 224.691C266.259 215.453 266.877 205.528 276.096 200.947C285.31 196.366 290.318 201.237 292.975 200.223C292.311 205.465 277.436 198.758 276.258 209.342C274.669 209.65 276.939 201.44 273.404 207.596C268.743 215.71 281.41 218.432 274.912 219.224C276.466 223.233 286.182 223.184 285.454 224.46C284.039 226.916 278.256 226.431 290.243 227.416C295.008 227.807 293.483 230.133 293.483 230.133C302.812 229.401 307.26 231.514 308.918 232.638C314.781 230.404 318.761 228.136 326.092 227.934C334.786 227.67 346.801 232.421 345.628 234.072C345.212 234.657 322.672 220.977 307.624 237.582C307.116 238.159 309.588 240.189 309.623 247.304ZM303.344 243.219C303.194 243.456 303.038 243.698 302.888 243.943C303.13 243.751 303.379 243.571 303.621 243.4C303.679 243.106 303.742 242.809 303.818 242.508C303.656 242.746 303.5 242.983 303.344 243.219ZM300.854 241.599C300.825 243.165 301.132 243.157 301.519 242.034C302.385 241.219 302.27 240.937 300.854 241.599ZM298.116 239.819C297.798 240.495 297.255 241.172 296.424 241.791C298.682 252.537 296.354 253.762 299.058 247.484C299.468 245.239 299.722 243.054 299.832 240.934C301.715 239.971 303.604 238.845 305.481 237.557C310.097 232.523 309.929 235.15 299.219 237.465C299 238.48 298.601 239.254 298.116 239.819Z" fill="white" fill-opacity="0.25"/>
<path d="M235.164 307.831C228.232 306.321 226.759 303.479 226.089 303.859C206.778 315.186 215.466 340.123 214.808 340.409C212.954 341.219 210.805 328.45 212.861 319.978C214.571 312.829 217.609 309.393 221 304.107C220.249 302.245 219.106 297.446 221.751 288.444C221.751 288.444 219.163 289.459 219.764 284.707C221.283 272.741 220.561 278.517 217.875 279.393C216.477 279.847 218.534 270.325 214.941 267.971C212.826 274.184 212.792 261.195 203.913 264.087C197.166 266.284 205.652 265.754 205.022 267.248C194.451 266.214 197.917 282.196 192.666 281.76C194.203 279.368 190.483 273.446 196.86 265.352C203.243 257.258 213.052 258.702 220.111 269.897C229.151 284.244 220.555 305.001 222.485 301.687C224.963 297.521 226.852 293.413 228.001 289.154C231.698 291.545 235.852 293.322 240.473 294.753C244.118 295.916 223.865 286.283 220.994 269.557C218.753 256.504 225.073 248.841 235.216 250.566C245.36 252.29 246.556 259.185 249.294 259.927C245.689 263.779 237.585 249.584 230.428 257.454C228.96 256.768 235.615 251.462 229.139 254.361C220.613 258.178 229.266 267.846 223.542 264.655C222.45 268.816 230.341 274.503 229.001 275.103C226.419 276.258 222.023 272.457 231.144 280.319C234.766 283.442 232.172 284.426 232.172 284.426C240.149 289.332 242.506 293.663 243.194 295.551C249.242 297.197 253.794 297.707 259.842 301.864C267.028 306.773 273.965 317.698 272.047 318.341C271.366 318.57 261.153 294.221 239.248 298.788C238.497 298.955 239.306 302.052 235.164 307.831ZM232.478 300.824C232.218 300.927 231.953 301.032 231.687 301.142C231.993 301.131 232.299 301.128 232.599 301.135C232.813 300.93 233.038 300.728 233.281 300.528C233.01 300.625 232.744 300.724 232.478 300.824ZM231.41 298.045C230.474 299.297 230.728 299.47 231.698 298.791C232.877 298.641 232.946 298.344 231.41 298.045ZM230.243 294.993C229.59 295.352 228.752 295.58 227.718 295.59C223.242 305.615 220.642 305.236 226.511 301.75C228.157 300.173 229.648 298.556 230.976 296.904C233.067 297.237 235.251 297.437 237.527 297.503C244.21 296.15 242.535 298.177 232.519 293.739C231.739 294.429 230.965 294.821 230.243 294.993Z" fill="white" fill-opacity="0.25"/>
<path d="M139.441 312.917C134.716 307.609 135.195 304.443 134.427 304.357C112.164 302.138 104.574 327.432 103.875 327.277C101.899 326.84 107.641 315.241 114.273 309.599C119.853 304.824 124.324 303.834 130.164 301.556C130.649 299.607 132.532 295.05 139.949 289.326C139.949 289.326 137.263 288.623 140.539 285.133C148.782 276.348 144.813 280.595 142.121 279.719C140.729 279.265 147.973 272.773 146.448 268.751C141.093 272.531 148.678 262.001 139.799 259.108C133.052 256.911 140.232 261.482 138.846 262.32C130.897 255.253 124.335 270.227 120.344 266.779C122.989 265.751 123.452 258.767 133.358 255.978C143.259 253.189 150.353 260.139 149.498 273.355C148.406 290.293 129.28 302.018 132.786 300.475C137.229 298.562 141.168 296.355 144.594 293.585C146.188 297.7 148.504 301.584 151.404 305.465C153.669 308.555 142.936 288.826 150.416 273.6C156.251 261.72 165.857 259.244 173.055 266.618C180.246 273.99 177.173 280.273 178.958 282.489C173.782 283.479 175.544 267.219 165.141 269.368C164.355 267.948 172.852 267.577 165.909 266.106C156.776 264.171 158.111 277.092 155.35 271.137C152.028 273.859 155.078 283.11 153.64 282.806C150.873 282.22 149.544 276.553 152.317 288.291C153.42 292.952 150.74 292.218 150.74 292.218C154.316 300.888 153.686 305.782 153.137 307.713C157.065 312.61 160.444 315.705 162.905 322.632C165.84 330.84 165.048 343.765 163.119 343.156C162.432 342.94 168.445 317.223 148.048 308.007C147.337 307.699 146.176 310.681 139.441 312.917ZM141.376 305.665C141.105 305.594 140.827 305.523 140.55 305.455C140.804 305.628 141.053 305.806 141.289 305.986C141.584 305.949 141.89 305.919 142.196 305.897C141.919 305.816 141.648 305.739 141.376 305.665ZM142.144 302.788C140.648 303.249 140.752 303.536 141.936 303.561C142.976 304.132 143.207 303.934 142.144 302.788ZM142.982 299.63C142.243 299.535 141.434 299.227 140.591 298.624C131.094 304.098 129.217 302.26 136.004 302.898C138.263 302.591 140.411 302.16 142.456 301.608C143.952 303.109 145.605 304.559 147.407 305.953C153.605 308.799 151.063 309.45 145.558 299.956C144.524 300.056 143.669 299.918 142.982 299.63Z" fill="white" fill-opacity="0.25"/>
<path d="M59.0207 260.618C58.3102 253.54 60.5515 251.26 59.9837 250.74C43.2716 235.822 22.3028 251.813 21.8274 251.275C20.4861 249.757 31.9334 243.761 40.6051 243.102C47.9159 242.526 52.1137 244.361 58.175 245.96C59.7087 244.666 63.9076 242.094 73.2639 241.834C73.2639 241.834 71.5032 239.682 76.1966 238.788C88.0154 236.538 82.3128 237.634 80.6509 235.341C79.7884 234.15 89.4578 233.169 90.5807 229.017C84.0336 228.919 96.3428 224.87 90.8557 217.298C86.6868 211.545 89.8119 219.472 88.2003 219.333C85.9151 208.932 71.8255 217.178 70.6165 212.035C73.3615 212.764 77.8302 207.388 87.4787 210.968C97.1267 214.548 98.7892 224.35 90.3503 234.54C79.536 247.598 57.1901 245.813 60.9299 246.63C65.647 247.702 70.1284 248.238 74.5232 248.016C73.3979 252.282 72.9953 256.79 73.0663 261.638C73.09 265.475 75.969 243.187 90.947 235.277C102.636 229.106 111.855 232.763 113.357 242.969C114.853 253.174 108.684 256.445 108.828 259.289C104.057 257.04 115.021 244.924 105.339 240.532C105.541 238.921 112.629 243.626 107.875 238.346C101.625 231.398 95.1251 242.636 96.3838 236.193C92.1 236.436 89.1435 245.719 88.1598 244.626C86.2657 242.522 88.5145 237.155 83.8748 248.283C82.0321 252.703 80.2962 250.53 80.2962 250.53C78.1081 259.654 74.7288 263.242 73.1501 264.479C73.4574 270.756 74.3793 275.253 72.3055 282.305C69.8702 290.676 61.6508 300.665 60.4481 299.035C60.0212 298.458 79.9612 281.195 68.8599 261.716C68.47 261.052 65.781 262.779 59.0207 260.618ZM64.8365 255.891C64.658 255.672 64.4761 255.453 64.29 255.234C64.3969 255.525 64.4928 255.814 64.5789 256.1C64.84 256.243 65.1022 256.398 65.3651 256.562C65.1889 256.335 65.0127 256.111 64.8365 255.891ZM67.1437 254.015C65.6649 253.507 65.5799 253.8 66.5238 254.519C67.0299 255.594 67.3337 255.57 67.1437 254.015ZM69.6761 251.956C69.1343 251.444 68.6594 250.718 68.329 249.732C57.4379 248.565 56.9943 245.971 62.1146 250.487C64.1191 251.569 66.1126 252.488 68.0899 253.246C68.4209 255.343 68.9049 257.488 69.5467 259.678C72.8959 265.634 70.4553 264.663 71.5685 253.738C70.6748 253.21 70.0637 252.595 69.6761 251.956Z" fill="white" fill-opacity="0.25"/>
<path d="M24.6142 170.911C28.1893 164.766 31.3387 164.245 31.185 163.486C26.4102 141.571 0.070388 142.15 0.00222501 141.432C-0.193599 139.416 12.5829 141.31 19.9849 145.885C26.2369 149.731 28.5579 153.687 32.5235 158.558C34.5222 158.413 39.4281 158.807 47.1496 164.112C47.1496 164.112 46.9862 161.332 51.3082 163.371C62.1883 168.519 56.9333 166.046 56.9333 163.208C56.9333 161.737 65.3301 166.643 68.673 163.944C63.4337 160.006 75.766 163.984 75.766 154.625C75.766 147.513 73.6466 155.772 72.4237 154.706C76.6729 144.947 60.4403 143.314 62.4771 138.443C64.2707 140.65 71.0379 138.93 76.7445 147.513C82.4511 156.096 78.0494 165.01 65.2487 168.276C48.8451 172.469 31.813 157.857 34.3599 160.718C37.5468 164.367 40.8584 167.442 44.5444 169.851C41.1322 172.643 38.1643 176.049 35.3788 180.016C33.1491 183.132 48.5447 166.799 65.2989 169.226C78.3729 171.12 83.6885 179.518 78.9188 188.651C74.1492 197.796 67.2387 196.806 65.6877 199.186C63.1489 194.559 79.1181 191.217 73.8638 181.962C74.9682 180.775 77.9461 188.756 77.1963 181.684C76.2096 172.377 64.3654 177.641 69.1605 173.17C65.5525 170.842 57.7189 176.61 57.5641 175.145C57.2649 172.33 62.231 169.313 51.9528 175.579C47.8711 178.07 47.7406 175.29 47.7406 175.29C40.6216 181.383 35.7838 182.292 33.7822 182.362C30.351 187.62 28.4603 191.802 22.648 196.285C15.771 201.625 3.26538 204.862 3.2469 202.835C3.23996 202.117 29.4931 199.899 31.9308 177.601C32.0047 176.83 28.8167 176.645 24.6142 170.911ZM32.0903 170.518C32.0747 170.234 32.0556 169.95 32.0336 169.66C31.9493 169.962 31.858 170.251 31.7598 170.529C31.8869 170.801 32.0082 171.079 32.1249 171.369C32.1157 171.079 32.1041 170.796 32.0903 170.518ZM35.0565 170.355C34.1582 169.075 33.9173 169.261 34.2605 170.402C34.0392 171.566 34.2986 171.728 35.0565 170.355ZM38.3127 170.182C38.1741 169.452 38.2157 168.583 38.5276 167.593C30.4 160.226 31.5623 157.868 33.0567 164.54C34.0444 166.597 35.1177 168.514 36.2736 170.292C35.3118 172.186 34.4465 174.207 33.6811 176.356C32.8984 183.149 31.4941 180.925 38.7991 172.741C38.3849 171.786 38.2521 170.929 38.3127 170.182Z" fill="white" fill-opacity="0.25"/>
</svg>
