<svg width="20" height="20" viewBox="0 0 20 20" fill="none" xmlns="http://www.w3.org/2000/svg">
<path d="M10 17.1826C8.96973 17.1826 8.00293 16.9873 7.09961 16.5967C6.19629 16.2109 5.40283 15.6763 4.71924 14.9927C4.03564 14.3091 3.49854 13.5156 3.10791 12.6123C2.72217 11.709 2.5293 10.7422 2.5293 9.71191C2.5293 8.68164 2.72217 7.71484 3.10791 6.81152C3.49854 5.9082 4.03564 5.11475 4.71924 4.43115C5.40283 3.74268 6.19629 3.20557 7.09961 2.81982C8.00293 2.43408 8.96973 2.24121 10 2.24121C11.0303 2.24121 11.9971 2.43408 12.9004 2.81982C13.8037 3.20557 14.5972 3.74268 15.2808 4.43115C15.9644 5.11475 16.499 5.9082 16.8848 6.81152C17.2754 7.71484 17.4707 8.68164 17.4707 9.71191C17.4707 10.7422 17.2754 11.709 16.8848 12.6123C16.499 13.5156 15.9644 14.3091 15.2808 14.9927C14.5972 15.6763 13.8037 16.2109 12.9004 16.5967C11.9971 16.9873 11.0303 17.1826 10 17.1826ZM10 15.9375C10.8594 15.9375 11.665 15.7764 12.417 15.4541C13.1689 15.1318 13.8306 14.6851 14.4019 14.1138C14.9731 13.5425 15.4199 12.8809 15.7422 12.1289C16.0645 11.377 16.2256 10.5713 16.2256 9.71191C16.2256 8.85254 16.0645 8.04688 15.7422 7.29492C15.4199 6.53809 14.9731 5.87646 14.4019 5.31006C13.8306 4.73877 13.1689 4.29199 12.417 3.96973C11.665 3.64746 10.8594 3.48633 10 3.48633C9.14062 3.48633 8.33496 3.64746 7.58301 3.96973C6.83105 4.29199 6.16943 4.73877 5.59814 5.31006C5.02686 5.87646 4.58008 6.53809 4.25781 7.29492C3.93555 8.04688 3.77441 8.85254 3.77441 9.71191C3.77441 10.5713 3.93555 11.377 4.25781 12.1289C4.58008 12.8809 5.02686 13.5425 5.59814 14.1138C6.16943 14.6851 6.83105 15.1318 7.58301 15.4541C8.33496 15.7764 9.14062 15.9375 10 15.9375ZM9.99268 13.3813C9.48486 13.3813 9.03809 13.291 8.65234 13.1104C8.2666 12.9248 7.96631 12.7148 7.75146 12.4805C7.5415 12.2412 7.43652 12.041 7.43652 11.8799C7.43652 11.792 7.4707 11.731 7.53906 11.6968C7.60742 11.6626 7.68066 11.6626 7.75879 11.6968C8.02734 11.8433 8.33252 11.9849 8.67432 12.1216C9.021 12.2534 9.46045 12.3193 9.99268 12.3193C10.5249 12.3193 10.9619 12.2534 11.3037 12.1216C11.6504 11.9849 11.9556 11.8433 12.2192 11.6968C12.2974 11.6626 12.3706 11.6626 12.439 11.6968C12.5122 11.731 12.5488 11.792 12.5488 11.8799C12.5488 12.041 12.4414 12.2412 12.2266 12.4805C12.0166 12.7148 11.7188 12.9248 11.333 13.1104C10.9473 13.291 10.5005 13.3813 9.99268 13.3813ZM7.81738 9.06006C7.58789 9.06006 7.3877 8.96729 7.2168 8.78174C7.0459 8.59131 6.96045 8.34961 6.96045 8.05664C6.96045 7.76367 7.0459 7.52197 7.2168 7.33154C7.3877 7.14111 7.58789 7.0459 7.81738 7.0459C8.05176 7.0459 8.25684 7.14111 8.43262 7.33154C8.6084 7.52197 8.69629 7.76367 8.69629 8.05664C8.69629 8.34961 8.6084 8.59131 8.43262 8.78174C8.25684 8.96729 8.05176 9.06006 7.81738 9.06006ZM12.1606 9.06006C11.9312 9.06006 11.731 8.96729 11.5601 8.78174C11.3892 8.59131 11.3037 8.34961 11.3037 8.05664C11.3037 7.76367 11.3892 7.52197 11.5601 7.33154C11.731 7.14111 11.9312 7.0459 12.1606 7.0459C12.395 7.0459 12.6001 7.14111 12.7759 7.33154C12.9517 7.52197 13.0396 7.76367 13.0396 8.05664C13.0396 8.34961 12.9517 8.59131 12.7759 8.78174C12.6001 8.96729 12.395 9.06006 12.1606 9.06006Z" fill="#171717"/>
</svg>
