<svg width="25" height="22" viewBox="0 0 25 22" fill="none" xmlns="http://www.w3.org/2000/svg">
<path d="M2.46045 11.0068C2.46045 10.7965 2.54622 10.6112 2.71777 10.4507L8.21289 4.96387C8.30143 4.87533 8.38997 4.81169 8.47852 4.77295C8.57259 4.73421 8.66943 4.71484 8.76904 4.71484C8.9738 4.71484 9.14535 4.78402 9.28369 4.92236C9.42757 5.05518 9.49951 5.22396 9.49951 5.42871C9.49951 5.52832 9.48014 5.62516 9.44141 5.71924C9.4082 5.80778 9.3584 5.88525 9.29199 5.95166L7.43262 7.84424L4.14551 10.8491L3.97119 10.4341L6.64404 10.2681H17.1445C17.3604 10.2681 17.5347 10.3372 17.6675 10.4756C17.8058 10.6139 17.875 10.791 17.875 11.0068C17.875 11.2227 17.8058 11.3997 17.6675 11.5381C17.5347 11.6764 17.3604 11.7456 17.1445 11.7456H6.64404L3.97119 11.5796L4.14551 11.1729L7.43262 14.1694L9.29199 16.062C9.3584 16.1284 9.4082 16.2087 9.44141 16.3027C9.48014 16.3913 9.49951 16.4854 9.49951 16.585C9.49951 16.7897 9.42757 16.9585 9.28369 17.0913C9.14535 17.2297 8.9738 17.2988 8.76904 17.2988C8.56982 17.2988 8.38997 17.2214 8.22949 17.0664L2.71777 11.563C2.54622 11.4025 2.46045 11.2171 2.46045 11.0068Z" fill="#3F3D3C"/>
</svg>
