<svg width="36" height="44" viewBox="0 0 36 44" fill="none" xmlns="http://www.w3.org/2000/svg">
<path d="M18.4604 22.0068C18.4604 21.7965 18.5462 21.6112 18.7178 21.4507L24.2129 15.9639C24.3014 15.8753 24.39 15.8117 24.4785 15.7729C24.5726 15.7342 24.6694 15.7148 24.769 15.7148C24.9738 15.7148 25.1453 15.784 25.2837 15.9224C25.4276 16.0552 25.4995 16.224 25.4995 16.4287C25.4995 16.5283 25.4801 16.6252 25.4414 16.7192C25.4082 16.8078 25.3584 16.8853 25.292 16.9517L23.4326 18.8442L20.1455 21.8491L19.9712 21.4341L22.644 21.2681H33.1445C33.3604 21.2681 33.5347 21.3372 33.6675 21.4756C33.8058 21.6139 33.875 21.791 33.875 22.0068C33.875 22.2227 33.8058 22.3997 33.6675 22.5381C33.5347 22.6764 33.3604 22.7456 33.1445 22.7456H22.644L19.9712 22.5796L20.1455 22.1729L23.4326 25.1694L25.292 27.062C25.3584 27.1284 25.4082 27.2087 25.4414 27.3027C25.4801 27.3913 25.4995 27.4854 25.4995 27.585C25.4995 27.7897 25.4276 27.9585 25.2837 28.0913C25.1453 28.2297 24.9738 28.2988 24.769 28.2988C24.5698 28.2988 24.39 28.2214 24.2295 28.0664L18.7178 22.563C18.5462 22.4025 18.4604 22.2171 18.4604 22.0068Z" fill="#3F3D3C"/>
</svg>
