<svg width="16" height="16" viewBox="0 0 16 16" fill="none" xmlns="http://www.w3.org/2000/svg">
<path d="M0 1.06641H15.4667V8.31169C15.4667 10.3058 14.4029 12.1485 12.6761 13.1456L7.73339 15.9997L2.79065 13.1456C1.06377 12.1485 1.77268e-06 10.3058 1.77268e-06 8.31169L0 1.06641Z" fill="#397E5B"/>
<path fill-rule="evenodd" clip-rule="evenodd" d="M4.26562 4.79932V7.20342C4.59437 6.83217 5.19211 6.58097 5.87555 6.58097H6.61821V9.37569C6.61821 10.1192 6.41618 10.8473 6.11645 11.2052H9.34701C9.04792 10.8469 8.84637 10.1197 8.84637 9.37713V6.58097H9.58909C10.2725 6.58097 10.8702 6.83217 11.199 7.20342V4.79932H4.26562Z" fill="#FFFDFB"/>
</svg>
