<svg width="20" height="20" viewBox="0 0 20 20" fill="none" xmlns="http://www.w3.org/2000/svg">
<path fill-rule="evenodd" clip-rule="evenodd" d="M6.2486 5V5.625H4.59277C3.79277 5.625 3.12277 6.22833 3.0386 7.02417L1.9861 17.0242C1.96321 17.242 1.98635 17.4621 2.05403 17.6704C2.12171 17.8787 2.23241 18.0704 2.37895 18.2331C2.52549 18.3958 2.7046 18.5259 2.90467 18.615C3.10473 18.704 3.32128 18.75 3.54027 18.75H16.4569C16.6759 18.75 16.8925 18.704 17.0925 18.615C17.2926 18.5259 17.4717 18.3958 17.6183 18.2331C17.7648 18.0704 17.8755 17.8787 17.9432 17.6704C18.0108 17.4621 18.034 17.242 18.0111 17.0242L16.9586 7.02417C16.9182 6.64012 16.7371 6.28463 16.4501 6.02626C16.1631 5.76789 15.7906 5.62494 15.4044 5.625H13.7486V5C13.7486 4.00544 13.3535 3.05161 12.6503 2.34835C11.947 1.64509 10.9932 1.25 9.9986 1.25C9.00404 1.25 8.05021 1.64509 7.34695 2.34835C6.64369 3.05161 6.2486 4.00544 6.2486 5ZM9.9986 2.5C9.33556 2.5 8.69967 2.76339 8.23083 3.23223C7.76199 3.70107 7.4986 4.33696 7.4986 5V5.625H12.4986V5C12.4986 4.33696 12.2352 3.70107 11.7664 3.23223C11.2975 2.76339 10.6616 2.5 9.9986 2.5ZM7.4986 9.375C7.4986 10.038 7.76199 10.6739 8.23083 11.1428C8.69967 11.6116 9.33556 11.875 9.9986 11.875C10.6616 11.875 11.2975 11.6116 11.7664 11.1428C12.2352 10.6739 12.4986 10.038 12.4986 9.375V8.75C12.4986 8.58424 12.5644 8.42527 12.6817 8.30806C12.7989 8.19085 12.9578 8.125 13.1236 8.125C13.2894 8.125 13.4483 8.19085 13.5655 8.30806C13.6828 8.42527 13.7486 8.58424 13.7486 8.75V9.375C13.7486 10.3696 13.3535 11.3234 12.6503 12.0266C11.947 12.7299 10.9932 13.125 9.9986 13.125C9.00404 13.125 8.05021 12.7299 7.34695 12.0266C6.64369 11.3234 6.2486 10.3696 6.2486 9.375V8.75C6.2486 8.58424 6.31445 8.42527 6.43166 8.30806C6.54887 8.19085 6.70784 8.125 6.8736 8.125C7.03936 8.125 7.19833 8.19085 7.31554 8.30806C7.43275 8.42527 7.4986 8.58424 7.4986 8.75V9.375Z" fill="#FFFDFB"/>
</svg>
