<svg width="17" height="16" viewBox="0 0 17 16" fill="none" xmlns="http://www.w3.org/2000/svg">
<path d="M12.1182 4.70588V8.94118H11.284C10.891 8.1381 10.1999 7.50952 9.29467 7.13224V6.58824H6.47114V7.13456C5.64849 7.47602 5.01156 8.01851 4.60893 8.69842C4.42188 8.35959 4.19365 8.01901 3.95349 7.67592C3.92378 7.58616 3.64764 7.09318 3.64764 6.33757C3.64764 4.73333 4.89529 3.41522 6.47117 3.30215V5.64706H9.2947V2.35294C9.2947 1.73945 8.90122 1.21638 8.35352 1.02212V0H7.41235V1.02212C6.86461 1.21638 6.47117 1.73945 6.47117 2.35294V2.35909C4.37592 2.47363 2.70646 4.21421 2.70646 6.33754C2.70646 7.34808 3.08089 7.99893 3.12689 8.13647L3.15503 8.17653C3.77903 9.06513 4.16494 9.7387 4.1278 10.267C4.12402 10.3218 4.11532 10.3761 4.10179 10.4294C3.98251 10.8921 3.45856 11.3445 2.5 11.8124L2.91283 12.6582C3.51145 12.366 3.97627 12.0669 4.31917 11.7505C4.41818 12.0413 4.55259 12.3189 4.71936 12.577C4.84311 12.7689 4.95339 12.9692 5.0494 13.1764H10.7159C10.8121 12.9696 10.9217 12.7696 11.0455 12.5784C11.2139 12.3185 11.3493 12.0386 11.4486 11.7452C12.3583 11.6131 13.0594 10.828 13.0594 9.88235V4.70588C13.0594 4.18692 13.4816 3.76471 14.0006 3.76471V2.82353C12.9626 2.82353 12.1182 3.66795 12.1182 4.70588ZM7.41231 11.2941H6.47114V10.3529H7.41231V11.2941ZM9.29467 11.2941H8.35349V10.3529H9.29467V11.2941ZM5.52996 15.3926V16H10.2358V15.3921C10.2358 14.9554 10.2873 14.528 10.387 14.1176H5.3784C5.47835 14.5284 5.52996 14.956 5.52996 15.3926Z" fill="#171717" fill-opacity="0.5"/>
</svg>
