<svg width="20" height="20" viewBox="0 0 20 20" fill="none" xmlns="http://www.w3.org/2000/svg">
<path d="M3.69922 16.4232C3.34928 16.0814 3.35742 15.4792 3.69922 15.1456L8.7041 10.1325L3.69922 5.12766C3.35742 4.79401 3.34928 4.19993 3.69922 3.84186C4.04915 3.49192 4.64323 3.50006 4.98503 3.84186L9.98991 8.84674L14.9948 3.84186C15.3447 3.50006 15.9225 3.50006 16.2806 3.85C16.6387 4.19179 16.6305 4.78587 16.2887 5.12766L11.2839 10.1325L16.2887 15.1456C16.6305 15.4874 16.6305 16.0733 16.2806 16.4232C15.9307 16.7813 15.3447 16.7732 14.9948 16.4314L9.98991 11.4265L4.98503 16.4314C4.64323 16.7732 4.05729 16.7732 3.69922 16.4232Z" fill="#3F3D3C"/>
</svg>
