<svg width="20" height="22" viewBox="0 0 20 22" fill="none" xmlns="http://www.w3.org/2000/svg">
<path d="M10.0474 19.4736C5.38232 19.4736 1.58057 15.6719 1.58057 11.0068C1.58057 6.3335 5.38232 2.54004 10.0474 2.54004C14.7207 2.54004 18.5142 6.3335 18.5142 11.0068C18.5142 15.6719 14.7207 19.4736 10.0474 19.4736ZM7.2583 14.4932C7.44922 14.4932 7.62354 14.4268 7.75635 14.2939L10.0474 11.9863L12.3467 14.2939C12.4712 14.4268 12.6455 14.4932 12.8364 14.4932C13.2266 14.4932 13.5337 14.186 13.5337 13.8042C13.5337 13.6133 13.4673 13.439 13.3262 13.3145L11.0269 11.0151L13.3345 8.70752C13.4839 8.55811 13.542 8.40869 13.542 8.21777C13.542 7.83594 13.2349 7.53711 12.853 7.53711C12.6704 7.53711 12.521 7.59521 12.3799 7.73633L10.0474 10.0522L7.73145 7.74463C7.59863 7.62012 7.44922 7.55371 7.2583 7.55371C6.87646 7.55371 6.57764 7.84424 6.57764 8.23438C6.57764 8.41699 6.64404 8.58301 6.77686 8.71582L9.07617 11.0151L6.77686 13.3228C6.64404 13.4473 6.57764 13.6216 6.57764 13.8042C6.57764 14.186 6.87646 14.4932 7.2583 14.4932Z" fill="#171717" fill-opacity="0.6"/>
</svg>
