<svg width="32" height="32" viewBox="0 0 32 32" fill="none" xmlns="http://www.w3.org/2000/svg">
<path d="M22.9961 11.1962V10.5C22.9961 7.365 18.2673 5 11.9961 5C5.72484 5 0.996094 7.365 0.996094 10.5V15.5C0.996094 18.1112 4.27734 20.1862 8.99609 20.8075V21.5C8.99609 24.635 13.7248 27 19.9961 27C26.2673 27 30.9961 24.635 30.9961 21.5V16.5C30.9961 13.9125 27.8186 11.835 22.9961 11.1962ZM6.99609 18.3587C4.54734 17.675 2.99609 16.5487 2.99609 15.5V13.7412C4.01609 14.4637 5.38234 15.0462 6.99609 15.4375V18.3587ZM16.9961 15.4375C18.6098 15.0462 19.9761 14.4637 20.9961 13.7412V15.5C20.9961 16.5487 19.4448 17.675 16.9961 18.3587V15.4375ZM14.9961 24.3587C12.5473 23.675 10.9961 22.5487 10.9961 21.5V20.9787C11.3248 20.9912 11.6573 21 11.9961 21C12.4811 21 12.9548 20.9837 13.4198 20.9562C13.9364 21.1412 14.4626 21.2981 14.9961 21.4262V24.3587ZM14.9961 18.7812C14.0028 18.928 13.0001 19.0011 11.9961 19C10.9921 19.0011 9.98934 18.928 8.99609 18.7812V15.8075C9.99082 15.9371 10.993 16.0014 11.9961 16C12.9992 16.0014 14.0014 15.9371 14.9961 15.8075V18.7812ZM22.9961 24.7812C21.0067 25.0729 18.9855 25.0729 16.9961 24.7812V21.8C17.9905 21.9337 18.9927 22.0005 19.9961 22C20.9992 22.0014 22.0014 21.9371 22.9961 21.8075V24.7812ZM28.9961 21.5C28.9961 22.5487 27.4448 23.675 24.9961 24.3587V21.4375C26.6098 21.0462 27.9761 20.4637 28.9961 19.7412V21.5Z" fill="#FFFDFB"/>
</svg>
