<svg width="20" height="20" viewBox="0 0 20 20" fill="none" xmlns="http://www.w3.org/2000/svg">
<path d="M9.99967 19.181C8.84082 19.181 7.75358 18.9629 6.73796 18.5267C5.72233 18.0905 4.8304 17.4883 4.06217 16.7201C3.29394 15.9519 2.69173 15.0599 2.25553 14.0443C1.81934 13.0287 1.60124 11.9414 1.60124 10.7826C1.60124 9.62374 1.81934 8.5365 2.25553 7.52087C2.69173 6.50525 3.29394 5.61332 4.06217 4.84509C4.8304 4.07686 5.72233 3.47465 6.73796 3.03845C7.75358 2.60225 8.84082 2.38416 9.99967 2.38416C11.1585 2.38416 12.2458 2.60225 13.2614 3.03845C14.277 3.47465 15.1689 4.07686 15.9372 4.84509C16.7054 5.61332 17.3076 6.50525 17.7438 7.52087C18.18 8.5365 18.3981 9.62374 18.3981 10.7826C18.3981 11.9414 18.18 13.0287 17.7438 14.0443C17.3076 15.0599 16.7054 15.9519 15.9372 16.7201C15.1689 17.4883 14.277 18.0905 13.2614 18.5267C12.2458 18.9629 11.1585 19.181 9.99967 19.181ZM9.99967 14.4545C10.5921 14.4545 11.1064 14.3503 11.5426 14.142C11.9854 13.9336 12.3304 13.6927 12.5778 13.4193C12.8252 13.1394 12.9489 12.905 12.9489 12.7162C12.9489 12.6055 12.9001 12.5274 12.8024 12.4818C12.7113 12.4362 12.6104 12.4362 12.4997 12.4818C12.1807 12.6185 11.8324 12.7618 11.4548 12.9115C11.0837 13.0547 10.5986 13.1263 9.99967 13.1263C9.40072 13.1263 8.90918 13.058 8.52506 12.9213C8.14746 12.778 7.80566 12.6316 7.49967 12.4818C7.389 12.4297 7.28483 12.4297 7.18717 12.4818C7.09603 12.5274 7.05046 12.6055 7.05046 12.7162C7.05046 12.905 7.1709 13.1394 7.41178 13.4193C7.65918 13.6927 8.00423 13.9336 8.44694 14.142C8.88965 14.3503 9.40723 14.4545 9.99967 14.4545ZM7.61686 9.96228C7.86426 9.96228 8.0791 9.86137 8.26139 9.65955C8.45019 9.45772 8.5446 9.20707 8.5446 8.90759C8.5446 8.59509 8.45019 8.33793 8.26139 8.13611C8.0791 7.93429 7.86426 7.83337 7.61686 7.83337C7.36947 7.83337 7.15462 7.93429 6.97233 8.13611C6.79655 8.33793 6.70866 8.59509 6.70866 8.90759C6.70866 9.20707 6.79655 9.45772 6.97233 9.65955C7.15462 9.86137 7.36947 9.96228 7.61686 9.96228ZM12.3727 9.96228C12.6201 9.96228 12.835 9.86137 13.0173 9.65955C13.2061 9.45772 13.3005 9.20707 13.3005 8.90759C13.3005 8.59509 13.2061 8.33793 13.0173 8.13611C12.835 7.93429 12.6201 7.83337 12.3727 7.83337C12.1188 7.83337 11.9007 7.93429 11.7184 8.13611C11.5426 8.33793 11.4548 8.59509 11.4548 8.90759C11.4548 9.20707 11.5426 9.45772 11.7184 9.65955C11.9007 9.86137 12.1188 9.96228 12.3727 9.96228Z" fill="#D89841"/>
</svg>
