<svg width="20" height="20" viewBox="0 0 20 20" fill="none" xmlns="http://www.w3.org/2000/svg">
<path d="M2.72428 9.39197V10.5736H8.43717C8.30046 10.8275 8.08561 11.1075 7.79264 11.4135C7.49967 11.7194 7.16764 11.9929 6.79655 12.2338C6.42546 12.4747 6.06738 12.6244 5.72233 12.683C5.17546 12.7806 4.90202 13.0769 4.90202 13.5717C4.90202 13.7995 4.98665 14.0046 5.15592 14.1869C5.33171 14.3692 5.57259 14.4375 5.87858 14.392C6.18457 14.3399 6.51335 14.226 6.86491 14.0502C7.21647 13.8744 7.55501 13.6498 7.88053 13.3763C8.20605 13.0964 8.49251 12.7839 8.73991 12.4388C8.99381 12.0938 9.17611 11.7357 9.28678 11.3646H9.35514V17.0482H10.6344V11.3646H10.693C10.8102 11.7357 10.9925 12.0938 11.2399 12.4388C11.4938 12.7839 11.7835 13.0964 12.109 13.3763C12.4346 13.6498 12.7699 13.8744 13.1149 14.0502C13.4665 14.226 13.7985 14.3399 14.111 14.392C14.417 14.4375 14.6546 14.3692 14.8239 14.1869C14.9997 14.0046 15.0876 13.7995 15.0876 13.5717C15.0876 13.0704 14.8141 12.7741 14.2673 12.683C13.9222 12.6309 13.5641 12.4844 13.193 12.2435C12.8219 12.0026 12.4867 11.7292 12.1872 11.4232C11.8942 11.1107 11.6826 10.8275 11.5524 10.5736H17.2653V9.39197H13.6423C14.0654 9.15759 14.4007 8.8516 14.6481 8.474C14.8955 8.09639 15.0192 7.66996 15.0192 7.1947C15.0192 6.60876 14.8174 6.11072 14.4137 5.70056C14.0101 5.29041 13.5023 5.08533 12.8903 5.08533C12.4215 5.08533 11.9919 5.20903 11.6012 5.45642C11.2171 5.70382 10.8949 6.04887 10.6344 6.49158V2.51697H9.35514V6.49158C9.09473 6.04887 8.76921 5.70382 8.37858 5.45642C7.99447 5.20903 7.56478 5.08533 7.08952 5.08533C6.47754 5.08533 5.96973 5.29041 5.56608 5.70056C5.16243 6.11072 4.96061 6.60876 4.96061 7.1947C4.96061 7.66996 5.08431 8.09639 5.33171 8.474C5.58561 8.8516 5.92415 9.15759 6.34733 9.39197H2.72428ZM8.99381 9.29431C8.52506 9.29431 8.09212 9.19991 7.69499 9.01111C7.30436 8.8158 6.99186 8.57166 6.75749 8.27869C6.52311 7.98572 6.40592 7.69275 6.40592 7.39978C6.40592 7.13936 6.48079 6.93429 6.63053 6.78455C6.78027 6.63481 6.98535 6.55994 7.24577 6.55994C7.60384 6.55994 7.92936 6.67712 8.22233 6.9115C8.5153 7.14587 8.75293 7.45512 8.93522 7.83923C9.11751 8.22335 9.20866 8.64001 9.20866 9.08923V9.29431H8.99381ZM10.9958 9.29431H10.7809V9.08923C10.7809 8.64001 10.8688 8.22335 11.0446 7.83923C11.2269 7.45512 11.4645 7.14587 11.7575 6.9115C12.057 6.67712 12.3857 6.55994 12.7438 6.55994C12.9977 6.55994 13.1995 6.63481 13.3493 6.78455C13.5055 6.93429 13.5837 7.13936 13.5837 7.39978C13.5837 7.69275 13.4632 7.98572 13.2223 8.27869C12.988 8.57166 12.6755 8.8158 12.2848 9.01111C11.8942 9.19991 11.4645 9.29431 10.9958 9.29431ZM16.2887 3.5033C16.6924 3.91345 16.9561 4.39848 17.0798 4.95837C17.2034 5.51827 17.2653 6.15955 17.2653 6.8822V12.683C17.2653 13.4056 17.2034 14.0469 17.0798 14.6068C16.9561 15.1667 16.6924 15.6517 16.2887 16.0619C15.8721 16.472 15.3805 16.739 14.8141 16.8627C14.2542 16.9864 13.6162 17.0482 12.9001 17.0482H7.08952C6.37337 17.0482 5.7321 16.9864 5.16569 16.8627C4.60579 16.739 4.11751 16.472 3.70085 16.0619C3.29069 15.6517 3.02376 15.1667 2.90006 14.6068C2.78288 14.0469 2.72428 13.4056 2.72428 12.683V6.8822C2.72428 6.15955 2.78288 5.51827 2.90006 4.95837C3.02376 4.39848 3.29069 3.91345 3.70085 3.5033C4.111 3.09314 4.59928 2.82621 5.16569 2.70251C5.7321 2.57882 6.37337 2.51697 7.08952 2.51697H12.9001C13.6162 2.51697 14.2542 2.57882 14.8141 2.70251C15.3805 2.82621 15.8721 3.09314 16.2887 3.5033Z" fill="#D89841"/>
</svg>
