<svg width="7" height="12" viewBox="0 0 7 12" fill="none" xmlns="http://www.w3.org/2000/svg">
<path d="M6.63916 6.41699C6.63916 6.4974 6.62223 6.57357 6.58838 6.64551C6.55876 6.71322 6.51432 6.77669 6.45508 6.83594L1.42773 11.7554C1.31348 11.8696 1.17383 11.9268 1.00879 11.9268C0.902995 11.9268 0.805664 11.9014 0.716797 11.8506C0.62793 11.7998 0.558105 11.73 0.507324 11.6411C0.456543 11.5565 0.431152 11.4591 0.431152 11.3491C0.431152 11.1925 0.486165 11.055 0.596191 10.9365L5.21729 6.41699L0.596191 1.89746C0.486165 1.77897 0.431152 1.64144 0.431152 1.48486C0.431152 1.37484 0.456543 1.27751 0.507324 1.19287C0.558105 1.104 0.62793 1.03418 0.716797 0.983398C0.805664 0.932617 0.902995 0.907227 1.00879 0.907227C1.17383 0.907227 1.31348 0.96224 1.42773 1.07227L6.45508 5.99805C6.51432 6.05729 6.55876 6.12288 6.58838 6.19482C6.62223 6.26253 6.63916 6.33659 6.63916 6.41699Z" fill="#171717"/>
</svg>
