<svg width="20" height="20" viewBox="0 0 20 20" fill="none" xmlns="http://www.w3.org/2000/svg">
<path d="M5.5542 17.6426L3.42285 18.4409C3.24219 18.5093 3.07373 18.4702 2.91748 18.3237C2.76123 18.1772 2.71973 17.999 2.79297 17.7891L3.58398 15.6724L12.9004 6.34131L14.8706 8.31152L5.5542 17.6426ZM15.8301 7.35205L13.8599 5.38184L14.8853 4.36377C15.1294 4.12451 15.3906 3.99756 15.6689 3.98291C15.9521 3.96826 16.2109 4.08057 16.4453 4.31982L16.8994 4.78125C17.1338 5.01562 17.2461 5.27197 17.2363 5.55029C17.2314 5.82373 17.1069 6.08252 16.8628 6.32666L15.8301 7.35205Z" fill="#171717" fill-opacity="0.4"/>
</svg>
