<svg width="16" height="16" viewBox="0 0 16 16" fill="none" xmlns="http://www.w3.org/2000/svg">
<path d="M6.07161 13.7742C5.57259 13.7742 5.26497 13.4939 5.27865 13.0222L5.38802 6.88354C5.38802 6.64429 5.31283 6.5144 5.12826 6.43237C4.36947 6.09058 4.014 5.72827 4.06869 4.68237L4.22591 1.39429C4.23958 1.12085 4.39681 0.956787 4.64974 0.956787C4.89583 0.956787 5.03939 1.12769 5.03255 1.40112L4.99154 4.59351C4.99154 4.79858 5.10775 4.92163 5.29232 4.92163C5.48372 4.92163 5.60677 4.79858 5.60677 4.60718L5.66146 1.29858C5.66829 1.03198 5.82552 0.874756 6.07161 0.874756C6.31771 0.874756 6.47494 1.03198 6.48177 1.29858L6.53646 4.60718C6.53646 4.80542 6.65951 4.92163 6.85091 4.92163C7.03548 4.92163 7.15169 4.79858 7.15169 4.59351L7.11068 1.40112C7.10384 1.12769 7.25423 0.956787 7.50033 0.956787C7.74642 0.956787 7.90365 1.12085 7.91732 1.39429L8.07454 4.68237C8.1224 5.72827 7.77376 6.09058 7.01497 6.43237C6.8304 6.5144 6.75521 6.64429 6.75521 6.88354L6.86458 13.0222C6.87142 13.4871 6.57064 13.7742 6.07161 13.7742ZM10.4398 8.90015C10.4466 8.69507 10.3714 8.56519 10.1663 8.42847L9.89974 8.2439C9.57161 8.03198 9.44173 7.75854 9.44173 7.3689V7.08179C9.44173 4.96948 10.0775 2.49487 10.9593 1.25757C11.1507 0.984131 11.3011 0.874756 11.513 0.874756C11.7454 0.874756 11.9368 1.02515 11.9368 1.31226V13.0427C11.9368 13.5076 11.6429 13.7742 11.137 13.7742C10.6449 13.7742 10.3372 13.4939 10.3509 13.0154L10.4398 8.90015Z" fill="#D89841"/>
</svg>
