<svg width="28" height="28" viewBox="0 0 28 28" fill="none" xmlns="http://www.w3.org/2000/svg">
<path d="M7.20334 23.5758C6.65647 23.5758 6.20074 23.1087 6.20074 22.5618V7.73926C6.20074 6.86198 6.58811 6.37207 7.26031 6.06445C8.03505 5.71126 8.69585 5.54036 10.0516 5.54036C13.2759 5.54036 15.6457 7.18099 18.7219 7.18099C20.0777 7.18099 20.8638 6.86198 21.4335 6.86198C22.1399 6.86198 22.6526 7.31771 22.6526 8.01269V16.8538C22.6526 17.7425 22.288 18.335 21.6044 18.6426C20.8866 18.973 20.1916 19.1667 18.8016 19.1667C15.6457 19.1667 13.3557 17.526 10.1314 17.526C9.16298 17.526 8.46799 17.7425 8.22873 17.8451V22.5618C8.22873 23.1201 7.773 23.5758 7.20334 23.5758ZM8.29709 13.2992C8.47938 13.0713 9.03765 12.7637 10.1086 12.7637C10.5985 12.7637 10.9289 12.8092 11.2821 12.8548V15.5208C12.4214 15.6348 13.4468 15.9196 14.4266 16.2158V13.6182C15.4634 13.9486 16.4546 14.1764 17.5826 14.3359V17.002C17.9699 17.0589 18.3459 17.0931 18.7447 17.0931C19.8043 17.0931 20.3853 16.7969 20.5562 16.5804V14.1878C20.1574 14.3018 19.5764 14.3929 18.7789 14.3929C18.4371 14.3929 18.0497 14.3929 17.5826 14.3359V11.6016C18.0269 11.6585 18.3801 11.6699 18.6649 11.6699C19.4738 11.6699 20.1574 11.5788 20.5562 11.4648V9.02669C20.1347 9.14062 19.4625 9.23177 18.6649 9.23177C18.289 9.23177 17.9358 9.20898 17.5826 9.16341V11.6016C16.5116 11.4876 15.4406 11.2142 14.4266 10.8952V8.45703C13.3899 8.14941 12.3759 7.8304 11.2821 7.68229V10.1318C10.8947 10.0749 10.3707 10.0407 10.1086 10.0407C9.03765 10.0407 8.47938 10.3483 8.29709 10.5648V13.2992ZM11.2821 12.8548V10.1318C12.4328 10.2799 13.3899 10.5876 14.4266 10.8952V13.6182C13.3215 13.2992 12.4328 13.0143 11.2821 12.8548Z" fill="#D89841"/>
</svg>
