<svg width="28" height="28" viewBox="0 0 28 28" fill="none" xmlns="http://www.w3.org/2000/svg">
<path d="M13.9918 23.9399C8.80783 23.9399 4.60373 19.7358 4.60373 14.5519C4.60373 9.368 8.80783 5.1639 13.9918 5.1639C19.1757 5.1639 23.3798 9.368 23.3798 14.5519C23.3798 19.7358 19.1757 23.9399 13.9918 23.9399ZM13.9918 21.7069C17.9452 21.7069 21.1467 18.5054 21.1467 14.5519C21.1467 10.5985 17.9452 7.39697 13.9918 7.39697C10.0383 7.39697 6.8368 10.5985 6.8368 14.5519C6.8368 18.5054 10.0383 21.7069 13.9918 21.7069ZM9.69651 15.828C9.21799 15.828 8.85341 15.4634 8.85341 14.9849C8.85341 14.5177 9.21799 14.1418 9.69651 14.1418H13.1487V9.39079C13.1487 8.92366 13.5132 8.54769 13.9804 8.54769C14.4589 8.54769 14.8235 8.92366 14.8235 9.39079V14.9849C14.8235 15.4634 14.4589 15.828 13.9804 15.828H9.69651Z" fill="#FFFDFB"/>
</svg>
