<svg width="16" height="16" viewBox="0 0 16 16" fill="none" xmlns="http://www.w3.org/2000/svg">
<path d="M1.91536 8.073C1.49837 8.073 1.23861 7.78589 1.23861 7.43726C1.23861 7.25269 1.32747 7.05444 1.49837 6.91772L7.12435 2.19409C7.39095 1.96851 7.69857 1.85913 7.99935 1.85913C8.30013 1.85913 8.60091 1.96851 8.86751 2.19409L11.2806 4.21753V3.39038C11.2806 3.13062 11.4515 2.96655 11.7113 2.96655H12.5999C12.8597 2.96655 13.0306 3.13062 13.0306 3.39038V5.68726L14.4935 6.91772C14.6644 7.05444 14.7533 7.25269 14.7533 7.43726C14.7533 7.78589 14.4935 8.073 14.0833 8.073C13.8851 8.073 13.7005 7.97046 13.5433 7.83374L8.25228 3.39722C8.17025 3.32886 8.08138 3.29468 7.99935 3.29468C7.91048 3.29468 7.82161 3.32886 7.73958 3.39722L2.44857 7.83374C2.29134 7.97046 2.10677 8.073 1.91536 8.073ZM3.08431 12.2908V8.47632L7.66439 4.63452C7.86263 4.46362 8.1224 4.46362 8.32747 4.63452L12.9007 8.47632V12.2908C12.9007 13.1042 12.3743 13.6033 11.5267 13.6033H4.46517C3.61068 13.6033 3.08431 13.1042 3.08431 12.2908ZM6.54329 12.3455H9.44857V9.34448C9.44857 9.08472 9.27767 8.91382 9.0179 8.91382H6.98079C6.72103 8.91382 6.54329 9.08472 6.54329 9.34448V12.3455Z" fill="#D89841"/>
</svg>
