<svg width="27" height="28" viewBox="0 0 27 28" fill="none" xmlns="http://www.w3.org/2000/svg">
<path d="M10.4468 24.624C9.61512 24.624 9.10243 24.1569 9.12522 23.3708L9.30751 13.1396C9.30751 12.7409 9.18218 12.5244 8.87456 12.3877C7.60992 11.818 7.01747 11.2142 7.10861 9.47103L7.37066 3.99088C7.39344 3.53516 7.65549 3.26172 8.07704 3.26172C8.48719 3.26172 8.72645 3.54655 8.71506 4.00228L8.6467 9.32292C8.6467 9.66471 8.84038 9.86979 9.148 9.86979C9.46701 9.86979 9.67209 9.66471 9.67209 9.3457L9.76324 3.83138C9.77463 3.38704 10.0367 3.125 10.4468 3.125C10.857 3.125 11.119 3.38704 11.1304 3.83138L11.2216 9.3457C11.2216 9.67611 11.4266 9.86979 11.7457 9.86979C12.0533 9.86979 12.247 9.66471 12.247 9.32292L12.1786 4.00228C12.1672 3.54655 12.4179 3.26172 12.828 3.26172C13.2382 3.26172 13.5002 3.53516 13.523 3.99088L13.785 9.47103C13.8648 11.2142 13.2837 11.818 12.0191 12.3877C11.7115 12.5244 11.5862 12.7409 11.5862 13.1396L11.7684 23.3708C11.7798 24.1455 11.2785 24.624 10.4468 24.624ZM17.7271 16.5007C17.7385 16.1589 17.6132 15.9424 17.2714 15.7145L16.827 15.4069C16.2802 15.0537 16.0637 14.598 16.0637 13.9486V13.4701C16.0637 9.94954 17.1233 5.82519 18.593 3.76302C18.912 3.30729 19.1627 3.125 19.5158 3.125C19.9032 3.125 20.2222 3.37565 20.2222 3.85417V23.4049C20.2222 24.1797 19.7323 24.624 18.8892 24.624C18.0689 24.624 17.5562 24.1569 17.579 23.3594L17.7271 16.5007Z" fill="#D89841"/>
</svg>
