<svg width="27" height="28" viewBox="0 0 27 28" fill="none" xmlns="http://www.w3.org/2000/svg">
<g clip-path="url(#clip0_725_4834)">
<path d="M25.8831 6.4938C25.7327 6.45 25.5578 6.45255 25.4307 6.37431C25.1094 6.17659 24.7227 6.29894 24.3962 6.12399C24.193 6.01506 24.0043 5.91351 23.8437 5.73588C23.7407 5.62176 23.5509 5.58495 23.3982 5.51748C23.339 5.49127 23.2765 5.46656 23.2131 5.45776C23.1376 5.44734 23.0472 5.42926 22.9851 5.45939C22.8186 5.54031 22.6695 5.53494 22.526 5.4235C22.3591 5.29377 22.2015 5.45776 22.0377 5.43894C22.0305 5.43801 21.9979 5.52632 22.0035 5.56955C22.0402 5.85823 21.9473 6.09224 21.7427 6.29788C21.6794 6.36156 21.6621 6.4712 21.6176 6.57367L21.7459 6.58998C21.7068 6.73696 21.6717 6.88086 21.6298 7.0226C21.5772 7.20246 21.521 7.38126 21.4613 7.55892C21.4241 7.66908 21.405 7.67555 21.2798 7.65778C21.2651 7.84438 21.1812 7.98472 21.0125 8.07584C20.8438 8.16718 20.779 8.32704 20.8143 8.52512C20.8194 8.55292 20.8164 8.60266 20.8011 8.6107C20.6007 8.71423 20.5915 8.89436 20.5651 9.09156C20.5202 9.42765 20.2623 9.61407 19.9886 9.76949C19.8669 9.83858 19.7417 9.9107 19.6085 9.94747C19.4635 9.98749 19.3081 9.99448 19.1565 10.004C18.8705 10.0221 18.6175 9.90688 18.3511 9.82094C18.026 9.71597 17.7904 9.5211 17.5688 9.28282C17.5019 9.2107 17.4142 9.1497 17.3249 9.1077C17.0146 8.96183 16.914 8.62917 16.6876 8.4088C16.5073 8.2335 16.3438 8.04096 16.15 7.83141C16.2413 7.78334 16.3027 7.75084 16.3458 7.72806C16.2718 7.64318 16.1932 7.54379 16.1037 7.45535C16.0739 7.4261 16.0169 7.41946 15.9708 7.41282C15.8632 7.39721 15.8627 7.39971 15.8609 7.25256L16.0305 7.23999C16.0408 7.22547 16.0513 7.21109 16.0617 7.19675C15.754 7.17789 15.7029 6.87558 15.4983 6.74998C15.3394 6.65235 15.1576 6.5924 14.9869 6.51351C14.943 6.49306 14.8889 6.47401 14.8633 6.4376C14.7648 6.29836 14.6406 6.27343 14.4824 6.31292C14.2154 6.3795 13.9494 6.3226 13.7011 6.23934C13.4847 6.16687 13.2832 6.04144 13.0883 5.91852C13.0248 5.87833 12.9606 5.76636 12.9703 5.69766C12.992 5.54567 12.9015 5.52953 12.8312 5.48142C12.7971 5.42847 12.7381 5.37645 12.7357 5.32209C12.733 5.25801 12.7797 5.19218 12.8091 5.11609C12.7932 5.10892 12.747 5.08812 12.674 5.05509C12.7207 4.99462 12.7632 4.93939 12.8116 4.87676C12.7063 4.74039 12.5935 4.59398 12.4806 4.44753C12.3777 4.59038 12.2977 4.58105 12.201 4.44828C12.1374 4.36072 12.0433 4.28517 11.9471 4.23424C11.8612 4.18863 11.7552 4.12192 11.6549 4.23657C11.6365 4.25737 11.5668 4.25306 11.5323 4.23622C11.3818 4.16299 11.2341 4.12966 11.065 4.17953C10.9981 4.19928 10.9141 4.16713 10.8389 4.15261C10.6625 4.11853 10.4872 4.07939 10.3107 4.04619C10.2794 4.04029 10.2443 4.05032 10.2118 4.05714C10.1757 4.06466 10.1399 4.08766 10.1052 4.08515C9.88667 4.06879 9.66885 4.04425 9.45032 4.02917C9.39328 4.02521 9.33351 4.04153 9.27665 4.05538C9.10922 4.09645 8.94272 4.14114 8.78251 4.18261C8.82539 4.26049 8.80942 4.31591 8.68039 4.32132C8.58782 4.3251 8.49612 4.34643 8.39708 4.36098C8.4229 4.43131 8.43798 4.47278 8.45307 4.5142C8.40856 4.52894 8.3641 4.5438 8.31937 4.55801C8.30468 4.56267 8.28889 4.56324 8.27434 4.56808C8.12899 4.61777 7.98725 4.68849 7.83794 4.71272C7.66282 4.74127 7.56593 4.8403 7.48735 4.98169C7.45775 5.03482 7.42239 5.08988 7.37648 5.1281C7.17246 5.2975 6.93023 5.43366 6.76535 5.63407C6.58324 5.8555 6.29258 5.88835 6.1124 6.09145C6.10005 6.10543 6.07186 6.11603 6.05391 6.1126C5.82281 6.06972 5.66132 6.23908 5.465 6.2992C5.26261 6.3613 5.04584 6.37511 4.84042 6.42929C4.6658 6.47547 4.49558 6.53689 4.33172 6.61285C4.10259 6.71928 3.88226 6.84484 3.71624 6.93187C3.59693 7.20405 3.77654 7.48719 3.54758 7.65963C3.30606 7.84139 3.22623 8.10785 3.08968 8.34881C3.01575 8.47965 2.90774 8.59412 2.80171 8.70301C2.61041 8.89947 2.54923 9.14909 2.5243 9.40245C2.48498 9.80111 2.45287 10.2031 2.45899 10.6028C2.46563 11.0344 2.51532 11.4656 2.55429 11.8962C2.57905 12.1691 2.5385 12.4162 2.34346 12.6249C2.311 12.6597 2.27727 12.7417 2.29464 12.7668C2.38203 12.893 2.32872 12.9965 2.28334 13.1181C2.23202 13.2556 2.21552 13.4061 2.21227 13.5619C2.23417 13.515 2.25585 13.4682 2.27775 13.4216C2.28672 13.4243 2.29587 13.427 2.30484 13.4297C2.265 13.5737 2.22485 13.7177 2.18571 13.8619C2.17801 13.8908 2.16059 13.9394 2.17137 13.9475C2.36158 14.0898 2.24996 14.2581 2.22357 14.4229C2.21425 14.4812 2.2259 14.5654 2.26306 14.6043C2.38145 14.7287 2.38774 14.7228 2.38471 14.8328L2.43119 14.8387C2.46079 14.6072 2.4929 14.3761 2.5184 14.1441C2.5272 14.0648 2.51554 13.9807 2.65262 14.0022C2.67488 14.3885 2.71938 14.7768 2.71164 15.1641C2.70623 15.4385 2.64814 15.7159 2.58244 15.9843C2.46277 16.472 2.32441 16.955 2.1839 17.4372C2.14784 17.5611 2.05615 17.6695 2.02404 17.7939C1.99911 17.8908 1.9853 18.0359 2.03838 18.0998C2.24402 18.3469 2.34126 18.6358 2.42596 18.9336C2.53828 19.3293 2.66138 19.7228 2.75307 20.1233C2.84745 20.5356 2.90471 20.9562 2.98668 21.3716C3.09091 21.8993 3.16664 22.4286 3.15679 22.9687C3.15552 23.0328 3.21511 23.1076 3.26445 23.1609C3.39331 23.3003 3.46055 23.4388 3.37321 23.634C3.29141 23.8168 3.34396 23.9238 3.5471 23.9401C3.90596 23.9688 4.26808 23.969 4.62818 23.962C4.72401 23.9602 4.83343 23.9066 4.90933 23.8438C4.98775 23.7792 4.9673 23.6726 4.87793 23.6213C4.76689 23.5576 4.647 23.4942 4.52338 23.4706C4.16003 23.4013 3.98187 23.1709 3.89233 22.832C3.85609 22.6947 3.76796 22.5718 3.71862 22.4368C3.65454 22.2616 3.58026 22.0842 3.55497 21.9016C3.47528 21.3279 3.431 20.7491 3.3452 20.1765C3.28094 19.7475 3.33011 19.3307 3.38126 18.9076C3.40619 18.7014 3.36745 18.4881 3.36279 18.2778C3.36046 18.1748 3.3696 18.0716 3.37427 17.9685C3.37607 17.9303 3.39221 17.8883 3.38161 17.8545C3.28437 17.5497 3.42106 17.2863 3.5332 17.0228C3.66061 16.7238 3.71281 16.4115 3.75301 16.0924C3.77794 15.8937 3.8341 15.6985 3.88472 15.504C3.89655 15.4584 3.94269 15.422 3.98499 15.3653C4.01551 15.4145 4.04582 15.4405 4.04529 15.4661C4.04018 15.7251 4.03192 15.984 4.02053 16.2427C4.01046 16.4681 4.00311 16.694 3.98016 16.918C3.95016 17.2111 3.9353 17.5109 3.85759 17.7922C3.80609 17.9788 3.87536 18.1205 3.94405 18.2475C4.19688 18.7147 4.51269 19.1504 4.74054 19.6284C5.05059 20.2787 5.30523 20.9555 5.57653 21.6239C5.69602 21.9183 5.78934 22.2233 5.91296 22.516C5.9503 22.6043 6.04252 22.6742 6.12094 22.739C6.21998 22.821 6.26501 22.9053 6.22481 23.0383C6.16936 23.2215 6.21246 23.3177 6.39527 23.3204C6.8121 23.3265 7.22946 23.2974 7.64663 23.2805C7.67214 23.2795 7.6969 23.2617 7.72091 23.2522C7.76146 23.006 7.6224 22.8413 7.37678 22.8348C7.0005 22.8247 6.72867 22.6515 6.54388 22.3206C6.44985 22.1521 6.29786 22.0137 6.21659 21.841C6.08166 21.5541 5.96899 21.255 5.87154 20.953C5.70393 20.4334 5.5552 19.9076 5.39872 19.3846C5.39103 19.3585 5.37722 19.3311 5.38008 19.3058C5.42441 18.9243 5.24603 18.5795 5.2035 18.2152C5.15038 17.7604 5.02174 17.3026 5.19581 16.8382C5.25324 16.6852 5.24388 16.5025 5.243 16.3334C5.24119 16.0071 5.22919 15.6809 5.21054 15.3553C5.19853 15.1466 5.28108 14.9763 5.38008 14.8031C5.51663 14.5643 5.64817 14.3219 5.76748 14.0741C5.8389 13.9256 5.86564 13.7546 5.94335 13.6103C6.07326 13.3688 6.06697 13.1293 5.97493 12.887C5.92827 12.7645 5.94296 12.6598 5.96433 12.5328C6.00074 12.3163 5.97528 12.0894 5.97616 11.867C5.97634 11.8273 5.97849 11.7878 5.97994 11.7482C6.03091 11.7541 6.09173 11.7444 6.13083 11.7692C6.22825 11.8306 6.31984 11.9008 6.40447 11.979C6.88748 12.4249 7.40871 12.818 8.00088 13.1068C8.44212 13.3222 8.91616 13.4323 9.39561 13.5339C9.87036 13.6345 10.3457 13.625 10.8233 13.6272C11.1167 13.6284 11.4101 13.6274 11.7034 13.6272C11.7145 13.6272 11.7269 13.6304 11.7364 13.6264C12.014 13.5131 12.2726 13.6679 12.5401 13.6796C12.851 13.693 13.1792 13.7768 13.4613 13.5482C13.4794 13.5337 13.5731 13.5676 13.5831 13.5961C13.6189 13.6974 13.6582 13.8074 13.6517 13.9112C13.632 14.227 13.5905 14.5414 13.5593 14.8566C13.5349 15.1016 13.4924 15.347 13.4945 15.592C13.4985 16.04 13.4045 16.4707 13.3033 16.9009C13.2552 17.1053 13.1635 17.3018 13.1343 17.5078C13.1041 17.719 13.1161 17.9381 13.1271 18.1529C13.1542 18.6851 13.2128 19.2165 13.218 19.7485C13.2232 20.2874 13.1866 20.8269 13.1544 21.3654C13.1387 21.6259 13.0835 21.8838 13.0628 22.1441C13.0571 22.2163 13.0899 22.3173 13.142 22.3634C13.306 22.5091 13.292 22.7301 13.1387 22.9044C12.9541 23.1145 12.9846 23.2616 13.253 23.3305C13.4506 23.3811 13.6593 23.395 13.864 23.4091C14.0173 23.4197 14.0609 23.4585 13.9959 23.5973C13.9293 23.7396 13.9694 23.7958 14.1116 23.8483C14.4227 23.963 14.7429 23.9676 15.0657 23.9664C15.2097 23.9659 15.3563 23.9831 15.497 23.9618C15.6474 23.9388 15.7922 23.8798 15.9416 23.8357C15.8918 23.5477 15.8015 23.4596 15.5207 23.4343C15.2225 23.4074 14.8976 23.0415 14.8814 22.7449C14.8737 22.6033 14.8498 22.4384 14.7706 22.3298C14.6114 22.1115 14.5651 21.8679 14.5208 21.6166C14.4176 21.0314 14.3642 20.4429 14.3865 19.8479C14.3985 19.5249 14.4221 19.2047 14.5733 18.9116C14.7802 18.5108 14.7173 18.0915 14.686 17.6685C14.6662 17.4033 14.6921 17.1347 14.6994 16.8677C14.7007 16.8246 14.7208 16.7814 14.7188 16.7389C14.688 16.0916 14.8297 15.4724 14.9994 14.8537C15.1169 14.4253 15.18 13.9821 15.294 13.5527C15.3232 13.4435 15.4364 13.3214 15.5419 13.2741C15.8487 13.1363 16.0533 12.8994 16.2235 12.631C16.315 12.4867 16.4161 12.474 16.5544 12.517C16.8127 12.5973 17.0678 12.6925 17.3308 12.7525C17.6164 12.8176 17.9093 12.8526 18.1998 12.8951C18.3883 12.9227 18.5802 12.9683 18.7675 12.9565C19.0919 12.936 19.4133 12.8698 19.7373 12.8361C20.4402 12.7627 20.994 12.3765 21.5336 11.973C21.7248 11.83 21.8564 11.6105 22.0339 11.4458C22.4635 11.0469 22.534 10.4663 22.7932 9.98182C22.8835 9.81334 23.0342 9.67375 23.0445 9.46111C23.0465 9.41969 23.1351 9.38252 23.1934 9.33569C23.1464 9.26893 23.0621 9.17006 23.2585 9.17939C23.2775 9.00317 23.2645 8.82409 23.4381 8.694C23.4922 8.65345 23.4889 8.52389 23.4945 8.43382C23.5062 8.24472 23.5669 8.1941 23.7543 8.17242C24.0511 8.13794 24.3452 8.08107 24.641 8.03767C24.7546 8.02095 24.8718 8.02474 24.9837 8.00143C25.0494 7.98779 25.1053 7.93251 25.1698 7.90723C25.3196 7.84891 25.4689 7.78343 25.6248 7.75005C25.6911 7.73589 25.7762 7.78809 25.8473 7.82217C25.9783 7.88497 26.0894 7.91154 26.2243 7.80352C26.3148 7.73105 26.4538 7.72102 26.5678 7.67489C26.6089 7.65822 26.6698 7.61908 26.6715 7.5875C26.6893 7.24702 26.2139 6.59016 25.8831 6.4938Z" fill="#D89841"/>
</g>
<defs>
<clipPath id="clip0_725_4834">
<rect width="26.67" height="26.67" fill="white" transform="translate(-0.00195312 0.665039)"/>
</clipPath>
</defs>
</svg>
