<svg width="20" height="20" viewBox="0 0 20 20" fill="none" xmlns="http://www.w3.org/2000/svg">
<path d="M14.6948 11.2119C14.6948 11.3389 14.6704 11.4561 14.6216 11.5635C14.5728 11.6709 14.4995 11.7734 14.4019 11.8711L8.69629 17.4521C8.53516 17.6182 8.33496 17.7012 8.0957 17.7012C7.93945 17.7012 7.79541 17.6621 7.66357 17.584C7.53174 17.5107 7.42676 17.4082 7.34863 17.2764C7.27539 17.1494 7.23877 17.0078 7.23877 16.8516C7.23877 16.6172 7.32666 16.4097 7.50244 16.229L12.644 11.2119L7.50244 6.19482C7.32666 6.01416 7.23877 5.80908 7.23877 5.57959C7.23877 5.41846 7.27539 5.27441 7.34863 5.14746C7.42676 5.02051 7.53174 4.92041 7.66357 4.84717C7.79541 4.76904 7.93945 4.72998 8.0957 4.72998C8.33496 4.72998 8.53516 4.81055 8.69629 4.97168L14.4019 10.5527C14.4995 10.6504 14.5728 10.7529 14.6216 10.8604C14.6704 10.9678 14.6948 11.085 14.6948 11.2119Z" fill="#171717" fill-opacity="0.4"/>
</svg>
