<svg width="16" height="16" viewBox="0 0 16 16" fill="none" xmlns="http://www.w3.org/2000/svg">
<path d="M15.7104 7.70459C15.7104 7.92432 15.6152 8.13672 15.4468 8.29785L10.6128 13.1245C10.437 13.293 10.2466 13.3735 10.0415 13.3735C9.5874 13.3735 9.25781 13.0439 9.25781 12.6045C9.25781 12.3774 9.3457 12.1797 9.49219 12.0405L11.1328 10.3779L13.2935 8.40039L11.5869 8.50293H2.68066C2.19727 8.50293 1.86768 8.17334 1.86768 7.70459C1.86768 7.22852 2.19727 6.90625 2.68066 6.90625H11.5869L13.2861 7.00879L11.1328 5.03125L9.49219 3.36865C9.3457 3.22217 9.25781 3.02441 9.25781 2.79736C9.25781 2.35791 9.5874 2.03564 10.0415 2.03564C10.2466 2.03564 10.4443 2.10889 10.6274 2.29199L15.4468 7.11133C15.6152 7.26514 15.7104 7.48486 15.7104 7.70459Z" fill="#171717" fill-opacity="0.5"/>
</svg>
