<svg width="24" height="24" viewBox="0 0 24 24" fill="none" xmlns="http://www.w3.org/2000/svg">
<path d="M3.20058 11.2155L3.8586 11.5753H3.8586L3.20058 11.2155ZM20.7994 12.7846L21.4574 13.1445L20.7994 12.7846ZM20.7994 11.2156L21.4575 10.8557V10.8557L20.7994 11.2156ZM3.20057 12.7844L2.54254 13.1443H2.54254L3.20057 12.7844ZM19.5236 8.30909C19.227 8.01992 18.7522 8.02592 18.463 8.32249C18.1738 8.61906 18.1798 9.09389 18.4764 9.38306L19.5236 8.30909ZM9.68628 16.9596C9.28505 16.8568 8.87638 17.0986 8.7735 17.4999C8.67062 17.9011 8.91249 18.3098 9.31372 18.4126L9.68628 16.9596ZM14.604 6.34116L14.7981 5.61672L14.604 6.34116ZM5.43906 15.5574L4.94816 16.1245H4.94816L5.43906 15.5574ZM7.07264 16.7089L6.70374 17.3619L7.50475 16.0959L7.07264 16.7089ZM19.9948 4.99469C20.2877 4.70179 20.2877 4.22692 19.9948 3.93403C19.7019 3.64113 19.227 3.64113 18.9341 3.93403L19.9948 4.99469ZM8.25 12C8.25 12.4142 8.58579 12.75 9 12.75C9.41421 12.75 9.75 12.4142 9.75 12H8.25ZM12 9.75002C12.4142 9.75002 12.75 9.41424 12.75 9.00002C12.75 8.58581 12.4142 8.25002 12 8.25002V9.75002ZM3.8586 11.5753C5.43153 8.69921 8.4879 6.75002 12 6.75002V5.25002C7.91882 5.25002 4.36847 7.51689 2.54256 10.8556L3.8586 11.5753ZM20.1414 12.4247C18.5685 15.3008 15.5121 17.25 12 17.25V18.75C16.0812 18.75 19.6315 16.4832 21.4574 13.1445L20.1414 12.4247ZM20.1414 11.5755C20.2862 11.8402 20.2862 12.1599 20.1414 12.4247L21.4574 13.1445C21.8475 12.4312 21.8475 11.569 21.4575 10.8557L20.1414 11.5755ZM2.54256 10.8556C2.15249 11.5688 2.15248 12.431 2.54254 13.1443L3.8586 12.4246C3.7138 12.1598 3.7138 11.8401 3.8586 11.5753L2.54256 10.8556ZM18.4764 9.38306C19.1347 10.0249 19.6974 10.7635 20.1414 11.5755L21.4575 10.8557C20.9412 9.91181 20.2876 9.05405 19.5236 8.30909L18.4764 9.38306ZM12 17.25C11.2002 17.25 10.4251 17.1491 9.68628 16.9596L9.31372 18.4126C10.1732 18.633 11.0735 18.75 12 18.75V17.25ZM12 6.75002C12.8346 6.75002 13.6423 6.85993 14.4099 7.06561L14.7981 5.61672C13.905 5.37741 12.9668 5.25002 12 5.25002V6.75002ZM5.92995 14.9904C5.09529 14.2678 4.39151 13.3991 3.8586 12.4246L2.54254 13.1443C3.16202 14.2771 3.97944 15.2858 4.94816 16.1245L5.92995 14.9904ZM7.44155 16.0559C6.90181 15.751 6.3956 15.3935 5.92995 14.9904L4.94816 16.1245C5.48873 16.5924 6.07659 17.0076 6.70374 17.3619L7.44155 16.0559ZM5.00695 16.1704L6.64054 17.3219L7.50475 16.0959L5.87116 14.9444L5.00695 16.1704ZM14.4099 7.06561C15.1269 7.25773 15.8096 7.53361 16.4471 7.88221L17.1668 6.56617C16.426 6.16102 15.6321 5.84018 14.7981 5.61672L14.4099 7.06561ZM4.9948 19.9947L19.9948 4.99469L18.9341 3.93403L3.93414 18.934L4.9948 19.9947ZM9.75 12C9.75 10.7574 10.7574 9.75002 12 9.75002V8.25002C9.92893 8.25002 8.25 9.92895 8.25 12H9.75Z" fill="#171717" fill-opacity="0.4"/>
</svg>
