<svg width="20" height="20" viewBox="0 0 20 20" fill="none" xmlns="http://www.w3.org/2000/svg">
<path d="M5.37663 7.90369C5.59342 7.90369 5.77506 7.83044 5.92155 7.68396C6.06803 7.53748 6.14128 7.35876 6.14128 7.14783C6.14128 6.93689 6.06803 6.75818 5.92155 6.61169C5.77506 6.46521 5.59342 6.39197 5.37663 6.39197C5.17741 6.39197 5.00163 6.46814 4.84928 6.62048C4.69694 6.76697 4.62077 6.94275 4.62077 7.14783C4.62077 7.35291 4.69694 7.53162 4.84928 7.68396C5.00163 7.83044 5.17741 7.90369 5.37663 7.90369ZM5.37663 10.1097C5.59342 10.1097 5.77506 10.0336 5.92155 9.88123C6.06803 9.72888 6.14128 9.55017 6.14128 9.34509C6.14128 9.13416 6.06803 8.95544 5.92155 8.80896C5.77506 8.66248 5.59342 8.58923 5.37663 8.58923C5.17741 8.58923 5.00163 8.66248 4.84928 8.80896C4.69694 8.95544 4.62077 9.13416 4.62077 9.34509C4.62077 9.55017 4.69694 9.72888 4.84928 9.88123C5.00163 10.0336 5.17741 10.1097 5.37663 10.1097ZM5.37663 12.2719C5.59342 12.2719 5.77506 12.2015 5.92155 12.0609C6.06803 11.9203 6.14128 11.7445 6.14128 11.5336C6.14128 11.3226 6.06803 11.1469 5.92155 11.0062C5.78092 10.8597 5.59928 10.7865 5.37663 10.7865C5.17155 10.7865 4.99284 10.8597 4.84049 11.0062C4.69401 11.1469 4.62077 11.3226 4.62077 11.5336C4.62077 11.7445 4.69401 11.9203 4.84049 12.0609C4.99284 12.2015 5.17155 12.2719 5.37663 12.2719ZM5.37663 14.5834C5.59342 14.5834 5.77506 14.5101 5.92155 14.3636C6.06803 14.2172 6.14128 14.0385 6.14128 13.8275C6.14128 13.6166 6.06803 13.4379 5.92155 13.2914C5.77506 13.1449 5.59342 13.0717 5.37663 13.0717C5.17741 13.0717 5.00163 13.1478 4.84928 13.3002C4.69694 13.4467 4.62077 13.6224 4.62077 13.8275C4.62077 14.0267 4.69694 14.2025 4.84928 14.3549C5.00163 14.5072 5.17741 14.5834 5.37663 14.5834ZM7.45085 7.78064H14.737C14.9069 7.78064 15.0534 7.71619 15.1764 7.58728C15.2995 7.45837 15.361 7.31189 15.361 7.14783C15.361 6.97791 15.2995 6.83142 15.1764 6.70837C15.0534 6.58533 14.9069 6.5238 14.737 6.5238H7.45085C7.28092 6.5238 7.13444 6.58533 7.01139 6.70837C6.88835 6.83142 6.82682 6.97791 6.82682 7.14783C6.82682 7.31189 6.88542 7.45837 7.0026 7.58728C7.12565 7.71619 7.27506 7.78064 7.45085 7.78064ZM7.45085 9.97791H11.6344C11.8044 9.97791 11.9508 9.91345 12.0739 9.78455C12.2028 9.65564 12.2673 9.50916 12.2673 9.34509C12.2673 9.17517 12.2057 9.02869 12.0827 8.90564C11.9596 8.77673 11.8102 8.71228 11.6344 8.71228H7.45085C7.27506 8.71228 7.12565 8.77673 7.0026 8.90564C6.88542 9.02869 6.82682 9.17517 6.82682 9.34509C6.82682 9.50916 6.88835 9.65564 7.01139 9.78455C7.13444 9.91345 7.28092 9.97791 7.45085 9.97791ZM7.45085 12.1488H14.737C14.9069 12.1488 15.0534 12.0873 15.1764 11.9642C15.2995 11.8412 15.361 11.6976 15.361 11.5336C15.361 11.3578 15.2995 11.2113 15.1764 11.0941C15.0534 10.9769 14.9069 10.9183 14.737 10.9183H7.45085C7.27506 10.9183 7.12565 10.9769 7.0026 11.0941C6.88542 11.2113 6.82682 11.3578 6.82682 11.5336C6.82682 11.6976 6.88542 11.8412 7.0026 11.9642C7.12565 12.0873 7.27506 12.1488 7.45085 12.1488ZM7.45085 14.4515H11.6344C11.8044 14.4515 11.9508 14.39 12.0739 14.267C12.2028 14.1439 12.2673 13.9974 12.2673 13.8275C12.2673 13.6576 12.2057 13.5111 12.0827 13.3881C11.9596 13.2592 11.8102 13.1947 11.6344 13.1947H7.45085C7.27506 13.1947 7.12565 13.2592 7.0026 13.3881C6.88542 13.5111 6.82682 13.6576 6.82682 13.8275C6.82682 13.9974 6.88835 14.1439 7.01139 14.267C7.13444 14.39 7.28092 14.4515 7.45085 14.4515ZM4.40983 17.3607C3.5485 17.3607 2.87467 17.1205 2.38835 16.64C1.90788 16.1537 1.66764 15.4799 1.66764 14.6185V6.37439C1.66764 5.51306 1.90788 4.84216 2.38835 4.36169C2.87467 3.87537 3.5485 3.6322 4.40983 3.6322H15.5895C16.4508 3.6322 17.1217 3.87537 17.6022 4.36169C18.0885 4.84216 18.3317 5.51306 18.3317 6.37439V14.6185C18.3317 15.4799 18.0885 16.1537 17.6022 16.64C17.1217 17.1205 16.4508 17.3607 15.5895 17.3607H4.40983Z" fill="#D89841"/>
</svg>
