<svg width="20" height="20" viewBox="0 0 20 20" fill="none" xmlns="http://www.w3.org/2000/svg">
<path d="M19.3604 3.91459C19.2386 3.87908 19.0967 3.88114 18.9937 3.81772C18.7332 3.65742 18.4197 3.75661 18.155 3.61478C17.9903 3.52646 17.8373 3.44414 17.7071 3.30014C17.6236 3.20762 17.4697 3.17777 17.3459 3.12308C17.2979 3.10183 17.2473 3.0818 17.1959 3.07467C17.1347 3.06622 17.0614 3.05156 17.011 3.07598C16.8761 3.14159 16.7552 3.13724 16.6388 3.04689C16.5035 2.94171 16.3758 3.07467 16.243 3.05941C16.2372 3.05866 16.2107 3.13025 16.2152 3.1653C16.245 3.39932 16.1697 3.58904 16.0038 3.75575C15.9525 3.80738 15.9385 3.89626 15.9024 3.97933L16.0064 3.99256C15.9748 4.11171 15.9462 4.22837 15.9123 4.34328C15.8696 4.48909 15.8241 4.63405 15.7757 4.77807C15.7456 4.86738 15.7301 4.87263 15.6285 4.85822C15.6166 5.0095 15.5487 5.12327 15.4119 5.19714C15.2751 5.27119 15.2225 5.40079 15.2512 5.56138C15.2553 5.58391 15.2529 5.62423 15.2404 5.63076C15.078 5.71469 15.0705 5.86072 15.0492 6.02059C15.0128 6.29305 14.8037 6.44419 14.5818 6.57019C14.4831 6.6262 14.3816 6.68467 14.2736 6.71447C14.1561 6.74692 14.0301 6.75259 13.9072 6.76029C13.6753 6.77498 13.4703 6.68157 13.2543 6.6119C12.9907 6.5268 12.7997 6.36882 12.62 6.17565C12.5658 6.11717 12.4947 6.06772 12.4223 6.03368C12.1708 5.91541 12.0892 5.64573 11.9056 5.46707C11.7595 5.32496 11.627 5.16887 11.4699 4.99898C11.5439 4.96001 11.5936 4.93366 11.6285 4.9152C11.5686 4.84638 11.5049 4.76581 11.4323 4.69411C11.4081 4.6704 11.3619 4.66502 11.3245 4.65963C11.2374 4.64698 11.2369 4.64901 11.2355 4.52971L11.3729 4.51952C11.3813 4.50775 11.3898 4.49609 11.3983 4.48447C11.1488 4.46917 11.1073 4.22409 10.9415 4.12227C10.8127 4.04312 10.6653 3.99452 10.5269 3.93056C10.4913 3.91398 10.4475 3.89854 10.4267 3.86902C10.3468 3.75614 10.2462 3.73593 10.1179 3.76794C9.90143 3.82192 9.68583 3.77579 9.4845 3.7083C9.30908 3.64954 9.14572 3.54786 8.98774 3.44821C8.93626 3.41562 8.88417 3.32484 8.89201 3.26915C8.90962 3.14594 8.83628 3.13285 8.77927 3.09385C8.75164 3.05092 8.70376 3.00874 8.70187 2.96468C8.6997 2.91273 8.73752 2.85936 8.76138 2.79768C8.74844 2.79186 8.71103 2.775 8.65185 2.74822C8.68968 2.6992 8.72416 2.65442 8.76341 2.60365C8.67802 2.49309 8.58653 2.3744 8.49501 2.25567C8.41165 2.37148 8.3468 2.36392 8.2684 2.25628C8.21677 2.18529 8.14055 2.12404 8.06257 2.08276C7.99291 2.04578 7.90695 1.9917 7.82562 2.08465C7.81075 2.10151 7.75421 2.09802 7.72625 2.08436C7.60421 2.025 7.48449 1.99797 7.34744 2.0384C7.29317 2.05441 7.22511 2.02835 7.16415 2.01658C7.02114 1.98895 6.87903 1.95722 6.73588 1.9303C6.71056 1.92552 6.68208 1.93365 6.65573 1.93918C6.62649 1.94528 6.5974 1.96392 6.56934 1.96189C6.39214 1.94863 6.21555 1.92873 6.03839 1.9165C5.99215 1.9133 5.9437 1.92652 5.8976 1.93775C5.76187 1.97105 5.62688 2.00728 5.497 2.0409C5.53176 2.10404 5.51882 2.14896 5.41421 2.15335C5.33916 2.15642 5.26482 2.17371 5.18453 2.18551C5.20546 2.24252 5.21769 2.27614 5.22992 2.30972C5.19384 2.32167 5.15779 2.33372 5.12153 2.34524C5.10962 2.34901 5.09683 2.34948 5.08502 2.3534C4.96719 2.39369 4.85228 2.45102 4.73124 2.47066C4.58926 2.4938 4.51072 2.57409 4.44701 2.68872C4.42301 2.73179 4.39435 2.77643 4.35713 2.80741C4.19173 2.94475 3.99535 3.05513 3.86169 3.2176C3.71405 3.39711 3.47842 3.42375 3.33234 3.58839C3.32233 3.59973 3.29947 3.60832 3.28493 3.60554C3.09757 3.57078 2.96665 3.70808 2.80749 3.75682C2.64342 3.80716 2.46768 3.81836 2.30114 3.86228C2.15959 3.89972 2.02159 3.94952 1.88874 4.0111C1.70299 4.09738 1.52437 4.19917 1.38977 4.26973C1.29305 4.49039 1.43866 4.71992 1.25304 4.85972C1.05724 5.00707 0.992525 5.2231 0.881822 5.41844C0.821889 5.52451 0.734324 5.61732 0.648364 5.70559C0.493272 5.86486 0.443679 6.06722 0.423463 6.27262C0.391589 6.59582 0.365562 6.92169 0.370518 7.24578C0.375902 7.59561 0.41619 7.94519 0.447779 8.29431C0.467852 8.51557 0.434979 8.71587 0.276857 8.88505C0.250545 8.91328 0.223199 8.97974 0.237282 9.00014C0.308125 9.10239 0.264913 9.18632 0.228119 9.28493C0.186512 9.39635 0.173142 9.51839 0.170503 9.64468C0.188259 9.60671 0.205836 9.56873 0.223591 9.53094C0.230864 9.53312 0.23828 9.53529 0.245553 9.5375C0.213252 9.65427 0.1807 9.77096 0.148969 9.8879C0.142729 9.91133 0.128611 9.95076 0.137346 9.95728C0.291546 10.0726 0.201058 10.2091 0.179666 10.3427C0.172108 10.39 0.181556 10.4582 0.211683 10.4898C0.307661 10.5906 0.31276 10.5858 0.3103 10.675L0.347985 10.6798C0.37198 10.4921 0.398007 10.3048 0.418686 10.1167C0.425816 10.0524 0.416368 9.9842 0.5275 10.0016C0.54554 10.3148 0.581621 10.6296 0.575346 10.9436C0.570961 11.1661 0.523863 11.391 0.470597 11.6086C0.373584 12.0039 0.261419 12.3955 0.147507 12.7864C0.118271 12.8869 0.043934 12.9748 0.0179071 13.0756C-0.00230828 13.1541 -0.0135034 13.2718 0.0295301 13.3236C0.196245 13.5239 0.275074 13.7581 0.343743 13.9995C0.434801 14.3203 0.534595 14.6393 0.608932 14.964C0.685444 15.2983 0.731864 15.6392 0.798322 15.976C0.88282 16.4038 0.944215 16.833 0.936229 17.2708C0.935195 17.3227 0.983505 17.3834 1.02351 17.4266C1.12797 17.5396 1.18249 17.6519 1.11168 17.8102C1.04536 17.9584 1.08797 18.0451 1.25265 18.0583C1.54358 18.0816 1.83715 18.0817 2.12908 18.0761C2.20677 18.0746 2.29548 18.0311 2.35701 17.9802C2.42058 17.9279 2.404 17.8414 2.33156 17.7998C2.24153 17.7482 2.14434 17.6968 2.04412 17.6776C1.74955 17.6215 1.60512 17.4347 1.53253 17.1599C1.50315 17.0486 1.4317 16.949 1.3917 16.8396C1.33975 16.6975 1.27953 16.5538 1.25903 16.4057C1.19443 15.9406 1.15853 15.4714 1.08897 15.0072C1.03688 14.6593 1.07674 14.3215 1.1182 13.9784C1.13842 13.8113 1.10701 13.6383 1.10323 13.4679C1.10134 13.3844 1.10876 13.3007 1.11253 13.2171C1.114 13.1861 1.12708 13.1521 1.11849 13.1247C1.03966 12.8776 1.15047 12.664 1.24139 12.4505C1.34467 12.208 1.38699 11.9549 1.41958 11.6961C1.4398 11.5351 1.48533 11.3768 1.52636 11.2191C1.53595 11.1822 1.57335 11.1527 1.60765 11.1067C1.63239 11.1466 1.65696 11.1676 1.65653 11.1885C1.65239 11.3984 1.6457 11.6083 1.63646 11.818C1.62829 12.0007 1.62234 12.1839 1.60373 12.3655C1.57941 12.6031 1.56736 12.8461 1.50436 13.0742C1.46261 13.2255 1.51877 13.3403 1.57446 13.4433C1.77943 13.8221 2.03546 14.1753 2.22018 14.5628C2.47153 15.09 2.67796 15.6387 2.89791 16.1805C2.99478 16.4192 3.07043 16.6665 3.17066 16.9038C3.20093 16.9754 3.27569 17.0321 3.33926 17.0846C3.41955 17.151 3.45606 17.2194 3.42347 17.3272C3.37852 17.4757 3.41346 17.5537 3.56167 17.5559C3.89959 17.5608 4.23794 17.5373 4.57614 17.5236C4.59682 17.5227 4.6169 17.5083 4.63636 17.5006C4.66924 17.301 4.5565 17.1675 4.35738 17.1622C4.05233 17.1541 3.83195 17.0136 3.68214 16.7454C3.60591 16.6088 3.48269 16.4966 3.41681 16.3566C3.30742 16.1239 3.21608 15.8815 3.13707 15.6366C3.0012 15.2154 2.88062 14.7892 2.75376 14.3651C2.74752 14.344 2.73633 14.3218 2.73865 14.3013C2.77458 13.992 2.62997 13.7124 2.5955 13.4172C2.55243 13.0484 2.44814 12.6773 2.58926 12.3008C2.63582 12.1768 2.62823 12.0286 2.62751 11.8915C2.62605 11.627 2.61632 11.3626 2.6012 11.0986C2.59147 10.9294 2.65839 10.7914 2.73865 10.651C2.84935 10.4573 2.95599 10.2608 3.05272 10.0599C3.11062 9.93953 3.13229 9.80091 3.19529 9.68393C3.30061 9.48816 3.29551 9.29395 3.22089 9.09758C3.18306 8.99821 3.19497 8.91339 3.2123 8.81042C3.24182 8.63487 3.22118 8.45097 3.22189 8.2706C3.22203 8.23844 3.22378 8.20646 3.22496 8.1743C3.26628 8.17911 3.31559 8.17127 3.34728 8.19134C3.42626 8.24115 3.50051 8.29807 3.56912 8.36141C3.9607 8.7229 4.38326 9.0416 4.86333 9.27577C5.22104 9.45033 5.60535 9.53964 5.99404 9.622C6.37892 9.70358 6.76429 9.69587 7.15149 9.69762C7.38933 9.69862 7.62717 9.69776 7.86498 9.69762C7.874 9.69762 7.88406 9.70022 7.89176 9.69702C8.1168 9.6051 8.32641 9.73064 8.54329 9.74009C8.79535 9.75099 9.06144 9.81895 9.29012 9.63362C9.3048 9.62182 9.38075 9.64931 9.38888 9.67245C9.41783 9.75452 9.4497 9.84369 9.44446 9.92791C9.42845 10.1839 9.39487 10.4388 9.36955 10.6943C9.34976 10.8929 9.31529 11.0919 9.31703 11.2905C9.32024 11.6537 9.24402 12.0028 9.16198 12.3517C9.12301 12.5173 9.04867 12.6766 9.02496 12.8436C9.0005 13.0148 9.01027 13.1925 9.01915 13.3666C9.04111 13.798 9.08867 14.2289 9.09288 14.6602C9.09709 15.097 9.06742 15.5345 9.04126 15.971C9.0286 16.1822 8.98378 16.3912 8.96706 16.6023C8.96243 16.6608 8.98902 16.7427 9.0312 16.7801C9.16415 16.8982 9.15281 17.0774 9.0286 17.2186C8.87893 17.389 8.90363 17.5083 9.12126 17.5641C9.28142 17.6051 9.45059 17.6164 9.61659 17.6278C9.74081 17.6364 9.77618 17.6678 9.72352 17.7804C9.66954 17.8957 9.70198 17.9413 9.81732 17.9839C10.0695 18.0769 10.3291 18.0806 10.5907 18.0796C10.7075 18.0792 10.8264 18.0932 10.9405 18.0759C11.0623 18.0573 11.1797 18.0094 11.3009 17.9736C11.2605 17.7401 11.1873 17.6687 10.9597 17.6482C10.7179 17.6264 10.4545 17.3298 10.4414 17.0893C10.4351 16.9746 10.4158 16.8409 10.3515 16.7528C10.2225 16.5758 10.1849 16.3784 10.149 16.1746C10.0654 15.7002 10.0221 15.2231 10.0402 14.7407C10.0499 14.4789 10.069 14.2193 10.1916 13.9817C10.3593 13.6568 10.3084 13.3168 10.283 12.9739C10.2669 12.7589 10.2879 12.5412 10.2938 12.3247C10.2949 12.2898 10.3112 12.2547 10.3096 12.2203C10.2846 11.6956 10.3994 11.1936 10.5371 10.692C10.6323 10.3447 10.6834 9.98534 10.7759 9.63726C10.7995 9.5487 10.8913 9.44976 10.9768 9.41136C11.2256 9.29966 11.3914 9.10763 11.5294 8.89C11.6036 8.77306 11.6856 8.76272 11.7976 8.79763C12.0071 8.86266 12.2139 8.93988 12.4271 8.98848C12.6587 9.04128 12.8961 9.06962 13.1316 9.1041C13.2844 9.12649 13.44 9.16346 13.5918 9.15387C13.8548 9.13729 14.1154 9.0836 14.3781 9.05625C14.9479 8.99678 15.3969 8.68371 15.8343 8.35656C15.9893 8.24061 16.096 8.0627 16.2399 7.92918C16.5882 7.60581 16.6453 7.13511 16.8555 6.74232C16.9287 6.60573 17.0509 6.49257 17.0592 6.32018C17.0608 6.2866 17.1327 6.25647 17.1799 6.2185C17.1418 6.16438 17.0735 6.08423 17.2327 6.09179C17.2481 5.94893 17.2375 5.80375 17.3783 5.69828C17.4221 5.66541 17.4195 5.56038 17.424 5.48736C17.4335 5.33405 17.4827 5.29301 17.6346 5.27544C17.8752 5.24748 18.1137 5.20138 18.3535 5.16619C18.4456 5.15265 18.5406 5.15571 18.6313 5.13682C18.6846 5.12576 18.7299 5.08095 18.7822 5.06045C18.9036 5.01317 19.0247 4.96008 19.1511 4.93302C19.2048 4.92154 19.2738 4.96386 19.3314 4.99149C19.4376 5.04241 19.5277 5.06394 19.6371 4.97638C19.7104 4.91762 19.8231 4.90949 19.9155 4.87209C19.9488 4.85858 19.9983 4.82685 19.9996 4.80125C20.014 4.52522 19.6286 3.9927 19.3604 3.91459Z" fill="#171717"/>
</svg>
