<svg width="377" height="447" viewBox="0 0 377 447" fill="none" xmlns="http://www.w3.org/2000/svg">
<g opacity="0.1">
<path d="M61.4431 66.2694C57.4252 69.9593 49.7653 71.8432 41.6426 67.3388C49.9821 76.5034 59.7195 76.1847 65.7181 71.5528C71.4786 66.6306 73.8033 57.1402 66.5848 47.0691C69.2959 55.9646 65.8749 63.0894 61.4431 66.2694Z" fill="#FFFDFB"/>
<path d="M177.825 21.3959C172.414 22.0192 165.11 19.0234 161.175 10.5954C162.553 22.9257 170.612 28.4075 178.185 28.195C185.736 27.6072 193.174 21.2968 193.238 8.89561C190.215 17.6919 183.271 21.4384 177.825 21.3959Z" fill="#FFFDFB"/>
<path d="M298.284 53.6843C293.537 50.993 289.391 44.2718 291.15 35.1356C285.032 45.922 288.338 55.1078 294.59 59.3926C301.039 63.3658 310.759 62.6505 318.084 52.6502C310.483 57.9903 302.671 56.928 298.284 53.6843Z" fill="#FFFDFB"/>
<path d="M376.802 150.797C374.548 145.818 375.128 137.936 381.902 131.583C370.635 136.703 367.93 146.087 370.466 153.233C373.362 160.252 381.641 165.401 393.43 161.633C384.148 161.463 378.448 156.003 376.802 150.797Z" fill="#FFFDFB"/>
<path d="M383.402 275.63C384.49 270.276 389.583 264.242 398.794 263.095C386.673 260.595 378.987 266.593 376.847 273.874C375.074 281.257 378.754 290.301 390.501 294.198C383.091 288.596 381.686 280.818 383.402 275.63Z" fill="#FFFDFB"/>
<path d="M315.555 380.52C319.574 376.829 327.231 374.948 335.355 379.447C327.019 370.282 317.278 370.601 311.281 375.233C305.517 380.16 303.193 389.646 310.412 399.721C307.707 390.823 311.126 383.699 315.555 380.52Z" fill="#FFFDFB"/>
<path d="M199.178 425.388C204.588 424.77 211.892 427.761 215.82 436.188C214.449 423.859 206.383 418.379 198.817 418.592C191.266 419.182 183.828 425.486 183.757 437.893C186.781 429.095 193.724 425.347 199.178 425.388Z" fill="#FFFDFB"/>
<path d="M78.7163 393.103C83.459 395.794 87.6111 402.516 85.8529 411.652C91.9695 400.867 88.6593 391.682 82.4107 387.393C75.9572 383.422 66.2403 384.135 58.9144 394.134C66.5179 388.798 74.3318 389.859 78.7163 393.103Z" fill="#FFFDFB"/>
<path d="M0.193766 295.994C2.45347 300.966 1.8714 308.851 -4.90631 315.206C6.36468 310.087 9.07078 300.703 6.52993 293.551C3.63731 286.535 -4.64215 281.387 -16.4309 285.158C-7.15192 285.323 -1.45139 290.785 0.193766 295.994Z" fill="#FFFDFB"/>
<path d="M-6.40509 171.152C-7.4915 176.506 -12.5845 182.54 -21.795 183.687C-9.67422 186.188 -1.98459 180.196 0.153616 172.908C1.92592 165.528 -1.75427 156.484 -13.5021 152.589C-6.09144 158.191 -4.68294 165.967 -6.40509 171.152Z" fill="#FFFDFB"/>
<path d="M47.9872 49.6262C44.5457 56.1207 51.7952 61.8503 56.2913 59.8956C59.1296 55.887 55.0347 47.5865 47.9872 49.6262Z" fill="#FFFDFB"/>
<path d="M176.694 0C170.103 3.22955 172.604 12.1391 177.393 13.2014C182.034 11.6362 183.588 2.50715 176.694 0Z" fill="#FFFDFB"/>
<path d="M309.911 35.7098C302.692 34.4349 299.492 43.1179 302.734 46.8007C307.411 48.2667 314.015 41.8006 309.911 35.7098Z" fill="#FFFDFB"/>
<path d="M396.751 143.106C391.658 137.815 383.98 142.957 384.446 147.851C387.37 151.796 396.504 150.45 396.751 143.106Z" fill="#FFFDFB"/>
<path d="M404.049 281.167C403.025 273.888 393.799 273.52 391.313 277.755C391.362 282.666 399.542 286.966 404.049 281.167Z" fill="#FFFDFB"/>
<path d="M329.017 397.165C332.457 390.671 325.202 384.938 320.71 386.894C317.87 390.9 321.967 399.197 329.017 397.165Z" fill="#FFFDFB"/>
<path d="M200.308 446.785C206.898 443.56 204.39 434.649 199.608 433.584C194.96 435.151 193.413 444.276 200.308 446.785Z" fill="#FFFDFB"/>
<path d="M67.0871 411.08C74.3098 412.355 77.5076 403.67 74.2625 399.988C69.5863 398.519 62.9802 404.988 67.0871 411.08Z" fill="#FFFDFB"/>
<path d="M-19.7545 303.684C-14.6587 308.972 -6.98031 303.83 -7.44652 298.939C-10.3688 294.994 -19.5044 296.335 -19.7545 303.684Z" fill="#FFFDFB"/>
<path d="M-27.0514 165.62C-26.0293 172.901 -16.8019 173.262 -14.3126 169.034C-14.3642 164.119 -22.5412 159.82 -27.0514 165.62Z" fill="#FFFDFB"/>
<path d="M22.8449 181.364C18.3686 186.57 6.32833 189.091 11.7788 190.961C17.0123 192.76 21.4985 190.812 23.6671 187.738C25.8357 184.665 23.7766 180.281 22.8449 181.364Z" fill="#FFFDFB"/>
<path d="M29.8422 287.018C29.2729 293.868 21.0082 303.001 26.5151 301.303C31.8038 299.675 34.291 295.454 34.2429 291.689C34.1956 287.925 29.9602 285.592 29.8422 287.018Z" fill="#FFFDFB"/>
<path d="M97.4465 368.369C101 374.245 99.6716 386.504 103.126 381.886C106.453 377.451 105.987 372.57 103.747 369.553C101.501 366.536 96.7048 367.144 97.4465 368.369Z" fill="#FFFDFB"/>
<path d="M199.827 394.342C206.142 397.001 212.252 407.704 212.344 401.929C212.436 396.382 209.201 392.706 205.612 391.588C202.031 390.471 198.506 393.788 199.827 394.342Z" fill="#FFFDFB"/>
<path d="M297.878 355.02C304.554 353.446 315.771 358.505 312.458 353.778C309.279 349.238 304.504 348.171 300.951 349.379C297.391 350.588 296.487 355.348 297.878 355.02Z" fill="#FFFDFB"/>
<path d="M354.158 265.418C358.629 260.213 370.673 257.699 365.22 255.822C359.986 254.023 355.5 255.978 353.331 259.051C351.163 262.125 353.226 266.509 354.158 265.418Z" fill="#FFFDFB"/>
<path d="M347.156 159.771C347.721 152.922 355.986 143.786 350.483 145.486C345.193 147.115 342.706 151.336 342.756 155.096C342.798 158.864 347.036 161.194 347.156 159.771Z" fill="#FFFDFB"/>
<path d="M279.555 78.4162C276.002 72.5449 277.33 60.2853 273.869 64.903C270.549 69.3366 271.008 74.2164 273.254 77.2334C275.501 80.2505 280.297 79.6414 279.555 78.4162Z" fill="#FFFDFB"/>
<path d="M177.174 52.4452C170.851 49.7893 164.741 39.0807 164.649 44.8599C164.565 50.4054 167.8 54.0811 171.381 55.2001C174.97 56.3192 178.494 52.9976 177.174 52.4452Z" fill="#FFFDFB"/>
<path d="M79.1195 91.7663C72.4471 93.3386 61.2298 88.2818 64.5413 93.0128C67.7207 97.5525 72.493 98.6149 76.0496 97.4109C79.6055 96.1998 80.5097 91.4405 79.1195 91.7663Z" fill="#FFFDFB"/>
<path d="M24.0273 176.938C22.7388 170.189 13.5573 161.981 19.2126 163.085C24.6446 164.141 27.562 168.078 27.911 171.825C28.2606 175.572 24.2957 178.341 24.0273 176.938Z" fill="#FFFDFB"/>
<path d="M28.1999 282.739C23.2008 278.039 10.9614 276.807 16.1844 274.37C21.1997 272.026 25.866 273.485 28.3461 276.318C30.8269 279.142 29.2411 283.718 28.1999 282.739Z" fill="#FFFDFB"/>
<path d="M93.6087 365.872C86.8049 365.014 76.1844 371.234 78.9789 366.183C81.6617 361.33 86.2949 359.764 89.9589 360.589C93.6229 361.414 95.0215 366.051 93.6087 365.872Z" fill="#FFFDFB"/>
<path d="M195.255 394.584C189.251 397.899 184.306 409.189 183.6 403.456C182.929 397.949 185.761 393.952 189.208 392.46C192.656 390.969 196.505 393.895 195.255 394.584Z" fill="#FFFDFB"/>
<path d="M294.328 357.907C291.411 364.127 294.032 376.177 290.104 371.951C286.332 367.894 286.276 362.992 288.19 359.753C290.104 356.514 294.936 356.611 294.328 357.907Z" fill="#FFFDFB"/>
<path d="M352.971 269.852C354.264 276.602 363.447 284.808 357.789 283.704C352.357 282.644 349.439 278.712 349.093 274.966C348.74 271.212 352.703 268.443 352.971 269.852Z" fill="#FFFDFB"/>
<path d="M348.794 164.049C353.795 168.751 366.036 169.977 360.809 172.42C355.794 174.764 351.132 173.298 348.652 170.472C346.166 167.647 347.755 163.071 348.794 164.049Z" fill="#FFFDFB"/>
<path d="M283.392 80.9161C290.195 81.7731 300.812 75.5547 298.021 80.6044C295.337 85.4558 290.703 87.021 287.037 86.1995C283.378 85.3708 281.972 80.739 283.392 80.9161Z" fill="#FFFDFB"/>
<path d="M181.743 52.2044C187.747 48.8898 192.692 37.6006 193.391 43.3302C194.069 48.8403 191.237 52.8347 187.789 54.3291C184.342 55.8164 180.493 52.8913 181.743 52.2044Z" fill="#FFFDFB"/>
<path d="M82.6706 88.8759C85.5865 82.6576 82.9694 70.6106 86.8969 74.8316C90.6696 78.8898 90.724 83.7979 88.8097 87.0345C86.8947 90.2711 82.0631 90.172 82.6706 88.8759Z" fill="#FFFDFB"/>
<path d="M73.5452 81.2345C65.1845 81.0504 56.1104 81.7374 48.3353 81.5745C53.9234 88.7985 68.8414 87.5803 80.0234 89.2446C80.7129 77.9341 84.9864 63.5499 79.091 56.5738C77.6429 64.2369 75.0957 72.9907 73.5452 81.2345Z" fill="#FFFDFB"/>
<path d="M178.839 40.639C172.185 35.5609 164.436 30.7732 158.241 26.0564C158.53 35.1926 171.309 43.0045 179.383 50.9367C186.574 42.19 198.462 33.075 197.784 23.953C192.119 29.3002 184.921 34.8881 178.839 40.639Z" fill="#FFFDFB"/>
<path d="M287.82 69.8462C285.412 61.8219 281.957 53.3797 279.711 45.915C274.583 53.4789 280.347 67.3248 282.226 78.5008C293.175 75.6608 308.136 75.2925 312.932 67.5161C305.211 68.5005 296.12 68.7839 287.82 69.8462Z" fill="#FFFDFB"/>
<path d="M358.869 157.709C361.631 149.791 363.779 140.924 366.336 133.566C357.753 136.661 354.306 151.264 349.27 161.406C359.788 165.564 372.107 174.084 380.548 170.613C373.731 166.867 366.209 161.732 358.869 157.709Z" fill="#FFFDFB"/>
<path d="M364.839 270.659C371.712 265.878 378.648 259.971 385.034 255.524C376.282 252.974 364.923 262.748 354.907 267.996C360.975 277.55 365.955 291.707 374.813 293.876C371.493 286.825 368.42 278.237 364.839 270.659Z" fill="#FFFDFB"/>
<path d="M303.451 365.553C311.815 365.736 320.884 365.048 328.662 365.213C323.074 357.987 308.155 359.205 296.973 357.543C296.281 368.855 292.008 383.237 297.906 390.213C299.354 382.552 301.904 373.792 303.451 365.553Z" fill="#FFFDFB"/>
<path d="M198.161 406.148C204.815 411.225 212.564 416.016 218.752 420.731C218.469 411.592 205.684 403.786 197.617 395.85C190.426 404.597 178.538 413.713 179.216 422.831C184.881 417.487 192.072 411.902 198.161 406.148Z" fill="#FFFDFB"/>
<path d="M89.1728 376.938C91.5823 384.968 95.0414 393.408 97.2877 400.873C102.416 393.311 96.6449 379.463 94.773 368.286C83.8263 371.124 68.863 371.494 64.0674 379.271C71.7818 378.284 80.8778 378.007 89.1728 376.938Z" fill="#FFFDFB"/>
<path d="M18.1283 289.079C15.3706 296.994 13.2183 305.861 10.6605 313.223C19.2416 310.128 22.6958 295.526 27.7287 285.377C17.21 281.224 4.88929 272.706 -3.55053 276.169C3.26886 279.919 10.7904 285.055 18.1283 289.079Z" fill="#FFFDFB"/>
<path d="M12.1597 176.131C5.28729 180.912 -1.65076 186.811 -8.03714 191.259C0.720552 193.816 12.0756 184.035 22.0963 178.794C16.0221 169.233 11.0485 155.082 2.18908 152.908C5.50836 159.962 8.58184 168.553 12.1597 176.131Z" fill="#FFFDFB"/>
<path d="M83.3336 93.3385C78.4355 94.153 77.6833 101.618 82.9867 105.053C86.0517 107.043 90.035 107.121 93.3705 105.747C95.3978 102.758 96.1466 98.8344 94.8398 95.4207C92.5794 89.507 85.1412 88.6996 83.3336 93.3385ZM89.0108 100.357C88.4662 100.18 87.8904 99.8188 87.3112 99.2169C87.4623 99.1035 87.6009 98.9548 87.7209 98.7636C87.9307 98.6857 88.1108 98.5795 88.2493 98.452C88.7141 99.146 88.9521 99.7835 89.0108 100.357Z" fill="#FFFDFB"/>
<path d="M179.658 56.199C175.222 53.9681 170.235 59.5631 172.51 65.4698C173.823 68.8834 177.002 71.2986 180.506 72.1485C183.896 70.9303 186.8 68.1965 187.746 64.6624C189.392 58.5504 183.84 53.5077 179.658 56.199ZM180.138 65.2219C179.799 64.7615 179.552 64.1242 179.432 63.2955C179.616 63.2955 179.821 63.253 180.033 63.168C180.244 63.2317 180.449 63.253 180.64 63.2318C180.605 64.0675 180.428 64.7261 180.138 65.2219Z" fill="#FFFDFB"/>
<path d="M279.37 82.9199C277.082 78.5005 269.764 80.0941 268.146 86.2132C267.207 89.7473 268.365 93.5718 270.696 96.3268C274.157 97.3396 278.106 96.8367 280.946 94.535C285.855 90.5547 284.322 83.2103 279.37 82.9199ZM274.461 90.5051C274.461 89.9314 274.631 89.2657 275.019 88.5292C275.167 88.6425 275.358 88.7275 275.577 88.7771C275.718 88.9541 275.867 89.0957 276.029 89.1878C275.521 89.8465 274.984 90.2714 274.461 90.5051Z" fill="#FFFDFB"/>
<path d="M344.366 163.298C345.108 158.376 338.256 155.352 333.353 159.346C330.528 161.655 329.221 165.43 329.497 169.035C331.701 171.896 335.19 173.815 338.835 173.631C345.143 173.306 348.201 166.457 344.366 163.298ZM335.953 166.542C336.285 166.082 336.815 165.642 337.556 165.274C337.613 165.451 337.719 165.635 337.86 165.805C337.874 166.032 337.917 166.237 337.994 166.407C337.189 166.634 336.511 166.662 335.953 166.542Z" fill="#FFFDFB"/>
<path d="M349.828 266.636C353.31 263.088 349.545 256.608 343.237 256.948C339.592 257.146 336.329 259.434 334.436 262.507C334.542 266.119 336.237 269.738 339.295 271.728C344.593 275.185 351.085 271.452 349.828 266.636ZM341.118 264.299C341.662 264.122 342.34 264.08 343.166 264.221C343.103 264.398 343.082 264.604 343.096 264.83C342.976 265.014 342.891 265.206 342.856 265.39C342.072 265.106 341.499 264.724 341.118 264.299Z" fill="#FFFDFB"/>
<path d="M293.668 353.452C298.564 352.638 299.319 345.172 294.015 341.733C290.949 339.746 286.965 339.668 283.631 341.042C281.603 344.029 280.855 347.952 282.162 351.369C284.415 357.282 291.86 358.088 293.668 353.452ZM287.989 346.431C288.533 346.607 289.112 346.972 289.691 347.572C289.536 347.681 289.402 347.836 289.282 348.026C289.07 348.104 288.886 348.208 288.752 348.335C288.286 347.642 288.046 347.002 287.989 346.431Z" fill="#FFFDFB"/>
<path d="M197.334 390.591C201.777 392.818 206.764 387.222 204.49 381.314C203.176 377.901 199.997 375.49 196.494 374.637C193.103 375.857 190.193 378.59 189.246 382.124C187.607 388.239 193.159 393.277 197.334 390.591ZM196.861 381.566C197.2 382.029 197.447 382.663 197.567 383.49C197.376 383.488 197.179 383.533 196.967 383.616C196.755 383.555 196.543 383.533 196.359 383.554C196.388 382.719 196.571 382.062 196.861 381.566Z" fill="#FFFDFB"/>
<path d="M97.6266 363.867C99.9152 368.286 107.226 366.696 108.851 360.577C109.79 357.04 108.632 353.218 106.301 350.464C102.84 349.451 98.8839 349.95 96.0513 352.251C91.1364 356.232 92.6748 363.576 97.6266 363.867ZM102.536 356.285C102.536 356.858 102.366 357.519 101.978 358.258C101.83 358.147 101.639 358.062 101.42 358.007C101.279 357.831 101.123 357.691 100.961 357.599C101.476 356.941 102.013 356.516 102.536 356.285Z" fill="#FFFDFB"/>
<path d="M32.6334 283.487C31.8924 288.409 38.7422 291.434 43.6423 287.438C46.4749 285.13 47.7788 281.356 47.5055 277.755C45.3009 274.894 41.81 272.968 38.1657 273.159C31.8585 273.485 28.7949 280.33 32.6334 283.487ZM41.0471 280.243C40.713 280.707 40.1881 281.144 39.44 281.511C39.3842 281.333 39.279 281.153 39.1356 280.98C39.1271 280.755 39.0841 280.552 39.0064 280.381C39.8081 280.151 40.4883 280.122 41.0471 280.243Z" fill="#FFFDFB"/>
<path d="M27.1706 180.154C23.6853 183.702 27.4538 190.182 33.7604 189.835C37.4046 189.637 40.6723 187.356 42.564 184.275C42.4552 180.663 40.7606 177.052 37.7013 175.054C32.407 171.605 25.9146 175.338 27.1706 180.154ZM35.8788 182.484C35.3356 182.668 34.656 182.71 33.8352 182.569C33.8939 182.385 33.9151 182.179 33.901 181.96C34.0253 181.768 34.11 181.577 34.1474 181.393C34.9294 181.683 35.4974 182.059 35.8788 182.484Z" fill="#FFFDFB"/>
<path d="M108.795 124.826C107.672 125.025 106.591 125.01 105.581 124.763C105.581 124.763 107.997 126.257 110.519 126.958C110.356 124.338 109.395 121.661 109.395 121.661C109.431 122.702 109.219 123.764 108.795 124.826Z" fill="#FFFDFB"/>
<path d="M181.799 96.6812C180.775 96.1783 179.906 95.5267 179.242 94.7335C179.242 94.7335 180.315 97.3682 181.947 99.4221C183.353 97.2053 184.144 94.4715 184.144 94.4715C183.565 95.3355 182.767 96.0721 181.799 96.6812Z" fill="#FFFDFB"/>
<path d="M257.371 116.93C256.834 115.924 256.509 114.883 256.438 113.849C256.438 113.849 255.76 116.611 255.88 119.238C258.317 118.275 260.556 116.526 260.556 116.526C259.582 116.887 258.508 117.015 257.371 116.93Z" fill="#FFFDFB"/>
<path d="M306.626 177.852C306.789 176.719 307.135 175.692 307.686 174.807C307.686 174.807 305.517 176.641 304.076 178.837C306.605 179.495 309.445 179.403 309.445 179.403C308.449 179.113 307.502 178.582 306.626 177.852Z" fill="#FFFDFB"/>
<path d="M310.762 256.162C311.553 255.34 312.443 254.717 313.404 254.328C313.404 254.328 310.571 254.533 308.12 255.454C309.787 257.479 312.132 259.08 312.132 259.08C311.497 258.258 311.038 257.274 310.762 256.162Z" fill="#FFFDFB"/>
<path d="M268.206 321.961C269.329 321.763 270.41 321.776 271.42 322.028C271.42 322.028 269.004 320.528 266.482 319.829C266.638 322.45 267.606 325.126 267.606 325.126C267.57 324.087 267.775 323.021 268.206 321.961Z" fill="#FFFDFB"/>
<path d="M195.193 350.109C196.217 350.609 197.086 351.259 197.757 352.056C197.757 352.056 196.683 349.42 195.052 347.366C193.646 349.581 192.855 352.316 192.855 352.316C193.434 351.453 194.232 350.714 195.193 350.109Z" fill="#FFFDFB"/>
<path d="M119.631 329.854C120.168 330.863 120.486 331.901 120.557 332.938C120.557 332.938 121.235 330.175 121.122 327.551C118.685 328.514 116.446 330.261 116.446 330.261C117.421 329.903 118.494 329.777 119.631 329.854Z" fill="#FFFDFB"/>
<path d="M70.3729 268.938C70.2146 270.071 69.8671 271.098 69.3168 271.976C69.3168 271.976 71.4854 270.142 72.9285 267.954C70.3926 267.295 67.5565 267.387 67.5565 267.387C68.5539 267.67 69.4991 268.201 70.3729 268.938Z" fill="#FFFDFB"/>
<path d="M66.2339 190.621C65.4428 191.443 64.5576 192.073 63.5955 192.463C63.5955 192.463 66.4267 192.257 68.8786 191.33C67.2122 189.304 64.8628 187.711 64.8628 187.711C65.5028 188.525 65.957 189.517 66.2339 190.621Z" fill="#FFFDFB"/>
<path d="M99.5088 113.339C94.8961 113.141 90.5766 112.404 89.8696 115.414C92.4733 114.72 96.3442 118.523 103.457 118.219C105.223 111.306 102.313 106.724 103.521 104.316C100.441 104.387 100.272 108.771 99.5088 113.339Z" fill="#FFFDFB"/>
<path d="M181.024 81.9144C177.401 79.0319 174.349 75.8874 172.011 77.9058C174.519 78.8832 175.423 84.2374 181.356 88.1823C186.838 83.6354 187.17 78.2103 189.565 76.978C187.029 75.2145 184.316 78.6636 181.024 81.9144Z" fill="#FFFDFB"/>
<path d="M265.392 104.528C264.149 100.066 263.521 95.7179 260.448 95.9729C261.91 98.2463 259.501 103.112 261.981 109.798C269.087 109.344 272.534 105.152 275.197 105.562C274.173 102.644 269.963 103.841 265.392 104.528Z" fill="#FFFDFB"/>
<path d="M320.393 172.541C322.003 168.206 324.045 164.318 321.403 162.71C321.254 165.409 316.458 167.923 314.544 174.8C320.555 178.617 325.803 177.265 327.718 179.163C328.601 176.202 324.49 174.68 320.393 172.541Z" fill="#FFFDFB"/>
<path d="M325.011 259.986C328.861 257.422 332.788 255.475 331.594 252.628C329.899 254.717 324.538 253.924 318.964 258.364C321.585 264.993 326.621 266.991 327.059 269.654C329.51 267.777 327.073 264.129 325.011 259.986Z" fill="#FFFDFB"/>
<path d="M277.494 333.448C282.107 333.644 286.422 334.385 287.129 331.375C284.529 332.066 280.658 328.266 273.545 328.568C271.779 335.482 274.69 340.065 273.475 342.475C276.561 342.404 276.731 338.016 277.494 333.448Z" fill="#FFFDFB"/>
<path d="M195.977 364.875C199.594 367.754 202.652 370.897 204.99 368.878C202.476 367.904 201.579 362.548 195.645 358.602C190.163 363.154 189.831 368.576 187.437 369.812C189.973 371.571 192.678 368.121 195.977 364.875Z" fill="#FFFDFB"/>
<path d="M111.607 342.262C112.843 346.723 113.479 351.069 116.551 350.813C115.089 348.545 117.498 343.679 115.011 336.992C107.912 337.444 104.465 341.634 101.802 341.222C102.819 344.141 107.036 342.946 111.607 342.262Z" fill="#FFFDFB"/>
<path d="M56.6058 274.242C54.9939 278.584 52.9567 282.471 55.5936 284.076C55.7426 281.38 60.5439 278.864 62.454 271.99C56.442 268.166 51.1964 269.525 49.2843 267.627C48.3999 270.588 52.5088 272.103 56.6058 274.242Z" fill="#FFFDFB"/>
<path d="M51.9821 186.804C48.1337 189.367 44.2063 191.308 45.3987 194.162C47.0997 192.066 52.4596 192.859 58.0351 188.426C55.4102 181.789 50.3716 179.799 49.9393 177.136C47.4867 179.006 49.9216 182.66 51.9821 186.804Z" fill="#FFFDFB"/>
<path d="M67.5914 73.8695C49.4177 81.0014 30.7007 66.8651 30.2063 67.4316C28.5653 69.2872 42.5637 76.6175 53.1679 77.4249C59.6538 77.9348 64.1365 76.8937 68.9392 75.5339C71.2554 71.1074 73.1979 66.9217 74.0399 60.4555C75.4478 49.8887 71.1848 34.6404 69.0353 35.8656C68.3861 36.2339 78.3093 57.5164 67.5914 73.8695Z" fill="#FFFDFB"/>
<path d="M178.337 31.1696C159.456 26.2332 152.597 3.76808 151.869 3.93098C149.454 4.46215 156.482 18.6481 164.584 25.5463C169.536 29.7815 173.767 31.5804 178.45 33.3156C182.922 31.0917 186.948 28.8537 191.42 24.1227C198.752 16.3959 204.247 1.55131 201.789 1.2751C201.048 1.19011 196.597 24.2573 178.337 31.1696Z" fill="#FFFDFB"/>
<path d="M292.97 61.8926C280.587 46.7718 288.209 24.5545 287.524 24.2571C285.256 23.2656 282.628 38.8821 285.143 49.2365C286.662 55.5823 289.035 59.5342 291.804 63.6986C296.721 64.5343 301.291 65.0939 307.684 63.897C318.145 61.9777 331.291 53.2026 329.468 51.5312C328.917 51.0212 311.795 67.0627 292.97 61.8926Z" fill="#FFFDFB"/>
<path d="M367.696 154.304C366.545 134.77 385.737 121.293 385.356 120.648C384.105 118.509 372.817 129.593 368.784 139.459C366.29 145.479 365.895 150.075 365.697 155.075C369.179 158.652 372.549 161.797 378.426 164.601C388.012 169.212 403.792 169.856 403.298 167.427C403.149 166.698 379.895 169.58 367.696 154.304Z" fill="#FFFDFB"/>
<path d="M373.972 273.103C384.497 256.622 407.928 257.033 407.999 256.282C408.239 253.818 392.614 256.134 383.565 261.729C378.013 265.142 374.996 268.627 371.91 272.55C372.63 277.501 373.513 282.03 376.621 287.759C381.679 297.139 394.069 306.964 395.086 304.705C395.397 304.023 374.89 292.653 373.972 273.103Z" fill="#FFFDFB"/>
<path d="M309.41 372.917C327.585 365.784 346.297 379.919 346.798 379.358C348.437 377.503 334.437 370.17 323.834 369.365C317.349 368.853 312.864 369.894 308.06 371.251C305.743 375.681 303.801 379.863 302.96 386.331C301.555 396.9 305.814 412.148 307.962 410.922C308.611 410.553 298.694 389.27 309.41 372.917Z" fill="#FFFDFB"/>
<path d="M198.661 415.617C217.543 420.555 224.395 443.022 225.129 442.859C227.545 442.325 220.517 428.142 212.407 421.242C207.463 417.007 203.225 415.206 198.548 413.473C194.077 415.692 190.051 417.931 185.579 422.668C178.24 430.388 172.751 445.236 175.21 445.512C175.951 445.596 180.401 422.529 198.661 415.617Z" fill="#FFFDFB"/>
<path d="M84.0305 384.892C96.4147 400.017 88.788 422.232 89.4731 422.531C91.7385 423.523 94.3733 407.908 91.8586 397.547C90.3385 391.205 87.9657 387.253 85.1946 383.092C80.2768 382.252 75.7094 381.692 69.3138 382.888C58.853 384.812 45.7073 393.588 47.534 395.259C48.085 395.763 65.2076 379.725 84.0305 384.892Z" fill="#FFFDFB"/>
<path d="M9.30456 292.481C10.4545 312.014 -8.73706 325.494 -8.35844 326.139C-7.10603 328.276 4.17698 317.195 8.21747 307.332C10.706 301.305 11.1052 296.71 11.3015 291.71C7.81485 288.132 4.44822 284.988 -1.42744 282.186C-11.0173 277.578 -26.7977 276.927 -26.299 279.359C-26.15 280.092 -2.89532 277.21 9.30456 292.481Z" fill="#FFFDFB"/>
<path d="M3.02407 173.68C-7.49675 190.161 -30.9252 189.757 -30.9973 190.501C-31.2367 192.973 -15.6131 190.657 -6.56151 185.055C-1.01573 181.648 2.0012 178.164 5.09161 174.233C4.36898 169.282 3.48748 164.757 0.377287 159.027C-4.67968 149.65 -17.0668 139.827 -18.0875 142.086C-18.3969 142.766 2.1086 154.133 3.02407 173.68Z" fill="#FFFDFB"/>
<path d="M-21.7938 204.22C-1.08134 199.949 6.6945 220.488 -4.07285 229.858C-13.8301 238.35 -26.4291 232.783 -27.1023 224.61C-28.1435 211.975 -8.57249 214.588 -14.9892 225.212C-1.42675 228.3 -3.40109 206.514 -21.7938 204.22Z" fill="#FFFDFB"/>
<path d="M7.12794 331.815C21.3792 316.152 39.7125 328.188 36.495 342.114C33.5798 354.736 20.1218 357.655 14.7872 351.44C6.53739 341.833 23.9016 332.412 24.9386 344.788C37.7212 339.296 23.3492 322.829 7.12794 331.815Z" fill="#FFFDFB"/>
<path d="M105.329 417.996C107.674 396.926 129.564 395.858 135.124 409.021C140.167 420.95 130.991 431.243 123.03 429.359C110.725 426.448 119.251 408.593 127.346 417.994C134.467 406.017 113.183 401.166 105.329 417.996Z" fill="#FFFDFB"/>
<path d="M235.293 429.845C224.838 411.417 241.926 397.653 254.139 405.025C265.215 411.705 263.823 425.44 256.279 428.606C244.617 433.504 241.043 414.034 253.108 416.871C251.843 402.984 231.782 411.6 235.293 429.845Z" fill="#FFFDFB"/>
<path d="M347.39 362.837C328.127 354.089 333.884 332.887 348.082 331.652C360.959 330.531 367.889 342.462 363.643 349.469C357.074 360.304 342.77 346.657 354.192 341.846C345.03 331.353 333.855 350.146 347.39 362.837Z" fill="#FFFDFB"/>
<path d="M398.792 242.563C378.081 246.841 370.304 226.295 381.069 216.925C390.832 208.433 403.426 214 404.104 222.173C405.143 234.808 385.569 232.194 391.99 221.578C378.427 218.483 380.398 240.275 398.792 242.563Z" fill="#FFFDFB"/>
<path d="M369.873 114.975C355.618 130.634 337.288 118.601 340.502 104.67C343.419 92.0496 356.876 89.1318 362.209 95.35C370.459 104.954 353.096 114.373 352.058 102C339.273 107.489 353.647 123.956 369.873 114.975Z" fill="#FFFDFB"/>
<path d="M271.674 28.79C269.322 49.86 247.438 50.9294 241.872 37.7634C236.835 25.8367 246.011 15.546 253.972 17.4299C266.277 20.3408 257.751 38.1954 249.656 28.79C242.536 40.7733 263.819 45.6247 271.674 28.79Z" fill="#FFFDFB"/>
<path d="M141.697 16.941C152.152 35.3693 135.071 49.1373 122.858 41.7646C111.782 35.086 113.174 21.3462 120.718 18.1804C132.38 13.2865 135.947 32.7558 123.889 29.9158C125.147 43.8043 145.208 35.1851 141.697 16.941Z" fill="#FFFDFB"/>
<path d="M29.6089 83.9469C48.8712 92.7007 43.1191 113.898 28.9153 115.138C16.0422 116.257 9.11332 104.323 13.3601 97.3184C19.9245 86.4824 34.2272 100.13 22.8079 104.939C31.9682 115.435 43.146 96.6385 29.6089 83.9469Z" fill="#FFFDFB"/>
<path d="M-3.28564 134.798C12.5366 148.864 29.4989 134.954 24.8311 121.441C20.602 109.203 6.91168 107.723 2.26158 114.472C-4.92866 124.897 13.332 132.426 13.0579 120.01C26.3484 124.118 13.7918 142.015 -3.28564 134.798Z" fill="#FFFDFB"/>
<path d="M-18.5979 264.738C2.44871 266.799 8.01641 245.545 -3.67912 237.372C-14.2769 229.957 -26.2183 236.827 -26.0269 245.028C-25.7302 257.698 -6.54421 253.031 -14.0445 243.144C-0.883991 238.64 -0.549871 260.517 -18.5979 264.738Z" fill="#FFFDFB"/>
<path d="M45.1952 378.893C63.4269 368.152 55.473 347.679 41.2176 347.955C28.2986 348.205 22.6667 360.803 27.6276 367.321C35.2981 377.401 48.0815 362.315 36.2192 358.739C44.2218 347.335 57.3188 364.837 45.1952 378.893Z" fill="#FFFDFB"/>
<path d="M163.724 433.648C172.179 414.213 153.743 402.338 142.37 410.962C132.064 418.778 134.897 432.289 142.73 434.639C154.845 438.272 156.342 418.534 144.652 422.632C144.44 408.689 165.292 415.132 163.724 433.648Z" fill="#FFFDFB"/>
<path d="M291.721 408.093C287.165 387.389 265.288 388.647 261.142 402.326C257.391 414.722 267.598 423.985 275.312 421.268C287.242 417.068 276.887 400.217 269.83 410.424C261.481 399.269 282.135 392.189 291.721 408.093Z" fill="#FFFDFB"/>
<path d="M380.284 311.99C364.461 297.925 347.494 311.835 352.163 325.344C356.395 337.585 370.084 339.063 374.732 332.317C381.923 321.889 363.663 314.36 363.939 326.776C350.645 322.67 363.204 304.773 380.284 311.99Z" fill="#FFFDFB"/>
<path d="M395.592 182.045C374.549 179.991 368.982 201.238 380.673 209.418C391.276 216.826 403.213 209.956 403.023 201.762C402.726 189.085 383.541 193.759 391.043 203.639C377.883 208.15 377.544 186.273 395.592 182.045Z" fill="#FFFDFB"/>
<path d="M331.802 67.8914C313.57 78.6353 321.524 99.1104 335.786 98.8342C348.698 98.5792 354.335 85.9868 349.369 79.464C341.705 69.3858 328.92 84.4712 340.78 88.0478C332.776 99.4503 319.68 81.9498 331.802 67.8914Z" fill="#FFFDFB"/>
<path d="M213.275 13.1381C204.819 32.572 223.256 44.4491 234.628 35.8228C244.935 28.011 242.102 14.4979 234.268 12.1466C222.154 8.51331 220.656 28.2518 232.347 24.1511C232.559 38.0963 211.706 31.6513 213.275 13.1381Z" fill="#FFFDFB"/>
<path d="M85.2795 38.6912C89.8349 59.3999 111.712 58.1393 115.858 44.4633C119.609 32.0621 109.402 22.8055 101.688 25.518C89.7537 29.7178 100.113 46.5667 107.17 36.361C115.519 47.5157 94.8643 54.5981 85.2795 38.6912Z" fill="#FFFDFB"/>
<path d="M22.8449 206.543C18.3686 201.337 6.32833 198.823 11.7788 196.953C17.0123 195.147 21.4985 197.102 23.6671 200.176C25.8357 203.25 23.7766 207.634 22.8449 206.543Z" fill="#FFFDFB"/>
<path d="M44.6056 307.388C37.9317 305.815 26.7152 310.873 30.0267 306.147C33.2068 301.606 37.9791 300.54 41.535 301.748C45.0909 302.957 45.9951 307.717 44.6056 307.388Z" fill="#FFFDFB"/>
<path d="M121.327 376.148C115.005 378.807 108.895 389.51 108.803 383.735C108.718 378.188 111.953 374.513 115.535 373.394C119.123 372.276 122.641 375.594 121.327 376.148Z" fill="#FFFDFB"/>
<path d="M223.709 386.561C220.148 392.438 221.484 404.697 218.022 400.079C214.702 395.644 215.161 390.764 217.408 387.746C219.654 384.728 224.45 385.338 223.709 386.561Z" fill="#FFFDFB"/>
<path d="M312.644 334.65C313.21 341.498 321.474 350.632 315.971 348.935C310.681 347.305 308.194 343.085 308.237 339.32C308.286 335.556 312.524 333.223 312.644 334.65Z" fill="#FFFDFB"/>
<path d="M354.158 240.241C358.629 245.446 370.673 247.968 365.22 249.837C359.986 251.636 355.5 249.689 353.331 246.615C351.163 243.541 353.226 239.157 354.158 240.241Z" fill="#FFFDFB"/>
<path d="M332.393 139.402C339.068 140.974 350.286 135.917 346.973 140.641C343.794 145.181 339.019 146.251 335.466 145.039C331.906 143.828 331.001 139.069 332.393 139.402Z" fill="#FFFDFB"/>
<path d="M255.674 70.6389C261.996 67.9759 268.099 57.2745 268.191 63.0537C268.283 68.5992 265.047 72.275 261.459 73.394C257.878 74.513 254.353 71.1913 255.674 70.6389Z" fill="#FFFDFB"/>
<path d="M153.289 60.2284C156.842 54.35 155.514 42.0905 158.968 46.7082C162.295 51.1418 161.836 56.0215 159.59 59.0386C157.344 62.0556 152.547 61.4465 153.289 60.2284Z" fill="#FFFDFB"/>
<path d="M64.3574 112.135C63.7881 105.287 55.5227 96.1575 61.0296 97.8502C66.3197 99.4791 68.8062 103.7 68.7588 107.468C68.7101 111.229 64.4754 113.566 64.3574 112.135Z" fill="#FFFDFB"/>
<path d="M36.5543 155.118C30.0853 157.391 18.3976 153.545 22.1887 157.894C25.8287 162.072 30.6871 162.632 34.0954 161.053C37.5051 159.473 37.9021 154.643 36.5543 155.118Z" fill="#FFFDFB"/>
<path d="M25.5477 257.699C21.6456 263.35 9.93742 267.132 15.5545 268.414C20.9492 269.654 25.2051 267.239 27.0374 263.952C28.8691 260.666 26.36 256.523 25.5477 257.699Z" fill="#FFFDFB"/>
<path d="M76.7813 347.181C76.9381 354.052 69.6815 364.009 74.9793 361.738C80.0674 359.558 82.0954 355.097 81.6511 351.359C81.2061 347.621 76.7488 345.749 76.7813 347.181Z" fill="#FFFDFB"/>
<path d="M170.689 389.378C174.842 394.846 174.807 407.177 177.759 402.218C180.599 397.455 179.624 392.652 177.074 389.889C174.524 387.126 169.82 388.239 170.689 389.378Z" fill="#FFFDFB"/>
<path d="M271.399 368.175C277.961 370.149 285.166 380.146 284.651 374.393C284.156 368.867 280.547 365.555 276.866 364.823C273.186 364.092 270.029 367.764 271.399 368.175Z" fill="#FFFDFB"/>
<path d="M340.446 291.67C346.91 289.399 358.6 293.241 354.807 288.891C351.169 284.714 346.309 284.158 342.905 285.736C339.493 287.315 339.097 292.144 340.446 291.67Z" fill="#FFFDFB"/>
<path d="M351.451 189.085C355.35 183.433 367.062 179.658 361.446 178.369C356.049 177.137 351.79 179.552 349.96 182.838C348.131 186.124 350.639 190.261 351.451 189.085Z" fill="#FFFDFB"/>
<path d="M300.216 99.6062C300.061 92.7364 307.315 82.7786 302.017 85.052C296.931 87.2263 294.904 91.6882 295.349 95.4277C295.794 99.1671 300.251 101.037 300.216 99.6062Z" fill="#FFFDFB"/>
<path d="M206.311 57.4094C202.157 51.9418 202.186 39.6115 199.233 44.5691C196.4 49.3285 197.368 54.1373 199.925 56.8994C202.475 59.6616 207.173 58.5496 206.311 57.4094Z" fill="#FFFDFB"/>
<path d="M105.602 78.6136C99.0331 76.6377 91.8281 66.6374 92.3508 72.3954C92.8453 77.9196 96.4477 81.2341 100.135 81.9636C103.815 82.6931 106.966 79.0244 105.602 78.6136Z" fill="#FFFDFB"/>
<path d="M40.5653 216.968C27.356 228.002 7.93339 207.775 -8.03714 196.649C3.73679 193.221 20.2046 212.074 31.8167 212.237C38.4673 212.336 39.5233 204.354 33.8356 205.346C34.359 206.918 31.8909 210.821 28.3018 208.646C23.023 205.445 26.882 197.697 33.7607 198.072C42.2133 198.533 48.6399 210.219 40.5653 216.968Z" fill="#FFFDFB"/>
<path d="M65.0516 305.375C60.8345 322.089 33.2651 317.172 13.8206 317.582C21.3344 307.867 45.7116 313.415 55.2011 306.704C60.6388 302.864 56.8137 295.784 52.7944 299.94C54.1415 300.906 54.4304 305.513 50.2521 305.87C44.1059 306.394 42.6861 297.852 48.4707 294.101C55.5797 289.492 67.6291 295.158 65.0516 305.375Z" fill="#FFFDFB"/>
<path d="M136.689 362.47C143.074 378.477 117.885 390.746 102.394 402.537C102.775 390.249 125.754 380.372 129.498 369.35C131.645 363.038 124.398 359.565 123.585 365.296C125.238 365.284 128.177 368.841 125.005 371.591C120.336 375.638 114.183 369.564 116.663 363.121C119.714 355.203 132.782 352.685 136.689 362.47Z" fill="#FFFDFB"/>
<path d="M228.116 366.443C242.667 375.629 229.479 400.398 223.863 419.065C216.969 408.899 229.761 387.369 226.328 376.246C224.372 369.874 216.467 371.334 219.173 376.451C220.501 375.464 224.965 376.613 224.011 380.707C222.606 386.73 214.066 385.444 212.293 378.769C210.124 370.566 219.215 360.827 228.116 366.443Z" fill="#FFFDFB"/>
<path d="M304.413 315.776C321.571 314.632 325.421 342.441 331.821 360.855C320.286 356.692 318.018 331.733 308.715 324.759C303.396 320.76 297.858 326.595 303.043 329.143C303.544 327.561 307.825 325.861 309.457 329.735C311.852 335.434 304.187 339.427 298.84 335.07C292.271 329.717 293.924 316.476 304.413 315.776Z" fill="#FFFDFB"/>
<path d="M336.436 229.822C349.645 218.788 369.063 239.008 385.035 250.142C373.266 253.57 356.794 234.716 345.181 234.553C338.534 234.454 337.474 242.436 343.167 241.445C342.645 239.865 345.11 235.97 348.698 238.144C353.975 241.338 350.118 249.086 343.238 248.711C334.79 248.251 328.362 236.572 336.436 229.822Z" fill="#FFFDFB"/>
<path d="M311.952 141.413C316.17 124.699 343.74 129.614 363.179 129.203C355.67 138.92 331.293 133.375 321.799 140.082C316.36 143.92 320.189 151.003 324.208 146.845C322.859 145.882 322.569 141.272 326.751 140.918C332.897 140.393 334.316 148.935 328.531 152.688C321.425 157.292 309.374 151.626 311.952 141.413Z" fill="#FFFDFB"/>
<path d="M240.31 84.3159C233.924 68.3099 259.114 56.0432 274.605 44.2511C274.216 56.539 251.245 66.4118 247.501 77.439C245.353 83.7493 252.601 87.2197 253.413 81.4901C251.76 81.5042 248.822 77.9489 251.993 75.1939C256.655 71.1499 262.815 77.2265 260.336 83.6644C257.284 91.5824 244.216 94.1037 240.31 84.3159Z" fill="#FFFDFB"/>
<path d="M148.883 80.3426C134.331 71.1568 147.513 46.3898 153.135 27.7207C160.03 37.891 147.23 59.4143 150.663 70.5406C152.627 76.9147 160.524 75.4557 157.826 70.3352C156.491 71.3197 152.033 70.1723 152.987 66.0788C154.386 60.0588 162.933 61.3406 164.699 68.0193C166.874 76.2206 157.776 85.9588 148.883 80.3426Z" fill="#FFFDFB"/>
<path d="M72.5868 131.009C55.4296 132.157 51.5742 104.344 45.1772 85.9301C56.7138 90.0945 58.9834 115.053 68.2822 122.029C73.6048 126.03 79.1386 120.194 73.9537 117.645C73.455 119.224 69.1736 120.924 67.544 117.05C65.148 111.356 72.8115 107.361 78.1574 111.717C84.7253 117.071 83.0745 130.308 72.5868 131.009Z" fill="#FFFDFB"/>
<path d="M57.0978 154.955C51.143 138.779 24.2462 146.59 4.86808 148.241C13.3637 157.108 37.0182 149.006 47.1626 154.671C52.9747 157.915 49.9167 165.366 45.4828 161.655C46.7196 160.55 46.5219 155.939 42.3295 156.031C36.1628 156.159 35.6506 164.806 41.799 167.923C49.353 171.747 60.7377 164.842 57.0978 154.955Z" fill="#FFFDFB"/>
<path d="M42.0712 245.46C27.7719 235.885 10.5907 258.06 -4.11757 270.815C7.95234 272.982 22.3406 252.486 33.8701 251.091C40.4734 250.29 42.3651 258.116 36.6038 257.727C36.9584 256.105 34.094 252.493 30.7543 255.035C25.8414 258.775 30.4951 266.07 37.2961 264.965C45.6533 263.612 50.8126 251.317 42.0712 245.46Z" fill="#FFFDFB"/>
<path d="M82.9752 327.541C65.7932 328.221 64.8912 356.282 60.4706 375.271C71.5043 369.909 71.13 344.851 79.6411 336.928C84.513 332.388 90.6309 337.605 85.7442 340.688C85.0809 339.167 80.6442 337.931 79.432 341.956C77.6498 347.876 85.6919 351.036 90.5483 346.137C96.5136 340.116 93.4762 327.124 82.9752 327.541Z" fill="#FFFDFB"/>
<path d="M164.183 369.84C150.684 380.516 166.401 403.75 173.959 421.717C179.744 410.877 164.748 390.824 166.987 379.399C168.266 372.855 176.276 373.47 174.129 378.844C172.702 378.005 168.386 379.619 169.77 383.589C171.798 389.429 180.154 387.246 181.214 380.421C182.513 372.034 172.433 363.313 164.183 369.84Z" fill="#FFFDFB"/>
<path d="M254.676 356.202C250.014 372.796 276.355 382.328 292.997 392.41C291.323 380.233 267.441 372.845 262.552 362.282C259.755 356.233 266.593 352.012 268.006 357.624C266.36 357.786 263.817 361.635 267.257 364.035C272.322 367.564 277.803 360.872 274.66 354.726C270.796 347.176 257.53 346.058 254.676 356.202Z" fill="#FFFDFB"/>
<path d="M319.899 291.835C325.854 308.009 352.752 300.197 372.128 298.544C363.638 289.68 339.981 297.781 329.837 292.113C324.024 288.87 327.083 281.425 331.519 285.132C330.275 286.234 330.473 290.848 334.669 290.759C340.836 290.629 341.344 281.984 335.199 278.867C327.648 275.036 316.261 281.947 319.899 291.835Z" fill="#FFFDFB"/>
<path d="M334.93 201.323C349.227 210.905 366.406 188.731 381.12 175.975C369.048 173.808 354.659 194.304 343.131 195.693C336.526 196.5 334.633 188.674 340.397 189.056C340.037 190.678 342.905 194.297 346.246 191.755C351.155 188.015 346.507 180.721 339.705 181.818C331.348 183.171 326.185 195.473 334.93 201.323Z" fill="#FFFDFB"/>
<path d="M294.021 119.245C311.207 118.565 312.104 90.505 316.526 71.5173C305.493 76.8786 305.867 101.936 297.355 109.861C292.488 114.401 286.371 109.181 291.252 106.1C291.916 107.616 296.352 108.855 297.567 104.833C299.347 98.9118 291.308 95.753 286.449 100.647C280.48 106.667 283.517 119.663 294.021 119.245Z" fill="#FFFDFB"/>
<path d="M212.818 76.9503C226.317 66.2701 210.6 43.0401 203.042 25.0722C197.257 35.9081 212.253 55.9653 210.007 67.3891C208.728 73.9332 200.725 73.3171 202.872 67.9416C204.299 68.7844 208.608 67.1696 207.231 63.1964C205.203 57.3605 196.847 59.5419 195.787 66.3693C194.488 74.7548 204.561 83.4731 212.818 76.9503Z" fill="#FFFDFB"/>
<path d="M122.316 90.5835C126.985 73.9896 100.644 64.4567 83.9964 54.3786C85.6726 66.5531 109.559 73.94 114.44 84.5069C117.244 90.5552 110.407 94.7762 108.994 89.1599C110.64 89.0041 113.183 85.1513 109.742 82.7504C104.671 79.2234 99.1892 85.9162 102.34 92.0637C106.204 99.6134 119.469 100.733 122.316 90.5835Z" fill="#FFFDFB"/>
<path d="M93.773 161.797C102.61 158.829 112.979 151.881 115.007 135.67C115.113 134.827 117.43 133.354 116.243 139.133C121.357 139.02 120.665 146.697 113.926 146.435C113.693 146.959 113.453 147.483 113.198 147.986C118.115 149.395 115.19 156.499 108.861 154.275C108.416 154.771 107.964 155.238 107.498 155.692C111.807 158.461 106.876 164.552 101.324 160.352C100.929 160.586 100.533 160.805 100.137 161.018C102.087 162.873 101.494 164.856 99.869 165.763C99.7066 167.618 98.1455 168.964 95.659 167.937C95.6308 168.39 95.5884 168.836 95.5389 169.29C101.621 172.661 98.0889 179.658 93.8153 176.847C93.5964 177.456 93.3492 178.065 93.0808 178.674C97.6864 183.561 92.4026 189.134 89.1179 185.211C88.7683 185.65 88.3897 186.082 88.0068 186.507C90.9927 192.569 84.282 196.337 82.3014 191.606C77.5185 195.055 77.919 192.329 78.6416 191.889C92.5792 183.419 94.6701 171.089 93.773 161.797Z" fill="#FFFDFB"/>
<path d="M147.98 117.737C156.866 120.534 169.327 121.03 180.474 109.11C181.046 108.494 183.793 108.664 179.435 112.645C183.645 115.562 178.58 121.37 173.29 117.184C172.788 117.475 172.287 117.751 171.792 118.006C174.935 122.043 168.409 126.073 164.587 120.541C163.944 120.676 163.301 120.796 162.659 120.888C164.523 125.655 156.958 127.68 154.931 121.016C154.479 120.966 154.027 120.917 153.582 120.853C154.069 123.502 152.43 124.762 150.587 124.536C149.365 125.938 147.309 126.108 145.903 123.813C145.614 124.16 145.317 124.5 145.013 124.84C147.959 131.151 140.994 134.727 139.186 129.933C138.649 130.294 138.098 130.648 137.519 130.981C138.38 137.645 130.843 139.04 130.483 133.934C129.946 134.083 129.388 134.203 128.823 134.331C127.686 140.988 120.05 140.082 121.222 135.088C115.331 135.06 117.252 133.091 118.093 133.162C134.333 134.522 143.254 125.782 147.98 117.737Z" fill="#FFFDFB"/>
<path d="M217.654 114.033C223.199 121.534 232.989 129.282 249.003 126.208C249.83 126.045 251.949 127.801 246.093 128.453C247.788 133.297 240.286 135.011 238.45 128.503C237.878 128.439 237.313 128.375 236.762 128.29C236.938 133.404 229.295 132.816 229.451 126.095C228.843 125.825 228.257 125.535 227.685 125.231C226.392 130.195 219.095 127.369 221.355 120.783C221.016 120.478 220.684 120.174 220.359 119.862C219.201 122.291 217.138 122.341 215.782 121.073C213.967 121.491 212.201 120.415 212.413 117.73C211.975 117.837 211.537 117.936 211.092 118.035C209.771 124.876 202.043 123.665 203.392 118.722C202.742 118.701 202.092 118.651 201.436 118.587C198.221 124.487 191.299 121.172 194.004 116.824C193.482 116.626 192.959 116.399 192.429 116.165C187.605 120.889 181.961 115.655 185.839 112.305C181.085 108.807 183.797 108.346 184.433 108.899C196.773 119.572 209.114 117.759 217.654 114.033Z" fill="#FFFDFB"/>
<path d="M276.201 152.1C276.286 161.442 279.669 173.475 294.426 180.423C295.188 180.784 295.874 183.447 290.752 180.529C289.283 185.444 282.212 182.406 284.543 176.067C284.12 175.677 283.696 175.288 283.3 174.891C280.446 179.141 274.612 174.162 278.673 168.807C278.341 168.234 278.031 167.653 277.748 167.072C273.799 170.323 269.54 163.744 275.233 159.742C275.141 159.296 275.05 158.857 274.972 158.411C272.613 159.7 270.917 158.517 270.557 156.69C268.848 155.96 268.049 154.055 269.794 152.001C269.377 151.838 268.961 151.654 268.544 151.47C263.465 156.229 257.92 150.691 261.911 147.49C261.402 147.093 260.901 146.668 260.406 146.222C254.346 149.104 250.694 142.348 255.433 140.429C255.123 139.954 254.833 139.465 254.543 138.962C247.875 139.94 246.371 132.376 251.471 131.951C249.676 126.32 252.142 127.546 252.332 128.374C256.062 144.281 267.11 150.082 276.201 152.1Z" fill="#FFFDFB"/>
<path d="M301.242 217.407C295.845 225.014 291.522 236.742 299.384 251.055C299.793 251.792 298.783 254.356 296.353 248.973C292.285 252.089 288.343 245.467 293.945 241.707C293.825 241.14 293.712 240.581 293.627 240.028C288.83 241.778 287.022 234.313 293.45 232.379C293.521 231.714 293.606 231.069 293.719 230.425C288.619 230.729 289.035 222.896 295.986 223.016C296.17 222.599 296.353 222.188 296.551 221.784C293.888 221.43 293.203 219.482 293.987 217.79C293.033 216.189 293.507 214.178 296.12 213.54C295.88 213.165 295.647 212.775 295.421 212.379C288.527 213.236 287.283 205.495 292.391 205.247C292.214 204.624 292.052 203.986 291.917 203.342C285.32 202.102 286.33 194.482 291.289 195.714C291.317 195.154 291.366 194.581 291.423 194.014C285.454 190.87 288.675 183.865 293.055 186.528C294.898 180.919 296.177 183.362 295.845 184.141C289.537 199.206 295.068 210.41 301.242 217.407Z" fill="#FFFDFB"/>
<path d="M283.222 284.992C274.392 287.961 264.023 294.906 261.988 311.119C261.889 311.959 259.565 313.437 260.759 307.652C255.638 307.768 256.337 300.09 263.069 300.352C263.309 299.825 263.542 299.303 263.804 298.804C258.887 297.395 261.812 290.29 268.141 292.511C268.586 292.018 269.038 291.545 269.504 291.094C265.195 288.33 270.126 282.239 275.678 286.433C276.073 286.204 276.462 285.982 276.857 285.772C274.915 283.917 275.501 281.934 277.126 281.027C277.288 279.171 278.856 277.819 281.336 278.848C281.371 278.4 281.414 277.947 281.456 277.493C275.374 274.122 278.913 267.125 283.187 269.936C283.406 269.334 283.653 268.725 283.921 268.116C279.316 263.23 284.592 257.656 287.884 261.579C288.23 261.14 288.612 260.708 288.993 260.276C286.005 254.221 292.716 250.453 294.701 255.184C299.483 251.735 299.08 254.462 298.36 254.901C284.423 263.371 282.325 275.694 283.222 284.992Z" fill="#FFFDFB"/>
<path d="M229.021 329.052C220.135 326.25 207.674 325.757 196.528 337.675C195.948 338.294 193.208 338.123 197.559 334.144C193.349 331.223 198.414 325.419 203.711 329.601C204.213 329.314 204.707 329.033 205.209 328.779C202.058 324.744 208.592 320.717 212.407 326.244C213.057 326.107 213.7 325.992 214.342 325.9C212.478 321.129 220.036 319.106 222.07 325.769C222.522 325.817 222.974 325.868 223.412 325.933C222.925 323.283 224.571 322.028 226.414 322.251C227.629 320.846 229.692 320.676 231.098 322.97C231.387 322.625 231.684 322.285 231.988 321.946C229.042 315.635 236.007 312.058 237.815 316.851C238.352 316.489 238.903 316.142 239.475 315.809C238.621 309.141 246.158 307.743 246.518 312.855C247.055 312.707 247.613 312.58 248.178 312.459C249.315 305.796 256.951 306.703 255.779 311.699C261.67 311.727 259.748 313.697 258.908 313.625C242.668 312.267 233.747 321.003 229.021 329.052Z" fill="#FFFDFB"/>
<path d="M159.343 332.755C153.791 325.252 144 317.509 127.994 320.581C127.167 320.742 125.048 318.986 130.904 318.334C129.209 313.49 136.71 311.78 138.54 318.285C139.112 318.346 139.684 318.412 140.235 318.502C140.051 313.382 147.694 313.971 147.546 320.694C148.147 320.964 148.74 321.25 149.312 321.554C150.605 316.595 157.902 319.416 155.641 326.003C155.98 326.308 156.312 326.615 156.63 326.927C157.789 324.496 159.851 324.448 161.215 325.716C163.03 325.298 164.789 326.373 164.584 329.059C165.022 328.948 165.46 328.849 165.905 328.754C167.219 321.913 174.954 323.123 173.605 328.065C174.254 328.089 174.904 328.135 175.561 328.203C178.775 322.302 185.691 325.615 182.985 329.961C183.508 330.16 184.038 330.386 184.56 330.619C189.392 325.9 195.036 331.134 191.158 334.485C195.912 337.98 193.199 338.441 192.564 337.887C180.216 327.216 167.883 329.027 159.343 332.755Z" fill="#FFFDFB"/>
<path d="M100.799 294.685C100.707 285.346 97.3238 273.308 82.5753 266.36C81.8102 266.006 81.1258 263.336 86.2449 266.261C87.7163 261.346 94.7879 264.377 92.4568 270.723C92.8807 271.106 93.3045 271.495 93.7 271.892C96.5538 267.642 102.389 272.628 98.3268 277.975C98.6588 278.549 98.9625 279.131 99.2522 279.713C103.201 276.46 107.453 283.046 101.76 287.043C101.859 287.489 101.951 287.933 102.021 288.375C104.388 287.091 106.083 288.268 106.443 290.096C108.153 290.825 108.951 292.735 107.206 294.786C107.623 294.953 108.04 295.132 108.456 295.317C113.528 290.559 119.073 296.094 115.089 299.298C115.598 299.698 116.099 300.12 116.587 300.563C122.647 297.684 126.307 304.44 121.567 306.362C121.878 306.83 122.167 307.324 122.457 307.822C129.125 306.848 130.63 314.411 125.522 314.838C127.317 320.464 124.858 319.24 124.668 318.416C120.938 302.509 109.89 296.702 100.799 294.685Z" fill="#FFFDFB"/>
<path d="M75.7516 229.383C81.1561 221.777 85.4735 210.048 77.6137 195.735C77.2047 194.991 78.2148 192.427 80.6426 197.81C84.7149 194.701 88.655 201.323 83.0513 205.083C83.17 205.643 83.2824 206.21 83.3678 206.762C88.1691 205.006 89.971 212.477 83.5479 214.411C83.4787 215.07 83.389 215.721 83.2774 216.359C88.3796 216.061 87.9614 223.894 81.0128 223.767C80.8291 224.185 80.6405 224.602 80.4434 224.999C83.1071 225.353 83.791 227.308 83.0083 229.001C83.9647 230.594 83.4907 232.613 80.8785 233.243C81.118 233.625 81.3476 234.015 81.575 234.411C88.4721 233.547 89.7132 241.295 84.6075 241.536C84.7855 242.16 84.9437 242.797 85.0822 243.448C91.672 244.688 90.669 252.309 85.7109 251.069C85.6833 251.629 85.6311 252.202 85.5724 252.776C91.5413 255.921 88.3202 262.925 83.9435 260.262C82.0963 265.871 80.8213 263.428 81.1505 262.649C87.457 247.585 81.9268 236.373 75.7516 229.383Z" fill="#FFFDFB"/>
<path d="M81.2674 153.666C98.1703 153.531 108.597 134.813 103.828 127.178C103.828 127.178 113.223 135.131 105.919 137.688C107.784 139.324 107.057 144.537 101.787 143.389C105.842 147.362 102.211 152.497 97.3157 150.323C99.8445 154.487 94.9564 158.425 90.9194 155.578C91.0621 156.98 90.338 158.156 89.2022 158.822C89.0595 160.132 88.2839 161.279 86.9488 161.718C91.1885 164.254 89.5913 170.338 84.7703 169.714C88.7472 173.312 85.5481 178.73 80.2778 176.641C83.4727 180.989 79.0204 183.787 76.7706 182.746C77.4218 190.473 66.3479 185.118 66.3479 185.118C75.2427 186.365 88.0395 169.19 81.2674 153.666Z" fill="#FFFDFB"/>
<path d="M142.625 103.785C156.378 113.636 175.789 104.642 176.411 95.6543C176.411 95.6543 179.342 107.623 171.94 105.385C172.484 107.808 168.839 111.604 165.25 107.567C166.204 113.169 160.256 115.187 157.572 110.541C157.176 115.4 150.911 115.704 149.314 111.023C148.608 112.248 147.329 112.765 146.023 112.638C145.14 113.615 143.84 114.083 142.505 113.651C144.447 118.197 139.587 122.185 136.049 118.842C137.158 124.09 131.393 126.59 128.356 121.788C128.391 127.192 123.15 126.831 121.942 124.664C117.937 131.3 112.116 120.442 112.116 120.442C118.58 126.696 139.008 120.336 142.625 103.785Z" fill="#FFFDFB"/>
<path d="M221.507 99.5919C226.854 115.669 247.833 119.826 253.605 112.928C253.605 112.928 248.964 124.338 244.28 118.162C243.306 120.449 238.135 121.363 237.598 115.987C235.083 121.08 229.086 119.203 229.637 113.863C226.473 117.567 221.217 114.118 222.672 109.394C221.387 109.96 220.044 109.635 219.063 108.756C217.777 109.025 216.456 108.636 215.622 107.503C214.528 112.326 208.262 112.687 207.365 107.899C205.182 112.8 199.051 111.426 199.411 105.753C196.268 110.145 192.241 106.759 192.531 104.294C185.404 107.304 187.056 95.0874 187.056 95.0874C188.625 103.955 208.877 110.853 221.507 99.5919Z" fill="#FFFDFB"/>
<path d="M287.776 142.688C282.676 158.85 297.214 174.573 305.93 172.391C305.93 172.391 295.483 178.893 295.313 171.138C293.187 172.405 288.469 170.097 291.181 165.436C286.166 168.071 282.408 163.021 285.989 159.027C281.256 160.153 279.031 154.275 282.98 151.3C281.602 151.003 280.712 149.954 280.43 148.665C279.229 148.12 278.388 147.029 278.381 145.62C274.666 148.878 269.389 145.478 271.466 141.073C266.832 143.75 262.679 139.026 266.288 134.649C261.174 136.349 259.895 131.243 261.577 129.416C254.047 127.652 262.551 118.743 262.551 118.743C258.617 126.838 270.957 144.352 287.776 142.688Z" fill="#FFFDFB"/>
<path d="M316.131 216.614C302.533 226.678 305.069 247.967 313.405 251.338C313.405 251.338 301.142 250.439 305.55 244.065C303.084 243.838 300.619 239.192 305.55 237.018C299.941 236.196 299.87 229.893 305.105 228.774C300.619 226.897 302.258 220.828 307.196 220.75C306.256 219.701 306.157 218.32 306.687 217.116C306.03 215.969 305.988 214.588 306.807 213.448C301.898 213.894 299.616 208.03 303.883 205.693C298.556 205.126 297.97 198.858 303.459 197.442C298.323 195.806 300.287 190.919 302.717 190.437C297.659 184.566 309.76 182.37 309.76 182.37C301.827 186.606 301.552 208.044 316.131 216.614Z" fill="#FFFDFB"/>
<path d="M295.734 293.125C278.83 293.256 268.404 311.976 273.165 319.611C273.165 319.611 263.777 311.657 271.081 309.101C269.216 307.465 269.944 302.25 275.214 303.399C271.159 299.428 274.79 294.289 279.685 296.463C277.149 292.303 282.044 288.36 286.078 291.207C285.937 289.805 286.664 288.629 287.794 287.964C287.943 286.654 288.713 285.512 290.048 285.07C285.809 282.536 287.406 276.453 292.23 277.069C288.253 273.478 291.453 268.06 296.723 270.149C293.53 265.794 297.98 263.003 300.227 264.044C299.577 256.31 310.653 261.665 310.653 261.665C301.752 260.418 288.96 277.6 295.734 293.125Z" fill="#FFFDFB"/>
<path d="M234.369 343.001C220.623 333.147 201.212 342.148 200.59 351.132C200.59 351.132 197.651 339.161 205.061 341.399C204.51 338.976 208.162 335.186 211.744 339.22C210.797 333.618 216.745 331.601 219.429 336.244C219.825 331.387 226.09 331.079 227.687 335.763C228.393 334.543 229.672 334.019 230.978 334.149C231.861 333.173 233.154 332.706 234.496 333.136C232.554 328.588 237.414 324.606 240.945 327.948C239.836 322.698 245.601 320.198 248.645 324.996C248.61 319.592 253.851 319.955 255.059 322.123C259.064 315.485 264.885 326.344 264.885 326.344C258.414 320.094 237.993 326.449 234.369 343.001Z" fill="#FFFDFB"/>
<path d="M155.493 347.192C150.146 331.118 129.166 326.96 123.395 333.862C123.395 333.862 128.036 322.447 132.719 328.623C133.694 326.339 138.865 325.423 139.402 330.8C141.916 325.708 147.913 327.582 147.362 332.921C150.527 329.222 155.775 332.667 154.327 337.396C155.613 336.827 156.948 337.154 157.93 338.031C159.223 337.762 160.543 338.148 161.377 339.285C162.465 334.46 168.737 334.102 169.635 338.891C171.817 333.989 177.942 335.364 177.588 341.036C180.732 336.644 184.758 340.026 184.469 342.493C191.596 339.483 189.936 351.698 189.936 351.698C188.375 342.83 168.123 335.937 155.493 347.192Z" fill="#FFFDFB"/>
<path d="M89.2182 304.097C94.314 287.94 79.7802 272.21 71.0663 274.399C71.0663 274.399 81.5144 267.897 81.6811 275.652C83.8088 274.378 88.5302 276.686 85.812 281.354C90.833 278.716 94.5824 283.767 91.0102 287.761C95.7409 286.634 97.966 292.516 94.0173 295.485C95.3948 295.782 96.2848 296.836 96.5673 298.124C97.7611 298.665 98.6088 299.758 98.6158 301.168C102.331 297.908 107.608 301.311 105.531 305.716C110.165 303.036 114.319 307.761 110.709 312.14C115.823 310.439 117.095 315.547 115.414 317.372C122.951 319.138 114.446 328.043 114.446 328.043C118.38 319.947 106.04 302.436 89.2182 304.097Z" fill="#FFFDFB"/>
<path d="M60.868 230.176C74.4637 220.112 71.9235 198.816 63.5939 195.452C63.5939 195.452 75.8567 196.351 71.4453 202.725C73.9134 202.945 76.3801 207.598 71.4453 209.772C77.0533 210.594 77.1274 216.89 71.8939 218.016C76.3801 219.886 74.7356 225.962 69.8002 226.033C70.7389 227.088 70.8413 228.469 70.313 229.673C70.9657 230.814 71.0081 232.195 70.1858 233.342C75.1015 232.896 77.3775 238.76 73.1138 241.097C78.4371 241.664 79.0262 247.932 73.5369 249.348C78.6737 250.984 76.71 255.871 74.28 256.353C79.3377 262.224 67.2388 264.412 67.2388 264.412C75.1665 260.184 75.4484 238.746 60.868 230.176Z" fill="#FFFDFB"/>
<path d="M25.4924 117.39C26.9659 118.155 27.6872 118.608 27.9076 118.962C27.4979 118.906 26.7865 118.431 25.4924 117.39Z" fill="#FFFDFB"/>
<path d="M118.764 41.5736C119.512 43.0538 119.83 43.8541 119.802 44.2649C119.505 43.9745 119.201 43.1742 118.764 41.5736Z" fill="#FFFDFB"/>
<path d="M238.68 35.1999C238.411 36.843 238.2 37.6716 237.938 37.9903C237.86 37.5796 238.094 36.758 238.68 35.1999Z" fill="#FFFDFB"/>
<path d="M339.423 100.711C338.243 101.88 337.586 102.432 337.184 102.531C337.367 102.156 338.038 101.625 339.423 100.711Z" fill="#FFFDFB"/>
<path d="M382.516 213.087C380.877 213.335 380.03 213.391 379.641 213.242C380.008 213.044 380.863 213.009 382.516 213.087Z" fill="#FFFDFB"/>
<path d="M351.507 329.395C350.031 328.634 349.311 328.177 349.092 327.825C349.501 327.883 350.215 328.358 351.507 329.395Z" fill="#FFFDFB"/>
<path d="M258.232 405.215C257.49 403.731 257.172 402.936 257.2 402.521C257.497 402.81 257.794 403.612 258.232 405.215Z" fill="#FFFDFB"/>
<path d="M138.324 411.586C138.593 409.946 138.804 409.117 139.066 408.798C139.136 409.207 138.91 410.031 138.324 411.586Z" fill="#FFFDFB"/>
<path d="M37.5781 346.074C38.7557 344.905 39.4126 344.358 39.8138 344.257C39.6323 344.63 38.9627 345.161 37.5781 346.074Z" fill="#FFFDFB"/>
<path d="M-5.52067 233.704C-3.88257 233.449 -3.03065 233.392 -2.64638 233.548C-3.01228 233.746 -3.86562 233.782 -5.52067 233.704Z" fill="#FFFDFB"/>
<path d="M29.373 119.919C37.3148 116.413 40.8079 118.162 41.1957 117.305C52.1848 92.1842 25.7118 73.7701 26.1568 73.0194C27.4099 70.8805 38.6915 81.9573 42.732 91.823C46.1636 100.131 45.6218 105.719 46.0562 113.389C48.1365 114.692 52.7075 118.615 56.5446 129.423C56.5446 129.423 58.3755 126.562 61.1855 131.697C68.262 144.629 64.836 138.389 66.8683 135.585C67.9229 134.133 72.7136 145.033 77.9549 144.778C75.5949 137.107 84.9432 149.927 91.6524 140.67C96.7524 133.63 88.7364 140.273 88.2879 138.34C99.4861 131.746 84.6006 118.431 90.1089 115.081C90.3011 118.552 98.2288 121.732 97.7202 134.338C97.2116 146.938 86.4696 152.582 71.4612 146.598C52.2286 138.921 45.8556 112.185 46.3204 116.859C46.8594 122.766 47.9303 128.191 49.8488 133.233C44.4754 133.531 39.0956 134.763 33.4975 136.682C29.0558 138.156 55.9979 133.092 70.8311 147.568C82.4066 158.864 81.6486 170.996 70.3776 176.606C59.1066 182.208 52.9795 176.252 49.7365 177.491C50.5432 171.081 68.7388 179.283 70.177 166.336C72.1196 165.961 69.3407 176.004 73.6686 168.468C79.3649 158.553 63.8754 155.224 71.8236 154.254C69.922 149.353 58.0386 149.409 58.935 147.851C60.66 144.848 67.735 145.443 53.0734 144.239C47.25 143.758 49.1142 140.911 49.1142 140.911C37.704 141.81 32.2656 139.225 30.2348 137.851C23.07 140.578 18.2016 143.354 9.23764 143.602C-1.39196 143.928 -16.0847 138.113 -14.6486 136.095C-14.1414 135.379 13.4187 152.108 31.8178 131.803C32.4408 131.095 29.421 128.616 29.373 119.919ZM37.0542 124.912C37.2407 124.621 37.4257 124.324 37.6101 124.026C37.312 124.26 37.0132 124.48 36.7144 124.692C36.6465 125.046 36.5668 125.415 36.4749 125.783C36.6727 125.492 36.8656 125.202 37.0542 124.912ZM40.1015 126.895C40.1318 124.975 39.7603 124.99 39.2828 126.364C38.2275 127.355 38.3687 127.702 40.1015 126.895ZM43.4469 129.069C43.8361 128.24 44.4994 127.412 45.518 126.654C42.756 113.516 45.5985 112.022 42.2941 119.699C41.7968 122.44 41.4839 125.11 41.3518 127.709C39.044 128.885 36.7398 130.259 34.4413 131.831C28.798 137.993 29.0029 134.777 42.0956 131.944C42.369 130.705 42.8535 129.763 43.4469 129.069Z" fill="#FFFDFB"/>
<path d="M120.431 45.9004C128.908 47.7489 130.702 51.2192 131.522 50.7589C155.143 36.9058 144.519 6.40923 145.317 6.0622C147.585 5.07067 150.219 20.6872 147.705 31.0487C145.614 39.7883 141.898 43.9881 137.752 50.4543C138.67 52.7277 140.069 58.599 136.834 69.605C136.834 69.605 139.998 68.3655 139.256 74.1801C137.406 88.8123 138.289 81.7441 141.573 80.6747C143.283 80.1222 140.768 91.7656 145.162 94.6411C147.747 87.0417 147.79 102.927 158.647 99.3933C166.897 96.702 156.52 97.3536 157.29 95.5264C170.217 96.7941 165.979 77.2469 172.4 77.778C170.514 80.703 175.063 87.9483 167.264 97.8423C159.466 107.743 147.472 105.98 138.84 92.2897C127.778 74.7397 138.296 49.3637 135.936 53.4148C132.906 58.507 130.589 63.5283 129.191 68.7409C124.663 65.8159 119.591 63.6416 113.94 61.8923C109.475 60.4687 134.241 72.2467 137.759 92.7005C140.5 108.664 132.772 118.034 120.368 115.924C107.964 113.82 106.502 105.385 103.146 104.478C107.561 99.7687 117.472 117.127 126.224 107.503C128.018 108.345 119.88 114.833 127.799 111.285C138.225 106.617 127.644 94.7969 134.644 98.6992C135.979 93.607 126.33 86.6522 127.968 85.9227C131.126 84.5063 136.502 89.1593 125.341 79.5415C120.912 75.7241 124.09 74.5201 124.09 74.5201C114.335 68.5214 111.446 63.2238 110.613 60.9149C103.217 58.9035 97.6507 58.2803 90.2528 53.1952C81.4633 47.1964 72.9825 33.8321 75.3277 33.0459C76.1577 32.7697 88.6472 62.5439 115.437 56.9559C116.356 56.7576 115.367 52.9685 120.431 45.9004ZM123.716 54.47C124.034 54.3425 124.359 54.215 124.684 54.0805C124.302 54.0946 123.935 54.0947 123.568 54.0876C123.306 54.3355 123.024 54.5834 122.734 54.8312C123.066 54.7108 123.391 54.5904 123.716 54.47ZM125.016 57.8695C126.167 56.3327 125.856 56.1273 124.67 56.9559C123.229 57.1401 123.144 57.5012 125.016 57.8695ZM126.45 61.5949C127.248 61.1558 128.272 60.8795 129.537 60.8653C135.011 48.6129 138.183 49.0733 131.013 53.3368C129 55.2632 127.177 57.2392 125.553 59.2648C122.996 58.854 120.325 58.6061 117.542 58.5282C109.37 60.1854 111.418 57.7066 123.667 63.1317C124.62 62.2889 125.56 61.8073 126.45 61.5949Z" fill="#FFFDFB"/>
<path d="M237.486 39.6828C243.264 46.1702 242.678 50.0442 243.611 50.1505C270.841 52.863 280.123 21.9344 280.978 22.1256C283.394 22.6568 276.365 36.8357 268.256 43.7409C261.44 49.5768 255.972 50.7879 248.831 53.5712C248.237 55.958 245.927 61.5318 236.857 68.5291C236.857 68.5291 240.142 69.3861 236.144 73.6568C226.064 84.4007 230.917 79.2093 234.209 80.2788C235.911 80.8312 227.053 88.7705 228.918 93.6927C235.459 89.0679 226.191 101.944 237.048 105.485C245.292 108.169 236.518 102.581 238.214 101.554C247.934 110.195 255.958 91.8867 260.839 96.1007C257.604 97.3613 257.039 105.896 244.924 109.309C232.81 112.723 224.143 104.224 225.181 88.0622C226.523 67.3464 249.911 53.0117 245.624 54.8956C240.185 57.2328 235.367 59.9312 231.178 63.3236C229.236 58.2881 226.403 53.5429 222.857 48.7978C220.081 45.0158 233.213 69.1382 224.065 87.7577C216.923 102.291 205.183 105.315 196.382 96.2991C187.58 87.2832 191.346 79.5989 189.163 76.8934C195.492 75.6824 193.337 95.5625 206.059 92.9349C207.02 94.6701 196.629 95.1234 205.12 96.9223C216.288 99.2878 214.656 83.4942 218.032 90.7748C222.094 87.4461 218.365 76.1285 220.123 76.5039C223.5 77.2192 225.125 84.1457 221.741 69.7969C220.392 64.0956 223.669 64.9951 223.669 64.9951C219.29 54.3928 220.06 48.4082 220.738 46.0427C215.935 40.0581 211.795 36.2762 208.793 27.7986C205.205 17.7629 206.172 1.96225 208.532 2.7059C209.365 2.96795 202.019 34.4135 226.961 45.6886C227.823 46.0639 229.25 42.4166 237.486 39.6828ZM235.12 48.5499C235.452 48.6349 235.791 48.7198 236.13 48.8048C235.819 48.5923 235.515 48.3799 235.226 48.1604C234.866 48.2028 234.491 48.2383 234.117 48.2666C234.456 48.3657 234.788 48.4578 235.12 48.5499ZM234.18 52.0698C236.01 51.5032 235.883 51.1562 234.435 51.1208C233.163 50.4267 232.881 50.6675 234.18 52.0698ZM233.149 55.9297C234.053 56.043 235.049 56.4254 236.08 57.162C247.693 50.4692 249.989 52.7143 241.689 51.9352C238.927 52.3106 236.299 52.8347 233.799 53.5146C231.969 51.6732 229.949 49.9026 227.745 48.1958C220.159 44.7183 223.274 43.918 230.006 55.533C231.263 55.4126 232.308 55.5756 233.149 55.9297Z" fill="#FFFDFB"/>
<path d="M335.827 103.636C336.695 112.291 333.955 115.081 334.647 115.712C355.09 133.956 380.731 114.401 381.31 115.06C382.949 116.916 368.949 124.253 358.346 125.053C349.41 125.761 344.275 123.516 336.858 121.562C334.986 123.141 329.851 126.285 318.407 126.604C318.407 126.604 320.562 129.239 314.826 130.33C300.373 133.077 307.345 131.739 309.373 134.544C310.432 136.002 298.607 137.199 297.237 142.277C305.24 142.398 290.187 147.348 296.898 156.612C301.998 163.645 298.177 153.949 300.147 154.119C302.938 166.839 320.166 156.754 321.65 163.043C318.294 162.15 312.827 168.73 301.03 164.346C289.227 159.969 287.199 147.986 297.513 135.521C310.743 119.557 338.066 121.739 333.496 120.74C327.724 119.43 322.243 118.771 316.867 119.047C318.245 113.828 318.739 108.318 318.654 102.39C318.626 97.6941 315.101 124.954 296.785 134.621C282.495 142.171 271.221 137.695 269.385 125.216C267.555 112.737 275.099 108.735 274.923 105.258C280.75 108.013 267.35 122.822 279.182 128.198C278.942 130.167 270.275 124.416 276.081 130.868C283.731 139.367 291.678 125.627 290.138 133.502C295.379 133.205 298.989 121.852 300.197 123.19C302.514 125.761 299.759 132.327 305.438 118.722C307.691 113.311 309.811 115.974 309.811 115.974C312.488 104.812 316.62 100.428 318.549 98.9122C318.174 91.235 317.044 85.7391 319.58 77.1128C322.561 66.8788 332.613 54.6618 334.082 56.659C334.605 57.3601 310.22 78.4726 323.797 102.291C324.27 103.105 327.562 100.994 335.827 103.636ZM328.713 109.415C328.932 109.684 329.158 109.954 329.384 110.216C329.257 109.862 329.137 109.507 329.031 109.16C328.713 108.983 328.388 108.792 328.071 108.594C328.282 108.87 328.501 109.146 328.713 109.415ZM325.895 111.71C327.703 112.326 327.809 111.972 326.651 111.094C326.036 109.777 325.662 109.805 325.895 111.71ZM322.794 114.224C323.458 114.855 324.044 115.74 324.447 116.944C337.762 118.375 338.306 121.547 332.047 116.023C329.589 114.699 327.159 113.573 324.736 112.652C324.334 110.088 323.74 107.461 322.956 104.784C318.859 97.5029 321.847 98.6856 320.484 112.05C321.579 112.694 322.321 113.445 322.794 114.224Z" fill="#FFFDFB"/>
<path d="M377.898 213.334C373.525 220.848 369.675 221.486 369.866 222.414C375.701 249.213 407.912 248.505 407.997 249.376C408.237 251.848 392.612 249.532 383.563 243.93C375.913 239.234 373.073 234.39 368.227 228.441C365.783 228.618 359.779 228.136 350.342 221.649C350.342 221.649 350.54 225.048 345.256 222.548C331.948 216.259 338.376 219.283 338.376 222.746C338.376 224.545 328.112 218.554 324.022 221.847C330.429 226.663 315.348 221.797 315.348 233.243C315.348 241.94 317.94 231.847 319.431 233.143C314.239 245.084 334.088 247.081 331.595 253.038C329.405 250.339 321.126 252.436 314.154 241.94C307.175 231.444 312.558 220.551 328.211 216.549C348.265 211.429 369.096 229.298 365.981 225.792C362.082 221.33 358.034 217.576 353.528 214.623C357.695 211.216 361.326 207.045 364.731 202.201C367.465 198.383 348.632 218.363 328.147 215.395C312.162 213.072 305.656 202.81 311.491 191.634C317.326 180.458 325.774 181.669 327.674 178.751C330.775 184.417 311.251 188.503 317.672 199.821C316.323 201.273 312.685 191.506 313.596 200.154C314.804 211.535 329.292 205.104 323.422 210.565C327.837 213.412 337.415 206.365 337.606 208.15C337.973 211.599 331.898 215.289 344.465 207.619C349.459 204.58 349.621 207.98 349.621 207.98C358.324 200.529 364.236 199.417 366.687 199.332C370.883 192.894 373.193 187.781 380.299 182.299C388.712 175.776 404.006 171.817 404.027 174.296C404.034 175.174 371.936 177.88 368.948 205.154C368.863 206.089 372.762 206.323 377.898 213.334ZM368.757 213.816C368.778 214.163 368.8 214.51 368.828 214.857C368.927 214.496 369.04 214.141 369.16 213.794C369.004 213.462 368.856 213.122 368.715 212.767C368.722 213.122 368.736 213.469 368.757 213.816ZM365.126 214.007C366.228 215.579 366.525 215.345 366.101 213.957C366.37 212.527 366.052 212.335 365.126 214.007ZM361.149 214.219C361.319 215.119 361.263 216.181 360.881 217.392C370.82 226.394 369.4 229.284 367.578 221.125C366.37 218.61 365.056 216.266 363.643 214.092C364.816 211.776 365.875 209.304 366.815 206.677C367.768 198.369 369.485 201.089 360.549 211.096C361.058 212.258 361.22 213.313 361.149 214.219Z" fill="#FFFDFB"/>
<path d="M347.621 326.871C339.681 330.374 336.192 328.623 335.803 329.481C324.812 354.605 351.287 373.013 350.842 373.771C349.585 375.907 338.304 364.826 334.263 354.963C330.837 346.656 331.374 341.069 330.943 333.396C328.859 332.097 324.289 328.172 320.453 317.361C320.453 317.361 318.624 320.228 315.813 315.092C308.735 302.16 312.161 308.396 310.126 311.2C309.074 312.656 304.284 301.752 299.043 302.012C301.402 309.682 292.057 296.86 285.346 306.119C280.246 313.155 288.264 306.515 288.709 308.447C277.506 315.042 292.396 328.356 286.886 331.708C286.696 328.232 278.77 325.054 279.279 312.45C279.787 299.846 290.524 294.204 305.535 300.193C324.769 307.87 331.141 334.6 330.675 329.931C330.138 324.025 329.064 318.597 327.15 313.556C332.518 313.256 337.901 312.023 343.503 310.107C347.939 308.63 320.997 313.695 306.163 299.219C294.593 287.923 295.349 275.786 306.623 270.184C317.889 264.582 324.014 270.538 327.263 269.299C326.451 275.708 308.261 267.507 306.82 280.449C304.878 280.827 307.654 270.786 303.331 278.315C297.63 288.237 313.121 291.566 305.174 292.533C307.075 297.436 318.956 297.376 318.066 298.936C316.335 301.94 309.264 301.347 323.922 302.551C329.749 303.03 327.885 305.874 327.885 305.874C339.293 304.978 344.732 307.563 346.759 308.937C353.929 306.206 358.796 303.432 367.76 303.185C378.391 302.862 393.083 308.672 391.65 310.69C391.141 311.406 363.578 294.678 345.177 314.983C344.555 315.689 347.578 318.171 347.621 326.871ZM339.943 321.876C339.759 322.166 339.568 322.461 339.384 322.761C339.681 322.527 339.985 322.306 340.282 322.097C340.352 321.738 340.43 321.374 340.522 321.006C340.324 321.298 340.133 321.587 339.943 321.876ZM336.898 319.895C336.863 321.81 337.237 321.8 337.71 320.426C338.77 319.43 338.629 319.085 336.898 319.895ZM333.55 317.719C333.161 318.545 332.497 319.373 331.48 320.13C334.242 333.271 331.395 334.768 334.701 327.092C335.203 324.346 335.513 321.674 335.648 319.081C337.951 317.904 340.26 316.527 342.556 314.952C348.2 308.796 347.995 312.009 334.899 314.84C334.631 316.081 334.143 317.027 333.55 317.719Z" fill="#FFFDFB"/>
<path d="M256.569 400.886C248.093 399.039 246.292 395.565 245.472 396.029C221.858 409.88 232.482 440.374 231.677 440.724C229.409 441.715 226.781 426.1 229.296 415.74C231.387 406.998 235.103 402.797 239.249 396.332C238.331 394.056 236.932 388.187 240.167 377.179C240.167 377.179 237.003 378.42 237.737 372.609C239.595 357.977 238.712 365.04 235.427 366.111C233.718 366.667 236.233 355.023 231.839 352.144C229.254 359.741 229.211 343.857 218.354 347.394C210.104 350.081 220.48 349.433 219.711 351.26C206.784 349.995 211.022 369.539 204.601 369.006C206.48 366.08 201.931 358.839 209.729 348.941C217.535 339.043 229.529 340.809 238.161 354.499C249.216 372.044 238.705 397.425 241.064 393.373C244.095 388.278 246.405 383.256 247.81 378.047C252.331 380.972 257.41 383.144 263.061 384.894C267.518 386.317 242.753 374.537 239.242 354.083C236.501 338.122 244.229 328.751 256.633 330.86C269.037 332.968 270.499 341.4 273.847 342.307C269.44 347.017 259.529 329.659 250.777 339.283C248.983 338.444 257.12 331.955 249.202 335.501C238.776 340.169 249.357 351.991 242.357 348.089C241.022 353.177 250.671 360.131 249.032 360.865C245.875 362.278 240.499 357.629 251.653 367.244C256.082 371.063 252.91 372.266 252.91 372.266C262.665 378.265 265.548 383.562 266.388 385.87C273.784 387.883 279.35 388.507 286.746 393.59C295.533 399.593 304.017 412.952 301.672 413.739C300.838 414.018 288.349 384.244 261.564 389.828C260.645 390.032 261.634 393.82 256.569 400.886ZM253.285 392.318C252.967 392.444 252.642 392.572 252.317 392.706C252.691 392.693 253.066 392.69 253.433 392.698C253.694 392.447 253.97 392.2 254.267 391.956C253.935 392.075 253.61 392.196 253.285 392.318ZM251.978 388.919C250.834 390.451 251.144 390.662 252.331 389.832C253.772 389.648 253.857 389.285 251.978 388.919ZM250.551 385.188C249.753 385.627 248.729 385.905 247.464 385.918C241.99 398.177 238.811 397.713 245.988 393.45C248.001 391.521 249.824 389.545 251.448 387.525C254.005 387.932 256.675 388.176 259.458 388.257C267.631 386.603 265.583 389.081 253.334 383.654C252.381 384.498 251.434 384.977 250.551 385.188Z" fill="#FFFDFB"/>
<path d="M139.515 407.106C133.736 400.615 134.323 396.744 133.383 396.638C106.159 393.924 96.8776 424.856 96.0229 424.665C93.6071 424.131 100.628 409.948 108.738 403.049C115.561 397.209 121.029 395.999 128.17 393.213C128.764 390.829 131.066 385.257 140.136 378.258C140.136 378.258 136.852 377.398 140.857 373.131C150.937 362.387 146.084 367.581 142.792 366.51C141.09 365.954 149.948 358.016 148.083 353.098C141.535 357.72 150.81 344.843 139.953 341.306C131.702 338.619 140.482 344.209 138.787 345.234C129.067 336.591 121.043 354.902 116.162 350.686C119.397 349.429 119.962 340.889 132.076 337.478C144.184 334.067 152.858 342.566 151.813 358.728C150.478 379.44 127.089 393.778 131.377 391.891C136.809 389.552 141.627 386.853 145.816 383.466C147.765 388.498 150.598 393.247 154.144 397.993C156.913 401.772 143.788 377.646 152.936 359.028C160.07 344.5 171.817 341.473 180.619 350.489C189.413 359.504 185.655 367.188 187.838 369.897C181.509 371.108 183.663 351.224 170.942 353.853C169.981 352.116 180.372 351.662 171.881 349.864C160.713 347.498 162.345 363.297 158.968 356.015C154.907 359.344 158.636 370.657 156.878 370.285C153.494 369.568 151.869 362.638 155.26 376.992C156.609 382.692 153.331 381.794 153.331 381.794C157.704 392.397 156.934 398.381 156.263 400.743C161.066 406.731 165.199 410.516 168.208 418.986C171.796 429.022 170.828 444.828 168.469 444.083C167.629 443.82 174.982 412.371 150.04 401.102C149.171 400.725 147.751 404.372 139.515 407.106ZM141.881 398.238C141.549 398.15 141.21 398.064 140.871 397.98C141.182 398.193 141.485 398.41 141.775 398.63C142.135 398.585 142.51 398.548 142.884 398.521C142.545 398.422 142.213 398.328 141.881 398.238ZM142.821 394.72C140.991 395.283 141.118 395.634 142.566 395.665C143.838 396.363 144.12 396.121 142.821 394.72ZM143.845 390.858C142.941 390.742 141.952 390.365 140.92 389.628C129.307 396.321 127.012 394.075 135.312 394.854C138.074 394.479 140.701 393.952 143.202 393.276C145.031 395.112 147.052 396.885 149.256 398.59C156.835 402.07 153.727 402.867 146.995 391.256C145.731 391.378 144.685 391.21 143.845 390.858Z" fill="#FFFDFB"/>
<path d="M41.1732 343.153C40.3043 334.497 43.0451 331.708 42.3507 331.072C21.9144 312.83 -3.72714 332.385 -4.30849 331.727C-5.94871 329.871 8.04957 322.538 18.6537 321.733C27.5937 321.029 32.727 323.272 40.139 325.228C42.0144 323.646 47.1491 320.5 58.5903 320.183C58.5903 320.183 56.4373 317.551 62.1767 316.458C76.6292 313.706 69.6558 315.046 67.6235 312.242C66.5689 310.786 78.393 309.587 79.7662 304.509C71.7601 304.39 86.8123 299.438 80.1024 290.178C75.0045 283.143 78.826 292.837 76.8552 292.668C74.0608 279.948 56.8314 290.032 55.353 283.743C58.7097 284.634 64.1743 278.06 75.9729 282.438C87.7709 286.816 89.8038 298.802 79.4843 311.263C66.2602 327.23 38.9346 325.047 43.5078 326.047C49.276 327.358 54.7562 328.014 60.1303 327.742C58.7543 332.959 58.2619 338.471 58.3488 344.4C58.3777 349.092 61.8983 321.836 80.214 312.164C94.5076 304.618 105.781 309.09 107.618 321.571C109.448 334.05 101.903 338.05 102.08 341.527C96.2453 338.777 109.652 323.961 97.8135 318.59C98.0607 316.62 106.728 322.374 100.914 315.918C93.2714 307.421 85.3233 321.163 86.8625 313.284C81.624 313.582 78.0087 324.933 76.8057 323.596C74.4895 321.024 77.2395 314.461 71.5658 328.069C69.3125 333.473 67.1898 330.816 67.1898 330.816C64.514 341.974 60.3817 346.361 58.4512 347.873C58.827 355.549 59.9544 361.048 57.4184 369.673C54.4404 379.908 44.3893 392.123 42.9186 390.13C42.3966 389.425 66.7802 368.315 53.2049 344.495C52.7281 343.683 49.4399 345.795 41.1732 343.153ZM48.285 337.371C48.0667 337.104 47.8442 336.837 47.6167 336.568C47.7474 336.924 47.8647 337.278 47.9699 337.628C48.2892 337.803 48.6099 337.992 48.9314 338.192C48.7159 337.915 48.5004 337.641 48.285 337.371ZM51.1063 335.078C49.298 334.457 49.1941 334.815 50.3483 335.694C50.9671 337.009 51.3387 336.98 51.1063 335.078ZM54.203 332.56C53.5405 331.934 52.9598 331.046 52.5558 329.84C39.2377 328.413 38.6952 325.241 44.9565 330.764C47.4077 332.087 49.8454 333.21 52.2633 334.138C52.6681 336.702 53.26 339.325 54.0448 342.003C58.1404 349.286 55.1559 348.099 56.5171 334.739C55.4244 334.094 54.677 333.341 54.203 332.56Z" fill="#FFFDFB"/>
<path d="M-0.900612 233.455C3.47117 225.941 7.32235 225.303 7.13446 224.375C1.29552 197.576 -30.9139 198.284 -30.9973 197.406C-31.2367 194.941 -15.6131 197.257 -6.56151 202.852C1.08363 207.555 3.92191 212.392 8.7712 218.348C11.2153 218.171 17.2145 218.653 26.6567 225.14C26.6567 225.14 26.4568 221.741 31.7419 224.234C45.0466 230.53 38.6206 227.506 38.6206 224.035C38.6206 222.236 48.8886 228.235 52.9764 224.935C46.5696 220.119 61.6501 224.984 61.6501 213.539C61.6501 204.842 59.0583 214.942 57.5629 213.639C62.7591 201.705 42.9091 199.708 45.3998 193.751C47.5931 196.45 55.8683 194.346 62.8466 204.842C69.825 215.338 64.4424 226.238 48.789 230.232C28.7299 235.36 7.90236 217.491 11.0168 220.99C14.9139 225.452 18.9635 229.213 23.4709 232.159C19.2984 235.573 15.669 239.737 12.2628 244.588C9.53619 248.399 28.3626 228.426 48.8505 231.394C64.8379 233.71 71.3381 243.979 65.5055 255.148C59.6729 266.331 51.2224 265.12 49.3258 268.031C46.2213 262.372 65.7491 258.286 59.3239 246.968C60.6745 245.516 64.3159 255.276 63.399 246.628C62.1925 235.247 47.7089 241.685 53.5726 236.217C49.1605 233.37 39.5813 240.424 39.392 238.632C39.0261 235.19 45.0989 231.5 32.5303 239.163C27.539 242.209 27.3793 238.809 27.3793 238.809C18.6739 246.26 12.758 247.372 10.3104 247.457C6.11451 253.887 3.80253 259.001 -3.30506 264.483C-11.7145 271.013 -27.0069 274.972 -27.0296 272.493C-27.038 271.615 5.06548 268.902 8.0464 241.635C8.13682 240.693 4.2383 240.466 -0.900612 233.455ZM8.24142 232.973C8.22234 232.626 8.199 232.279 8.17216 231.925C8.06903 232.293 7.9574 232.648 7.83731 232.988C7.99272 233.32 8.14108 233.66 8.28377 234.014C8.27247 233.66 8.25837 233.313 8.24142 232.973ZM11.8686 232.775C10.7702 231.21 10.4756 231.436 10.8952 232.832C10.6247 234.255 10.9419 234.454 11.8686 232.775ZM15.8505 232.563C15.681 231.67 15.7318 230.608 16.1133 229.397C6.17451 220.388 7.59575 217.505 9.42315 225.664C10.6311 228.179 11.9436 230.523 13.357 232.697C12.1809 235.013 11.1227 237.485 10.1868 240.112C9.22964 248.42 7.51241 245.7 16.4453 235.693C15.9388 234.524 15.7763 233.476 15.8505 232.563Z" fill="#FFFDFB"/>
</g>
</svg>
