<svg width="97" height="71" viewBox="0 0 97 71" fill="none" xmlns="http://www.w3.org/2000/svg">
<path d="M0.753262 33.8841V40.0499H40.4488C39.7694 41.3409 38.6653 42.7846 37.1366 44.3813C35.6079 45.9779 33.8753 47.4047 31.939 48.6617C30.0366 49.8846 28.1851 50.632 26.3846 50.9038C23.565 51.4473 22.1552 52.993 22.1552 55.5409C22.1552 56.7299 22.5968 57.8 23.4801 58.7512C24.3634 59.6684 25.5863 60.0081 27.149 59.7703C28.7796 59.5325 30.4952 58.955 32.2957 58.0378C34.1301 57.0866 35.8796 55.8976 37.5442 54.4708C39.2428 53.044 40.7375 51.4473 42.0285 49.6808C43.3533 47.8803 44.3045 46.0119 44.8821 44.0755H45.2388V70.5222H51.8122V44.0755H52.1179C52.7294 46.0119 53.6806 47.8803 54.9715 49.6808C56.2625 51.4473 57.7572 53.044 59.4558 54.4708C61.1543 55.8976 62.9039 57.0866 64.7043 58.0378C66.5388 58.955 68.2543 59.5325 69.851 59.7703C71.4477 60.0081 72.6876 59.6684 73.5709 58.7512C74.4541 57.8 74.8957 56.7299 74.8957 55.5409C74.8957 52.9591 73.4859 51.4134 70.6663 50.9038C68.8658 50.666 66.9974 49.9186 65.061 48.6617C63.1586 47.4047 61.4261 45.9779 59.8634 44.3813C58.3347 42.7846 57.2476 41.3409 56.6022 40.0499H96.2467V33.8841H67.4051C69.6132 32.6951 71.3627 31.1155 72.6536 29.1451C73.9445 27.1748 74.59 24.9836 74.59 22.5717C74.59 19.4803 73.5369 16.8815 71.4307 14.7753C69.3244 12.669 66.7086 11.6159 63.5833 11.6159C61.1373 11.6159 58.8952 12.2614 56.857 13.5523C54.8526 14.8092 53.1711 16.5927 51.8122 18.9028V-0.00228558H45.2388V18.9028C43.8799 16.5927 42.1813 14.8092 40.143 13.5523C38.1387 12.2614 35.9136 11.6159 33.4677 11.6159C30.3423 11.6159 27.7265 12.669 25.6203 14.7753C23.5141 16.8815 22.461 19.4803 22.461 22.5717C22.461 24.9836 23.1064 27.1748 24.3973 29.1451C25.6882 31.1155 27.4378 32.6951 29.6459 33.8841H0.753262ZM43.3533 33.3746C40.9074 33.3746 38.6653 32.882 36.627 31.8968C34.5887 30.8777 32.9581 29.6207 31.7351 28.126C30.5461 26.5973 29.9516 25.0516 29.9516 23.4889C29.9516 22.164 30.3253 21.1109 31.0727 20.3296C31.854 19.5482 32.9241 19.1576 34.283 19.1576C36.1174 19.1576 37.799 19.769 39.3277 20.992C40.8564 22.215 42.0794 23.8286 42.9966 25.8329C43.9139 27.8033 44.3725 29.9604 44.3725 32.3045V33.3746H43.3533ZM53.6976 33.3746H52.6275V32.3045C52.6275 29.9604 53.0861 27.8033 54.0034 25.8329C54.9546 23.8286 56.1945 22.215 57.7232 20.992C59.2519 19.769 60.9335 19.1576 62.768 19.1576C64.1268 19.1576 65.1799 19.5482 65.9273 20.3296C66.7086 21.1109 67.0993 22.164 67.0993 23.4889C67.0993 25.0516 66.4878 26.5973 65.2649 28.126C64.0759 29.6207 62.4622 30.8777 60.4239 31.8968C58.3857 32.882 56.1436 33.3746 53.6976 33.3746ZM14.6645 70.4713C10.1463 70.4713 6.69825 69.3163 4.32025 67.0062C1.94226 64.6622 0.753262 61.2311 0.753262 56.7129V13.7561C0.753262 9.27189 1.94226 5.85777 4.32025 3.51375C6.69825 1.16973 10.1463 -0.00228558 14.6645 -0.00228558H82.3355C86.8876 -0.00228558 90.3357 1.16973 92.6797 3.51375C95.0577 5.85777 96.2467 9.27189 96.2467 13.7561V56.7129C96.2467 61.2311 95.0577 64.6622 92.6797 67.0062C90.3357 69.3163 86.8876 70.4713 82.3355 70.4713H14.6645Z" fill="#FFFDFB"/>
</svg>
