<svg width="16" height="16" viewBox="0 0 16 16" fill="none" xmlns="http://www.w3.org/2000/svg">
<path d="M1.53418 6.45703C1.53418 4.15234 3.11621 2.52474 5.22559 2.52474C6.43001 2.52474 7.4196 3.10417 7.99902 3.97656C8.59147 3.09766 9.56803 2.52474 10.7725 2.52474C12.8818 2.52474 14.4639 4.15234 14.4639 6.45703C14.4639 9.23047 12.1396 11.9583 8.47428 14.3021C8.33106 14.3867 8.13574 14.4779 7.99902 14.4779C7.86231 14.4779 7.66699 14.3867 7.53027 14.3021C3.8584 11.9583 1.53418 9.23047 1.53418 6.45703ZM2.58236 6.45703C2.58236 8.87891 5.14095 11.4896 7.86882 13.2995C7.92741 13.3451 7.97298 13.3776 7.99902 13.3776C8.02507 13.3776 8.07064 13.3451 8.13574 13.2995C10.8571 11.4896 13.4157 8.87891 13.4157 6.45703C13.4157 4.72526 12.2959 3.57292 10.7855 3.57292C9.56803 3.57292 8.89095 4.34766 8.44173 4.98568C8.25293 5.23958 8.15527 5.31771 7.99902 5.31771C7.84277 5.31771 7.7321 5.24609 7.55632 4.98568C7.13965 4.33464 6.43652 3.57292 5.21257 3.57292C3.70215 3.57292 2.58236 4.72526 2.58236 6.45703Z" fill="#3F3D3C"/>
</svg>
