<svg width="20" height="20" viewBox="0 0 20 20" fill="none" xmlns="http://www.w3.org/2000/svg">
<path d="M6.23014 5.00134C6.23014 4.30473 6.39941 3.66996 6.73796 3.09705C7.0765 2.52413 7.52897 2.0684 8.09538 1.72986C8.66829 1.38481 9.30306 1.21228 9.99967 1.21228C10.7028 1.21228 11.3376 1.38481 11.904 1.72986C12.4769 2.0684 12.9294 2.52413 13.2614 3.09705C13.5999 3.66996 13.7692 4.30473 13.7692 5.00134C13.7692 5.82817 13.5316 6.5671 13.0563 7.21814C12.5811 7.86918 11.9723 8.32166 11.2301 8.57556V16.3099C11.2301 16.7006 11.152 17.1042 10.9958 17.5209C10.8395 17.9375 10.6637 18.2891 10.4684 18.5756C10.2731 18.862 10.1169 19.0052 9.99967 19.0052C9.88249 19.0052 9.72624 18.862 9.53092 18.5756C9.33561 18.2891 9.15657 17.9375 8.99381 17.5209C8.83756 17.1042 8.75944 16.7006 8.75944 16.3099V8.57556C8.02376 8.31514 7.41829 7.86267 6.94303 7.21814C6.46777 6.5671 6.23014 5.82817 6.23014 5.00134ZM8.94499 5.23572C9.30306 5.23572 9.60579 5.10551 9.85319 4.84509C10.1071 4.58468 10.234 4.28194 10.234 3.93689C10.234 3.58533 10.1071 3.28259 9.85319 3.02869C9.60579 2.77478 9.30306 2.64783 8.94499 2.64783C8.60644 2.64783 8.30697 2.77478 8.04655 3.02869C7.78613 3.28259 7.65592 3.58533 7.65592 3.93689C7.65592 4.28194 7.78613 4.58468 8.04655 4.84509C8.30697 5.10551 8.60644 5.23572 8.94499 5.23572Z" fill="#D89841"/>
</svg>
