<svg width="20" height="20" viewBox="0 0 20 20" fill="none" xmlns="http://www.w3.org/2000/svg">
<path d="M16.0671 17.1952C16.0671 17.4364 15.9805 17.6436 15.8073 17.8168C15.6341 17.9899 15.4269 18.0765 15.1857 18.0765C14.9383 18.0765 14.728 17.9899 14.5548 17.8168C14.3879 17.6436 14.3044 17.4364 14.3044 17.1952V4.3739C14.3044 4.10177 14.1714 3.9657 13.9054 3.9657H6.09391C5.82796 3.9657 5.69499 4.10177 5.69499 4.3739V17.1952C5.69499 17.4364 5.6084 17.6436 5.43522 17.8168C5.26823 17.9899 5.06103 18.0765 4.81364 18.0765C4.57243 18.0765 4.36523 17.9899 4.19206 17.8168C4.01888 17.6436 3.93229 17.4364 3.93229 17.1952V4.18835C3.93229 3.57605 4.11165 3.09054 4.47038 2.73181C4.83529 2.37309 5.32699 2.19373 5.94547 2.19373H14.0539C14.6724 2.19373 15.161 2.37309 15.5197 2.73181C15.8846 3.09054 16.0671 3.57605 16.0671 4.18835V17.1952ZM13.3859 17.5013C13.3859 17.5879 13.355 17.6498 13.2931 17.6869C13.2313 17.724 13.1509 17.724 13.0519 17.6869L10.881 16.7684C10.7821 16.7313 10.7078 16.688 10.6584 16.6385C10.6151 16.5829 10.5934 16.5087 10.5934 16.4159V6.15515C10.5934 6.06238 10.6151 5.99125 10.6584 5.94177C10.7078 5.89229 10.7821 5.84591 10.881 5.80261L13.0519 4.88416C13.1509 4.84705 13.2313 4.84705 13.2931 4.88416C13.355 4.92126 13.3859 4.98621 13.3859 5.07898V17.5013Z" fill="#D89841"/>
</svg>
