<svg width="16" height="16" viewBox="0 0 16 16" fill="none" xmlns="http://www.w3.org/2000/svg">
<path d="M1 10.9999C1 10.8673 1.05268 10.7402 1.14645 10.6464C1.24021 10.5526 1.36739 10.4999 1.5 10.4999H2V9.49994C2.00182 7.99576 2.56785 6.54699 3.58622 5.43998C4.60459 4.33296 6.0012 3.64826 7.5 3.52119V2.49994H6.5C6.36739 2.49994 6.24021 2.44726 6.14645 2.35349C6.05268 2.25972 6 2.13255 6 1.99994C6 1.86733 6.05268 1.74015 6.14645 1.64639C6.24021 1.55262 6.36739 1.49994 6.5 1.49994H9.5C9.63261 1.49994 9.75979 1.55262 9.85355 1.64639C9.94732 1.74015 10 1.86733 10 1.99994C10 2.13255 9.94732 2.25972 9.85355 2.35349C9.75979 2.44726 9.63261 2.49994 9.5 2.49994H8.5V3.52119C9.9988 3.64826 11.3954 4.33296 12.4138 5.43998C13.4321 6.54699 13.9982 7.99576 14 9.49994V10.4999H14.5C14.6326 10.4999 14.7598 10.5526 14.8536 10.6464C14.9473 10.7402 15 10.8673 15 10.9999C15 11.1325 14.9473 11.2597 14.8536 11.3535C14.7598 11.4473 14.6326 11.4999 14.5 11.4999H1.5C1.36739 11.4999 1.24021 11.4473 1.14645 11.3535C1.05268 11.2597 1 11.1325 1 10.9999ZM14.5 12.4999H1.5C1.36739 12.4999 1.24021 12.5526 1.14645 12.6464C1.05268 12.7402 1 12.8673 1 12.9999C1 13.1325 1.05268 13.2597 1.14645 13.3535C1.24021 13.4473 1.36739 13.4999 1.5 13.4999H14.5C14.6326 13.4999 14.7598 13.4473 14.8536 13.3535C14.9473 13.2597 15 13.1325 15 12.9999C15 12.8673 14.9473 12.7402 14.8536 12.6464C14.7598 12.5526 14.6326 12.4999 14.5 12.4999Z" fill="#FFFDFB"/>
</svg>
