<svg width="16" height="16" viewBox="0 0 16 16" fill="none" xmlns="http://www.w3.org/2000/svg">
<path d="M1.86768 7.71191C1.86768 7.26514 2.24121 6.8916 2.68799 6.8916H7.17773V2.40186C7.17773 1.95508 7.55127 1.58154 7.99805 1.58154C8.44482 1.58154 8.81836 1.95508 8.81836 2.40186V6.8916H13.3081C13.7549 6.8916 14.1284 7.26514 14.1284 7.71191C14.1284 8.16602 13.7549 8.53223 13.3081 8.53223H8.81836V13.022C8.81836 13.4688 8.44482 13.8423 7.99805 13.8423C7.55127 13.8423 7.17773 13.4688 7.17773 13.022V8.53223H2.68799C2.24121 8.53223 1.86768 8.16602 1.86768 7.71191Z" fill="#171717"/>
</svg>
