<svg width="16" height="16" viewBox="0 0 16 16" fill="none" xmlns="http://www.w3.org/2000/svg">
<path d="M0.628906 10.4941V5.04492C0.628906 4.75195 0.751953 4.54688 1.00977 4.42383C1.67773 4.10156 2.04688 3.72656 2.43359 2.94727C2.5625 2.70117 2.77344 2.57227 3.04297 2.57227H12.957C13.2266 2.57227 13.4375 2.70117 13.5664 2.94727C13.9531 3.72656 14.3223 4.10156 14.9844 4.42383C15.248 4.54688 15.3711 4.75195 15.3711 5.04492V10.4941C15.3711 10.7871 15.248 10.9922 14.9844 11.1152C14.3223 11.4316 13.9531 11.8125 13.5664 12.5918C13.4375 12.8379 13.2266 12.9668 12.957 12.9668H3.04297C2.77344 12.9668 2.5625 12.8379 2.43359 12.5918C2.04688 11.8125 1.67773 11.4316 1.00977 11.1152C0.751953 10.9922 0.628906 10.7871 0.628906 10.4941ZM3.16602 10.4238C3.16602 10.7578 3.38867 10.9805 3.7168 10.9805H12.2773C12.6113 10.9805 12.834 10.7578 12.834 10.4238V5.11523C12.834 4.78125 12.6113 4.55859 12.2773 4.55859H3.7168C3.38867 4.55859 3.16602 4.78125 3.16602 5.11523V10.4238ZM3.96289 6.43359V5.47266C3.96289 5.39648 4.00391 5.35547 4.08008 5.35547H4.69531V6.43359H3.96289ZM11.3047 6.43359V5.35547H11.9199C11.9961 5.35547 12.0371 5.39648 12.0371 5.47266V6.43359H11.3047ZM5.49219 10.1836V5.35547H10.502V10.1836H5.49219ZM3.96289 8.31445V7.22461H4.69531V8.31445H3.96289ZM11.3047 8.31445V7.22461H12.0371V8.31445H11.3047ZM11.3047 10.1895V9.10547H12.0371V10.0664C12.0371 10.1426 11.9961 10.1895 11.9199 10.1895H11.3047ZM3.96289 10.0664V9.11133H4.69531V10.1836H4.08008C4.00391 10.1836 3.96289 10.1426 3.96289 10.0664Z" fill="#171717" fill-opacity="0.4"/>
</svg>
