<svg width="14" height="17" viewBox="0 0 14 17" fill="none" xmlns="http://www.w3.org/2000/svg">
<path d="M13.8984 9.9375C13.8984 13.75 10.8125 16.8359 7 16.8359C3.1875 16.8359 0.101562 13.75 0.101562 9.9375C0.101562 9.55469 0.367188 9.28125 0.75 9.28125C1.125 9.28125 1.35938 9.55469 1.35938 9.92969C1.35938 13.0469 3.88281 15.5703 7 15.5703C10.1172 15.5703 12.6406 13.0469 12.6406 9.92969C12.6406 6.8125 10.1172 4.28906 7 4.28906C6.40625 4.28906 5.85156 4.32812 5.39062 4.4375L7.72656 6.75C7.85156 6.86719 7.90625 7.03125 7.90625 7.19531C7.90625 7.55469 7.64062 7.82031 7.28906 7.82031C7.09375 7.82031 6.95312 7.75 6.83594 7.64062L3.61719 4.40625C3.47656 4.27344 3.42188 4.11719 3.42188 3.9375C3.42188 3.76562 3.49219 3.59375 3.61719 3.46875L6.83594 0.203125C6.94531 0.078125 7.10156 0.015625 7.28906 0.015625C7.64062 0.015625 7.90625 0.296875 7.90625 0.65625C7.90625 0.820312 7.84375 0.976562 7.73438 1.10156L5.65625 3.17188C6.0625 3.09375 6.52344 3.03906 7 3.03906C10.8125 3.03906 13.8984 6.125 13.8984 9.9375Z" fill="#3F3D3C"/>
</svg>
