<svg width="21" height="22" viewBox="0 0 21 22" fill="none" xmlns="http://www.w3.org/2000/svg">
<path d="M2.87109 9.44629C2.87109 8.5332 3.04264 7.67822 3.38574 6.88135C3.72884 6.07894 4.20475 5.37337 4.81348 4.76465C5.4222 4.15592 6.125 3.68001 6.92188 3.33691C7.72428 2.99382 8.58203 2.82227 9.49512 2.82227C10.4082 2.82227 11.2632 2.99382 12.0601 3.33691C12.8625 3.68001 13.568 4.15592 14.1768 4.76465C14.7855 5.37337 15.2614 6.07894 15.6045 6.88135C15.9476 7.67822 16.1191 8.5332 16.1191 9.44629C16.1191 10.2044 15.9974 10.9238 15.7539 11.6045C15.516 12.2852 15.1839 12.9022 14.7578 13.4556L18.8169 17.5396C18.9054 17.6281 18.9718 17.7305 19.0161 17.8467C19.0659 17.9629 19.0908 18.0874 19.0908 18.2202C19.0908 18.4028 19.0493 18.5688 18.9663 18.7183C18.8888 18.8677 18.7782 18.9839 18.6343 19.0669C18.4904 19.1554 18.3244 19.1997 18.1362 19.1997C18.0034 19.1997 17.8761 19.1748 17.7544 19.125C17.6382 19.0807 17.5303 19.0116 17.4307 18.9175L13.3467 14.8252C12.8044 15.2126 12.2067 15.5169 11.5537 15.7383C10.9007 15.9596 10.2145 16.0703 9.49512 16.0703C8.58203 16.0703 7.72428 15.8988 6.92188 15.5557C6.125 15.2126 5.4222 14.7367 4.81348 14.1279C4.20475 13.5192 3.72884 12.8164 3.38574 12.0195C3.04264 11.2171 2.87109 10.3594 2.87109 9.44629ZM4.29053 9.44629C4.29053 10.1657 4.42334 10.8408 4.68896 11.4717C4.96012 12.097 5.33366 12.6476 5.80957 13.1235C6.29102 13.5994 6.8444 13.973 7.46973 14.2441C8.10059 14.5153 8.77572 14.6509 9.49512 14.6509C10.2145 14.6509 10.8869 14.5153 11.5122 14.2441C12.1431 13.973 12.6965 13.5994 13.1724 13.1235C13.6483 12.6476 14.0218 12.097 14.293 11.4717C14.5641 10.8408 14.6997 10.1657 14.6997 9.44629C14.6997 8.72689 14.5641 8.05452 14.293 7.4292C14.0218 6.79834 13.6483 6.24495 13.1724 5.76904C12.6965 5.2876 12.1431 4.91406 11.5122 4.64844C10.8869 4.37728 10.2145 4.2417 9.49512 4.2417C8.77572 4.2417 8.10059 4.37728 7.46973 4.64844C6.8444 4.91406 6.29102 5.2876 5.80957 5.76904C5.33366 6.24495 4.96012 6.79834 4.68896 7.4292C4.42334 8.05452 4.29053 8.72689 4.29053 9.44629Z" fill="#3F3D3C"/>
</svg>
