<svg width="16" height="16" viewBox="0 0 16 16" fill="none" xmlns="http://www.w3.org/2000/svg">
<path d="M7.99349 10.181C7.71354 10.181 7.47917 9.95312 7.47917 9.67969V3.05208L7.51823 2.08203L7.15365 2.46614L6.14453 3.54036C6.05339 3.64453 5.91016 3.69661 5.78646 3.69661C5.51302 3.69661 5.31771 3.5013 5.31771 3.24088C5.31771 3.09766 5.3763 2.99349 5.47396 2.89583L7.61589 0.825519C7.7526 0.695311 7.86328 0.656249 7.99349 0.656249C8.13021 0.656249 8.24089 0.695311 8.37109 0.825519L10.5195 2.89583C10.6172 2.99349 10.6693 3.09766 10.6693 3.24088C10.6693 3.5013 10.4674 3.69661 10.194 3.69661C10.0703 3.69661 9.93359 3.64453 9.84245 3.54036L8.83984 2.46614L8.47526 2.08203L8.51432 3.05208V9.67969C8.51432 9.95312 8.27344 10.181 7.99349 10.181ZM4.26302 15.2852C2.90234 15.2852 2.21875 14.6146 2.21875 13.2669V6.84115C2.21875 5.49349 2.90234 4.82292 4.26302 4.82292H6.25521V5.87109H4.27604C3.625 5.87109 3.26693 6.21615 3.26693 6.89323V13.2148C3.26693 13.8919 3.625 14.237 4.27604 14.237H11.7109C12.3555 14.237 12.7266 13.8919 12.7266 13.2148V6.89323C12.7266 6.21615 12.3555 5.87109 11.7109 5.87109H9.73177V4.82292H11.7305C13.0911 4.82292 13.7747 5.5 13.7747 6.84115V13.2669C13.7747 14.6081 13.0911 15.2852 11.7305 15.2852H4.26302Z" fill="#3F3D3C"/>
</svg>
