<svg width="14" height="8" viewBox="0 0 14 8" fill="none" xmlns="http://www.w3.org/2000/svg">
<path d="M7.23242 7.61572C7.04688 7.61572 6.88086 7.54492 6.73438 7.40332L1.06543 1.60254C1.00195 1.53906 0.953125 1.46826 0.918945 1.39014C0.884766 1.30713 0.867676 1.21924 0.867676 1.12646C0.867676 0.999512 0.896973 0.884766 0.955566 0.782227C1.01416 0.679688 1.09229 0.599121 1.18994 0.540527C1.29248 0.481934 1.40723 0.452637 1.53418 0.452637C1.71973 0.452637 1.87842 0.516113 2.01025 0.643066L7.62061 6.37793H6.83691L12.4473 0.643066C12.584 0.516113 12.7427 0.452637 12.9233 0.452637C13.0503 0.452637 13.1626 0.481934 13.2603 0.540527C13.3628 0.599121 13.4434 0.679688 13.502 0.782227C13.5605 0.884766 13.5898 0.999512 13.5898 1.12646C13.5898 1.30713 13.5239 1.46338 13.3921 1.59521L7.72314 7.40332C7.65967 7.47168 7.58398 7.52539 7.49609 7.56445C7.41309 7.59863 7.3252 7.61572 7.23242 7.61572Z" fill="#171717"/>
</svg>
