<svg width="393" height="852" viewBox="0 0 393 852" fill="none" xmlns="http://www.w3.org/2000/svg">
<path d="M-63.6844 103.714C-71.9126 111.271 -87.5996 115.129 -104.234 105.904C-87.1555 124.672 -67.214 124.02 -54.9294 114.534C-43.1324 104.454 -38.3716 85.0183 -53.1545 64.3936C-47.6024 82.6107 -54.6084 97.2018 -63.6844 103.714Z" fill="#D08117" fill-opacity="0.05"/>
<path d="M174.655 11.8171C163.574 13.0934 148.616 6.95824 140.559 -10.3016C143.38 14.95 159.885 26.1761 175.393 25.741C190.857 24.5371 206.09 11.614 206.22 -13.7825C200.029 4.23148 185.809 11.9041 174.655 11.8171Z" fill="#D08117" fill-opacity="0.05"/>
<path d="M421.346 77.9409C411.625 72.4293 403.133 58.665 406.735 39.9548C394.208 62.0444 400.978 80.8561 413.78 89.6311C426.988 97.7678 446.893 96.3029 461.894 75.8232C446.329 86.7592 430.33 84.5837 421.346 77.9409Z" fill="#D08117" fill-opacity="0.05"/>
<path d="M582.144 276.82C577.529 266.624 578.715 250.48 592.588 237.47C569.515 247.957 563.974 267.175 569.167 281.809C575.099 296.183 592.053 306.727 616.197 299.011C597.188 298.663 585.514 287.48 582.144 276.82Z" fill="#D08117" fill-opacity="0.05"/>
<path d="M595.66 532.468C597.888 521.503 608.318 509.145 627.182 506.796C602.358 501.676 586.619 513.961 582.236 528.871C578.605 543.99 586.142 562.512 610.199 570.492C595.024 559.02 592.145 543.091 595.66 532.468Z" fill="#D08117" fill-opacity="0.05"/>
<path d="M456.715 747.273C464.946 739.715 480.627 735.861 497.263 745.076C480.193 726.306 460.245 726.958 447.963 736.446C436.159 746.535 431.399 765.961 446.184 786.595C440.643 768.372 447.645 753.782 456.715 747.273Z" fill="#D08117" fill-opacity="0.05"/>
<path d="M218.384 839.158C229.465 837.893 244.423 844.018 252.466 861.277C249.66 836.027 233.14 824.805 217.646 825.24C202.182 826.45 186.95 839.36 186.805 864.768C192.996 846.751 207.216 839.075 218.384 839.158Z" fill="#D08117" fill-opacity="0.05"/>
<path d="M-28.3102 773.042C-18.5977 778.552 -10.0945 792.319 -13.6951 811.028C-1.16893 788.943 -7.9478 770.131 -20.7445 761.347C-33.9607 753.216 -53.8602 754.677 -68.8629 775.153C-53.2916 764.226 -37.2893 766.397 -28.3102 773.042Z" fill="#D08117" fill-opacity="0.05"/>
<path d="M-189.118 574.17C-184.49 584.353 -185.682 600.501 -199.562 613.515C-176.48 603.032 -170.938 583.815 -176.142 569.167C-182.066 554.8 -199.021 544.257 -223.164 551.98C-204.161 552.317 -192.487 563.504 -189.118 574.17Z" fill="#D08117" fill-opacity="0.05"/>
<path d="M-202.632 318.504C-204.857 329.469 -215.287 341.827 -234.149 344.176C-209.327 349.296 -193.579 337.026 -189.2 322.101C-185.57 306.988 -193.107 288.466 -217.166 280.489C-201.989 291.962 -199.105 307.887 -202.632 318.504Z" fill="#D08117" fill-opacity="0.05"/>
<path d="M-91.241 69.6303C-98.2888 82.9305 -83.4424 94.6642 -74.2347 90.6611C-68.4223 82.4518 -76.8082 65.4531 -91.241 69.6303Z" fill="#D08117" fill-opacity="0.05"/>
<path d="M172.339 -32C158.843 -25.3862 163.964 -7.14017 173.772 -4.96456C183.276 -8.16995 186.458 -26.8656 172.339 -32Z" fill="#D08117" fill-opacity="0.05"/>
<path d="M445.157 41.1306C430.373 38.5198 423.82 56.3017 430.46 63.8438C440.036 66.8462 453.562 53.604 445.157 41.1306Z" fill="#D08117" fill-opacity="0.05"/>
<path d="M622.998 261.069C612.568 250.234 596.844 260.764 597.798 270.786C603.787 278.865 622.492 276.109 622.998 261.069Z" fill="#D08117" fill-opacity="0.05"/>
<path d="M637.944 543.807C635.846 528.9 616.953 528.146 611.861 536.819C611.963 546.876 628.714 555.682 637.944 543.807Z" fill="#D08117" fill-opacity="0.05"/>
<path d="M484.284 781.359C491.329 768.061 476.472 756.32 467.272 760.327C461.456 768.529 469.847 785.522 484.284 781.359Z" fill="#D08117" fill-opacity="0.05"/>
<path d="M220.698 882.978C234.195 876.374 229.06 858.125 219.266 855.942C209.747 859.152 206.579 877.841 220.698 882.978Z" fill="#D08117" fill-opacity="0.05"/>
<path d="M-52.1259 809.857C-37.3343 812.468 -30.7855 794.681 -37.4312 787.141C-47.0078 784.133 -60.5364 797.381 -52.1259 809.857Z" fill="#D08117" fill-opacity="0.05"/>
<path d="M-229.97 589.919C-219.534 600.749 -203.81 590.219 -204.764 580.201C-210.749 572.124 -229.458 574.869 -229.97 589.919Z" fill="#D08117" fill-opacity="0.05"/>
<path d="M-244.914 307.177C-242.82 322.087 -223.923 322.827 -218.826 314.168C-218.931 304.102 -235.677 295.298 -244.914 307.177Z" fill="#D08117" fill-opacity="0.05"/>
<path d="M-142.73 339.419C-151.897 350.079 -176.555 355.243 -165.393 359.072C-154.675 362.756 -145.487 358.767 -141.046 352.473C-136.605 346.178 -140.822 337.2 -142.73 339.419Z" fill="#D08117" fill-opacity="0.05"/>
<path d="M-128.4 555.788C-129.566 569.817 -146.492 588.521 -135.214 585.043C-124.383 581.708 -119.29 573.064 -119.388 565.354C-119.485 557.646 -128.159 552.869 -128.4 555.788Z" fill="#D08117" fill-opacity="0.05"/>
<path d="M10.0475 722.388C17.3239 734.422 14.6043 759.528 21.6783 750.07C28.4918 740.988 27.537 730.991 22.9512 724.813C18.351 718.634 8.52856 719.88 10.0475 722.388Z" fill="#D08117" fill-opacity="0.05"/>
<path d="M219.714 775.579C232.647 781.024 245.16 802.944 245.348 791.116C245.536 779.756 238.91 772.229 231.562 769.94C224.227 767.651 217.009 774.445 219.714 775.579Z" fill="#D08117" fill-opacity="0.05"/>
<path d="M420.515 695.05C434.186 691.828 457.158 702.188 450.373 692.508C443.863 683.211 434.084 681.025 426.808 683.499C419.517 685.975 417.665 695.722 420.515 695.05Z" fill="#D08117" fill-opacity="0.05"/>
<path d="M535.771 511.554C544.928 500.894 569.593 495.745 558.425 491.901C547.705 488.217 538.519 492.221 534.078 498.515C529.637 504.81 533.862 513.788 535.771 511.554Z" fill="#D08117" fill-opacity="0.05"/>
<path d="M521.432 295.197C522.589 281.171 539.515 262.461 528.246 265.942C517.411 269.278 512.319 277.922 512.42 285.624C512.507 293.34 521.186 298.112 521.432 295.197Z" fill="#D08117" fill-opacity="0.05"/>
<path d="M382.991 128.59C375.715 116.566 378.434 91.4593 371.346 100.916C364.547 109.995 365.487 119.989 370.088 126.168C374.688 132.346 384.51 131.099 382.991 128.59Z" fill="#D08117" fill-opacity="0.05"/>
<path d="M173.322 75.4032C160.375 69.9642 147.862 48.034 147.674 59.8693C147.5 71.226 154.125 78.7536 161.46 81.0452C168.808 83.3369 176.027 76.5346 173.322 75.4032Z" fill="#D08117" fill-opacity="0.05"/>
<path d="M-27.4845 155.93C-41.1491 159.15 -64.1212 148.794 -57.3395 158.482C-50.8284 167.779 -41.0551 169.955 -33.7714 167.489C-26.4892 165.009 -24.6376 155.262 -27.4845 155.93Z" fill="#D08117" fill-opacity="0.05"/>
<path d="M-140.309 330.355C-142.947 316.533 -161.75 299.722 -150.169 301.985C-139.045 304.146 -133.07 312.21 -132.355 319.883C-131.639 327.556 -139.759 333.227 -140.309 330.355Z" fill="#D08117" fill-opacity="0.05"/>
<path d="M-131.764 547.025C-142.001 537.4 -167.067 534.876 -156.37 529.887C-146.099 525.086 -136.543 528.074 -131.464 533.876C-126.384 539.658 -129.631 549.031 -131.764 547.025Z" fill="#D08117" fill-opacity="0.05"/>
<path d="M2.1882 717.276C-11.7455 715.518 -33.4953 728.255 -27.7725 717.911C-22.2783 707.974 -12.79 704.766 -5.28641 706.456C2.21713 708.146 5.08142 717.641 2.1882 717.276Z" fill="#D08117" fill-opacity="0.05"/>
<path d="M210.351 776.075C198.055 782.863 187.929 805.984 186.482 794.245C185.108 782.966 190.909 774.78 197.968 771.724C205.028 768.671 212.912 774.663 210.351 776.075Z" fill="#D08117" fill-opacity="0.05"/>
<path d="M413.245 700.963C407.271 713.702 412.638 738.379 404.594 729.724C396.87 721.415 396.754 711.377 400.674 704.744C404.594 698.11 414.489 698.31 413.245 700.963Z" fill="#D08117" fill-opacity="0.05"/>
<path d="M533.341 520.634C535.988 534.457 554.794 551.263 543.206 549.001C532.082 546.832 526.107 538.779 525.399 531.106C524.675 523.419 532.791 517.748 533.341 520.634Z" fill="#D08117" fill-opacity="0.05"/>
<path d="M524.785 303.958C535.027 313.589 560.097 316.098 549.392 321.102C539.121 325.902 529.573 322.9 524.496 317.113C519.404 311.326 522.659 301.956 524.785 303.958Z" fill="#D08117" fill-opacity="0.05"/>
<path d="M390.849 133.709C404.78 135.464 426.522 122.73 420.808 133.071C415.311 143.006 405.821 146.212 398.313 144.529C390.82 142.832 387.941 133.347 390.849 133.709Z" fill="#D08117" fill-opacity="0.05"/>
<path d="M182.679 74.9101C194.975 68.1222 205.102 45.0028 206.534 56.7366C207.922 68.0207 202.122 76.201 195.062 79.2613C188.003 82.3072 180.119 76.317 182.679 74.9101Z" fill="#D08117" fill-opacity="0.05"/>
<path d="M-20.2122 150.01C-14.2407 137.276 -19.6003 112.604 -11.5572 121.249C-3.83087 129.56 -3.71948 139.611 -7.63979 146.239C-11.5615 152.868 -21.4563 152.665 -20.2122 150.01Z" fill="#D08117" fill-opacity="0.05"/>
<path d="M-38.9002 134.361C-56.0222 133.984 -74.6053 135.391 -90.5281 135.058C-79.084 149.852 -48.5332 147.357 -25.6334 150.765C-24.2215 127.603 -15.4696 98.1448 -27.5429 83.8584C-30.5085 99.5517 -35.7249 117.479 -38.9002 134.361Z" fill="#D08117" fill-opacity="0.05"/>
<path d="M176.732 51.2251C163.105 40.8257 147.236 31.021 134.549 21.3613C135.142 40.0715 161.311 56.0695 177.846 72.3141C192.572 54.4016 216.919 35.7349 215.53 17.0537C203.928 28.0042 189.187 39.4479 176.732 51.2251Z" fill="#D08117" fill-opacity="0.05"/>
<path d="M399.917 111.039C394.984 94.6061 387.91 77.3172 383.31 62.0299C372.808 77.5202 384.612 105.876 388.46 128.763C410.882 122.947 441.521 122.193 451.344 106.267C435.532 108.283 416.915 108.864 399.917 111.039Z" fill="#D08117" fill-opacity="0.05"/>
<path d="M545.419 290.975C551.076 274.76 555.473 256.601 560.71 241.531C543.134 247.869 536.074 277.777 525.76 298.546C547.3 307.06 572.529 324.509 589.816 317.402C575.856 309.729 560.45 299.214 545.419 290.975Z" fill="#D08117" fill-opacity="0.05"/>
<path d="M557.644 522.286C571.719 512.496 585.925 500.399 599.002 491.291C581.079 486.069 557.817 506.085 537.305 516.832C549.731 536.398 559.929 565.39 578.07 569.833C571.271 555.393 564.978 537.805 557.644 522.286Z" fill="#D08117" fill-opacity="0.05"/>
<path d="M431.927 716.621C449.055 716.997 467.63 715.588 483.557 715.925C472.114 701.126 441.562 703.621 418.662 700.217C417.244 723.383 408.492 752.836 420.572 767.123C423.537 751.434 428.759 733.495 431.927 716.621Z" fill="#D08117" fill-opacity="0.05"/>
<path d="M216.302 799.757C229.929 810.153 245.798 819.965 258.471 829.621C257.892 810.905 231.708 794.92 215.188 778.668C200.462 796.581 176.115 815.249 177.504 833.923C189.106 822.978 203.832 811.54 216.302 799.757Z" fill="#D08117" fill-opacity="0.05"/>
<path d="M-6.89618 739.937C-1.96181 756.381 5.12219 773.666 9.72241 788.953C20.2248 773.469 8.40607 745.107 4.57257 722.218C-17.8455 728.03 -48.489 728.787 -58.31 744.714C-42.5116 742.694 -23.8837 742.125 -6.89618 739.937Z" fill="#D08117" fill-opacity="0.05"/>
<path d="M-152.389 560.009C-158.037 576.219 -162.445 594.377 -167.683 609.455C-150.11 603.115 -143.036 573.212 -132.729 552.428C-154.27 543.923 -179.502 526.479 -196.786 533.571C-182.82 541.25 -167.417 551.768 -152.389 560.009Z" fill="#D08117" fill-opacity="0.05"/>
<path d="M-164.613 328.702C-178.687 338.492 -192.895 350.574 -205.974 359.682C-188.039 364.918 -164.785 344.888 -144.263 334.155C-156.703 314.575 -166.888 285.596 -185.032 281.143C-178.234 295.589 -171.94 313.182 -164.613 328.702Z" fill="#D08117" fill-opacity="0.05"/>
<path d="M-18.8545 159.149C-28.8852 160.817 -30.4259 176.105 -19.5648 183.139C-13.2879 187.215 -5.13051 187.374 1.70036 184.56C5.85211 178.44 7.38547 170.405 4.70926 163.414C0.0801239 151.303 -15.1526 149.649 -18.8545 159.149ZM-7.22806 173.523C-8.3434 173.16 -9.52245 172.421 -10.7087 171.188C-10.3991 170.956 -10.1154 170.651 -9.86952 170.26C-9.43988 170.1 -9.07108 169.882 -8.78754 169.621C-7.83568 171.043 -7.34813 172.348 -7.22806 173.523Z" fill="#D08117" fill-opacity="0.05"/>
<path d="M178.41 83.0908C169.325 78.522 159.112 89.9801 163.771 102.077C166.461 109.067 172.971 114.013 180.146 115.754C187.09 113.259 193.035 107.661 194.974 100.423C198.344 87.9062 186.974 77.5793 178.41 83.0908ZM179.394 101.569C178.699 100.626 178.193 99.3209 177.947 97.6239C178.323 97.6239 178.743 97.5368 179.177 97.3627C179.611 97.4932 180.03 97.5368 180.421 97.4933C180.349 99.2048 179.987 100.554 179.394 101.569Z" fill="#D08117" fill-opacity="0.05"/>
<path d="M382.612 137.813C377.925 128.762 362.939 132.026 359.626 144.557C357.702 151.795 360.074 159.627 364.848 165.269C371.937 167.343 380.023 166.313 385.838 161.6C395.892 153.448 392.753 138.408 382.612 137.813ZM372.559 153.347C372.559 152.172 372.906 150.809 373.701 149.3C374.005 149.532 374.396 149.706 374.844 149.808C375.133 150.17 375.437 150.461 375.77 150.649C374.729 151.998 373.629 152.868 372.559 153.347Z" fill="#D08117" fill-opacity="0.05"/>
<path d="M515.718 302.421C517.237 292.341 503.205 286.147 493.165 294.327C487.379 299.056 484.702 306.787 485.267 314.169C489.78 320.029 496.926 323.959 504.391 323.582C517.309 322.915 523.573 308.89 515.718 302.421ZM498.489 309.064C499.168 308.121 500.253 307.222 501.772 306.467C501.888 306.83 502.105 307.207 502.394 307.555C502.423 308.019 502.51 308.44 502.669 308.788C501.02 309.252 499.631 309.31 498.489 309.064Z" fill="#D08117" fill-opacity="0.05"/>
<path d="M526.903 514.048C534.035 506.782 526.324 493.511 513.406 494.207C505.941 494.613 499.258 499.298 495.381 505.593C495.598 512.99 499.07 520.401 505.334 524.477C516.183 531.555 529.478 523.911 526.903 514.048ZM509.066 509.262C510.18 508.9 511.569 508.813 513.261 509.103C513.131 509.465 513.088 509.886 513.117 510.35C512.871 510.727 512.697 511.119 512.625 511.496C511.019 510.916 509.847 510.132 509.066 509.262Z" fill="#D08117" fill-opacity="0.05"/>
<path d="M411.894 691.84C421.919 690.172 423.466 674.883 412.602 667.84C406.324 663.772 398.165 663.612 391.337 666.426C387.186 672.542 385.652 680.576 388.328 687.574C392.943 699.684 408.19 701.334 411.894 691.84ZM400.263 677.462C401.377 677.822 402.563 678.57 403.749 679.797C403.431 680.022 403.156 680.34 402.91 680.728C402.476 680.888 402.1 681.101 401.825 681.361C400.87 679.942 400.379 678.631 400.263 677.462Z" fill="#D08117" fill-opacity="0.05"/>
<path d="M214.609 767.898C223.708 772.458 233.921 760.998 229.263 748.899C226.572 741.909 220.063 736.972 212.888 735.226C205.944 737.723 199.984 743.32 198.045 750.558C194.689 763.081 206.059 773.397 214.609 767.898ZM213.64 749.415C214.334 750.362 214.84 751.662 215.086 753.354C214.696 753.352 214.291 753.443 213.857 753.613C213.423 753.488 212.989 753.443 212.613 753.486C212.67 751.776 213.047 750.43 213.64 749.415Z" fill="#D08117" fill-opacity="0.05"/>
<path d="M10.4164 713.169C15.1034 722.219 30.0758 718.962 33.403 706.43C35.327 699.189 32.9546 691.361 28.1808 685.72C21.0924 683.646 12.9913 684.668 7.19043 689.379C-2.87505 697.532 0.27565 712.573 10.4164 713.169ZM20.4703 697.641C20.4703 698.814 20.1232 700.169 19.3275 701.682C19.0237 701.454 18.6331 701.281 18.1846 701.168C17.8953 700.807 17.5771 700.521 17.2444 700.333C18.3004 698.985 19.3998 698.115 20.4703 697.641Z" fill="#D08117" fill-opacity="0.05"/>
<path d="M-122.684 548.556C-124.202 558.637 -110.174 564.831 -100.139 556.65C-94.3379 551.921 -91.6676 544.194 -92.2274 536.82C-96.7423 530.96 -103.891 527.015 -111.354 527.406C-124.271 528.074 -130.545 542.092 -122.684 548.556ZM-105.454 541.914C-106.138 542.865 -107.213 543.76 -108.745 544.511C-108.859 544.146 -109.075 543.777 -109.368 543.423C-109.386 542.962 -109.474 542.546 -109.633 542.196C-107.991 541.727 -106.598 541.667 -105.454 541.914Z" fill="#D08117" fill-opacity="0.05"/>
<path d="M-133.872 336.939C-141.009 344.206 -133.292 357.477 -120.376 356.766C-112.913 356.36 -106.221 351.69 -102.347 345.381C-102.57 337.983 -106.04 330.587 -112.306 326.496C-123.148 319.433 -136.444 327.077 -133.872 336.939ZM-116.038 341.711C-117.15 342.088 -118.542 342.175 -120.223 341.885C-120.103 341.508 -120.059 341.087 -120.088 340.638C-119.834 340.246 -119.66 339.855 -119.584 339.478C-117.982 340.072 -116.819 340.841 -116.038 341.711Z" fill="#D08117" fill-opacity="0.05"/>
<path d="M33.2884 223.634C30.9883 224.04 28.775 224.011 26.7063 223.503C26.7063 223.503 31.6536 226.564 36.818 227.999C36.4853 222.633 34.518 217.15 34.518 217.15C34.5904 219.283 34.1564 221.458 33.2884 223.634Z" fill="#D08117" fill-opacity="0.05"/>
<path d="M182.794 165.995C180.697 164.965 178.917 163.631 177.557 162.006C177.557 162.006 179.756 167.402 183.098 171.608C185.977 167.068 187.597 161.47 187.597 161.47C186.411 163.239 184.776 164.747 182.794 165.995Z" fill="#D08117" fill-opacity="0.05"/>
<path d="M337.559 207.462C336.459 205.402 335.794 203.27 335.649 201.153C335.649 201.153 334.261 206.809 334.507 212.19C339.497 210.218 344.083 206.635 344.083 206.635C342.087 207.375 339.888 207.636 337.559 207.462Z" fill="#D08117" fill-opacity="0.05"/>
<path d="M438.43 332.226C438.763 329.906 439.472 327.802 440.6 325.99C440.6 325.99 436.159 329.746 433.208 334.242C438.387 335.591 444.202 335.402 444.202 335.402C442.163 334.808 440.224 333.72 438.43 332.226Z" fill="#D08117" fill-opacity="0.05"/>
<path d="M446.9 492.598C448.52 490.915 450.343 489.639 452.31 488.841C452.31 488.841 446.509 489.262 441.49 491.147C444.904 495.295 449.706 498.573 449.706 498.573C448.404 496.891 447.464 494.875 446.9 492.598Z" fill="#D08117" fill-opacity="0.05"/>
<path d="M359.749 627.349C362.049 626.943 364.262 626.97 366.331 627.487C366.331 627.487 361.383 624.415 356.219 622.983C356.537 628.351 358.519 633.831 358.519 633.831C358.447 631.703 358.866 629.52 359.749 627.349Z" fill="#D08117" fill-opacity="0.05"/>
<path d="M210.224 684.993C212.321 686.017 214.101 687.349 215.475 688.98C215.475 688.98 213.276 683.583 209.935 679.377C207.056 683.913 205.436 689.513 205.436 689.513C206.622 687.746 208.256 686.233 210.224 684.993Z" fill="#D08117" fill-opacity="0.05"/>
<path d="M55.4805 643.514C56.5799 645.579 57.231 647.706 57.3757 649.829C57.3757 649.829 58.7644 644.169 58.5329 638.797C53.5421 640.768 48.9564 644.346 48.9564 644.346C50.9527 643.614 53.1515 643.354 55.4805 643.514Z" fill="#D08117" fill-opacity="0.05"/>
<path d="M-45.3969 518.762C-45.721 521.083 -46.4327 523.186 -47.5596 524.984C-47.5596 524.984 -43.1186 521.228 -40.1632 516.746C-45.3565 515.397 -51.1646 515.586 -51.1646 515.586C-49.122 516.166 -47.1864 517.254 -45.3969 518.762Z" fill="#D08117" fill-opacity="0.05"/>
<path d="M-53.8732 358.377C-55.4934 360.059 -57.306 361.35 -59.2763 362.148C-59.2763 362.148 -53.4783 361.727 -48.4572 359.827C-51.8697 355.679 -56.681 352.415 -56.681 352.415C-55.3704 354.083 -54.4402 356.114 -53.8732 358.377Z" fill="#D08117" fill-opacity="0.05"/>
<path d="M14.271 200.109C4.82468 199.703 -4.02129 198.194 -5.46935 204.359C-0.137146 202.937 7.79016 210.726 22.3575 210.102C25.974 195.946 20.014 186.562 22.4877 181.631C16.1805 181.776 15.8333 190.754 14.271 200.109Z" fill="#D08117" fill-opacity="0.05"/>
<path d="M181.208 135.754C173.787 129.851 167.538 123.411 162.749 127.545C167.885 129.546 169.737 140.511 181.888 148.59C193.114 139.278 193.794 128.168 198.698 125.644C193.504 122.033 187.949 129.096 181.208 135.754Z" fill="#D08117" fill-opacity="0.05"/>
<path d="M353.987 182.065C351.441 172.928 350.153 164.022 343.861 164.544C346.855 169.2 341.922 179.164 347 192.856C361.553 191.928 368.612 183.342 374.066 184.183C371.968 178.207 363.346 180.658 353.987 182.065Z" fill="#D08117" fill-opacity="0.05"/>
<path d="M466.622 321.349C469.921 312.472 474.101 304.509 468.691 301.217C468.387 306.743 458.565 311.892 454.645 325.976C466.955 333.793 477.703 331.023 481.624 334.91C483.432 328.847 475.013 325.729 466.622 321.349Z" fill="#D08117" fill-opacity="0.05"/>
<path d="M476.08 500.43C483.964 495.179 492.007 491.19 489.562 485.36C486.091 489.639 475.111 488.014 463.697 497.108C469.064 510.684 479.378 514.774 480.275 520.227C485.295 516.384 480.304 508.914 476.08 500.43Z" fill="#D08117" fill-opacity="0.05"/>
<path d="M378.769 650.874C388.216 651.274 397.054 652.793 398.501 646.627C393.178 648.044 385.25 640.261 370.683 640.879C367.066 655.038 373.026 664.423 370.538 669.361C376.86 669.214 377.207 660.227 378.769 650.874Z" fill="#D08117" fill-opacity="0.05"/>
<path d="M211.83 715.233C219.236 721.129 225.5 727.566 230.288 723.431C225.139 721.435 223.301 710.467 211.15 702.387C199.924 711.709 199.244 722.813 194.34 725.343C199.534 728.946 205.074 721.881 211.83 715.233Z" fill="#D08117" fill-opacity="0.05"/>
<path d="M39.0464 668.923C41.578 678.059 42.8799 686.959 49.1727 686.435C46.1782 681.79 51.1111 671.825 46.0191 658.131C31.4807 659.057 24.4213 667.637 18.9676 666.794C21.0507 672.771 29.6869 670.324 39.0464 668.923Z" fill="#D08117" fill-opacity="0.05"/>
<path d="M-73.5906 529.625C-76.8918 538.516 -81.0638 546.477 -75.6636 549.764C-75.3584 544.242 -65.5258 539.089 -61.6142 525.013C-73.9262 517.181 -84.6686 519.965 -88.5846 516.078C-90.3958 522.141 -81.9809 525.245 -73.5906 529.625Z" fill="#D08117" fill-opacity="0.05"/>
<path d="M-83.0597 350.558C-90.9408 355.808 -98.9838 359.783 -96.5419 365.628C-93.0585 361.335 -82.0817 362.959 -70.6636 353.88C-76.0392 340.289 -86.3579 336.214 -87.2432 330.76C-92.2659 334.589 -87.2794 342.073 -83.0597 350.558Z" fill="#D08117" fill-opacity="0.05"/>
<path d="M-51.0931 119.279C-88.3114 133.884 -126.642 104.934 -127.655 106.094C-131.015 109.894 -102.348 124.906 -80.6313 126.56C-67.3486 127.604 -58.1685 125.472 -48.333 122.687C-43.5896 113.622 -39.6114 105.05 -37.8871 91.8078C-35.004 70.1678 -43.7342 38.9406 -48.1362 41.4498C-49.4656 42.204 -29.1438 85.7887 -51.0931 119.279Z" fill="#D08117" fill-opacity="0.05"/>
<path d="M175.705 31.8328C137.038 21.7235 122.991 -24.2833 121.501 -23.9497C116.554 -22.8619 130.947 6.18973 147.54 20.3167C157.681 28.9901 166.346 32.674 175.937 36.2275C185.094 31.6732 193.339 27.09 202.496 17.4013C217.512 1.57736 228.767 -28.8231 223.733 -29.3887C222.214 -29.5628 213.1 17.6768 175.705 31.8328Z" fill="#D08117" fill-opacity="0.05"/>
<path d="M410.463 94.7508C385.104 63.7847 400.713 18.2856 399.309 17.6765C394.666 15.6459 389.284 47.6273 394.434 68.8322C397.544 81.8279 402.405 89.921 408.076 98.4494C418.144 100.161 427.503 101.307 440.595 98.8556C462.02 94.925 488.941 76.9544 485.209 73.5315C484.08 72.4872 449.015 105.339 410.463 94.7508Z" fill="#D08117" fill-opacity="0.05"/>
<path d="M563.496 284.001C561.138 243.998 600.442 216.397 599.661 215.077C597.101 210.697 573.984 233.396 565.724 253.6C560.617 265.928 559.807 275.342 559.402 285.581C566.534 292.906 573.434 299.346 585.47 305.089C605.1 314.532 637.418 315.851 636.405 310.877C636.101 309.383 588.479 315.286 563.496 284.001Z" fill="#D08117" fill-opacity="0.05"/>
<path d="M576.349 527.292C597.903 493.541 645.887 494.382 646.032 492.845C646.524 487.797 614.525 492.54 595.994 503.998C584.623 510.989 578.446 518.125 572.125 526.16C573.6 536.299 575.409 545.574 581.774 557.306C592.131 576.516 617.505 596.635 619.588 592.01C620.224 590.613 578.229 567.329 576.349 527.292Z" fill="#D08117" fill-opacity="0.05"/>
<path d="M444.13 731.703C481.351 717.094 519.672 746.041 520.699 744.894C524.055 741.094 495.383 726.077 473.67 724.427C460.39 723.38 451.204 725.511 441.367 728.29C436.622 737.364 432.644 745.927 430.923 759.173C428.044 780.818 436.767 812.043 441.165 809.534C442.495 808.777 422.185 765.191 444.13 731.703Z" fill="#D08117" fill-opacity="0.05"/>
<path d="M217.327 819.148C255.995 829.261 270.027 875.271 271.531 874.937C276.479 873.845 262.085 844.799 245.478 830.668C235.352 821.995 226.672 818.308 217.096 814.759C207.939 819.303 199.693 823.888 190.536 833.588C175.506 849.399 164.266 879.806 169.3 880.37C170.819 880.543 179.932 833.303 217.327 819.148Z" fill="#D08117" fill-opacity="0.05"/>
<path d="M-17.4272 756.226C7.93466 787.201 -7.68437 832.696 -6.28116 833.308C-1.64189 835.338 3.75403 803.361 -1.39587 782.143C-4.50897 769.155 -9.36826 761.06 -15.0433 752.541C-25.1146 750.819 -34.4682 749.673 -47.5658 752.123C-68.9886 756.062 -95.9099 774.034 -92.169 777.457C-91.0406 778.49 -55.9749 745.644 -17.4272 756.226Z" fill="#D08117" fill-opacity="0.05"/>
<path d="M-170.46 566.976C-168.105 606.978 -207.407 634.584 -206.632 635.905C-204.067 640.282 -180.961 617.588 -172.686 597.389C-167.59 585.047 -166.772 575.636 -166.37 565.398C-173.51 558.07 -180.405 551.63 -192.438 545.893C-212.077 536.456 -244.394 535.122 -243.373 540.103C-243.068 541.605 -195.444 535.702 -170.46 566.976Z" fill="#D08117" fill-opacity="0.05"/>
<path d="M-183.322 323.683C-204.867 357.434 -252.847 356.607 -252.994 358.13C-253.485 363.192 -221.489 358.449 -202.952 346.976C-191.595 340 -185.416 332.864 -179.087 324.814C-180.567 314.676 -182.373 305.408 -188.742 293.674C-199.098 274.471 -224.466 254.354 -226.556 258.98C-227.19 260.373 -185.196 283.652 -183.322 323.683Z" fill="#D08117" fill-opacity="0.05"/>
<path d="M-234.146 386.225C-191.729 377.479 -175.805 419.541 -197.855 438.73C-217.837 456.12 -243.639 444.72 -245.018 427.982C-247.15 402.107 -207.07 407.459 -220.211 429.215C-192.436 435.539 -196.48 390.924 -234.146 386.225Z" fill="#D08117" fill-opacity="0.05"/>
<path d="M-174.917 647.529C-145.732 615.452 -108.187 640.1 -114.776 668.62C-120.746 694.469 -148.307 700.448 -159.232 687.72C-176.127 668.044 -140.566 648.751 -138.443 674.096C-112.265 662.849 -141.697 629.127 -174.917 647.529Z" fill="#D08117" fill-opacity="0.05"/>
<path d="M26.1893 824.02C30.992 780.871 75.8224 778.683 87.2072 805.641C97.536 830.07 78.7446 851.148 62.4413 847.292C37.2415 841.329 54.7019 804.765 71.28 824.017C85.8618 799.489 42.2755 789.554 26.1893 824.02Z" fill="#D08117" fill-opacity="0.05"/>
<path d="M292.345 848.287C270.935 810.546 305.929 782.361 330.94 797.456C353.623 811.137 350.773 839.264 335.324 845.749C311.44 855.779 304.12 815.907 328.829 821.716C326.239 793.276 285.155 810.922 292.345 848.287Z" fill="#D08117" fill-opacity="0.05"/>
<path d="M521.91 711.06C482.461 693.144 494.251 649.724 523.327 647.195C549.699 644.9 563.89 669.332 555.196 683.683C541.743 705.872 512.449 677.924 535.841 668.072C517.078 646.583 494.193 685.069 521.91 711.06Z" fill="#D08117" fill-opacity="0.05"/>
<path d="M627.179 464.749C584.764 473.509 568.837 431.433 590.883 412.244C610.875 394.854 636.668 406.254 638.057 422.991C640.184 448.867 600.098 443.515 613.248 421.773C585.473 415.435 589.509 460.064 627.179 464.749Z" fill="#D08117" fill-opacity="0.05"/>
<path d="M567.954 203.459C538.762 235.528 501.222 210.886 507.804 182.356C513.779 156.51 541.337 150.534 552.258 163.269C569.155 182.936 533.597 202.227 531.471 176.888C505.287 188.129 534.726 221.851 567.954 203.459Z" fill="#D08117" fill-opacity="0.05"/>
<path d="M366.851 26.9595C362.034 70.109 317.218 72.2992 305.818 45.3362C295.504 20.9114 314.296 -0.163092 330.599 3.69498C355.799 9.65614 338.338 46.2209 321.76 26.9595C307.178 51.5003 350.764 61.4356 366.851 26.9595Z" fill="#D08117" fill-opacity="0.05"/>
<path d="M100.669 2.69374C122.079 40.4332 87.1002 68.6291 62.0884 53.5304C39.4056 39.8531 42.2555 11.7152 57.7052 5.23194C81.5887 -4.79035 88.8941 35.0811 64.2005 29.265C66.7755 57.7074 107.859 40.0561 100.669 2.69374Z" fill="#D08117" fill-opacity="0.05"/>
<path d="M-128.878 139.916C-89.4305 157.843 -101.21 201.254 -130.299 203.792C-156.662 206.084 -170.851 181.644 -162.154 167.3C-148.711 145.109 -119.42 173.058 -142.806 182.906C-124.046 204.401 -101.155 165.907 -128.878 139.916Z" fill="#D08117" fill-opacity="0.05"/>
<path d="M-196.243 244.056C-163.841 272.861 -129.103 244.375 -138.663 216.701C-147.323 191.638 -175.36 188.607 -184.883 202.429C-199.608 223.779 -162.212 239.197 -162.773 213.771C-135.555 222.184 -161.27 258.835 -196.243 244.056Z" fill="#D08117" fill-opacity="0.05"/>
<path d="M-227.601 510.161C-184.5 514.382 -173.098 470.855 -197.049 454.118C-218.753 438.932 -243.207 453.001 -242.815 469.797C-242.208 495.744 -202.917 486.186 -218.277 465.938C-191.325 456.714 -190.641 501.517 -227.601 510.161Z" fill="#D08117" fill-opacity="0.05"/>
<path d="M-96.9586 743.941C-59.6217 721.944 -75.9106 680.017 -105.105 680.582C-131.561 681.095 -143.095 706.893 -132.936 720.243C-117.227 740.885 -91.0478 709.99 -115.341 702.667C-98.9521 679.313 -72.1305 715.156 -96.9586 743.941Z" fill="#D08117" fill-opacity="0.05"/>
<path d="M145.779 856.074C163.094 816.274 125.338 791.955 102.048 809.615C80.9417 825.622 86.7425 853.291 102.785 858.104C127.595 865.544 130.662 825.123 106.72 833.515C106.286 804.961 148.99 818.155 145.779 856.074Z" fill="#D08117" fill-opacity="0.05"/>
<path d="M407.905 803.74C398.574 761.34 353.773 763.916 345.282 791.929C337.6 817.315 358.504 836.285 374.301 830.722C398.734 822.121 377.527 787.611 363.075 808.514C345.976 785.669 388.275 771.171 407.905 803.74Z" fill="#D08117" fill-opacity="0.05"/>
<path d="M589.276 606.929C556.872 578.125 522.124 606.611 531.686 634.276C540.351 659.345 568.387 662.372 577.905 648.558C592.632 627.201 555.237 611.783 555.801 637.21C528.576 628.801 554.297 592.149 589.276 606.929Z" fill="#D08117" fill-opacity="0.05"/>
<path d="M620.624 340.812C577.529 336.606 566.13 380.118 590.071 396.871C611.785 412.042 636.232 397.973 635.842 381.192C635.234 355.229 595.945 364.802 611.307 385.035C584.357 394.274 583.663 349.471 620.624 340.812Z" fill="#D08117" fill-opacity="0.05"/>
<path d="M489.987 107.036C452.65 129.038 468.939 170.97 498.146 170.404C524.59 169.882 536.134 144.094 525.964 130.735C510.269 110.096 484.085 140.99 508.373 148.314C491.983 171.666 465.163 135.826 489.987 107.036Z" fill="#D08117" fill-opacity="0.05"/>
<path d="M247.254 -5.09433C229.938 34.7047 267.694 59.028 290.985 41.3621C312.091 25.3641 306.29 -2.30955 290.247 -7.12489C265.438 -14.5655 262.371 25.8573 286.312 17.4594C286.746 46.0179 244.042 32.8192 247.254 -5.09433Z" fill="#D08117" fill-opacity="0.05"/>
<path d="M-14.8695 47.2362C-5.5403 89.646 39.2612 87.0643 47.7527 59.057C55.4342 33.6604 34.5307 14.7036 18.7337 20.2587C-5.70667 28.8596 15.5079 63.3646 29.9595 42.4643C47.0584 65.3082 4.75952 79.8123 -14.8695 47.2362Z" fill="#D08117" fill-opacity="0.05"/>
<path d="M-142.73 390.982C-151.897 380.322 -176.555 375.173 -165.393 371.344C-154.675 367.645 -145.487 371.648 -141.046 377.943C-136.605 384.238 -140.822 393.216 -142.73 390.982Z" fill="#D08117" fill-opacity="0.05"/>
<path d="M-98.1661 597.505C-111.834 594.282 -134.804 604.642 -128.023 594.962C-121.51 585.664 -111.737 583.479 -104.454 585.955C-97.1722 588.43 -95.3206 598.178 -98.1661 597.505Z" fill="#D08117" fill-opacity="0.05"/>
<path d="M58.9525 738.319C46.0053 743.765 33.4922 765.684 33.3042 753.857C33.1306 742.496 39.756 734.97 47.0903 732.68C54.439 730.39 61.6431 737.185 58.9525 738.319Z" fill="#D08117" fill-opacity="0.05"/>
<path d="M268.622 759.645C261.331 771.68 264.065 796.785 256.977 787.327C250.178 778.245 251.118 768.252 255.718 762.072C260.318 755.891 270.141 757.139 268.622 759.645Z" fill="#D08117" fill-opacity="0.05"/>
<path d="M450.755 653.334C451.912 667.36 468.837 686.064 457.568 682.589C446.733 679.252 441.641 670.609 441.728 662.898C441.829 655.191 450.509 650.412 450.755 653.334Z" fill="#D08117" fill-opacity="0.05"/>
<path d="M535.771 459.993C544.928 470.653 569.593 475.817 558.425 479.646C547.705 483.33 538.519 479.341 534.078 473.047C529.637 466.752 533.862 457.774 535.771 459.993Z" fill="#D08117" fill-opacity="0.05"/>
<path d="M491.198 253.483C504.869 256.703 527.841 246.347 521.056 256.021C514.547 265.319 504.767 267.509 497.491 265.028C490.2 262.548 488.348 252.802 491.198 253.483Z" fill="#D08117" fill-opacity="0.05"/>
<path d="M334.083 112.662C347.031 107.209 359.529 85.2934 359.717 97.1287C359.905 108.485 353.28 116.013 345.931 118.305C338.597 120.596 331.378 113.794 334.083 112.662Z" fill="#D08117" fill-opacity="0.05"/>
<path d="M124.408 91.3426C131.685 79.3043 128.965 54.1979 136.039 63.6545C142.853 72.734 141.912 82.7272 137.312 88.906C132.712 95.0847 122.89 93.8373 124.408 91.3426Z" fill="#D08117" fill-opacity="0.05"/>
<path d="M-57.716 197.644C-58.882 183.618 -75.8088 164.922 -64.5311 168.389C-53.6974 171.725 -48.6054 180.369 -48.7023 188.085C-48.8021 195.787 -57.4745 200.573 -57.716 197.644Z" fill="#D08117" fill-opacity="0.05"/>
<path d="M-114.654 285.668C-127.902 290.324 -151.838 282.448 -144.074 291.353C-136.62 299.911 -126.67 301.057 -119.69 297.822C-112.707 294.588 -111.894 284.696 -114.654 285.668Z" fill="#D08117" fill-opacity="0.05"/>
<path d="M-137.195 495.745C-145.186 507.319 -169.164 515.065 -157.66 517.69C-146.612 520.228 -137.897 515.282 -134.144 508.552C-130.393 501.822 -135.532 493.338 -137.195 495.745Z" fill="#D08117" fill-opacity="0.05"/>
<path d="M-32.2731 678.997C-31.9519 693.069 -46.8129 713.46 -35.9633 708.808C-25.5434 704.344 -21.3902 695.209 -22.3001 687.554C-23.2115 679.897 -32.3396 676.064 -32.2731 678.997Z" fill="#D08117" fill-opacity="0.05"/>
<path d="M160.041 765.413C168.547 776.61 168.475 801.865 174.522 791.709C180.337 781.955 178.341 772.118 173.119 766.459C167.896 760.802 158.262 763.081 160.041 765.413Z" fill="#D08117" fill-opacity="0.05"/>
<path d="M366.288 721.991C379.727 726.034 394.482 746.507 393.426 734.725C392.414 723.409 385.021 716.625 377.485 715.127C369.948 713.629 363.481 721.149 366.288 721.991Z" fill="#D08117" fill-opacity="0.05"/>
<path d="M507.691 565.315C520.927 560.664 544.869 568.532 537.1 559.624C529.65 551.07 519.698 549.931 512.725 553.164C505.738 556.397 504.928 566.286 507.691 565.315Z" fill="#D08117" fill-opacity="0.05"/>
<path d="M530.227 355.23C538.212 343.656 562.197 335.925 550.697 333.285C539.644 330.761 530.921 335.707 527.175 342.437C523.428 349.167 528.564 357.637 530.227 355.23Z" fill="#D08117" fill-opacity="0.05"/>
<path d="M425.302 171.985C424.984 157.916 439.841 137.524 428.991 142.179C418.576 146.632 414.424 155.77 415.335 163.428C416.247 171.086 425.375 174.915 425.302 171.985Z" fill="#D08117" fill-opacity="0.05"/>
<path d="M232.993 85.5696C224.487 74.3725 224.545 49.121 218.498 59.2738C212.697 69.0205 214.679 78.8687 219.915 84.5253C225.138 90.1818 234.758 87.9047 232.993 85.5696Z" fill="#D08117" fill-opacity="0.05"/>
<path d="M26.7503 128.994C13.2969 124.947 -1.45844 104.468 -0.387955 116.26C0.62468 127.573 8.00223 134.361 15.5535 135.854C23.0903 137.348 29.5423 129.835 26.7503 128.994Z" fill="#D08117" fill-opacity="0.05"/>
<path d="M-106.44 412.332C-133.492 434.929 -173.268 393.506 -205.974 370.72C-181.862 363.7 -148.137 402.31 -124.357 402.643C-110.737 402.847 -108.574 386.5 -120.222 388.531C-119.15 391.751 -124.205 399.743 -131.555 395.29C-142.365 388.734 -134.463 372.867 -120.375 373.635C-103.065 374.578 -89.9042 398.51 -106.44 412.332Z" fill="#D08117" fill-opacity="0.05"/>
<path d="M-56.2945 593.383C-64.9308 627.611 -121.39 617.541 -161.211 618.38C-145.824 598.485 -95.9012 609.848 -76.4675 596.104C-65.3315 588.24 -73.1649 573.74 -81.3961 582.252C-78.6374 584.229 -78.0458 593.665 -86.6025 594.396C-99.1894 595.47 -102.097 577.975 -90.2508 570.294C-75.6921 560.856 -51.0159 572.459 -56.2945 593.383Z" fill="#D08117" fill-opacity="0.05"/>
<path d="M90.4124 710.309C103.49 743.088 51.9037 768.215 20.1797 792.361C20.9608 767.196 68.019 746.971 75.686 724.398C80.0836 711.472 65.2414 704.359 63.5778 716.096C66.9629 716.07 72.9809 723.355 66.4856 728.987C56.9235 737.275 44.3235 724.836 49.4011 711.64C55.6504 695.425 82.4126 690.268 90.4124 710.309Z" fill="#D08117" fill-opacity="0.05"/>
<path d="M277.647 718.444C307.447 737.256 280.439 787.981 268.938 826.21C254.819 805.39 281.017 761.299 273.987 738.52C269.98 725.471 253.792 728.46 259.333 738.94C262.052 736.919 271.195 739.272 269.242 747.656C266.363 759.989 248.874 757.357 245.243 743.687C240.802 726.888 259.42 706.944 277.647 718.444Z" fill="#D08117" fill-opacity="0.05"/>
<path d="M433.898 614.682C469.036 612.34 476.92 669.29 490.026 707C466.403 698.475 461.76 647.361 442.708 633.079C431.815 624.889 420.474 636.839 431.092 642.057C432.119 638.817 440.885 635.336 444.227 643.269C449.131 654.939 433.435 663.118 422.484 654.195C409.031 643.232 412.416 616.115 433.898 614.682Z" fill="#D08117" fill-opacity="0.05"/>
<path d="M499.477 438.657C526.529 416.06 566.296 457.469 599.004 480.269C574.903 487.289 541.168 448.679 517.386 448.346C503.774 448.143 501.604 464.489 513.263 462.458C512.193 459.224 517.242 451.246 524.59 455.699C535.396 462.24 527.498 478.108 513.408 477.339C496.107 476.396 482.943 452.479 499.477 438.657Z" fill="#D08117" fill-opacity="0.05"/>
<path d="M449.338 257.602C457.974 223.373 514.435 233.439 554.246 232.597C538.868 252.497 488.946 241.14 469.503 254.876C458.364 262.737 466.205 277.241 474.436 268.727C471.673 266.754 471.08 257.312 479.644 256.587C492.229 255.514 495.137 273.006 483.29 280.693C468.737 290.12 444.058 278.517 449.338 257.602Z" fill="#D08117" fill-opacity="0.05"/>
<path d="M302.62 140.672C289.542 107.893 341.128 82.7718 372.852 58.6226C372.057 83.7871 325.013 104.006 317.346 126.588C312.948 139.512 327.791 146.619 329.454 134.885C326.069 134.914 320.051 127.633 326.547 121.991C336.094 113.709 348.708 126.153 343.631 139.338C337.382 155.553 310.619 160.716 302.62 140.672Z" fill="#D08117" fill-opacity="0.05"/>
<path d="M115.385 132.535C85.585 113.723 112.579 63.0024 124.094 24.7697C138.212 45.5975 112 89.6754 119.031 112.461C123.052 125.515 139.225 122.527 133.699 112.041C130.965 114.057 121.837 111.707 123.79 103.324C126.654 90.9953 144.158 93.6204 147.774 107.298C152.23 124.093 133.598 144.036 115.385 132.535Z" fill="#D08117" fill-opacity="0.05"/>
<path d="M-40.8629 236.296C-75.9995 238.645 -83.895 181.688 -96.9954 143.978C-73.3695 152.506 -68.7215 203.618 -49.6784 217.905C-38.7782 226.099 -27.4455 214.148 -38.0636 208.927C-39.0849 212.161 -47.8528 215.642 -51.1902 207.708C-56.097 196.047 -40.4028 187.867 -29.4549 196.787C-16.0043 207.752 -19.3851 234.86 -40.8629 236.296Z" fill="#D08117" fill-opacity="0.05"/>
<path d="M-72.5832 285.334C-84.7781 252.207 -139.86 268.205 -179.545 271.584C-162.147 289.743 -113.704 273.151 -92.9297 284.754C-81.027 291.397 -87.2894 306.655 -96.3697 299.055C-93.8367 296.792 -94.2417 287.35 -102.827 287.539C-115.456 287.8 -116.505 305.509 -103.914 311.891C-88.4438 319.723 -65.1289 305.582 -72.5832 285.334Z" fill="#D08117" fill-opacity="0.05"/>
<path d="M-103.356 470.681C-132.64 451.072 -167.826 496.484 -197.947 522.606C-173.229 527.044 -143.763 485.069 -120.151 482.212C-106.629 480.573 -102.755 496.6 -114.553 495.802C-113.827 492.481 -119.693 485.084 -126.532 490.291C-136.594 497.949 -127.063 512.888 -113.135 510.626C-96.0206 507.855 -85.4547 482.676 -103.356 470.681Z" fill="#D08117" fill-opacity="0.05"/>
<path d="M-19.5885 638.776C-54.7757 640.168 -56.623 697.636 -65.6758 736.524C-43.0799 725.543 -43.8465 674.225 -26.4163 658.001C-16.4391 648.703 -3.91011 659.386 -13.9177 665.699C-15.2761 662.585 -24.3621 660.054 -26.8445 668.297C-30.4943 680.421 -14.0248 686.891 -4.07939 676.859C8.13721 664.529 1.91678 637.923 -19.5885 638.776Z" fill="#D08117" fill-opacity="0.05"/>
<path d="M146.718 725.4C119.073 747.264 151.26 794.846 166.739 831.641C178.587 809.441 147.875 768.374 152.461 744.978C155.079 731.576 171.484 732.835 167.086 743.841C164.164 742.122 155.325 745.427 158.161 753.558C162.313 765.518 179.426 761.047 181.596 747.069C184.258 729.893 163.614 712.035 146.718 725.4Z" fill="#D08117" fill-opacity="0.05"/>
<path d="M332.041 697.471C322.493 731.454 376.437 750.975 410.519 771.623C407.091 746.684 358.181 731.555 348.171 709.922C342.442 697.536 356.445 688.89 359.338 700.383C355.968 700.715 350.76 708.598 357.805 713.512C368.177 720.74 379.403 707.035 372.965 694.449C365.052 678.987 337.885 676.697 332.041 697.471Z" fill="#D08117" fill-opacity="0.05"/>
<path d="M465.611 565.653C477.806 598.776 532.893 582.778 572.573 579.393C555.185 561.24 506.738 577.83 485.965 566.223C474.059 559.582 480.323 544.334 489.408 551.925C486.862 554.184 487.267 563.631 495.859 563.45C508.488 563.183 509.53 545.48 496.944 539.096C481.48 531.25 458.161 545.404 465.611 565.653Z" fill="#D08117" fill-opacity="0.05"/>
<path d="M496.393 380.293C525.673 399.917 560.854 354.505 590.987 328.383C566.264 323.944 536.797 365.919 513.188 368.762C499.663 370.415 495.786 354.388 507.59 355.172C506.852 358.493 512.725 365.905 519.568 360.698C529.622 353.04 520.103 338.1 506.172 340.349C489.059 343.119 478.484 368.312 496.393 380.293Z" fill="#D08117" fill-opacity="0.05"/>
<path d="M412.615 212.204C447.811 210.812 449.649 153.347 458.704 114.461C436.108 125.441 436.875 176.756 419.443 192.986C409.476 202.283 396.949 191.594 406.945 185.284C408.305 188.388 417.389 190.927 419.877 182.688C423.523 170.563 407.06 164.094 397.108 174.116C384.884 186.445 391.104 213.06 412.615 212.204Z" fill="#D08117" fill-opacity="0.05"/>
<path d="M246.319 125.588C273.964 103.716 241.777 56.1424 226.298 19.3456C214.45 41.5368 245.162 82.6123 240.561 106.007C237.943 119.409 221.553 118.147 225.951 107.139C228.873 108.865 237.697 105.558 234.876 97.4209C230.725 85.4695 213.611 89.9367 211.441 103.919C208.78 121.091 229.408 138.946 246.319 125.588Z" fill="#D08117" fill-opacity="0.05"/>
<path d="M60.9783 153.507C70.5404 119.524 16.5965 100.002 -17.4971 79.3627C-14.0643 104.295 34.8526 119.423 44.8487 141.063C50.5917 153.449 36.5886 162.094 33.6954 150.592C37.066 150.273 42.2737 142.383 35.2287 137.466C24.8421 130.243 13.6165 143.949 20.0683 156.539C27.9813 172 55.1485 174.292 60.9783 153.507Z" fill="#D08117" fill-opacity="0.05"/>
<path d="M2.52457 299.346C20.6216 293.269 41.8577 279.04 46.0095 245.84C46.2265 244.114 50.9713 241.098 48.541 252.933C59.0145 252.701 57.5968 268.423 43.7962 267.887C43.3188 268.96 42.827 270.033 42.3062 271.063C52.3746 273.949 46.3856 288.497 33.424 283.942C32.5126 284.958 31.5868 285.915 30.6321 286.843C39.4564 292.514 29.3591 304.988 17.9888 296.387C17.1787 296.866 16.3685 297.315 15.5584 297.75C19.5511 301.55 18.3359 305.612 15.0088 307.468C14.676 311.268 11.4791 314.024 6.38702 311.921C6.32916 312.849 6.24234 313.763 6.14108 314.691C18.5963 321.595 11.3633 335.925 2.61128 330.167C2.16284 331.414 1.65663 332.662 1.10692 333.909C10.5388 343.917 -0.281921 355.331 -7.00864 347.296C-7.7247 348.195 -8.5 349.08 -9.28406 349.95C-3.16927 362.366 -16.9121 370.082 -20.9684 360.393C-30.7634 367.457 -29.9431 361.873 -28.4632 360.973C0.0798035 343.627 4.36176 318.375 2.52457 299.346Z" fill="#D08117" fill-opacity="0.05"/>
<path d="M113.536 209.115C131.734 214.844 157.252 215.859 180.08 191.449C181.252 190.187 186.879 190.535 177.953 198.687C186.575 204.662 176.203 216.555 165.368 207.984C164.341 208.578 163.314 209.144 162.301 209.666C168.738 217.933 155.372 226.186 147.546 214.859C146.229 215.134 144.913 215.381 143.596 215.569C147.415 225.33 131.922 229.479 127.771 215.83C126.845 215.729 125.919 215.627 125.008 215.497C126.006 220.921 122.65 223.503 118.874 223.039C116.371 225.911 112.162 226.259 109.283 221.559C108.69 222.27 108.082 222.966 107.46 223.662C113.493 236.586 99.2291 243.91 95.5258 234.091C94.4264 234.831 93.2979 235.556 92.1117 236.237C93.8766 249.886 78.4413 252.743 77.7036 242.286C76.6041 242.59 75.4613 242.837 74.304 243.098C71.975 256.732 56.3371 254.875 58.7385 244.65C46.6738 244.592 50.6086 240.56 52.3301 240.705C85.5875 243.49 103.858 225.591 113.536 209.115Z" fill="#D08117" fill-opacity="0.05"/>
<path d="M256.222 201.531C267.578 216.89 287.628 232.758 320.423 226.463C322.115 226.13 326.455 229.727 314.463 231.061C317.935 240.982 302.572 244.492 298.81 231.162C297.639 231.032 296.481 230.901 295.353 230.727C295.715 241.199 280.062 239.995 280.381 226.231C279.137 225.68 277.936 225.085 276.764 224.462C274.117 234.629 259.174 228.842 263.803 215.353C263.108 214.729 262.428 214.106 261.763 213.467C259.39 218.442 255.166 218.544 252.389 215.948C248.671 216.804 245.055 214.599 245.489 209.102C244.592 209.319 243.695 209.522 242.783 209.725C240.078 223.736 224.252 221.256 227.015 211.132C225.685 211.089 224.354 210.987 223.008 210.857C216.426 222.939 202.25 216.151 207.79 207.245C206.72 206.839 205.649 206.375 204.564 205.896C194.684 215.571 183.125 204.852 191.067 197.992C181.332 190.827 186.887 189.884 188.189 191.015C213.461 212.873 238.733 209.16 256.222 201.531Z" fill="#D08117" fill-opacity="0.05"/>
<path d="M376.122 279.488C376.295 298.619 383.225 323.262 413.444 337.49C415.006 338.23 416.41 343.683 405.922 337.708C402.913 347.773 388.432 341.551 393.206 328.57C392.338 327.772 391.47 326.975 390.66 326.162C384.816 334.865 372.867 324.669 381.185 313.703C380.505 312.529 379.868 311.339 379.29 310.15C371.203 316.807 362.48 303.333 374.14 295.138C373.952 294.225 373.764 293.325 373.605 292.412C368.773 295.051 365.301 292.629 364.563 288.887C361.063 287.393 359.428 283.492 363.001 279.285C362.148 278.952 361.294 278.575 360.441 278.198C350.039 287.944 338.684 276.602 346.857 270.046C345.815 269.234 344.788 268.364 343.776 267.45C331.364 273.353 323.885 259.516 333.591 255.586C332.955 254.614 332.362 253.613 331.769 252.583C318.113 254.585 315.032 239.095 325.476 238.224C321.802 226.694 326.85 229.203 327.241 230.9C334.879 263.476 357.504 275.355 376.122 279.488Z" fill="#D08117" fill-opacity="0.05"/>
<path d="M427.403 413.232C416.351 428.809 407.497 452.828 423.598 482.14C424.437 483.649 422.369 488.899 417.392 477.876C409.06 484.258 400.988 470.697 412.459 462.995C412.213 461.835 411.982 460.689 411.808 459.557C401.986 463.14 398.282 447.853 411.447 443.893C411.591 442.53 411.765 441.21 411.996 439.89C401.552 440.514 402.405 424.472 416.64 424.719C417.016 423.863 417.392 423.022 417.797 422.195C412.344 421.47 410.94 417.481 412.546 414.015C410.593 410.737 411.562 406.618 416.915 405.312C416.423 404.544 415.946 403.746 415.483 402.934C401.364 404.689 398.818 388.836 409.277 388.328C408.915 387.052 408.582 385.746 408.307 384.427C394.796 381.888 396.865 366.282 407.02 368.806C407.078 367.66 407.179 366.485 407.295 365.325C395.071 358.885 401.668 344.541 410.637 349.994C414.412 338.507 417.03 343.511 416.351 345.106C403.432 375.956 414.759 398.902 427.403 413.232Z" fill="#D08117" fill-opacity="0.05"/>
<path d="M390.5 551.64C372.417 557.72 351.181 571.943 347.015 605.145C346.813 606.865 342.053 609.892 344.498 598.045C334.01 598.283 335.442 582.558 349.228 583.095C349.72 582.016 350.198 580.948 350.733 579.926C340.664 577.041 346.653 562.489 359.615 567.037C360.526 566.028 361.452 565.06 362.407 564.135C353.583 558.476 363.68 546.001 375.05 554.59C375.86 554.121 376.656 553.666 377.466 553.237C373.488 549.438 374.689 545.377 378.016 543.52C378.349 539.718 381.56 536.95 386.638 539.058C386.71 538.139 386.797 537.211 386.883 536.283C374.428 529.379 381.676 515.049 390.428 520.807C390.876 519.574 391.382 518.327 391.932 517.08C382.5 507.072 393.306 495.657 400.048 503.692C400.756 502.793 401.538 501.908 402.319 501.024C396.2 488.623 409.942 480.906 414.007 490.595C423.801 483.532 422.976 489.116 421.501 490.015C392.959 507.362 388.663 532.599 390.5 551.64Z" fill="#D08117" fill-opacity="0.05"/>
<path d="M279.501 641.87C261.303 636.133 235.785 635.123 212.957 659.531C211.771 660.798 206.158 660.447 215.069 652.299C206.447 646.316 216.82 634.43 227.669 642.994C228.696 642.407 229.709 641.831 230.736 641.312C224.284 633.049 237.665 624.801 245.477 636.121C246.808 635.84 248.124 635.605 249.441 635.416C245.622 625.645 261.1 621.502 265.266 635.148C266.192 635.245 267.118 635.351 268.015 635.483C267.017 630.057 270.387 627.485 274.163 627.944C276.651 625.065 280.875 624.716 283.754 629.416C284.347 628.709 284.955 628.012 285.577 627.318C279.544 614.394 293.808 607.068 297.511 616.884C298.611 616.143 299.739 615.432 300.911 614.749C299.16 601.094 314.596 598.232 315.333 608.7C316.433 608.396 317.576 608.138 318.733 607.889C321.062 594.245 336.7 596.102 334.298 606.334C346.363 606.391 342.428 610.426 340.707 610.278C307.449 607.496 289.179 625.387 279.501 641.87Z" fill="#D08117" fill-opacity="0.05"/>
<path d="M136.806 649.455C125.435 634.088 105.385 618.232 72.6054 624.522C70.9129 624.853 66.5731 621.257 78.5655 619.921C75.0936 610.001 90.4565 606.498 94.2032 619.82C95.3749 619.945 96.5467 620.081 97.6751 620.265C97.299 609.779 112.951 610.987 112.647 624.754C113.877 625.307 115.092 625.893 116.264 626.515C118.911 616.361 133.855 622.136 129.226 635.627C129.92 636.252 130.6 636.88 131.251 637.519C133.623 632.54 137.847 632.441 140.639 635.039C144.357 634.182 147.959 636.384 147.54 641.885C148.436 641.659 149.333 641.456 150.245 641.26C152.935 627.25 168.776 629.728 166.013 639.85C167.344 639.898 168.675 639.992 170.02 640.133C176.602 628.047 190.764 634.832 185.224 643.731C186.294 644.139 187.379 644.603 188.45 645.08C198.344 635.415 209.903 646.135 201.961 652.997C211.697 660.154 206.142 661.099 204.84 659.964C179.553 638.111 154.295 641.82 136.806 649.455Z" fill="#D08117" fill-opacity="0.05"/>
<path d="M16.9136 571.49C16.7255 552.365 9.79623 527.712 -20.4075 513.484C-21.9741 512.758 -23.3759 507.29 -12.8923 513.281C-9.87901 503.215 4.603 509.422 -0.170792 522.418C0.697159 523.201 1.56508 523.999 2.37518 524.811C8.21945 516.109 20.1684 526.32 11.8504 537.27C12.5303 538.445 13.1523 539.636 13.7455 540.829C21.832 534.166 30.5405 547.655 18.8809 555.84C19.0834 556.753 19.2715 557.663 19.4162 558.568C24.2623 555.938 27.7342 558.348 28.472 562.092C31.9728 563.585 33.6074 567.497 30.0343 571.697C30.8878 572.039 31.7414 572.406 32.5948 572.785C42.9815 563.039 54.3372 574.376 46.1784 580.936C47.2199 581.757 48.247 582.62 49.2452 583.528C61.6571 577.631 69.1505 591.467 59.4438 595.404C60.0803 596.363 60.6733 597.373 61.2664 598.393C74.9224 596.399 78.0037 611.886 67.5448 612.761C71.2191 624.283 66.185 621.776 65.7944 620.088C58.1563 587.514 35.5314 575.62 16.9136 571.49Z" fill="#D08117" fill-opacity="0.05"/>
<path d="M-34.3817 437.757C-23.3137 422.18 -14.472 398.161 -30.5684 368.848C-31.406 367.325 -29.3373 362.075 -24.3654 373.098C-16.0257 366.731 -7.95656 380.292 -19.4325 387.994C-19.1895 389.139 -18.9594 390.3 -18.7843 391.431C-8.95177 387.834 -5.26149 403.136 -18.4155 407.095C-18.5573 408.444 -18.741 409.779 -18.9695 411.084C-8.52071 410.475 -9.37704 426.516 -23.6073 426.255C-23.9834 427.111 -24.3697 427.967 -24.7733 428.779C-19.3182 429.504 -17.9178 433.507 -19.5206 436.974C-17.5619 440.237 -18.5327 444.371 -23.8822 445.662C-23.3918 446.445 -22.9216 447.243 -22.4558 448.055C-8.33116 446.285 -5.78951 462.153 -16.2456 462.646C-15.881 463.922 -15.557 465.227 -15.2735 466.562C-1.77811 469.1 -3.83224 484.706 -13.986 482.168C-14.0424 483.314 -14.1494 484.489 -14.2695 485.664C-2.04567 492.104 -8.64227 506.448 -17.6054 500.995C-21.3883 512.482 -23.9994 507.478 -23.3253 505.882C-10.41 475.032 -21.7355 452.072 -34.3817 437.757Z" fill="#D08117" fill-opacity="0.05"/>
<path d="M-23.0859 282.694C11.53 282.419 32.882 244.085 23.1174 228.449C23.1174 228.449 42.3572 244.737 27.3993 249.973C31.2183 253.324 29.7283 263.999 18.9366 261.649C27.2401 269.786 19.8046 280.301 9.77963 275.848C14.9585 284.377 4.948 292.441 -3.31935 286.611C-3.02713 289.482 -4.50999 291.89 -6.83614 293.253C-7.12834 295.937 -8.71663 298.286 -11.4507 299.185C-2.76819 304.378 -6.03909 316.837 -15.9122 315.56C-7.76778 322.929 -14.3194 334.024 -25.1125 329.745C-18.5695 338.651 -27.6875 344.38 -32.295 342.248C-30.9612 358.072 -53.6396 347.107 -53.6396 347.107C-35.424 349.659 -9.21725 314.487 -23.0859 282.694Z" fill="#D08117" fill-opacity="0.05"/>
<path d="M102.569 180.543C130.734 200.718 170.487 182.298 171.76 163.892C171.76 163.892 177.764 188.404 162.603 183.82C163.717 188.781 156.253 196.555 148.904 188.288C150.857 199.76 138.676 203.894 133.179 194.379C132.369 204.329 119.538 204.953 116.268 195.366C114.822 197.875 112.204 198.934 109.527 198.673C107.719 200.674 105.057 201.631 102.323 200.747C106.301 210.058 96.3487 218.224 89.1012 211.378C91.3724 222.126 79.5681 227.246 73.3477 217.412C73.42 228.478 62.6862 227.739 60.2125 223.301C52.0102 236.891 40.0903 214.656 40.0903 214.656C53.3267 227.463 95.1625 214.438 102.569 180.543Z" fill="#D08117" fill-opacity="0.05"/>
<path d="M264.112 171.956C275.063 204.88 318.027 213.394 329.846 199.267C329.846 199.267 320.342 222.633 310.751 209.985C308.755 214.67 298.165 216.541 297.066 205.533C291.916 215.961 279.634 212.117 280.763 201.181C274.282 208.767 263.519 201.703 266.499 192.029C263.866 193.189 261.118 192.522 259.107 190.724C256.474 191.275 253.769 190.477 252.062 188.157C249.82 198.034 236.988 198.774 235.151 188.969C230.681 199.006 218.125 196.192 218.862 184.574C212.425 193.567 204.179 186.634 204.772 181.586C190.176 187.751 193.561 162.731 193.561 162.731C196.773 180.89 238.247 195.017 264.112 171.956Z" fill="#D08117" fill-opacity="0.05"/>
<path d="M399.827 260.213C389.382 293.311 419.154 325.51 437.005 321.043C437.005 321.043 415.609 334.357 415.262 318.475C410.908 321.072 401.245 316.343 406.8 306.8C396.529 312.195 388.833 301.854 396.167 293.674C386.475 295.98 381.918 283.941 390.004 277.85C387.184 277.241 385.361 275.094 384.782 272.454C382.323 271.337 380.602 269.104 380.587 266.217C372.978 272.889 362.172 265.927 366.425 256.906C356.935 262.388 348.429 252.714 355.821 243.751C345.348 247.232 342.729 236.774 346.172 233.032C330.751 229.421 348.169 211.175 348.169 211.175C340.111 227.753 365.383 263.621 399.827 260.213Z" fill="#D08117" fill-opacity="0.05"/>
<path d="M457.896 411.606C430.048 432.217 435.242 475.816 452.312 482.72C452.312 482.72 427.198 480.878 436.225 467.824C431.177 467.36 426.128 457.845 436.225 453.392C424.739 451.71 424.595 438.801 435.314 436.51C426.128 432.666 429.484 420.236 439.596 420.077C437.672 417.93 437.469 415.102 438.554 412.636C437.209 410.286 437.122 407.458 438.8 405.123C428.746 406.037 424.074 394.027 432.811 389.241C421.904 388.081 420.703 375.245 431.943 372.344C421.427 368.993 425.448 358.986 430.424 357.999C420.067 345.975 444.847 341.479 444.847 341.479C428.602 350.153 428.038 394.056 457.896 411.606Z" fill="#D08117" fill-opacity="0.05"/>
<path d="M416.124 568.295C381.506 568.564 360.154 606.901 369.905 622.536C369.905 622.536 350.679 606.247 365.637 601.012C361.818 597.663 363.308 586.982 374.1 589.336C365.796 581.203 373.232 570.678 383.257 575.131C378.064 566.611 388.088 558.537 396.349 564.368C396.059 561.496 397.549 559.088 399.864 557.725C400.168 555.043 401.744 552.703 404.478 551.798C395.799 546.609 399.068 534.151 408.948 535.413C400.804 528.06 407.357 516.964 418.149 521.243C411.61 512.323 420.724 506.608 425.324 508.74C423.993 492.902 446.676 503.867 446.676 503.867C428.449 501.314 402.251 536.501 416.124 568.295Z" fill="#D08117" fill-opacity="0.05"/>
<path d="M290.454 670.436C262.303 650.257 222.55 668.69 221.277 687.088C221.277 687.088 215.259 662.572 230.434 667.156C229.305 662.194 236.784 654.433 244.119 662.694C242.18 651.221 254.361 647.091 259.858 656.599C260.668 646.653 273.499 646.022 276.769 655.613C278.215 653.116 280.834 652.042 283.51 652.309C285.318 650.311 287.965 649.353 290.714 650.235C286.736 640.921 296.688 632.765 303.921 639.609C301.65 628.858 313.455 623.739 319.689 633.564C319.617 622.497 330.351 623.24 332.825 627.68C341.027 614.087 352.947 636.326 352.947 636.326C339.696 623.524 297.875 636.54 290.454 670.436Z" fill="#D08117" fill-opacity="0.05"/>
<path d="M128.922 679.02C117.971 646.101 75.0067 637.587 63.1879 651.722C63.1879 651.722 72.6921 628.344 82.2831 640.991C84.2794 636.315 94.8686 634.438 95.968 645.451C101.118 635.021 113.4 638.861 112.271 649.794C118.752 642.218 129.5 649.275 126.535 658.959C129.168 657.793 131.902 658.463 133.912 660.258C136.56 659.707 139.265 660.498 140.972 662.827C143.2 652.946 156.045 652.213 157.883 662.019C162.353 651.981 174.895 654.796 174.171 666.413C180.609 657.419 188.855 664.344 188.261 669.398C202.858 663.233 199.458 688.248 199.458 688.248C196.261 670.086 154.787 655.971 128.922 679.02Z" fill="#D08117" fill-opacity="0.05"/>
<path d="M-6.80336 590.764C3.63245 557.677 -26.1314 525.464 -43.9768 529.946C-43.9768 529.946 -22.5799 516.631 -22.2385 532.513C-17.8813 529.902 -8.21233 534.63 -13.7789 544.189C-3.4964 538.787 4.18219 549.132 -3.13332 557.31C6.5546 555.001 11.1115 567.047 3.02493 573.129C5.84583 573.736 7.66849 575.896 8.24713 578.533C10.6919 579.641 12.4278 581.879 12.4423 584.767C20.0514 578.09 30.8576 585.06 26.6046 594.081C36.0944 588.591 44.6004 598.268 37.2082 607.236C47.6816 603.752 50.2856 614.214 46.8427 617.95C62.278 621.568 44.8608 639.805 44.8608 639.805C52.9184 623.224 27.6461 587.364 -6.80336 590.764Z" fill="#D08117" fill-opacity="0.05"/>
<path d="M-64.8621 439.382C-37.0193 418.771 -42.2213 375.158 -59.2797 368.268C-59.2797 368.268 -34.1666 370.11 -43.2006 383.164C-38.1462 383.613 -33.0946 393.143 -43.2006 397.595C-31.716 399.278 -31.5642 412.172 -42.2821 414.478C-33.0947 418.307 -36.4623 430.752 -46.5698 430.897C-44.6472 433.058 -44.4375 435.886 -45.5196 438.352C-44.1829 440.687 -44.0961 443.515 -45.7799 445.865C-35.713 444.951 -31.052 456.96 -39.7837 461.747C-28.8821 462.907 -27.6757 475.743 -38.9173 478.644C-28.3976 481.994 -32.4191 492.002 -37.3954 492.988C-27.0377 505.012 -51.8151 509.494 -51.8151 509.494C-35.5799 500.835 -35.0027 456.931 -64.8621 439.382Z" fill="#D08117" fill-opacity="0.05"/>
<path d="M-137.308 208.405C-134.291 209.972 -132.814 210.9 -132.362 211.625C-133.201 211.509 -134.658 210.537 -137.308 208.405Z" fill="#D08117" fill-opacity="0.05"/>
<path d="M53.703 53.1391C55.2365 56.1705 55.8875 57.8094 55.8296 58.6507C55.222 58.056 54.5999 56.417 53.703 53.1391Z" fill="#D08117" fill-opacity="0.05"/>
<path d="M299.282 40.0865C298.732 43.4514 298.298 45.1483 297.763 45.801C297.604 44.9598 298.081 43.2774 299.282 40.0865Z" fill="#D08117" fill-opacity="0.05"/>
<path d="M505.595 174.248C503.179 176.641 501.834 177.772 501.009 177.975C501.385 177.207 502.76 176.119 505.595 174.248Z" fill="#D08117" fill-opacity="0.05"/>
<path d="M593.846 404.384C590.49 404.891 588.754 405.007 587.958 404.703C588.711 404.296 590.461 404.224 593.846 404.384Z" fill="#D08117" fill-opacity="0.05"/>
<path d="M530.343 642.573C527.319 641.014 525.844 640.079 525.396 639.358C526.234 639.477 527.696 640.449 530.343 642.573Z" fill="#D08117" fill-opacity="0.05"/>
<path d="M339.322 797.847C337.803 794.807 337.152 793.178 337.21 792.329C337.818 792.921 338.425 794.563 339.322 797.847Z" fill="#D08117" fill-opacity="0.05"/>
<path d="M93.7616 810.894C94.3113 807.535 94.7453 805.836 95.2805 805.184C95.4252 806.022 94.9623 807.709 93.7616 810.894Z" fill="#D08117" fill-opacity="0.05"/>
<path d="M-112.558 676.731C-110.146 674.336 -108.801 673.215 -107.979 673.009C-108.351 673.772 -109.722 674.86 -112.558 676.731Z" fill="#D08117" fill-opacity="0.05"/>
<path d="M-200.82 446.605C-197.466 446.083 -195.721 445.967 -194.934 446.286C-195.684 446.692 -197.431 446.765 -200.82 446.605Z" fill="#D08117" fill-opacity="0.05"/>
<path d="M-129.361 213.583C-113.097 206.404 -105.944 209.986 -105.149 208.231C-82.6445 156.785 -136.859 119.075 -135.948 117.537C-133.381 113.157 -110.278 135.842 -102.003 156.046C-94.9754 173.059 -96.085 184.503 -95.1953 200.21C-90.9351 202.879 -81.574 210.914 -73.7161 233.048C-73.7161 233.048 -69.9664 227.188 -64.2118 237.703C-49.7197 264.188 -56.7359 251.41 -52.574 245.666C-50.4142 242.693 -40.6033 265.015 -29.8695 264.492C-34.7026 248.785 -15.5582 275.037 -1.81833 256.08C8.62616 241.663 -7.7899 255.268 -8.7085 251.308C14.2245 237.805 -16.2598 210.537 -4.97913 203.677C-4.58565 210.784 11.6496 217.296 10.6081 243.113C9.5665 268.916 -12.4321 280.476 -43.1681 268.22C-82.5548 252.497 -95.6061 197.745 -94.6543 207.317C-93.5505 219.414 -91.3574 230.524 -87.4285 240.851C-98.4328 241.46 -109.45 243.984 -120.915 247.914C-130.011 250.931 -74.8357 240.561 -44.4585 270.207C-20.7529 293.341 -22.3051 318.186 -45.3872 329.673C-68.4692 341.146 -81.0171 328.948 -87.6584 331.486C-86.0064 318.36 -48.7433 335.156 -45.798 308.643C-41.8198 307.874 -47.5108 328.441 -38.6474 313.008C-26.982 292.703 -58.7032 285.886 -42.426 283.899C-46.3203 273.862 -70.6565 273.978 -68.8208 270.787C-65.2882 264.637 -50.799 265.856 -80.8248 263.39C-92.7506 262.404 -88.933 256.573 -88.933 256.573C-112.3 258.415 -123.437 253.121 -127.596 250.307C-142.269 255.891 -152.239 261.577 -170.597 262.085C-192.365 262.752 -222.455 250.844 -219.514 246.71C-218.475 245.245 -162.034 279.504 -124.354 237.921C-123.079 236.471 -129.263 231.394 -129.361 213.583ZM-113.631 223.809C-113.249 223.214 -112.87 222.605 -112.492 221.996C-113.103 222.474 -113.715 222.924 -114.327 223.359C-114.466 224.084 -114.629 224.838 -114.817 225.593C-114.412 224.998 -114.017 224.403 -113.631 223.809ZM-107.39 227.87C-107.328 223.939 -108.089 223.968 -109.067 226.782C-111.228 228.812 -110.939 229.523 -107.39 227.87ZM-100.539 232.322C-99.7419 230.625 -98.3837 228.928 -96.2977 227.376C-101.954 200.472 -96.1327 197.411 -102.9 213.133C-103.918 218.747 -104.559 224.215 -104.83 229.538C-109.556 231.945 -114.275 234.759 -118.982 237.979C-130.539 250.597 -130.119 244.013 -103.306 238.211C-102.747 235.673 -101.754 233.744 -100.539 232.322Z" fill="#D08117" fill-opacity="0.05"/>
<path d="M57.1189 62.0001C74.4781 65.7856 78.1525 72.8927 79.8306 71.9499C128.205 43.58 106.448 -18.8744 108.083 -19.5851C112.726 -21.6157 118.122 10.3657 112.972 31.5851C108.69 49.4831 101.081 58.0839 92.5895 71.3261C94.4701 75.9819 97.3344 88.0058 90.7089 110.545C90.7089 110.545 97.1898 108.007 95.6709 119.915C91.8808 149.88 93.689 135.405 100.416 133.215C103.917 132.084 98.7666 155.928 107.764 161.817C113.059 146.254 113.146 178.787 135.38 171.549C152.277 166.037 131.026 167.372 132.603 163.63C159.076 166.226 150.396 126.195 163.546 127.283C159.683 133.273 168.999 148.111 153.029 168.373C137.058 188.649 112.495 185.038 94.8174 157.002C72.1635 121.061 93.7035 69.0926 88.8719 77.3889C82.6659 87.8173 77.9211 98.1006 75.0568 108.776C65.7841 102.785 55.3973 98.3326 43.8245 94.7501C34.6819 91.8348 85.4 115.955 92.6041 157.843C98.2169 190.535 82.391 209.724 56.9886 205.402C31.5862 201.094 28.5918 183.82 21.7204 181.963C30.7617 172.318 51.0576 207.867 68.981 188.156C72.6554 189.882 55.9905 203.168 72.2069 195.901C93.5588 186.343 71.8886 162.136 86.2245 170.128C88.9586 159.699 69.1979 145.456 72.554 143.962C79.0204 141.062 90.0291 150.591 67.1728 130.894C58.1026 123.077 64.6123 120.611 64.6123 120.611C44.6346 108.326 38.718 97.4769 37.011 92.7486C21.8651 88.6295 10.4657 87.3531 -4.68456 76.9392C-22.6847 64.6543 -40.0526 37.2852 -35.2499 35.6752C-33.5501 35.1096 -7.97266 96.0846 46.8913 84.641C48.7719 84.2348 46.7467 76.4751 57.1189 62.0001ZM63.8456 79.55C64.4966 79.2889 65.1619 79.0278 65.8273 78.7522C65.0462 78.7812 64.2939 78.7813 63.5417 78.7668C63.0065 79.2745 62.4279 79.7821 61.8347 80.2897C62.5146 80.0432 63.1801 79.7965 63.8456 79.55ZM66.5073 86.5119C68.8652 83.3645 68.2288 82.944 65.7985 84.641C62.8474 85.0181 62.6737 85.7577 66.5073 86.5119ZM69.4438 94.1411C71.0785 93.2418 73.1761 92.6761 75.7655 92.6471C86.9767 67.5551 93.4721 68.4979 78.789 77.2293C74.6662 81.1744 70.934 85.2211 67.6068 89.3692C62.3701 88.528 56.9018 88.0203 51.2022 87.8607C34.465 91.2547 38.6602 86.1783 63.7443 97.2884C65.6972 95.5624 67.6211 94.5762 69.4438 94.1411Z" fill="#D08117" fill-opacity="0.05"/>
<path d="M296.837 49.267C308.67 62.5527 307.47 70.4863 309.379 70.7039C365.146 76.2589 384.154 12.9198 385.905 13.3114C390.852 14.3992 376.458 43.4363 359.851 57.5778C345.891 69.5291 334.695 72.0092 320.07 77.7093C318.854 82.5972 314.124 94.0119 295.55 108.342C295.55 108.342 302.276 110.097 294.089 118.843C273.445 140.845 283.384 130.214 290.125 132.404C293.611 133.535 275.471 149.794 279.29 159.875C292.685 150.404 273.706 176.772 295.94 184.024C312.822 189.521 294.855 178.077 298.327 175.974C318.232 193.669 334.666 156.176 344.662 164.806C338.036 167.388 336.879 184.865 312.07 191.856C287.26 198.847 269.511 181.442 271.637 148.344C274.386 105.92 322.283 76.5635 313.502 80.4216C302.363 85.2079 292.497 90.734 283.919 97.6814C279.941 87.369 274.14 77.6514 266.878 67.9337C261.193 60.1885 288.085 109.589 269.352 147.72C254.726 177.483 230.684 183.676 212.659 165.212C194.634 146.749 202.345 131.012 197.875 125.471C210.836 122.991 206.424 163.704 232.478 158.323C234.445 161.876 213.165 162.805 230.554 166.489C253.424 171.333 250.083 138.989 256.997 153.899C265.315 147.082 257.677 123.905 261.28 124.673C268.194 126.138 271.521 140.323 264.592 110.938C261.829 99.2624 268.542 101.104 268.542 101.104C259.573 79.3919 261.149 67.1359 262.538 62.2916C252.701 50.0356 244.224 42.2906 238.076 24.9292C230.727 4.37701 232.709 -27.9815 237.541 -26.4585C239.248 -25.9219 224.203 38.4759 275.283 61.5664C277.047 62.3351 279.97 54.8655 296.837 49.267ZM291.991 67.426C292.671 67.6001 293.365 67.7741 294.06 67.9481C293.423 67.513 292.801 67.0779 292.208 66.6283C291.47 66.7153 290.703 66.7879 289.937 66.8459C290.631 67.0489 291.311 67.2375 291.991 67.426ZM290.067 74.6346C293.814 73.4743 293.553 72.7635 290.588 72.691C287.984 71.2696 287.405 71.7628 290.067 74.6346ZM287.955 82.5393C289.807 82.7713 291.846 83.5545 293.958 85.0629C317.74 71.3566 322.442 75.9544 305.444 74.3589C299.788 75.1277 294.407 76.2009 289.286 77.5933C285.539 73.8223 281.402 70.1963 276.888 66.7009C261.352 59.5794 267.731 57.9404 281.517 81.727C284.092 81.4804 286.233 81.8141 287.955 82.5393Z" fill="#D08117" fill-opacity="0.05"/>
<path d="M498.23 180.238C500.009 197.962 494.396 203.677 495.814 204.967C537.679 242.33 590.191 202.284 591.377 203.633C594.733 207.433 566.061 222.459 544.348 224.098C526.048 225.549 515.531 220.951 500.342 216.948C496.508 220.182 485.992 226.622 462.557 227.275C462.557 227.275 466.969 232.67 455.222 234.904C425.625 240.531 439.903 237.79 444.055 243.534C446.224 246.522 422.008 248.973 419.202 259.372C435.592 259.619 404.765 269.757 418.507 288.728C428.952 303.131 421.126 283.275 425.162 283.623C430.876 309.672 466.159 289.018 469.197 301.898C462.325 300.07 451.128 313.545 426.97 304.567C402.797 295.603 398.646 271.062 419.766 245.535C446.861 212.843 502.816 217.31 493.456 215.265C481.637 212.582 470.412 211.233 459.403 211.799C462.224 201.109 463.237 189.825 463.063 177.685C463.005 168.069 455.786 223.895 418.276 243.693C389.011 259.155 365.923 249.988 362.162 224.432C358.415 198.876 373.865 190.681 373.504 183.56C385.438 189.202 357.996 219.529 382.227 230.538C381.735 234.57 363.985 222.793 375.876 236.006C391.543 253.411 407.817 225.273 404.664 241.402C415.397 240.792 422.789 217.542 425.263 220.284C430.008 225.549 424.366 238.994 435.997 211.132C440.612 200.051 444.952 205.504 444.952 205.504C450.434 182.646 458.897 173.668 462.846 170.564C462.079 154.841 459.765 143.586 464.958 125.92C471.063 104.962 491.648 79.9427 494.657 84.0328C495.727 85.4687 445.791 128.705 473.594 177.482C474.563 179.15 481.305 174.828 498.23 180.238ZM483.663 192.073C484.111 192.624 484.574 193.176 485.037 193.712C484.777 192.987 484.531 192.262 484.314 191.551C483.663 191.189 482.997 190.797 482.346 190.391C482.78 190.957 483.229 191.522 483.663 192.073ZM477.891 196.773C481.594 198.035 481.811 197.309 479.439 195.511C478.18 192.813 477.413 192.871 477.891 196.773ZM471.54 201.922C472.9 203.212 474.101 205.026 474.925 207.491C502.194 210.421 503.308 216.919 490.491 205.606C485.456 202.893 480.48 200.587 475.518 198.702C474.694 193.451 473.479 188.07 471.873 182.588C463.482 167.678 469.602 170.1 466.81 197.469C469.052 198.789 470.571 200.326 471.54 201.922Z" fill="#D08117" fill-opacity="0.05"/>
<path d="M584.388 404.89C575.434 420.279 567.55 421.584 567.94 423.484C579.889 478.367 645.854 476.917 646.028 478.701C646.52 483.763 614.521 479.02 595.99 467.548C580.323 457.931 574.508 448.011 564.584 435.827C559.579 436.19 547.283 435.203 527.956 421.918C527.956 421.918 528.361 428.88 517.54 423.76C490.286 410.88 503.451 417.073 503.451 424.166C503.451 427.85 482.431 415.579 474.055 422.324C487.176 432.187 456.291 422.222 456.291 445.661C456.291 463.472 461.6 442.804 464.652 445.458C454.02 469.912 494.669 474.002 489.563 486.2C485.078 480.674 468.124 484.967 453.846 463.472C439.554 441.977 450.577 419.67 482.634 411.475C523.703 400.988 566.363 437.582 559.984 430.403C551.999 421.265 543.71 413.578 534.48 407.53C543.015 400.553 550.451 392.01 557.423 382.09C563.022 374.272 524.455 415.188 482.504 409.111C449.767 404.353 436.444 383.337 448.393 360.45C460.342 337.562 477.643 340.042 481.534 334.067C487.885 345.67 447.901 354.039 461.051 377.216C458.288 380.19 450.837 360.189 452.704 377.898C455.177 401.206 484.847 388.036 472.826 399.219C481.867 405.05 501.483 390.618 501.874 394.273C502.626 401.337 490.185 408.893 515.92 393.185C526.148 386.963 526.48 393.925 526.48 393.925C544.303 378.667 556.411 376.39 561.43 376.216C570.023 363.031 574.754 352.56 589.307 341.333C606.536 327.975 637.855 319.867 637.898 324.944C637.913 326.742 572.179 332.283 566.06 388.138C565.886 390.052 573.871 390.531 584.388 404.89ZM565.669 405.876C565.712 406.587 565.756 407.298 565.814 408.008C566.016 407.269 566.248 406.544 566.494 405.833C566.175 405.151 565.872 404.455 565.582 403.73C565.597 404.455 565.626 405.166 565.669 405.876ZM558.233 406.268C560.49 409.488 561.098 409.009 560.23 406.166C560.779 403.237 560.129 402.845 558.233 406.268ZM550.089 406.703C550.436 408.545 550.321 410.721 549.539 413.201C569.893 431.635 566.985 437.553 563.253 420.845C560.779 415.696 558.089 410.895 555.196 406.442C557.597 401.699 559.767 396.637 561.691 391.256C563.644 374.243 567.159 379.813 548.859 400.307C549.901 402.685 550.234 404.847 550.089 406.703Z" fill="#D08117" fill-opacity="0.05"/>
<path d="M522.384 637.405C506.124 644.578 498.978 640.992 498.182 642.749C475.673 694.201 529.891 731.9 528.98 733.451C526.405 737.826 503.303 715.133 495.028 694.935C488.012 677.922 489.112 666.479 488.229 650.767C483.962 648.106 474.602 640.069 466.747 617.929C466.747 617.929 463 623.8 457.243 613.282C442.748 586.799 449.764 599.57 445.598 605.312C443.442 608.294 433.634 585.963 422.901 586.494C427.732 602.203 408.594 575.944 394.851 594.906C384.406 609.315 400.825 595.717 401.737 599.674C378.794 613.18 409.288 640.445 398.004 647.31C397.614 640.191 381.383 633.683 382.424 607.872C383.466 582.06 405.454 570.505 436.195 582.769C475.586 598.492 488.634 653.233 487.679 643.67C486.58 631.576 484.381 620.46 480.461 610.136C491.455 609.522 502.478 606.997 513.95 603.074C523.035 600.048 467.861 610.421 437.482 580.775C413.787 557.641 415.335 532.787 438.423 521.314C461.496 509.842 474.038 522.04 480.692 519.501C479.029 532.628 441.779 515.832 438.828 542.336C434.849 543.11 440.535 522.547 431.681 537.965C420.007 558.285 451.731 565.102 435.457 567.083C439.348 577.125 463.68 577.001 461.858 580.196C458.313 586.348 443.833 585.132 473.85 587.599C485.784 588.58 481.965 594.405 481.965 594.405C505.328 592.57 516.467 597.862 520.619 600.678C535.302 595.083 545.269 589.402 563.626 588.897C585.398 588.236 615.487 600.134 612.551 604.267C611.509 605.732 555.062 571.475 517.378 613.058C516.105 614.504 522.297 619.588 522.384 637.405ZM506.659 627.175C506.283 627.768 505.892 628.373 505.516 628.987C506.124 628.508 506.746 628.055 507.353 627.628C507.498 626.892 507.657 626.147 507.845 625.394C507.44 625.99 507.049 626.583 506.659 627.175ZM500.424 623.117C500.352 627.04 501.119 627.018 502.088 624.206C504.258 622.165 503.968 621.459 500.424 623.117ZM493.567 618.661C492.772 620.352 491.412 622.049 489.329 623.6C494.985 650.511 489.155 653.577 495.925 637.856C496.952 632.233 497.589 626.762 497.864 621.452C502.58 619.04 507.31 616.221 512.011 612.996C523.57 600.389 523.15 606.968 496.33 612.765C495.78 615.308 494.782 617.244 493.567 618.661Z" fill="#D08117" fill-opacity="0.05"/>
<path d="M335.918 788.982C318.559 785.199 314.87 778.083 313.192 779.035C264.832 807.4 286.589 869.849 284.939 870.565C280.296 872.594 274.914 840.617 280.064 819.401C284.346 801.498 291.956 792.893 300.447 779.655C298.567 774.994 295.702 762.974 302.328 740.431C302.328 740.431 295.847 742.972 297.351 731.071C301.156 701.106 299.348 715.571 292.621 717.765C289.12 718.902 294.27 695.056 285.272 689.162C279.978 704.719 279.891 672.191 257.657 679.434C240.76 684.937 262.011 683.61 260.434 687.35C233.961 684.76 242.641 724.785 229.491 723.693C233.339 717.701 224.023 702.871 239.993 682.602C255.978 662.332 280.542 665.948 298.219 693.984C320.859 729.914 299.333 781.893 304.165 773.596C310.371 763.161 315.101 752.875 317.98 742.209C327.238 748.198 337.639 752.647 349.212 756.23C358.34 759.144 307.622 735.019 300.433 693.131C294.82 660.445 310.646 641.255 336.048 645.574C361.45 649.891 364.445 667.159 371.302 669.016C362.275 678.662 341.979 643.114 324.056 662.822C320.381 661.105 337.046 647.816 320.83 655.077C299.478 664.637 321.148 688.848 306.812 680.857C304.078 691.276 323.839 705.518 320.483 707.021C314.016 709.914 303.008 700.394 325.849 720.084C334.92 727.905 328.424 730.369 328.424 730.369C348.402 742.654 354.304 753.502 356.026 758.229C371.172 762.351 382.571 763.628 397.717 774.039C415.713 786.333 433.086 813.69 428.284 815.302C426.577 815.875 401.001 754.898 346.145 766.335C344.265 766.753 346.29 774.509 335.918 788.982ZM329.191 771.434C328.54 771.691 327.875 771.955 327.209 772.229C327.976 772.202 328.743 772.196 329.495 772.212C330.03 771.698 330.594 771.192 331.202 770.692C330.522 770.935 329.857 771.183 329.191 771.434ZM326.515 764.474C324.171 767.61 324.808 768.042 327.238 766.342C330.189 765.967 330.363 765.224 326.515 764.474ZM323.593 756.832C321.958 757.731 319.861 758.301 317.271 758.327C306.06 783.432 299.55 782.482 314.248 773.752C318.371 769.803 322.103 765.755 325.43 761.618C330.667 762.452 336.135 762.953 341.834 763.118C358.572 759.73 354.377 764.805 329.292 753.692C327.34 755.419 325.401 756.401 323.593 756.832Z" fill="#D08117" fill-opacity="0.05"/>
<path d="M96.1996 801.719C84.3664 788.426 85.5671 780.498 83.6431 780.282C27.8909 774.724 8.8826 838.069 7.1322 837.679C2.18481 836.585 16.5641 807.539 33.1711 793.409C47.1453 781.451 58.342 778.972 72.9672 773.268C74.1823 768.385 78.8983 756.974 97.4727 742.639C97.4727 742.639 90.7459 740.88 98.9482 732.14C119.591 710.139 109.653 720.775 102.912 718.582C99.4256 717.443 117.566 701.187 113.747 691.115C100.337 700.581 119.331 674.209 97.0966 666.966C80.2002 661.463 98.1815 672.911 94.7097 675.01C74.8044 657.311 58.3709 694.809 48.3749 686.175C55.0004 683.601 56.1576 666.112 80.9669 659.127C105.762 652.141 123.526 669.546 121.385 702.645C118.651 745.06 70.7539 774.424 79.5348 770.56C90.6592 765.77 100.525 760.243 109.103 753.306C113.096 763.611 118.897 773.337 126.159 783.055C131.83 790.794 104.952 741.388 123.685 703.258C138.296 673.507 162.353 667.307 180.378 685.772C198.388 704.234 190.692 719.97 195.162 725.517C182.2 727.998 186.613 687.278 160.559 692.66C158.592 689.104 179.871 688.174 162.483 684.491C139.612 679.646 142.954 712.001 136.039 697.089C127.721 703.906 135.359 727.074 131.757 726.312C124.828 724.845 121.501 710.652 128.445 740.047C131.208 751.72 124.495 749.881 124.495 749.881C133.45 771.595 131.873 783.851 130.499 788.687C140.336 800.95 148.798 808.701 154.961 826.048C162.31 846.602 160.328 878.97 155.496 877.444C153.775 876.905 168.834 812.501 117.754 789.422C115.975 788.651 113.067 796.119 96.1996 801.719ZM101.046 783.558C100.366 783.378 99.6715 783.201 98.9771 783.03C99.6136 783.465 100.236 783.909 100.829 784.36C101.567 784.268 102.333 784.192 103.1 784.137C102.406 783.935 101.726 783.742 101.046 783.558ZM102.97 776.353C99.2231 777.506 99.4835 778.225 102.449 778.287C105.053 779.718 105.632 779.223 102.97 776.353ZM105.067 768.444C103.216 768.207 101.19 767.434 99.0784 765.924C75.2962 779.632 70.5947 775.031 87.5923 776.627C93.2485 775.859 98.6299 774.78 103.751 773.397C107.498 777.156 111.635 780.786 116.148 784.279C131.67 791.405 125.305 793.037 111.519 769.26C108.93 769.51 106.789 769.164 105.067 768.444Z" fill="#D08117" fill-opacity="0.05"/>
<path d="M-105.195 670.748C-106.975 653.021 -101.362 647.311 -102.784 646.008C-144.636 608.65 -197.147 648.696 -198.338 647.348C-201.697 643.548 -173.03 628.531 -151.313 626.882C-133.005 625.44 -122.493 630.033 -107.313 634.039C-103.473 630.799 -92.9572 624.356 -69.5266 623.707C-69.5266 623.707 -73.9357 618.317 -62.1821 616.079C-32.5845 610.443 -46.8655 613.187 -51.0274 607.445C-53.1872 604.463 -28.9724 602.007 -26.1602 591.609C-42.556 591.364 -11.7303 581.224 -25.4716 562.26C-35.9118 547.854 -28.0856 567.705 -32.1216 567.359C-37.8444 541.311 -73.1286 561.96 -76.1564 549.082C-69.2821 550.907 -58.0911 537.443 -33.9285 546.409C-9.76726 555.375 -5.60394 579.922 -26.7374 605.44C-53.8193 638.14 -109.78 633.67 -100.414 635.716C-88.6014 638.401 -77.3786 639.744 -66.3728 639.188C-69.1908 649.872 -70.1992 661.159 -70.0213 673.302C-69.962 682.911 -62.7521 627.093 -25.243 607.285C4.02902 591.833 27.1169 600.991 30.8781 626.55C34.6248 652.106 19.175 660.297 19.5366 667.418C7.58765 661.786 35.0443 631.445 10.7992 620.445C11.3055 616.411 29.0553 628.194 17.1497 614.972C1.49744 597.572 -14.7797 625.714 -11.6276 609.58C-22.3556 610.189 -29.7593 633.435 -32.2229 630.698C-36.9663 625.43 -31.3347 611.989 -42.9538 639.857C-47.5685 650.925 -51.9155 645.483 -51.9155 645.483C-57.3953 668.333 -65.8579 677.318 -69.8115 680.415C-69.0419 696.134 -66.7332 707.396 -71.9265 725.058C-78.0254 746.019 -98.609 771.034 -101.621 766.953C-102.69 765.508 -52.7545 722.278 -80.5554 673.498C-81.5318 671.834 -88.2658 676.159 -105.195 670.748ZM-90.631 658.908C-91.078 658.361 -91.5337 657.813 -91.9995 657.263C-91.7319 657.993 -91.4918 658.717 -91.2762 659.433C-90.6224 659.791 -89.9655 660.179 -89.3073 660.589C-89.7486 660.02 -90.1898 659.459 -90.631 658.908ZM-84.8532 654.212C-88.5565 652.94 -88.7693 653.674 -86.4055 655.474C-85.1383 658.166 -84.3773 658.106 -84.8532 654.212ZM-78.5113 649.055C-79.8683 647.773 -81.0574 645.955 -81.8849 643.484C-109.159 640.562 -110.27 634.065 -97.4475 645.376C-92.4277 648.085 -87.4354 650.387 -82.4837 652.285C-81.6548 657.537 -80.4426 662.908 -78.8354 668.394C-70.448 683.308 -76.5599 680.877 -73.7723 653.517C-76.0102 652.196 -77.5407 650.654 -78.5113 649.055Z" fill="#D08117" fill-opacity="0.05"/>
<path d="M-191.359 446.096C-182.406 430.707 -174.519 429.402 -174.904 427.502C-186.861 372.618 -252.824 374.069 -252.994 372.27C-253.485 367.223 -221.489 371.966 -202.952 383.424C-187.295 393.055 -181.483 402.961 -171.552 415.159C-166.547 414.796 -154.261 415.782 -134.924 429.068C-134.924 429.068 -135.333 422.106 -124.51 427.212C-97.263 440.106 -110.423 433.912 -110.423 426.806C-110.423 423.121 -89.3949 435.406 -81.0234 428.648C-94.1441 418.785 -63.2605 428.749 -63.2605 405.311C-63.2605 387.5 -68.5681 408.182 -71.6306 405.514C-60.9894 381.074 -101.64 376.984 -96.5396 364.786C-92.0479 370.312 -75.101 366.005 -60.81 387.5C-46.519 408.995 -57.5421 431.316 -89.5989 439.497C-130.678 449.997 -173.331 413.404 -166.953 420.569C-158.972 429.706 -150.679 437.408 -141.448 443.442C-149.993 450.433 -157.426 458.961 -164.401 468.896C-169.985 476.699 -131.43 435.798 -89.473 441.875C-56.732 446.618 -43.4203 467.649 -55.3649 490.522C-67.3095 513.424 -84.6154 510.943 -88.4995 516.905C-94.8573 505.316 -54.8659 496.947 -68.0243 473.77C-65.2583 470.796 -57.801 490.783 -59.6787 473.073C-62.1495 449.765 -91.8108 462.95 -79.8025 451.752C-88.838 445.922 -108.455 460.368 -108.843 456.698C-109.592 449.649 -97.1559 442.093 -122.895 457.786C-133.117 464.023 -133.444 457.061 -133.444 457.061C-151.272 472.319 -163.387 474.596 -168.4 474.77C-176.993 487.94 -181.727 498.412 -196.283 509.638C-213.505 523.011 -244.823 531.119 -244.869 526.042C-244.886 524.244 -179.141 518.689 -173.036 462.848C-172.851 460.919 -180.835 460.455 -191.359 446.096ZM-172.637 445.11C-172.676 444.399 -172.724 443.688 -172.779 442.963C-172.99 443.717 -173.219 444.443 -173.464 445.139C-173.146 445.82 -172.842 446.517 -172.55 447.242C-172.573 446.517 -172.602 445.806 -172.637 445.11ZM-165.209 444.704C-167.458 441.498 -168.061 441.962 -167.202 444.82C-167.756 447.735 -167.107 448.141 -165.209 444.704ZM-157.054 444.268C-157.401 442.441 -157.297 440.265 -156.516 437.785C-176.87 419.336 -173.959 413.433 -170.217 430.141C-167.743 435.29 -165.055 440.091 -162.161 444.544C-164.569 449.287 -166.736 454.349 -168.653 459.73C-170.613 476.743 -174.13 471.173 -155.836 450.679C-156.873 448.286 -157.206 446.139 -157.054 444.268Z" fill="#D08117" fill-opacity="0.05"/>
</svg>
