<svg width="103" height="103" viewBox="0 0 103 103" fill="none" xmlns="http://www.w3.org/2000/svg">
<path d="M51.5 102.27C23.3672 102.27 0.566406 79.4688 0.566406 51.3359C0.566406 23.2031 23.3672 0.402344 51.5 0.402344C79.6328 0.402344 102.434 23.2031 102.434 51.3359C102.434 79.4688 79.6328 102.27 51.5 102.27ZM51.5 95.668C76.0273 95.668 95.8828 75.8633 95.8828 51.3359C95.8828 26.8086 76.0273 6.95312 51.5 6.95312C26.9727 6.95312 7.16797 26.8086 7.16797 51.3359C7.16797 75.8633 26.9727 95.668 51.5 95.668ZM46.0156 75.457C44.6953 75.457 43.6797 74.8984 42.6641 73.6289L29.1055 57.3789C28.5469 56.6172 28.1914 55.7539 28.1914 54.8906C28.1914 53.1641 29.5625 51.793 31.2383 51.793C32.3047 51.793 33.2188 52.1484 34.1328 53.3672L45.8125 67.7891L68.7656 31.4805C69.5273 30.3633 70.4922 29.7539 71.5078 29.7539C73.1328 29.7539 74.707 30.9219 74.707 32.6484C74.707 33.4609 74.25 34.375 73.793 35.0859L49.1133 73.6289C48.3516 74.7969 47.2852 75.457 46.0156 75.457Z" fill="#D89841"/>
</svg>
