<svg width="20" height="20" viewBox="0 0 20 20" fill="none" xmlns="http://www.w3.org/2000/svg">
<path d="M4.61198 18.0638C4.32487 18.0638 4.13737 17.9701 4.04948 17.7826C3.96159 17.601 3.99967 17.4047 4.16374 17.1937C4.25749 17.0765 4.38639 16.9183 4.55046 16.7191C4.72038 16.5199 4.89616 16.3002 5.0778 16.0599C5.2653 15.8138 5.43229 15.5736 5.57878 15.3392C5.61393 15.2689 5.62272 15.2074 5.60514 15.1547C5.58756 15.1019 5.54069 15.058 5.46452 15.0228C4.69108 14.5951 4.0319 14.0941 3.48698 13.5199C2.94792 12.9457 2.53483 12.3187 2.24772 11.639C1.96647 10.9535 1.82585 10.2386 1.82585 9.49451C1.82585 8.58044 2.03678 7.72791 2.45866 6.93689C2.88053 6.14001 3.46354 5.44275 4.20768 4.84509C4.95768 4.24158 5.8278 3.7699 6.81803 3.43005C7.80827 3.09021 8.86881 2.92029 9.99967 2.92029C11.1305 2.92029 12.1882 3.09021 13.1725 3.43005C14.1628 3.7699 15.0329 4.24158 15.7829 4.84509C16.5329 5.44275 17.1159 6.14001 17.5319 6.93689C17.9538 7.72791 18.1647 8.58044 18.1647 9.49451C18.1647 10.4789 17.945 11.3754 17.5055 12.184C17.0719 12.9867 16.4567 13.6781 15.6598 14.2582C14.8688 14.8383 13.9372 15.2865 12.8649 15.6029C11.7926 15.9135 10.6208 16.0717 9.34928 16.0775C9.33756 16.0775 9.31999 16.0775 9.29655 16.0775C9.27897 16.0775 9.25846 16.0775 9.23503 16.0775C9.17057 16.0775 9.10612 16.0892 9.04167 16.1127C8.98307 16.1302 8.92155 16.1625 8.8571 16.2094C8.52897 16.4437 8.16569 16.6722 7.76725 16.8949C7.37467 17.1176 6.97624 17.3168 6.57194 17.4926C6.1735 17.6683 5.80143 17.806 5.45573 17.9056C5.11003 18.0111 4.82878 18.0638 4.61198 18.0638ZM6.56315 10.7074C6.88542 10.7074 7.15788 10.5961 7.38053 10.3734C7.60319 10.1449 7.71452 9.87244 7.71452 9.55603C7.71452 9.23962 7.60026 8.97009 7.37174 8.74744C7.14909 8.51892 6.87956 8.40466 6.56315 8.40466C6.2526 8.40466 5.98307 8.51892 5.75456 8.74744C5.52604 8.97009 5.41178 9.23962 5.41178 9.55603C5.41178 9.87244 5.52604 10.1449 5.75456 10.3734C5.98307 10.5961 6.2526 10.7074 6.56315 10.7074ZM9.99967 10.7074C10.3219 10.7074 10.5944 10.5961 10.8171 10.3734C11.0397 10.1449 11.151 9.87244 11.151 9.55603C11.151 9.23962 11.0397 8.97009 10.8171 8.74744C10.5944 8.51892 10.3219 8.40466 9.99967 8.40466C9.68327 8.40466 9.41081 8.51892 9.18229 8.74744C8.95378 8.97009 8.83952 9.23962 8.83952 9.55603C8.83952 9.87244 8.95378 10.1449 9.18229 10.3734C9.41081 10.5961 9.68327 10.7074 9.99967 10.7074ZM13.4274 10.7074C13.7438 10.7074 14.0163 10.5961 14.2448 10.3734C14.4733 10.1449 14.5876 9.87244 14.5876 9.55603C14.5876 9.23962 14.4733 8.97009 14.2448 8.74744C14.0163 8.51892 13.7438 8.40466 13.4274 8.40466C13.111 8.40466 12.8385 8.51892 12.61 8.74744C12.3874 8.97009 12.276 9.23962 12.276 9.55603C12.276 9.87244 12.3874 10.1449 12.61 10.3734C12.8385 10.5961 13.111 10.7074 13.4274 10.7074Z" fill="#D89841"/>
</svg>
