<svg width="20" height="20" viewBox="0 0 20 20" fill="none" xmlns="http://www.w3.org/2000/svg">
<path d="M0 1.33325H19.3333V10.3899C19.3333 12.8825 18.0036 15.1859 15.8451 16.4323L9.66673 19.9999L3.48831 16.4323C1.32971 15.1859 2.21585e-06 12.8825 2.21585e-06 10.3899L0 1.33325Z" fill="#171717" fill-opacity="0.4"/>
<path fill-rule="evenodd" clip-rule="evenodd" d="M5.33203 6V9.00513C5.74296 8.54107 6.49013 8.22707 7.34443 8.22707H8.27276V11.7205C8.27276 12.6499 8.02023 13.5599 7.64556 14.0074H11.6838C11.3099 13.5595 11.058 12.6505 11.058 11.7223V8.22707H11.9864C12.8406 8.22707 13.5878 8.54107 13.9987 9.00513V6H5.33203Z" fill="#FFFDFB"/>
</svg>
